<svg width="45" height="32" viewBox="0 0 45 32" fill="none" xmlns="http://www.w3.org/2000/svg">
<path fill-rule="evenodd" clip-rule="evenodd" d="M6.57518 9.12242C6.56872 9.12862 6.392 9.15447 6.18251 9.17982C5.97301 9.20517 5.75082 9.23883 5.68874 9.25463C5.62667 9.27043 5.46796 9.30817 5.33605 9.3385C5.20415 9.36884 5.07083 9.40534 5.0398 9.41959C5.00876 9.43387 4.95162 9.45418 4.91283 9.46474C4.73098 9.51423 4.3 9.69369 3.96277 9.86034C3.60943 10.035 3.47363 10.1126 3.19794 10.2975C3.13153 10.3421 3.06488 10.3785 3.04982 10.3785C3.03475 10.3785 3.02242 10.3891 3.02242 10.402C3.02242 10.4148 2.96212 10.4649 2.8884 10.5132C2.81467 10.5616 2.71628 10.6335 2.66973 10.6731C2.28378 11.0014 1.96114 11.3124 1.74755 11.5619C1.67484 11.6469 1.58915 11.7468 1.5571 11.784C1.52501 11.8213 1.4988 11.8601 1.4988 11.8702C1.4988 11.8805 1.4766 11.9134 1.44943 11.9434C1.29515 12.1141 0.970222 12.6258 0.806687 12.9556C0.760584 13.0486 0.716314 13.1309 0.708245 13.1387C0.63418 13.21 0.286147 14.1859 0.197749 14.5702C-0.0533085 15.6616 -0.0487658 16.8495 0.210474 17.9126C0.294979 18.2591 0.397484 18.6072 0.426094 18.6449C0.43786 18.6604 0.463479 18.7238 0.483032 18.7857C0.502557 18.8477 0.534665 18.9301 0.55436 18.9688C0.574054 19.0075 0.649586 19.166 0.722211 19.3209C0.794809 19.4758 0.910378 19.6949 0.978997 19.8077C1.04764 19.9206 1.10379 20.0241 1.10379 20.0377C1.10379 20.0514 1.11386 20.0668 1.12617 20.0719C1.13847 20.0771 1.17817 20.1298 1.21442 20.1891C1.27384 20.2862 1.50944 20.5956 1.72221 20.8559C1.88089 21.0499 2.35663 21.5118 2.60963 21.7173C2.93633 21.9827 2.94632 21.9902 3.14939 22.1238C3.2425 22.1851 3.33137 22.2454 3.34689 22.2577C3.50701 22.385 4.42801 22.8288 4.70122 22.9103C4.76329 22.9288 4.83947 22.9555 4.87051 22.9695C5.11891 23.082 5.94657 23.2583 6.45055 23.3061C6.61583 23.3218 8.7371 23.3334 11.5716 23.3341L16.4105 23.3352L15.9614 23.7643C14.8813 24.7964 13.3965 26.31 12.6138 27.1767C12.5449 27.253 12.4632 27.3414 12.4321 27.3732C12.4011 27.405 12.3313 27.4832 12.277 27.5472C12.1776 27.6641 11.8101 28.0855 11.7114 28.1956C11.6361 28.2797 11.0901 28.9425 11.0155 29.0404C10.9042 29.1865 10.4968 29.7124 10.4574 29.7608C10.4364 29.7867 10.4055 29.8332 10.3889 29.8642C10.3723 29.8952 10.3427 29.9374 10.323 29.958C10.1772 30.1107 9.25795 31.6042 9.25795 31.6883C9.25795 31.6976 9.22584 31.7691 9.18662 31.847C9.14738 31.925 9.12021 31.9937 9.12621 31.9997C9.13225 32.0057 9.22466 31.9123 9.33159 31.792C9.79409 31.2719 11.1103 29.9885 11.6831 29.4991C11.7988 29.4003 11.924 29.2913 11.9614 29.257C11.9987 29.2226 12.1517 29.096 12.3012 28.9755C12.4508 28.855 12.5878 28.7437 12.6055 28.7281C12.6233 28.7125 12.679 28.6681 12.7293 28.6294C12.7796 28.5907 12.8603 28.5265 12.9086 28.4868C13.0111 28.4026 13.3643 28.1305 13.4639 28.0591C13.7064 27.8851 13.8466 27.7831 13.8711 27.7628C13.8866 27.75 13.9819 27.6831 14.0827 27.6141C14.1836 27.5451 14.2725 27.4808 14.2802 27.471C14.288 27.4613 14.4213 27.3701 14.5765 27.2683C14.7317 27.1665 14.874 27.0699 14.8927 27.0536C14.9115 27.0373 14.934 27.024 14.9428 27.024C14.9516 27.024 15.0199 26.9828 15.0945 26.9324C15.1692 26.8821 15.3225 26.7839 15.4352 26.7142C15.5479 26.6445 15.6801 26.5616 15.729 26.5301C15.8879 26.4276 16.9657 25.8355 17.3134 25.6597C17.6183 25.5054 17.8461 25.3977 18.2727 25.2057C18.6767 25.024 18.7415 24.9961 18.7606 24.9961C18.7721 24.9961 18.8256 24.9725 18.8797 24.9437C18.9338 24.9149 19.0098 24.8818 19.0486 24.8702C19.0874 24.8585 19.1572 24.8317 19.2038 24.8106C19.3199 24.758 19.9811 24.5247 20.2054 24.4572C20.3063 24.4268 20.4142 24.3908 20.4452 24.3772C20.539 24.3358 21.5894 24.0538 21.8836 23.9909C22.2941 23.9031 22.8316 23.8102 23.3091 23.7444C23.795 23.6775 24.2564 23.5857 24.3671 23.5338C24.3982 23.5193 24.4916 23.486 24.5749 23.4598C24.8826 23.363 25.2498 23.1166 25.513 22.8301C25.7055 22.6206 25.7192 22.603 25.7788 22.4868C25.8059 22.434 25.8366 22.3845 25.8469 22.3768C25.876 22.3551 26.0337 22.0163 26.1145 21.8019C26.1994 21.5768 26.2512 21.3971 26.3427 21.0108C26.3794 20.8559 26.4432 20.5897 26.4845 20.4193C26.5259 20.2489 26.5897 19.9828 26.6264 19.8278C26.6631 19.6729 26.7257 19.4131 26.7654 19.2505C26.8052 19.0878 26.8691 18.8248 26.9074 18.666C26.9457 18.5072 27.0084 18.2475 27.0467 18.0887C27.085 17.9299 27.1489 17.6669 27.1886 17.5042C27.2729 17.1595 27.3758 16.7327 27.4703 16.3354C27.5871 15.8444 27.5926 15.8428 27.5953 16.2991C27.5978 16.7297 27.6367 17.2214 27.6817 17.3916C27.696 17.4458 27.7291 17.6106 27.7552 17.7577C27.7813 17.9049 27.8137 18.0373 27.8272 18.052C27.8407 18.0668 27.8517 18.1025 27.8517 18.1316C27.8517 18.2253 28.1985 19.1803 28.2477 19.2223C28.2568 19.23 28.324 19.3568 28.3969 19.5039C28.4699 19.6511 28.5453 19.7965 28.5645 19.8271C28.7079 20.0556 28.9353 20.3925 28.9684 20.4255C28.9905 20.4476 29.0085 20.4742 29.0085 20.4847C29.0086 20.5042 29.0485 20.5541 29.2826 20.8277C29.4436 21.0158 29.9983 21.5648 30.1649 21.7008C30.2313 21.755 30.3189 21.828 30.3595 21.8629C30.4001 21.8979 30.4556 21.9336 30.4827 21.9423C30.5099 21.951 30.5321 21.9679 30.5321 21.9799C30.5321 21.9919 30.5766 22.0256 30.6309 22.0548C30.6852 22.084 30.7296 22.1148 30.7296 22.1233C30.7296 22.1317 30.7772 22.1636 30.8354 22.1941C30.8936 22.2245 30.9476 22.2573 30.9553 22.267C30.9631 22.2766 31.0139 22.307 31.0682 22.3345C31.1225 22.3621 31.1733 22.3929 31.1811 22.403C31.2182 22.4515 32.0678 22.8434 32.2532 22.8976C32.292 22.9089 32.3619 22.9349 32.4084 22.9553C32.6002 23.0394 33.1137 23.1637 33.7627 23.2831C33.881 23.3049 35.4869 23.3176 39.0919 23.3252C44.0294 23.3356 44.2511 23.334 44.2373 23.286C44.2294 23.2584 43.9188 22.6908 43.547 22.0247L42.8712 20.8136L40.5178 20.7971C39.0524 20.7868 38.1217 20.7696 38.0514 20.7515C37.5985 20.6352 37.4597 20.5926 37.2548 20.5073C37.0066 20.4039 36.7054 20.2434 36.5382 20.1255C36.4819 20.0857 36.4068 20.0342 36.3714 20.0109C36.2159 19.9088 35.8534 19.5621 35.6647 19.335C35.4192 19.0394 35.285 18.8095 35.0151 18.2224C34.972 18.1286 34.8734 17.7847 34.8254 17.5606C34.7594 17.2525 34.7596 15.2247 34.8257 14.9131C34.8788 14.6629 34.985 14.2925 35.0153 14.2518C35.0272 14.236 35.0597 14.1613 35.0876 14.0858C35.1446 13.9321 35.3633 13.5309 35.4533 13.415C35.4856 13.3734 35.5562 13.2784 35.6102 13.2038C35.7398 13.0248 36.1863 12.5833 36.3453 12.4769C36.4147 12.4304 36.4777 12.385 36.4855 12.3758C36.5587 12.2891 37.1972 11.9639 37.4448 11.8871C37.5302 11.8607 37.6254 11.8282 37.6564 11.8149C37.7375 11.7803 37.9505 11.7385 38.2992 11.6891C38.5507 11.6534 38.9706 11.6459 40.7265 11.6459C43.1173 11.6459 42.8709 11.6705 42.9952 11.4199C43.0297 11.3506 43.0953 11.2305 43.141 11.1531C43.1868 11.0756 43.2776 10.9108 43.3429 10.7869C43.4082 10.663 43.4854 10.528 43.5145 10.4868C43.5437 10.4457 43.5675 10.3991 43.5675 10.3832C43.5675 10.3674 43.5833 10.3376 43.6028 10.3171C43.6222 10.2967 43.6662 10.2229 43.7006 10.1532C43.735 10.0835 43.8013 9.96309 43.8478 9.88564C43.8943 9.80818 43.95 9.70679 43.9716 9.66032C43.9932 9.61384 44.0698 9.47654 44.1418 9.35521C44.2139 9.23387 44.2729 9.12932 44.2729 9.12284C44.2729 9.11639 42.0223 9.11118 39.2717 9.11127C34.4045 9.11144 34.2589 9.11299 33.8333 9.16875C33.2731 9.24218 32.489 9.43128 32.2109 9.55999C32.1799 9.57436 32.032 9.63717 31.8822 9.69961C31.7324 9.76202 31.5673 9.83671 31.5154 9.86555C31.4634 9.89442 31.3384 9.96131 31.2375 10.0142C31.1366 10.0671 31.0414 10.1205 31.0259 10.1328C31.0104 10.1452 30.9151 10.2075 30.8143 10.2714C30.7134 10.3352 30.5976 10.414 30.5568 10.4464C30.5161 10.4788 30.4469 10.5306 30.403 10.5616C29.8818 10.9298 29.1616 11.6968 28.7768 12.2937C28.5545 12.6385 28.5198 12.6983 28.3559 13.019C28.2747 13.1778 28.1999 13.3077 28.1895 13.3077C28.1717 13.3077 27.7226 13.6451 27.5474 13.7902C27.503 13.8269 27.424 13.8886 27.3717 13.9273C27.3194 13.966 27.1605 14.0928 27.0184 14.2089C26.8764 14.3251 26.7181 14.4519 26.6666 14.4906C26.6151 14.5293 26.4561 14.6561 26.3134 14.7722C26.1706 14.8884 26.0107 15.0173 25.9581 15.0585C25.9056 15.0998 25.8308 15.1607 25.792 15.194C25.6319 15.3312 25.4586 15.4733 24.9314 15.8992C24.3422 16.3752 24.3092 16.4022 24.2203 16.4806C24.0742 16.6095 24.0293 16.647 23.8028 16.8294C23.5678 17.0187 23.4982 17.0767 23.3649 17.1944C23.3211 17.2332 23.2658 17.2806 23.2421 17.2998C23.0893 17.4239 22.7779 17.683 22.7307 17.7255C22.6996 17.7534 22.5473 17.8815 22.3921 18.0102C22.2369 18.1389 22.1036 18.2533 22.0958 18.2644C22.0881 18.2755 22.0055 18.3459 21.9124 18.421C21.8193 18.4961 21.7291 18.5708 21.712 18.5872C21.6612 18.6355 21.398 18.8615 21.0519 19.1539C20.8734 19.3047 20.721 19.4365 20.7133 19.4468C20.7055 19.4571 20.5976 19.5532 20.4734 19.6602C20.2426 19.8592 20.2032 19.8936 19.9091 20.1513C19.816 20.2329 19.6585 20.371 19.559 20.4581C19.4596 20.5452 19.3376 20.6545 19.288 20.701C19.2384 20.7474 19.1041 20.8678 18.9895 20.9685C18.8749 21.0692 18.7481 21.1833 18.7077 21.222C18.6673 21.2607 18.5355 21.3805 18.4147 21.4882C18.294 21.5958 18.1608 21.7162 18.1188 21.7557C18.0768 21.7952 17.979 21.8846 17.9016 21.9543C17.6193 22.2082 17.0832 22.7062 16.8485 22.9325C16.6613 23.113 16.6017 23.1559 16.5798 23.1264C16.5642 23.1056 16.2659 22.5737 15.9167 21.9445L15.2819 20.8005L13.0388 20.7985C11.3254 20.7969 10.7424 20.7877 10.57 20.7594C10.3194 20.7182 9.88018 20.6076 9.83636 20.5746C9.82084 20.5629 9.75736 20.5373 9.69529 20.5176C9.63321 20.498 9.48074 20.4291 9.35642 20.3645C8.85659 20.105 8.38148 19.7151 8.05881 19.2995C8.04329 19.2795 7.99157 19.2128 7.94386 19.1512C7.86012 19.0431 7.59326 18.6167 7.59326 18.591C7.59326 18.5841 7.55638 18.4983 7.51132 18.4004C7.46627 18.3025 7.41325 18.1654 7.39353 18.0957C7.3738 18.026 7.34869 17.9563 7.33777 17.9408C7.32683 17.9253 7.29638 17.7922 7.27014 17.6451C7.2439 17.4979 7.21066 17.3244 7.19625 17.2594C7.16036 17.0977 7.16298 15.4131 7.19943 15.2065C7.27262 14.7919 7.3207 14.5588 7.33845 14.5328C7.349 14.5174 7.37389 14.4476 7.39372 14.3779C7.52952 13.9005 7.96291 13.2059 8.36746 12.8174C8.99092 12.2186 9.70914 11.853 10.5417 11.7104C10.7862 11.6685 11.123 11.66 13.0638 11.647L15.3036 11.6319L15.4429 11.3643C15.5195 11.2171 15.6177 11.039 15.6611 10.9684C15.7046 10.8979 15.749 10.8123 15.7598 10.7783C15.7706 10.7443 15.7899 10.7165 15.8027 10.7165C15.8155 10.7165 15.8475 10.6627 15.8739 10.5969C15.9003 10.5311 15.9302 10.4709 15.9404 10.4631C15.9641 10.445 16.009 10.3658 16.1638 10.0687C16.2732 9.85868 16.3398 9.74081 16.474 9.51949C16.501 9.47485 16.6096 9.26353 16.673 9.13222C16.6833 9.11102 6.59721 9.10121 6.57518 9.12242Z" fill="#0F50A4"/>
<path fill-rule="evenodd" clip-rule="evenodd" d="M24.4514 0.0141974C24.1488 0.0474601 23.9246 0.0913125 23.7037 0.160429C23.2031 0.31711 22.5971 0.647766 22.2929 0.930204C21.9041 1.29128 21.8698 1.32705 21.6438 1.60847C21.4732 1.82083 21.18 2.35794 21.1074 2.59089C21.0881 2.65285 21.0631 2.71622 21.0517 2.73172C21.0403 2.74721 20.9944 2.90563 20.9496 3.08378C20.872 3.39196 20.8681 3.43772 20.8681 4.0273C20.8681 4.5804 20.875 4.67414 20.9327 4.90041C21.1383 5.70734 21.4772 6.31911 22.0249 6.87165C22.1355 6.98321 22.4269 7.23097 22.4863 7.26387C22.5119 7.27804 22.5391 7.29733 22.5469 7.30677C22.5546 7.31617 22.5927 7.34397 22.6315 7.36853C22.6964 7.40954 22.7226 7.40881 22.956 7.35938C23.0957 7.32981 23.394 7.28156 23.6191 7.25218C23.8441 7.22278 24.0917 7.18554 24.1693 7.16943C24.2468 7.15335 24.4436 7.11451 24.6066 7.08314C25.0582 6.99619 25.7279 6.83098 26.0879 6.7177C26.5766 6.56389 27.4384 6.26064 27.615 6.18031C27.6812 6.1502 27.7443 6.12559 27.7552 6.12559C27.8081 6.12559 28.4905 5.80118 28.5198 5.76209C28.568 5.69768 28.7429 5.19319 28.8087 4.92858C28.9924 4.19046 28.9275 3.28502 28.6385 2.55633C28.5518 2.33755 28.3006 1.84838 28.2333 1.76729C28.2108 1.74006 28.1554 1.67066 28.1103 1.61306C28.0651 1.55547 28.0195 1.51705 28.0088 1.52769C27.9982 1.53837 27.9965 1.52845 28.0052 1.5057C28.0263 1.45066 27.431 0.86627 27.2619 0.775945C27.2302 0.758961 27.1706 0.714011 27.1296 0.676072C27.0886 0.638106 27.0279 0.598619 26.9947 0.588282C26.9615 0.577946 26.928 0.560117 26.9202 0.548654C26.8891 0.502661 26.4402 0.295142 26.2148 0.222589C26.0829 0.180116 25.9496 0.134911 25.9186 0.122153C25.7028 0.0334052 24.8487 -0.0294301 24.4514 0.0141974ZM37.1544 1.26672C37.0855 1.35293 36.8442 1.61562 36.5839 1.88781C36.5373 1.93648 36.4598 2.01954 36.4116 2.07238C36.3633 2.12518 36.2332 2.25533 36.1223 2.3616C36.0115 2.46784 35.9208 2.56605 35.9208 2.57988C35.9208 2.59368 35.9086 2.60497 35.8936 2.60497C35.8787 2.60497 35.7524 2.71589 35.6131 2.85142C35.4738 2.98697 35.2743 3.1739 35.1698 3.26685C35.0653 3.35979 34.9217 3.48786 34.8507 3.55146C34.6485 3.73264 34.1836 4.13264 34.0849 4.21037C34.0357 4.2491 33.9621 4.30844 33.9213 4.34221C33.7401 4.49211 33.4687 4.70799 33.3965 4.75959C33.3531 4.79057 33.2628 4.86028 33.1958 4.91449C32.9685 5.09838 32.2607 5.61284 32.0914 5.71719C31.9925 5.77814 31.9462 5.82707 31.9624 5.85332C31.9718 5.86844 31.9658 5.87238 31.9491 5.8621C31.9324 5.85182 31.8028 5.92274 31.6611 6.01969C31.5193 6.11666 31.3691 6.21504 31.3273 6.2383C31.2855 6.26157 31.2112 6.30911 31.1622 6.34392C31.1133 6.37873 31.0604 6.40723 31.0447 6.40723C31.029 6.40723 31.0119 6.4172 31.0067 6.4294C31.0015 6.44157 30.8957 6.51074 30.7716 6.5831C30.6474 6.65545 30.5332 6.7253 30.5176 6.73837C30.5021 6.75141 30.2355 6.90192 29.9251 7.07283C29.0884 7.53358 28.799 7.67547 27.6679 8.17977C27.6058 8.20745 27.4471 8.27139 27.3152 8.32186C27.1833 8.37233 27.0373 8.42931 26.9908 8.44846C26.8124 8.52183 26.0737 8.77317 25.7634 8.866C25.207 9.03249 24.9728 9.09293 24.2257 9.26293C24.0138 9.31118 23.4922 9.39539 22.9745 9.46501C22.7984 9.4887 22.6016 9.51929 22.5371 9.53303C22.1807 9.60885 21.9151 9.67645 21.8872 9.69842C21.8698 9.71213 21.8048 9.7394 21.7428 9.75903C21.6143 9.79967 21.3973 9.915 21.2023 10.0464C21.0662 10.1381 20.6847 10.5087 20.6847 10.5492C20.6847 10.5615 20.6665 10.5898 20.6443 10.612C20.5889 10.6672 20.3412 11.1492 20.2793 11.322C20.2516 11.3995 20.2176 11.4882 20.2037 11.5192C20.1749 11.5838 20.0902 11.8997 19.9923 12.3078C19.9551 12.4627 19.8921 12.7225 19.8523 12.8852C19.7349 13.3654 19.6066 13.8989 19.4289 14.6455C19.3921 14.8004 19.328 15.0665 19.2865 15.2369C19.245 15.4073 19.1818 15.6671 19.146 15.8143C19.1102 15.9615 19.0469 16.2213 19.0053 16.3917C18.9235 16.7266 18.8055 17.227 18.713 17.6309C18.6811 17.7704 18.642 17.9288 18.626 17.983C18.6101 18.0372 18.5463 18.297 18.4843 18.5604C18.4223 18.8237 18.3601 19.0772 18.3461 19.1237C18.2853 19.3248 18.1667 19.8726 18.1809 19.8868C18.1894 19.8953 18.2198 19.8833 18.2485 19.8601C18.2771 19.8368 18.4465 19.6999 18.625 19.5558C18.8034 19.4116 18.9685 19.2782 18.9918 19.2593C19.0315 19.227 19.2396 19.0636 19.4873 18.8702C19.5468 18.8237 19.6738 18.7223 19.7695 18.6449C19.8652 18.5674 19.992 18.466 20.0511 18.4196C20.1103 18.3731 20.1913 18.3072 20.2312 18.2731C20.2711 18.239 20.3805 18.1503 20.4743 18.0759C20.568 18.0016 20.6633 17.925 20.6859 17.9057C20.7598 17.8426 21.1944 17.4919 21.2896 17.4184C21.3407 17.379 21.4015 17.3283 21.4247 17.3058C21.4479 17.2832 21.5099 17.2306 21.5625 17.1888C21.7142 17.0682 22.3663 16.5295 22.6597 16.2824C22.8072 16.1582 22.9405 16.0468 22.956 16.0347C23.0524 15.9599 23.7417 15.3819 23.8739 15.2651C23.9615 15.1876 24.0638 15.1001 24.1012 15.0705C24.1613 15.0231 24.2661 14.9346 24.4514 14.7751C24.4824 14.7484 24.5967 14.6526 24.7053 14.5622C24.814 14.4718 24.9346 14.3681 24.9734 14.3317C25.0122 14.2953 25.0757 14.2391 25.1145 14.2068C25.2815 14.0678 25.7016 13.7043 25.8537 13.5672C25.9446 13.4853 26.0458 13.3966 26.0787 13.37C26.1116 13.3435 26.197 13.2696 26.2684 13.2059C26.3398 13.1422 26.4744 13.0231 26.5675 12.9413C27.1985 12.3868 27.4073 12.2 27.4836 12.1223C27.5229 12.0822 27.6312 11.9855 27.7244 11.9074C27.8175 11.8293 27.9594 11.7036 28.0397 11.6282C28.12 11.5527 28.2639 11.4213 28.3596 11.3361C28.4552 11.2509 28.5948 11.1242 28.6698 11.0544C28.7448 10.9847 28.9436 10.801 29.1117 10.6462C29.2797 10.4913 29.5315 10.2552 29.6712 10.1213C29.8109 9.98744 30.0189 9.79094 30.1336 9.68462C30.704 9.15559 31.8017 8.06353 32.8756 6.95645C32.9063 6.92479 33.0466 6.77701 33.3425 6.46447C33.5592 6.23568 34.1176 5.62253 34.1948 5.52869C34.2506 5.46073 34.3418 5.3553 34.641 5.01234C34.763 4.8725 34.9897 4.60001 35.1449 4.40679C35.3 4.21355 35.4338 4.04913 35.4421 4.04138C35.4504 4.03364 35.5069 3.95759 35.5677 3.87239C35.6285 3.78719 35.7074 3.68724 35.7431 3.65029C35.7788 3.61331 35.808 3.57303 35.808 3.56075C35.808 3.54847 35.8239 3.52137 35.8432 3.50053C35.9056 3.43353 36.046 3.24336 36.1613 3.06969C36.223 2.97675 36.2805 2.89437 36.2892 2.88662C36.3116 2.86637 36.5614 2.47418 36.7149 2.21804C36.88 1.9427 37.2256 1.28122 37.2044 1.28122C37.1957 1.28122 37.2021 1.25587 37.2187 1.22489C37.2627 1.14288 37.2433 1.15552 37.1544 1.26672Z" fill="#0685CF"/>
</svg>
