<svg width="16" height="21" viewBox="0 0 16 21" fill="none" xmlns="http://www.w3.org/2000/svg">
<path d="M8.00005 10.6545C10.719 10.6545 12.9231 8.47575 12.9231 5.78817C12.9231 3.10059 10.719 0.921875 8.00005 0.921875C5.28111 0.921875 3.07697 3.10059 3.07697 5.78817C3.07697 8.47575 5.28111 10.6545 8.00005 10.6545Z" fill="#848F92"/>
<path d="M10.5641 12.6822H5.43594C2.46158 12.6822 4.57764e-05 15.1153 4.57764e-05 18.0554C4.57764e-05 18.765 0.307738 19.3733 0.923123 19.6775C1.8462 20.1844 3.89748 20.7927 8.00005 20.7927C12.1026 20.7927 14.1539 20.1844 15.077 19.6775C15.5898 19.3733 16 18.765 16 18.0554C16 15.0139 13.5385 12.6822 10.5641 12.6822Z" fill="#848F92"/>
</svg>
