<svg width="18" height="18" viewBox="0 0 18 18" fill="none" xmlns="http://www.w3.org/2000/svg">
<path d="M0 9.52919V8.47484C0.0110057 8.41233 0.0233321 8.35026 0.0325769 8.28819C0.0884861 7.90034 0.120623 7.5081 0.203826 7.12642C0.673552 4.96489 1.78381 3.19429 3.54429 1.86083C5.73443 0.201603 8.20104 -0.348244 10.8904 0.212169C13.0431 0.660763 14.7935 1.78907 16.1318 3.5293C17.5771 5.4082 18.1815 7.54596 17.953 9.90251C17.7694 11.8105 17.0285 13.4948 15.7571 14.933C14.3634 16.5099 12.6267 17.4916 10.5514 17.861C10.2125 17.9213 9.86907 17.9548 9.52789 18.001H8.47134C8.42689 17.9881 8.38158 17.9784 8.33575 17.9719C6.92702 17.8724 5.61073 17.4701 4.4089 16.7336C2.07568 15.305 0.641855 13.2452 0.138672 10.5501C0.0770403 10.2129 0.044023 9.86993 0 9.52919ZM16.6033 9.00092C16.6033 4.80773 13.2034 1.40519 9.00534 1.39903C4.81656 1.39242 1.41006 4.79188 1.39817 8.99079C1.38584 13.1822 4.80819 16.6068 9.00446 16.6015C13.2007 16.5962 16.6024 13.1967 16.6033 9.00268V9.00092Z" fill="#0F50A4"/>
<path d="M9.70051 9.62795V11.3889C9.70051 11.7054 9.70051 12.0215 9.70051 12.338C9.69787 12.8007 9.41172 13.1124 8.99614 13.1097C8.58849 13.1097 8.30366 12.7972 8.30278 12.3442C8.30014 11.4483 8.30278 10.5524 8.30278 9.62795H8.1126C7.24535 9.62795 6.37854 9.63104 5.51172 9.62531C5.34758 9.62555 5.1887 9.56735 5.06354 9.46114C4.93838 9.35493 4.85511 9.20765 4.82863 9.04565C4.80215 8.88365 4.8342 8.71751 4.91903 8.57698C5.00385 8.43645 5.13593 8.33069 5.29161 8.27865C5.40991 8.24653 5.53225 8.2317 5.6548 8.23463C6.45734 8.23067 7.25988 8.23243 8.06242 8.23243H8.30102V8.03961C8.30102 7.19613 8.30102 6.35309 8.30102 5.5096C8.30102 5.13145 8.50705 4.85366 8.83194 4.7753C9.28802 4.66524 9.69391 4.99145 9.69831 5.48583C9.70491 6.23422 9.69831 6.98261 9.69831 7.73453V8.23243H9.91314C10.739 8.23243 11.5649 8.23243 12.3908 8.23243C12.7733 8.23243 13.0344 8.39927 13.1391 8.69995C13.3012 9.16307 12.9692 9.62443 12.4603 9.62443C11.6111 9.62972 10.7615 9.62443 9.91226 9.62443L9.70051 9.62795Z" fill="#0F50A4"/>
</svg>
