<svg width="15" height="16" viewBox="0 0 15 16" fill="none" xmlns="http://www.w3.org/2000/svg">
<path d="M15 9.32353C15 7.62068 13.6146 6.23529 11.9118 6.23529C11.0035 6.23529 10.1857 6.62944 9.62012 7.25562C9.29079 7.08723 8.94909 6.94715 8.59882 6.83638C9.63465 6.17853 10.3235 5.02121 10.3235 3.70588C10.3235 1.66244 8.66109 0 6.61765 0C4.57421 0 2.91176 1.66244 2.91176 3.70588C2.91176 5.01835 3.59762 6.17356 4.62971 6.83215C3.62491 7.14718 2.70418 7.70176 1.93826 8.46765C0.688353 9.71756 0 11.3794 0 13.147V14.6176C0 14.8613 0.197529 15.0588 0.441176 15.0588H12.7941C13.0378 15.0588 13.2353 14.8613 13.2353 14.6176V13.147C13.2353 12.8154 13.2093 12.481 13.1584 12.1486C14.2421 11.6686 15 10.583 15 9.32353ZM3.79412 3.70588C3.79412 2.14897 5.06074 0.882353 6.61765 0.882353C8.17456 0.882353 9.44118 2.14897 9.44118 3.70588C9.44118 5.26279 8.17456 6.52941 6.61765 6.52941C5.06074 6.52941 3.79412 5.26279 3.79412 3.70588ZM12.3529 13.147V14.1765H0.882353V13.147C0.882353 9.98462 3.45521 7.41176 6.61765 7.41176C7.48441 7.41176 8.3425 7.61265 9.12438 7.99468C8.93162 8.39741 8.82353 8.84806 8.82353 9.32353C8.82353 11.0264 10.2089 12.4118 11.9118 12.4118C12.0438 12.4118 12.1739 12.4034 12.3015 12.3873C12.3356 12.6407 12.3529 12.8949 12.3529 13.147ZM12.55 11.4349C12.539 11.4377 12.5281 11.4406 12.5176 11.4441C12.3249 11.4993 12.1219 11.5294 11.9118 11.5294C10.6954 11.5294 9.70588 10.5399 9.70588 9.32353C9.70588 8.10721 10.6954 7.11765 11.9118 7.11765C13.1281 7.11765 14.1176 8.10721 14.1176 9.32353C14.1176 10.318 13.4561 11.1605 12.55 11.4349Z" fill="#0F50A4"/>
<path d="M12.7941 8.88235H12.3529V8.44118C12.3529 8.19753 12.1554 8 11.9118 8C11.6681 8 11.4706 8.19753 11.4706 8.44118V8.88235H11.0294C10.7858 8.88235 10.5882 9.07988 10.5882 9.32353C10.5882 9.56718 10.7858 9.76471 11.0294 9.76471H11.4706V10.2059C11.4706 10.4495 11.6681 10.6471 11.9118 10.6471C12.1554 10.6471 12.3529 10.4495 12.3529 10.2059V9.76471H12.7941C13.0378 9.76471 13.2353 9.56718 13.2353 9.32353C13.2353 9.07988 13.0378 8.88235 12.7941 8.88235Z" fill="#0F50A4"/>
</svg>
