<svg width="28" height="28" viewBox="0 0 28 28" fill="none" xmlns="http://www.w3.org/2000/svg">
<path fill-rule="evenodd" clip-rule="evenodd" d="M13.9998 6.02251C12.1935 6.02251 10.4611 6.74007 9.18387 8.01735C7.94553 9.25569 7.23329 10.9218 7.19102 12.6683C7.43334 12.6113 7.68604 12.5811 7.94578 12.5811C9.75688 12.5811 11.2251 14.0492 11.2251 15.8603V17.8784C11.2251 19.6895 9.75688 21.1576 7.94578 21.1576C6.13469 21.1576 4.6665 19.6895 4.6665 17.8784V12.8333C4.6665 10.358 5.64983 7.98399 7.40017 6.23365C9.15051 4.48332 11.5245 3.49998 13.9998 3.49998C16.4752 3.49998 18.8492 4.48332 20.5995 6.23365C22.3498 7.98399 23.3332 10.358 23.3332 12.8333V17.8784C23.3332 19.324 22.3977 20.5512 21.099 20.9876C20.7008 21.9552 19.8039 22.6853 18.8448 23.1649C17.4941 23.8402 15.7508 24.1847 13.9998 24.1847C13.3033 24.1847 12.7386 23.62 12.7386 22.9234C12.7386 22.2268 13.3033 21.6621 13.9998 21.6621C15.4601 21.6621 16.7966 21.3687 17.7166 20.9087C17.9258 20.8041 18.0947 20.7018 18.231 20.6047C17.3528 20.0164 16.7746 19.0149 16.7746 17.8784V15.8603C16.7746 14.0492 18.2428 12.5811 20.0539 12.5811C20.3136 12.5811 20.5663 12.6113 20.8087 12.6683C20.7664 10.9218 20.0541 9.25569 18.8158 8.01735C17.5385 6.74007 15.8062 6.02251 13.9998 6.02251ZM20.0539 18.6351C20.4718 18.6351 20.8106 18.2963 20.8106 17.8784V15.8603C20.8106 15.4424 20.4718 15.1036 20.0539 15.1036C19.6359 15.1036 19.2971 15.4424 19.2971 15.8603V17.8784C19.2971 18.2963 19.6359 18.6351 20.0539 18.6351ZM7.18903 17.8784V15.8603C7.18903 15.4424 7.52784 15.1036 7.94578 15.1036C8.36373 15.1036 8.70254 15.4424 8.70254 15.8603V17.8784C8.70254 18.2963 8.36373 18.6351 7.94578 18.6351C7.52784 18.6351 7.18903 18.2963 7.18903 17.8784Z" fill="white"/>
</svg>
