<svg width="11" height="18" viewBox="0 0 11 18" fill="none" xmlns="http://www.w3.org/2000/svg">
<path d="M2.17417 1.01135C1.93738 0.806531 1.63601 0.69481 1.28082 0.69481C0.570451 0.69481 9.72435e-07 1.17894 1.00827e-06 1.7934C1.02618e-06 2.10064 0.150685 2.37994 0.398239 2.59407L7.93249 8.96218L0.39824 15.3117C0.150686 15.5258 1.82591e-06 15.8144 1.84328e-06 16.1123C1.87912e-06 16.7268 0.570452 17.2109 1.28082 17.2109C1.63601 17.2109 1.93738 17.0992 2.17417 16.8944L10.5479 9.81871C10.8493 9.57665 10.9892 9.27873 11 8.95287C11 8.62702 10.8493 8.34772 10.5479 8.09634L2.17417 1.01135Z" fill="#F2F2F2"/>
</svg>
