<svg width="34" height="34" viewBox="0 0 34 34" fill="none" xmlns="http://www.w3.org/2000/svg">
<circle opacity="0.4" cx="17" cy="17" r="17" fill="#4A4A4A"/>
<path fill-rule="evenodd" clip-rule="evenodd" d="M20.7071 24.5597C21.0976 24.9624 21.0976 25.6155 20.7071 26.0182C20.3166 26.421 19.6834 26.421 19.2929 26.0182L13.2929 19.8301C12.9024 19.4273 12.9024 18.7743 13.2929 18.3716L19.2929 12.1834C19.6834 11.7807 20.3166 11.7807 20.7071 12.1834C21.0976 12.5862 21.0976 13.2392 20.7071 13.642L15.4142 19.1008L20.7071 24.5597Z" fill="#0D1F3C"/>
<mask id="mask0_24258_75701" style="mask-type:luminance" maskUnits="userSpaceOnUse" x="13" y="11" width="8" height="16">
<path fill-rule="evenodd" clip-rule="evenodd" d="M20.7071 24.5597C21.0976 24.9624 21.0976 25.6155 20.7071 26.0182C20.3166 26.421 19.6834 26.421 19.2929 26.0182L13.2929 19.8301C12.9024 19.4273 12.9024 18.7743 13.2929 18.3716L19.2929 12.1834C19.6834 11.7807 20.3166 11.7807 20.7071 12.1834C21.0976 12.5862 21.0976 13.2392 20.7071 13.642L15.4142 19.1008L20.7071 24.5597Z" fill="white"/>
</mask>
<g mask="url(#mask0_24258_75701)">
<rect x="5" y="6.72266" width="24" height="24.7525" fill="white"/>
</g>
</svg>
