<svg width="30" height="30" viewBox="0 0 30 30" fill="none" xmlns="http://www.w3.org/2000/svg">
<g opacity="0.9">
<path d="M15.0586 7.05885C15.4736 7.05885 16.4596 7.32129 16.4596 7.32129C19.1309 7.93342 21.0111 10.3939 21.0111 13.1719V20.6491L21.5572 21.1978L22.0136 21.6562H7.98645L8.44277 21.1978L8.98893 20.6491V13.1719C8.98893 10.3939 10.8691 7.93342 13.5404 7.32129C13.5404 7.32129 14.5976 7.05885 14.9414 7.05885H15.0586ZM15 2.8125C13.9686 2.8125 13.1801 3.60457 13.1801 4.64062V5.49369C9.72223 6.28605 7.11393 9.45469 7.11393 13.1719V19.875L4.6875 22.3125V23.5313H25.3125V22.3125L22.8861 19.875V13.1719C22.8861 9.45469 20.2777 6.28605 16.8199 5.49369V4.64062C16.8199 3.60457 16.0314 2.8125 15 2.8125ZM17.4264 24.75H12.5735C12.5735 26.0907 13.6653 27.1875 15 27.1875C16.3347 27.1875 17.4264 26.0907 17.4264 24.75Z" fill="white"/>
<path d="M25.2145 9.64286C25.2145 11.7337 23.5196 13.4286 21.4288 13.4286C19.338 13.4286 17.6431 11.7337 17.6431 9.64286C17.6431 7.55207 19.338 5.85715 21.4288 5.85715C23.5196 5.85715 25.2145 7.55207 25.2145 9.64286Z" fill="#FF0000" stroke="white"/>
</g>
</svg>
