<svg width="40" height="40" viewBox="0 0 40 40" fill="none" xmlns="http://www.w3.org/2000/svg">
<path d="M26.3861 4.17969C27.0688 4.66225 27.147 4.93415 26.8352 5.74983C26.8065 5.82545 26.7796 5.90288 26.7508 5.97941C26.3915 6.94364 26.0223 7.90697 25.6728 8.8748C25.6108 9.04226 25.5462 9.11338 25.3539 9.11248C23.419 9.10348 21.484 9.10348 19.549 9.11248C19.3532 9.11248 19.293 9.03866 19.2319 8.873C18.8511 7.82864 18.4576 6.78878 18.0641 5.74893C17.7569 4.93235 17.8342 4.66135 18.5133 4.17969H26.3861Z" fill="#0685CF"/>
<path d="M23.8457 30.6341C26.0106 30.626 27.7821 28.9893 27.9779 26.7961C27.9755 26.7271 27.995 26.659 28.0335 26.6018C28.0721 26.5445 28.1278 26.501 28.1926 26.4774C29.5625 25.8472 30.9253 25.1972 32.297 24.5688C33.5169 24.0088 34.8572 24.4724 35.4285 25.6338C35.9998 26.7952 35.5731 28.1322 34.3918 28.757C30.9849 30.5612 27.5713 32.3558 24.1511 34.1408C23.1513 34.6666 22.0967 34.7468 20.9935 34.5793C19.4278 34.3416 17.8566 34.1408 16.2882 33.9239C15.4689 33.8104 14.6497 33.688 13.8286 33.5863C13.6274 33.561 13.5402 33.4827 13.4693 33.2928C12.5111 30.6344 11.5481 27.9773 10.5803 25.3214C10.2569 24.4301 9.92993 23.5388 9.60834 22.6466C9.576 22.5566 9.47628 22.4575 9.67301 22.3927C10.6674 22.0605 11.6232 21.6148 12.6626 21.415C14.7063 21.0233 16.6583 21.3159 18.4019 22.4332C19.6793 23.2525 21.0376 23.6936 22.5099 23.8953C23.1469 23.9798 23.7789 24.098 24.4035 24.2491C25.6109 24.548 26.3609 25.7482 26.1103 26.9204C25.8462 28.1655 24.7278 28.965 23.4774 28.757C21.4112 28.4131 19.3532 28.043 17.2925 27.6766C16.7535 27.5866 16.263 27.8873 16.1759 28.378C16.0807 28.9127 16.4014 29.3764 16.9529 29.479C17.6716 29.6123 18.4001 29.732 19.1241 29.859C20.4716 30.0967 21.8191 30.3379 23.1665 30.5711C23.3947 30.6125 23.6256 30.6152 23.8457 30.6341Z" fill="#0F50A4"/>
<path d="M4.32267 29.2811V23.891C4.32267 23.3409 4.50862 23.0717 5.03234 22.8754C5.51802 22.6953 6.0058 22.5171 6.49568 22.3406C7.07689 22.1353 7.55749 22.3568 7.77039 22.9393C9.08791 26.5544 10.4012 30.1703 11.7104 33.7872C11.9287 34.3895 11.705 34.8675 11.113 35.0872C10.627 35.2673 10.1383 35.4473 9.65055 35.6274C9.48673 35.6852 9.31395 35.7132 9.14031 35.7102C7.8701 35.7102 6.60079 35.7102 5.33057 35.7102C4.69188 35.7102 4.32357 35.3411 4.32267 34.7028C4.32207 32.8967 4.32207 31.0895 4.32267 29.2811Z" fill="#0F50A4"/>
<path fill-rule="evenodd" clip-rule="evenodd" d="M17.0798 19.8299C17.9067 20.0791 18.6992 20.4312 19.4388 20.8779C19.4377 20.8231 19.4314 20.7685 19.4199 20.7149C19.2735 20.1909 19.3867 19.7966 19.7792 19.5607C20.1718 19.3248 20.594 19.396 20.9704 19.7678C21.1196 19.9237 21.2943 20.0528 21.4869 20.1495C21.6565 20.2299 21.8276 20.2998 22 20.3505V18.5247C21.841 18.4618 21.6824 18.398 21.5247 18.3318C21.4619 18.3053 21.3986 18.2796 21.3352 18.254C21.0131 18.1235 20.6892 17.9923 20.4242 17.7448C19.1379 16.542 19.6831 14.3929 21.4277 13.8312C21.6214 13.7689 21.8121 13.7234 22 13.6936V12.4985C22 12.2223 22.2239 11.9985 22.5 11.9985C22.7761 11.9985 23 12.2223 23 12.4985V13.6815C23.6972 13.7766 24.3524 14.085 24.9715 14.5442C25.4054 14.8665 25.4557 15.4121 25.1413 15.8253C24.8439 16.2179 24.3265 16.2935 23.8836 16.0009C23.6426 15.8282 23.3787 15.6904 23.0994 15.5913C23.0663 15.581 23.0331 15.5714 23 15.5625V16.9435C23.2506 17.0453 23.5003 17.1489 23.7489 17.255C24.4873 17.5692 25.091 18.0401 25.3982 18.8126C25.8896 20.0532 25.1979 21.4775 23.8504 22.0285C23.8181 22.0417 23.783 22.0504 23.7474 22.0593C23.6594 22.0812 23.5685 22.1039 23.509 22.1968C23.5618 22.2057 23.6129 22.2148 23.6629 22.2238C23.7706 22.243 23.8734 22.2613 23.9771 22.2743C25.5302 22.4669 26.7744 23.1395 27.5218 24.5745C27.603 24.7275 27.6781 24.692 27.7892 24.6395L27.7913 24.6385C28.9806 24.0773 30.1712 23.5203 31.363 22.9675C31.4806 22.9126 31.5354 22.8568 31.5354 22.7208C31.5291 22.3588 31.5308 21.9961 31.5326 21.6334C31.5375 20.614 31.5424 19.5933 31.3675 18.5794C30.8294 15.458 29.2852 12.9588 26.7528 11.0636C26.6486 10.983 26.5197 10.9413 26.3881 10.9457H18.5234C18.392 10.9411 18.263 10.9818 18.1578 11.0609C16.8695 12.0001 15.7883 13.1954 14.9816 14.5722C14.1749 15.949 13.6602 17.4777 13.4695 19.0629L13.4678 19.0774C13.4245 19.4501 13.4241 19.4534 13.8082 19.4365C14.913 19.3844 16.0187 19.5174 17.0798 19.8299ZM23 18.9207V20.3688C23.0922 20.3401 23.1846 20.3017 23.2773 20.2522C23.863 19.9371 23.8809 19.4536 23.324 19.0935C23.2207 19.0274 23.1123 18.9697 23 18.9207ZM22 16.5461V15.574C21.9494 15.5928 21.8991 15.615 21.849 15.6408C21.7545 15.6835 21.6752 15.754 21.6216 15.8429C21.568 15.9318 21.5427 16.035 21.5489 16.1386C21.5597 16.3394 21.6989 16.4303 21.8786 16.4988C21.9191 16.5145 21.9595 16.5303 22 16.5461Z" fill="#0F50A4"/>
</svg>
