<svg width="15" height="13" viewBox="0 0 15 13" fill="none" xmlns="http://www.w3.org/2000/svg">
<path d="M0.564075 2.51085C0.742235 2.32663 0.956285 2.18092 1.19299 2.08271C1.4297 1.9845 1.68404 1.93588 1.94028 1.93987H3.63858L4.02656 0.915033C4.14645 0.660003 4.3306 0.440533 4.56094 0.27817C4.78575 0.109577 5.05616 0.0126397 5.33688 0H9.22394C9.50811 0.006308 9.78271 0.103832 10.0072 0.27817C10.2355 0.440731 10.4173 0.660319 10.5343 0.915033L10.9588 1.93987H12.6937C12.9495 1.93987 13.2027 1.99023 13.4389 2.08809C13.6751 2.18595 13.8898 2.32937 14.0706 2.51019C14.2514 2.691 14.3949 2.90566 14.4927 3.1419C14.5906 3.37814 14.6409 3.63135 14.6409 3.88706V10.7169C14.6409 10.9722 14.5905 11.2251 14.4926 11.4609C14.3946 11.6967 14.2511 11.9109 14.0702 12.0912C13.8893 12.2714 13.6745 12.4141 13.4383 12.5112C13.2021 12.6082 12.9491 12.6577 12.6937 12.6567H1.94028C1.68499 12.6587 1.43186 12.6098 1.19563 12.513C0.959394 12.4162 0.744768 12.2734 0.564245 12.0929C0.383722 11.9124 0.240907 11.6978 0.14411 11.4615C0.0473118 11.2253 -0.00153255 10.9722 0.000415802 10.7169V3.88706C-0.00495148 3.63129 0.0423126 3.37714 0.139277 3.1404C0.236239 2.90366 0.380832 2.68937 0.564075 2.51085ZM7.32067 10.3948C7.95771 10.3948 8.58044 10.2059 9.11012 9.85195C9.63979 9.49803 10.0526 8.99499 10.2964 8.40645C10.5402 7.8179 10.604 7.17028 10.4797 6.54549C10.3554 5.92069 10.0487 5.34678 9.5982 4.89633C9.14775 4.44587 8.57384 4.13911 7.94904 4.01483C7.32425 3.89055 6.67663 3.95433 6.08808 4.19812C5.49954 4.4419 4.9965 4.85473 4.64258 5.38441C4.28866 5.91409 4.09976 6.53682 4.09976 7.17386C4.10169 8.0275 4.44166 8.84563 5.04528 9.44925C5.6489 10.0529 6.46703 10.3928 7.32067 10.3948Z" fill="#0F50A4"/>
<path d="M7.32064 5.0548C7.74805 5.0548 8.16585 5.18164 8.52113 5.41925C8.87642 5.65686 9.1532 5.99456 9.31642 6.38958C9.47965 6.7846 9.52199 7.21917 9.43807 7.63827C9.35415 8.05736 9.14775 8.44213 8.84501 8.74385C8.54227 9.04556 8.1568 9.25065 7.73742 9.33315C7.31804 9.41564 6.88362 9.37183 6.48915 9.20726C6.09469 9.04269 5.75793 8.76477 5.52153 8.40868C5.28513 8.0526 5.15971 7.63437 5.16116 7.20696C5.1592 6.92317 5.21377 6.64183 5.32169 6.37935C5.42961 6.11688 5.58872 5.87852 5.78974 5.67819C5.99075 5.47785 6.22965 5.31956 6.49249 5.21253C6.75533 5.1055 7.03685 5.05188 7.32064 5.0548Z" fill="#0685CF"/>
</svg>
