<svg width="8" height="9" viewBox="0 0 8 9" fill="none" xmlns="http://www.w3.org/2000/svg">
<path fill-rule="evenodd" clip-rule="evenodd" d="M7.52634 1.27493C7.77958 1.0217 7.77958 0.611126 7.52634 0.357893C7.27311 0.104661 6.86254 0.104661 6.60931 0.357893L3.8801 3.0871L1.22816 0.435154C0.968691 0.175687 0.548012 0.175687 0.288545 0.435154C0.0290775 0.694621 0.0290775 1.1153 0.288545 1.37477L2.94049 4.02671L0.190047 6.77715C-0.0631863 7.03039 -0.0631861 7.44096 0.190047 7.69419C0.44328 7.94742 0.853851 7.94742 1.10708 7.69419L3.85753 4.94375L6.86584 7.95206C7.1253 8.21153 7.54598 8.21153 7.80545 7.95206C8.06492 7.69259 8.06492 7.27191 7.80545 7.01245L4.79714 4.00414L7.52634 1.27493Z" fill="#0A0B09"/>
</svg>
