<svg width="18" height="18" viewBox="0 0 18 18" fill="none" xmlns="http://www.w3.org/2000/svg">
<path d="M3.375 1.125C2.13823 1.125 1.125 2.13823 1.125 3.375V14.625C1.125 15.8618 2.13823 16.875 3.375 16.875H9C9.14918 16.875 9.29226 16.8157 9.39775 16.7102C9.50324 16.6048 9.5625 16.4617 9.5625 16.3125C9.5625 16.1633 9.50324 16.0202 9.39775 15.9148C9.29226 15.8093 9.14918 15.75 9 15.75H3.375C2.74202 15.75 2.25 15.258 2.25 14.625V3.375C2.25 2.74202 2.74202 2.25 3.375 2.25H11.25C11.883 2.25 12.375 2.74202 12.375 3.375V4.5C12.375 4.64918 12.4343 4.79226 12.5398 4.89775C12.6452 5.00324 12.7883 5.0625 12.9375 5.0625C13.0867 5.0625 13.2298 5.00324 13.3352 4.89775C13.4407 4.79226 13.5 4.64918 13.5 4.5V3.375C13.5 2.13823 12.4868 1.125 11.25 1.125H3.375Z" fill="#F54E5E"/>
<path d="M3.5 9C3.36739 9 3.24021 9.05268 3.14645 9.14645C3.05268 9.24021 3 9.36739 3 9.5C3 9.63261 3.05268 9.75979 3.14645 9.85355C3.24021 9.94732 3.36739 10 3.5 10H5C5.13261 10 5.25979 9.94732 5.35355 9.85355C5.44732 9.75979 5.5 9.63261 5.5 9.5C5.5 9.36739 5.44732 9.24021 5.35355 9.14645C5.25979 9.05268 5.13261 9 5 9H3.5ZM3.5 11C3.36739 11 3.24021 11.0527 3.14645 11.1464C3.05268 11.2402 3 11.3674 3 11.5C3 11.6326 3.05268 11.7598 3.14645 11.8536C3.24021 11.9473 3.36739 12 3.5 12H6.5C6.63261 12 6.75979 11.9473 6.85355 11.8536C6.94732 11.7598 7 11.6326 7 11.5C7 11.3674 6.94732 11.2402 6.85355 11.1464C6.75979 11.0527 6.63261 11 6.5 11H3.5ZM3.5 13C3.36739 13 3.24021 13.0527 3.14645 13.1464C3.05268 13.2402 3 13.3674 3 13.5C3 13.6326 3.05268 13.7598 3.14645 13.8536C3.24021 13.9473 3.36739 14 3.5 14H5C5.13261 14 5.25979 13.9473 5.35355 13.8536C5.44732 13.7598 5.5 13.6326 5.5 13.5C5.5 13.3674 5.44732 13.2402 5.35355 13.1464C5.25979 13.0527 5.13261 13 5 13H3.5Z" fill="#F54E5E"/>
<path d="M5 5.25H4C3.86739 5.25 3.74021 5.19732 3.64645 5.10355C3.55268 5.00979 3.5 4.88261 3.5 4.75C3.5 4.61739 3.55268 4.49021 3.64645 4.39645C3.74021 4.30268 3.86739 4.25 4 4.25H5.25C5.3163 4.25 5.37989 4.27634 5.42678 4.32322C5.47366 4.37011 5.5 4.4337 5.5 4.5C5.5 4.5663 5.52634 4.62989 5.57322 4.67678C5.62011 4.72366 5.6837 4.75 5.75 4.75C5.8163 4.75 5.87989 4.72366 5.92678 4.67678C5.97366 4.62989 6 4.5663 6 4.5C6 4.30109 5.92098 4.11032 5.78033 3.96967C5.63968 3.82902 5.44891 3.75 5.25 3.75H4.75V3.25C4.75 3.1837 4.72366 3.12011 4.67678 3.07322C4.62989 3.02634 4.5663 3 4.5 3C4.4337 3 4.37011 3.02634 4.32322 3.07322C4.27634 3.12011 4.25 3.1837 4.25 3.25V3.75H4C3.73478 3.75 3.48043 3.85536 3.29289 4.04289C3.10536 4.23043 3 4.48478 3 4.75C3 5.01522 3.10536 5.26957 3.29289 5.45711C3.48043 5.64464 3.73478 5.75 4 5.75H5C5.13261 5.75 5.25979 5.80268 5.35355 5.89645C5.44732 5.99022 5.5 6.11739 5.5 6.25C5.5 6.38261 5.44732 6.50979 5.35355 6.60355C5.25979 6.69732 5.13261 6.75 5 6.75H3.75C3.6837 6.75 3.62011 6.72366 3.57322 6.67678C3.52634 6.62989 3.5 6.5663 3.5 6.5C3.5 6.4337 3.47366 6.37011 3.42678 6.32322C3.37989 6.27634 3.3163 6.25 3.25 6.25C3.1837 6.25 3.12011 6.27634 3.07322 6.32322C3.02634 6.37011 3 6.4337 3 6.5C3 6.69891 3.07902 6.88968 3.21967 7.03033C3.36032 7.17098 3.55109 7.25 3.75 7.25H4.25V7.75C4.25 7.8163 4.27634 7.87989 4.32322 7.92678C4.37011 7.97366 4.4337 8 4.5 8C4.5663 8 4.62989 7.97366 4.67678 7.92678C4.72366 7.87989 4.75 7.8163 4.75 7.75V7.25H5C5.26522 7.25 5.51957 7.14464 5.70711 6.95711C5.89464 6.76957 6 6.51522 6 6.25C6 5.98478 5.89464 5.73043 5.70711 5.54289C5.51957 5.35536 5.26522 5.25 5 5.25Z" fill="#F54E5E"/>
<path d="M11.5004 13L12.5004 12L13.5004 13L14.0004 12.5L13.0004 11.5L14.0004 10.5L13.5004 10L12.5004 11L11.5004 10L11.0004 10.5L12.0004 11.5L11.0004 12.5L11.5004 13Z" fill="#F54E5E"/>
<path d="M12.5 16C14.9813 16 17 13.9813 17 11.5C17 9.0187 14.9813 7 12.5 7C10.0187 7 8 9.0187 8 11.5C8 13.9813 10.0187 16 12.5 16ZM12.5 7.9C14.4849 7.9 16.1 9.51505 16.1 11.5C16.1 13.4849 14.4849 15.1 12.5 15.1C10.515 15.1 8.9 13.4849 8.9 11.5C8.9 9.51505 10.515 7.9 12.5 7.9Z" fill="#F54E5E"/>
</svg>
