<svg width="110" height="80" viewBox="0 0 110 80" fill="none" xmlns="http://www.w3.org/2000/svg">
<path fill-rule="evenodd" clip-rule="evenodd" d="M16.3098 22.8108C16.2937 22.8263 15.8545 22.8909 15.3339 22.9543C14.8132 23.0177 14.261 23.1018 14.1067 23.1413C13.9524 23.1808 13.558 23.2752 13.2302 23.351C12.9023 23.4268 12.571 23.5181 12.4939 23.5537C12.4167 23.5894 12.2747 23.6402 12.1783 23.6666C11.7264 23.7903 10.6552 24.2389 9.81714 24.6556C8.93899 25.0921 8.60149 25.2861 7.91631 25.7485C7.75124 25.8598 7.58561 25.951 7.54817 25.951C7.51072 25.951 7.48008 25.9773 7.48008 26.0095C7.48008 26.0417 7.33022 26.1669 7.14699 26.2877C6.96376 26.4085 6.71924 26.5884 6.60354 26.6874C5.64432 27.5081 4.84247 28.2855 4.31164 28.9094C4.13093 29.1217 3.91796 29.3715 3.8383 29.4646C3.75857 29.5577 3.69343 29.6546 3.69343 29.6801C3.69343 29.7057 3.63824 29.788 3.57071 29.8631C3.18728 30.2897 2.37974 31.5689 1.97331 32.3934C1.85873 32.6258 1.74871 32.8317 1.72865 32.8511C1.54458 33.0294 0.679611 35.4691 0.459915 36.4297C-0.16404 39.1583 -0.15275 42.1279 0.491541 44.7856C0.70156 45.6517 0.956317 46.5219 1.02742 46.6162C1.05666 46.6549 1.12033 46.8134 1.16893 46.9683C1.21745 47.1232 1.29725 47.3291 1.3462 47.4259C1.39515 47.5227 1.58287 47.9188 1.76336 48.3061C1.94379 48.6933 2.23101 49.241 2.40155 49.5231C2.57216 49.8052 2.71171 50.064 2.71171 50.0981C2.71171 50.1323 2.73674 50.1707 2.76731 50.1837C2.79789 50.1966 2.89655 50.3283 2.98666 50.4764C3.13434 50.7193 3.71987 51.4928 4.24866 52.1434C4.64304 52.6286 5.82538 53.7831 6.45418 54.2969C7.26613 54.9603 7.29095 54.9791 7.79563 55.3132C8.02704 55.4664 8.24792 55.617 8.28649 55.6478C8.68444 55.966 10.9734 57.0755 11.6524 57.2794C11.8067 57.3256 11.996 57.3922 12.0731 57.4274C12.6905 57.7084 14.7475 58.1492 16 58.2688C16.4108 58.308 21.6828 58.337 28.7274 58.3387L40.7535 58.3416L39.6375 59.4143C36.9531 61.9944 33.2629 65.7782 31.3176 67.945C31.1464 68.1358 30.9433 68.3567 30.8661 68.4361C30.789 68.5156 30.6154 68.7112 30.4804 68.8711C30.2335 69.1634 29.32 70.2169 29.075 70.4922C28.8877 70.7024 27.5306 72.3594 27.3452 72.6041C27.0687 72.9691 26.0561 74.284 25.9583 74.4049C25.906 74.4696 25.8294 74.5859 25.7881 74.6635C25.7468 74.741 25.6731 74.8465 25.6243 74.8979C25.2619 75.2796 22.9773 79.0132 22.9773 79.2235C22.9773 79.2469 22.8975 79.4254 22.8 79.6203C22.7025 79.8153 22.6349 79.987 22.6499 80.0021C22.6649 80.0171 22.8945 79.7834 23.1603 79.4828C24.3098 78.1825 27.5809 74.9742 29.0046 73.7507C29.292 73.5037 29.6032 73.2313 29.696 73.1454C29.7889 73.0596 30.169 72.7429 30.5407 72.4417C30.9125 72.1405 31.2528 71.8622 31.297 71.8233C31.3412 71.7843 31.4796 71.6733 31.6046 71.5765C31.7295 71.4797 31.9301 71.3193 32.0502 71.2201C32.305 71.0095 33.1828 70.3294 33.4303 70.1508C34.0329 69.7158 34.3815 69.4608 34.4424 69.4102C34.481 69.3782 34.7176 69.2109 34.9683 69.0384C35.219 68.866 35.4399 68.705 35.4592 68.6807C35.4785 68.6564 35.8098 68.4283 36.1955 68.1739C36.5812 67.9194 36.9349 67.6779 36.9814 67.6372C37.028 67.5964 37.0839 67.5631 37.1058 67.5631C37.1276 67.5631 37.2974 67.4601 37.4829 67.3343C37.6686 67.2085 38.0495 66.9629 38.3296 66.7886C38.6097 66.6144 38.9383 66.4073 39.0599 66.3284C39.4547 66.0722 42.1333 64.592 42.9974 64.1525C43.7553 63.7669 44.3214 63.4975 45.3816 63.0177C46.3857 62.5633 46.5469 62.4936 46.5943 62.4936C46.6227 62.4936 46.7559 62.4347 46.8903 62.3627C47.0247 62.2906 47.2136 62.2079 47.31 62.1788C47.4064 62.1497 47.58 62.0827 47.6957 62.03C47.9843 61.8984 49.6275 61.315 50.185 61.1463C50.4357 61.0704 50.7039 60.9804 50.7811 60.9463C51.0142 60.843 53.6248 60.1378 54.3559 59.9806C55.3762 59.7612 56.712 59.5289 57.8986 59.3645C59.1062 59.1973 60.2529 58.9677 60.5282 58.838C60.6053 58.8017 60.8376 58.7185 61.0444 58.653C61.8093 58.4111 62.7218 57.795 63.3761 57.0788C63.8544 56.5551 63.8884 56.511 64.0366 56.2205C64.104 56.0887 64.1802 55.9649 64.2059 55.9455C64.2781 55.8913 64.67 55.0443 64.871 54.5083C65.0819 53.9456 65.2107 53.4964 65.4381 52.5306C65.5292 52.1434 65.6878 51.478 65.7906 51.052C65.8933 50.6261 66.052 49.9607 66.1431 49.5734C66.2344 49.1862 66.3898 48.5366 66.4886 48.13C66.5874 47.7234 66.7463 47.066 66.8414 46.669C66.9367 46.2721 67.0925 45.6226 67.1877 45.2256C67.2829 44.8287 67.4417 44.1712 67.5405 43.7646C67.7499 42.9027 68.0056 41.8357 68.2405 40.8426C68.5309 39.6152 68.5446 39.6112 68.5512 40.7519C68.5575 41.8283 68.6541 43.0576 68.7658 43.483C68.8014 43.6185 68.8836 44.0304 68.9485 44.3983C69.0134 44.7662 69.0939 45.0973 69.1274 45.1341C69.161 45.1709 69.1884 45.2603 69.1884 45.3329C69.1884 45.5671 70.0502 47.9545 70.1727 48.0596C70.1953 48.079 70.3621 48.3958 70.5435 48.7637C70.7248 49.1316 70.9122 49.4951 70.9599 49.5716C71.3164 50.1428 71.8815 50.985 71.9637 51.0676C72.0185 51.1227 72.0635 51.1892 72.0635 51.2155C72.0636 51.2642 72.1628 51.3891 72.7446 52.073C73.1447 52.5432 74.5234 53.9156 74.9374 54.2557C75.1024 54.3912 75.3201 54.5736 75.4211 54.661C75.522 54.7483 75.6598 54.8376 75.7273 54.8593C75.7949 54.8811 75.8501 54.9235 75.8501 54.9534C75.8501 54.9834 75.9605 55.0677 76.0955 55.1407C76.2305 55.2137 76.3409 55.2907 76.3409 55.3118C76.3409 55.3329 76.4592 55.4126 76.6039 55.4888C76.7486 55.5649 76.8826 55.647 76.9019 55.671C76.9212 55.695 77.0474 55.771 77.1824 55.8399C77.3174 55.9088 77.4436 55.9859 77.4629 56.0112C77.5552 56.1324 79.6668 57.112 80.1276 57.2475C80.224 57.2758 80.3975 57.3408 80.5132 57.3917C80.9899 57.602 82.2662 57.9128 83.8792 58.2114C84.1731 58.2658 88.1642 58.2975 97.1236 58.3165C109.395 58.3426 109.946 58.3384 109.912 58.2184C109.892 58.1494 109.12 56.7306 108.196 55.0654L106.516 52.0378L100.667 51.9964C97.0256 51.9707 94.7125 51.9277 94.5379 51.8826C93.412 51.5917 93.0673 51.4853 92.5579 51.272C91.941 51.0136 91.1924 50.6124 90.777 50.3175C90.637 50.218 90.4504 50.0892 90.3625 50.0311C89.9759 49.7757 89.075 48.909 88.6062 48.3413C87.9959 47.6023 87.6623 47.0277 86.9916 45.5601C86.8845 45.3255 86.6394 44.4656 86.5201 43.9054C86.3561 43.1353 86.3567 38.0659 86.521 37.2869C86.6528 36.6615 86.9168 35.7356 86.9922 35.6338C87.0216 35.5943 87.1024 35.4075 87.1719 35.2188C87.3135 34.8345 87.8569 33.8317 88.0807 33.542C88.161 33.4379 88.3365 33.2003 88.4707 33.0139C88.7928 32.5664 89.9024 31.4628 90.2976 31.1967C90.47 31.0806 90.6268 30.9669 90.646 30.9438C90.8279 30.7272 92.4147 29.9142 93.0302 29.7224C93.2423 29.6563 93.479 29.5751 93.5561 29.5419C93.7577 29.4552 94.287 29.3509 95.1535 29.2273C95.7788 29.138 96.8223 29.1194 101.186 29.1194C107.128 29.1194 106.516 29.1807 106.825 28.5544C106.91 28.3811 107.073 28.0808 107.187 27.8872C107.301 27.6936 107.526 27.2817 107.689 26.9719C107.851 26.6621 108.043 26.3245 108.115 26.2217C108.188 26.119 108.247 26.0024 108.247 25.9627C108.247 25.9231 108.286 25.8487 108.335 25.7975C108.383 25.7464 108.492 25.5619 108.578 25.3877C108.663 25.2134 108.828 24.9124 108.944 24.7188C109.059 24.5252 109.198 24.2717 109.251 24.1555C109.305 24.0393 109.495 23.6961 109.674 23.3928C109.853 23.0894 110 22.8281 110 22.8119C110 22.7957 104.407 22.7827 97.5707 22.7829C85.4741 22.7834 85.1123 22.7872 84.0545 22.9266C82.6623 23.1102 80.7135 23.5829 80.0224 23.9047C79.9453 23.9406 79.5776 24.0976 79.2053 24.2537C78.833 24.4098 78.4228 24.5965 78.2937 24.6686C78.1646 24.7407 77.8538 24.908 77.6031 25.0403C77.3525 25.1725 77.1158 25.3059 77.0772 25.3368C77.0387 25.3676 76.802 25.5234 76.5513 25.6831C76.3006 25.8427 76.0127 26.0396 75.9115 26.1206C75.8102 26.2015 75.6383 26.3312 75.5293 26.4086C74.2339 27.329 72.444 29.2466 71.4875 30.7388C70.9351 31.6006 70.8488 31.7503 70.4415 32.5519C70.2397 32.9488 70.0537 33.2736 70.0279 33.2736C69.9838 33.2736 68.8676 34.1171 68.432 34.4798C68.3218 34.5715 68.1254 34.7258 67.9955 34.8226C67.8656 34.9194 67.4705 35.2362 67.1175 35.5267C66.7645 35.8171 66.371 36.134 66.2431 36.2308C66.1151 36.3276 65.72 36.6444 65.3651 36.9349C65.0102 37.2253 64.613 37.5474 64.4823 37.6505C64.3516 37.7537 64.1658 37.906 64.0694 37.9892C63.6716 38.3323 63.2408 38.6874 61.9306 39.7521C60.4662 40.9422 60.3842 41.0096 60.1633 41.2057C59.8002 41.5278 59.6887 41.6216 59.1257 42.0776C58.5415 42.5508 58.3687 42.6957 58.0374 42.9901C57.9285 43.0869 57.7911 43.2055 57.7322 43.2536C57.3524 43.5638 56.5786 44.2116 56.461 44.3178C56.3839 44.3874 56.0052 44.7076 55.6196 45.0294C55.2339 45.3511 54.9026 45.6371 54.8833 45.6648C54.864 45.6926 54.6589 45.8688 54.4275 46.0565C54.1961 46.2442 53.972 46.431 53.9294 46.4718C53.8032 46.5926 53.1489 47.1577 52.2887 47.8887C51.8452 48.2656 51.4665 48.5951 51.4472 48.6209C51.428 48.6467 51.1597 48.8868 50.8512 49.1544C50.2776 49.6519 50.1796 49.7377 49.4487 50.3821C49.2173 50.5861 48.8258 50.9312 48.5786 51.149C48.3314 51.3667 48.0283 51.64 47.905 51.7561C47.7818 51.8723 47.4478 52.1733 47.1631 52.425C46.8783 52.6767 46.5632 52.9619 46.4628 53.0587C46.3625 53.1555 46.0348 53.455 45.7347 53.7241C45.4345 53.9933 45.1036 54.2943 44.9991 54.393C44.8948 54.4918 44.6518 54.7151 44.4593 54.8894C43.7578 55.5241 42.4253 56.7692 41.842 57.3348C41.3768 57.786 41.2288 57.8934 41.1742 57.8195C41.1356 57.7674 40.3941 56.4378 39.5263 54.8649L37.9486 52.005L32.3738 51.9999C28.1156 51.9961 26.6665 51.973 26.238 51.9022C25.6153 51.7994 24.5237 51.5229 24.4148 51.4403C24.3762 51.4111 24.2185 51.347 24.0642 51.2978C23.9099 51.2487 23.531 51.0765 23.222 50.9151C21.9798 50.2663 20.799 49.2915 19.997 48.2526C19.9585 48.2026 19.8299 48.0358 19.7114 47.8818C19.5032 47.6117 18.84 46.5457 18.84 46.4815C18.84 46.4642 18.7484 46.2498 18.6364 46.0051C18.5244 45.7603 18.3926 45.4175 18.3436 45.2432C18.2946 45.069 18.2322 44.8947 18.205 44.856C18.1778 44.8172 18.1022 44.4846 18.037 44.1167C17.9718 43.7488 17.8891 43.3149 17.8533 43.1525C17.7641 42.7482 17.7706 38.5369 17.8612 38.0204C18.0431 36.984 18.1626 36.4013 18.2067 36.3364C18.233 36.2977 18.2948 36.1234 18.3441 35.9491C18.6816 34.7556 19.7587 33.0192 20.7641 32.0479C22.3136 30.5511 24.0986 29.6369 26.1679 29.2804C26.7754 29.1758 27.6125 29.1546 32.4359 29.1219L38.0026 29.0842L38.3487 28.4153C38.5391 28.0474 38.7832 27.6021 38.8911 27.4257C38.9991 27.2493 39.1094 27.0355 39.1363 26.9504C39.1632 26.8654 39.2112 26.7959 39.243 26.7959C39.2747 26.7959 39.3544 26.6613 39.4199 26.4968C39.4854 26.3324 39.5598 26.1819 39.5853 26.1624C39.6442 26.1173 39.7557 25.9193 40.1404 25.1764C40.4123 24.6514 40.5777 24.3567 40.9113 23.8035C40.9785 23.6919 41.2485 23.1636 41.406 22.8353C41.4314 22.7823 16.3645 22.7578 16.3098 22.8108Z" fill="#0F50A4"/>
<path fill-rule="evenodd" clip-rule="evenodd" d="M60.7385 0.0354922C59.9865 0.118646 59.4291 0.228273 58.8802 0.401059C57.6362 0.792748 56.13 1.61936 55.3741 2.32543C54.4076 3.22808 54.3225 3.3175 53.7607 4.02104C53.3368 4.55193 52.608 5.89464 52.4277 6.477C52.3797 6.6319 52.3174 6.79032 52.2892 6.82905C52.261 6.86777 52.1467 7.26383 52.0354 7.70917C51.8427 8.47959 51.8329 8.59401 51.8329 10.0679C51.8329 11.4506 51.8501 11.6849 51.9934 12.2506C52.5044 14.2678 53.3468 15.7972 54.7079 17.1785C54.9827 17.4574 55.7071 18.0768 55.8546 18.159C55.9182 18.1945 55.9859 18.2427 56.0052 18.2663C56.0245 18.2898 56.1191 18.3593 56.2155 18.4207C56.3767 18.5232 56.4419 18.5214 57.022 18.3978C57.3691 18.3239 58.1106 18.2033 58.6699 18.1298C59.2291 18.0563 59.8444 17.9632 60.0373 17.923C60.2301 17.8827 60.7192 17.7857 61.1242 17.7072C62.2465 17.4899 63.9111 17.0768 64.8056 16.7936C66.0202 16.4091 68.1621 15.651 68.6011 15.4502C68.7655 15.375 68.9223 15.3134 68.9493 15.3134C69.081 15.3134 70.7769 14.5024 70.8496 14.4047C70.9694 14.2437 71.4041 12.9825 71.5678 12.321C72.0243 10.4758 71.8629 8.21225 71.1447 6.39061C70.9291 5.84366 70.3048 4.62079 70.1377 4.41808C70.0816 4.34999 69.944 4.1765 69.8318 4.03251C69.7197 3.88853 69.6063 3.79249 69.5797 3.8191C69.5532 3.84579 69.5492 3.821 69.5708 3.76411C69.6231 3.62653 68.1438 2.1656 67.7235 1.93979C67.6446 1.89734 67.4966 1.78496 67.3946 1.69012C67.2927 1.59521 67.1418 1.49649 67.0593 1.47065C66.9768 1.44481 66.8935 1.40024 66.8743 1.37159C66.7969 1.25661 65.6812 0.737829 65.1212 0.556453C64.7933 0.450275 64.462 0.337267 64.3849 0.305371C63.8487 0.08351 61.726 -0.0735726 60.7385 0.0354922ZM92.3092 3.16668C92.138 3.38221 91.5383 4.03892 90.8914 4.71936C90.7757 4.84103 90.5829 5.04867 90.4631 5.18076C90.3433 5.31277 90.0198 5.63814 89.7443 5.90379C89.4689 6.16938 89.2435 6.4149 89.2435 6.44947C89.2435 6.48397 89.2131 6.5122 89.1759 6.5122C89.1387 6.5122 88.825 6.78948 88.4787 7.12829C88.1324 7.46717 87.6366 7.93448 87.3769 8.16683C87.1172 8.39919 86.7604 8.71934 86.584 8.87833C86.0814 9.33127 84.926 10.3312 84.6807 10.5256C84.5584 10.6224 84.3754 10.7707 84.274 10.8551C83.8238 11.2299 83.1492 11.7696 82.9697 11.8986C82.862 11.976 82.6375 12.1503 82.4709 12.2858C81.9061 12.7455 80.147 14.0316 79.7262 14.2925C79.4804 14.4448 79.3653 14.5672 79.4057 14.6328C79.4289 14.6706 79.414 14.6804 79.3726 14.6547C79.3311 14.629 79.009 14.8063 78.6567 15.0487C78.3044 15.2911 77.9311 15.537 77.8271 15.5952C77.7232 15.6534 77.5386 15.7722 77.417 15.8592C77.2953 15.9463 77.1638 16.0175 77.1248 16.0175C77.0857 16.0175 77.0433 16.0424 77.0304 16.0729C77.0175 16.1033 76.7546 16.2763 76.446 16.4572C76.1375 16.638 75.8535 16.8127 75.8149 16.8453C75.7764 16.8779 75.1137 17.2542 74.3424 17.6814C72.2629 18.8333 71.5437 19.188 68.7325 20.4487C68.5782 20.5179 68.1838 20.6777 67.856 20.8039C67.5282 20.9301 67.1653 21.0725 67.0496 21.1204C66.6064 21.3038 64.7703 21.9322 63.9992 22.1642C62.6164 22.5804 62.0344 22.7315 60.1775 23.1565C59.6508 23.2771 58.3547 23.4876 57.0679 23.6617C56.6303 23.7209 56.1412 23.7974 55.981 23.8317C55.0952 24.0213 54.435 24.1903 54.3658 24.2452C54.3225 24.2795 54.1609 24.3476 54.0067 24.3967C53.6873 24.4983 53.1482 24.7866 52.6634 25.1152C52.3253 25.3443 51.3771 26.2708 51.3771 26.3721C51.3771 26.4029 51.3318 26.4735 51.2766 26.529C51.1391 26.6671 50.5233 27.8721 50.3695 28.304C50.3006 28.4977 50.2161 28.7194 50.1817 28.7969C50.1101 28.9585 49.8996 29.7482 49.6562 30.7684C49.5637 31.1556 49.4072 31.8052 49.3084 32.2118C49.0166 33.4124 48.6977 34.746 48.2562 36.6124C48.1646 36.9996 48.0052 37.665 47.902 38.091C47.7989 38.517 47.6418 39.1665 47.5529 39.5344C47.464 39.9023 47.3066 40.5518 47.2033 40.9778C47 41.815 46.7067 43.0659 46.4769 44.0758C46.3975 44.4243 46.3003 44.8204 46.2607 44.9559C46.221 45.0915 46.0626 45.741 45.9085 46.3993C45.7544 47.0577 45.5998 47.6914 45.5649 47.8075C45.4139 48.3102 45.1191 49.6797 45.1543 49.7151C45.1755 49.7364 45.2511 49.7064 45.3223 49.6484C45.3935 49.5904 45.8145 49.248 46.2581 48.8877C46.7016 48.5273 47.1118 48.1938 47.1697 48.1465C47.2683 48.0659 47.7856 47.6573 48.4012 47.1738C48.5491 47.0577 48.8648 46.8042 49.1026 46.6106C49.3405 46.4169 49.6554 46.1635 49.8024 46.0473C49.9495 45.9311 50.1509 45.7663 50.2501 45.6811C50.3493 45.5959 50.6211 45.3741 50.8541 45.1882C51.0872 45.0024 51.3238 44.8108 51.3801 44.7626C51.5637 44.605 52.6438 43.7281 52.8805 43.5445C53.0076 43.4459 53.1587 43.3191 53.2162 43.2629C53.2739 43.2065 53.4279 43.075 53.5587 42.9705C53.9358 42.669 55.5565 41.3223 56.2857 40.7045C56.6521 40.3941 56.9834 40.1155 57.022 40.0854C57.2616 39.8983 58.9747 38.4535 59.3031 38.1614C59.5209 37.9678 59.7751 37.7489 59.8682 37.675C60.0175 37.5564 60.2781 37.3353 60.7385 36.9365C60.8156 36.8697 61.0996 36.6302 61.3696 36.4042C61.6396 36.1782 61.9393 35.9189 62.0358 35.828C62.1322 35.737 62.29 35.5966 62.3864 35.5158C62.8016 35.1681 63.8456 34.2595 64.2237 33.9168C64.4495 33.7121 64.7011 33.4903 64.7829 33.4239C64.8646 33.3575 65.0767 33.1728 65.2542 33.0135C65.4317 32.8543 65.7663 32.5566 65.9977 32.352C67.5658 30.9658 68.0848 30.4991 68.2744 30.3046C68.3721 30.2045 68.6414 29.9627 68.8728 29.7674C69.1042 29.5721 69.4568 29.258 69.6564 29.0694C69.856 28.8808 70.2137 28.5522 70.4514 28.3392C70.6892 28.1262 71.0361 27.8094 71.2224 27.6351C71.4088 27.4609 71.903 27.0016 72.3207 26.6145C72.7384 26.2274 73.3641 25.637 73.7112 25.3023C74.0584 24.9677 74.5755 24.4765 74.8604 24.2107C76.2781 22.8882 79.0061 20.1581 81.6752 17.3905C81.7516 17.3114 82.1001 16.9419 82.8357 16.1606C83.3742 15.5887 84.7619 14.0558 84.9537 13.8212C85.0926 13.6513 85.319 13.3878 86.0627 12.5304C86.3659 12.1808 86.9294 11.4996 87.3151 11.0166C87.7007 10.5335 88.033 10.1225 88.0537 10.1031C88.0743 10.0837 88.2147 9.89363 88.3658 9.68064C88.517 9.46765 88.7132 9.21777 88.8018 9.12539C88.8905 9.03294 88.963 8.93226 88.963 8.90156C88.963 8.87086 89.0025 8.80313 89.0507 8.75102C89.2056 8.58352 89.5545 8.10811 89.8411 7.67397C89.9945 7.44161 90.1375 7.23566 90.1589 7.2163C90.2147 7.16568 90.8355 6.18522 91.2171 5.54491C91.6274 4.85659 92.4864 3.20295 92.4336 3.20295C92.4119 3.20295 92.4279 3.13958 92.4692 3.06213C92.5784 2.85709 92.5302 2.88871 92.3092 3.16668Z" fill="#ED1E26"/>
</svg>
