<svg width="16" height="16" viewBox="0 0 16 16" fill="none" xmlns="http://www.w3.org/2000/svg">
<path d="M7.51163 14.9993C7.2559 14.9628 6.99652 14.9434 6.74444 14.8897C4.02176 14.3103 2.25782 12.6876 1.45263 10.0217C1.37957 9.77401 1.49428 9.54677 1.71494 9.48174C1.94985 9.41087 2.16831 9.54093 2.24138 9.80616C2.56031 10.9664 3.15909 11.9554 4.0757 12.7368C5.40477 13.8694 6.94829 14.3604 8.67886 14.12C10.8343 13.8211 12.3661 12.6448 13.3007 10.6859C13.3138 10.6585 13.3233 10.6289 13.346 10.5708C13.2269 10.6208 13.133 10.6618 13.0383 10.6994C12.8023 10.7936 12.5634 10.7063 12.4739 10.4933C12.3844 10.2804 12.4798 10.0458 12.7136 9.94535C13.1033 9.77827 13.4929 9.61387 13.8826 9.45215C14.1464 9.34255 14.3576 9.43133 14.4719 9.69583C14.637 10.0804 14.7995 10.4661 14.9593 10.8528C15.0575 11.0903 14.9728 11.3223 14.7594 11.4165C14.5402 11.513 14.313 11.4111 14.2045 11.1681C14.1712 11.095 14.1391 11.0198 14.0978 10.9263C14.077 10.965 14.0642 10.9858 14.054 11.0077C13.0729 13.1072 11.4488 14.398 9.18156 14.8802C8.90244 14.9398 8.61493 14.9613 8.33143 15.0008L7.51163 14.9993Z" fill="#0A0B09" stroke="#0A0B09" stroke-width="0.5"/>
<path d="M1.00182 4.73333C1.06722 4.60656 1.14138 4.52855 1.2897 4.48362C1.38683 4.4543 1.49133 4.4616 1.58344 4.50415C1.67554 4.5467 1.74884 4.62154 1.78947 4.71451C1.83478 4.81132 1.87387 4.91105 1.9272 5.03709C1.97397 4.93845 2.00648 4.86502 2.04301 4.79378C3.14595 2.64382 4.88711 1.36479 7.28623 1.05463C10.5881 0.627192 13.6956 2.74939 14.5563 5.9727C14.6246 6.22843 14.5095 6.45859 14.2834 6.5207C14.0492 6.5828 13.8406 6.45713 13.7683 6.19555C13.4201 4.93443 12.7421 3.89032 11.7151 3.07856C8.7808 0.756519 4.40378 1.76958 2.78573 5.14048C2.76089 5.19272 2.74006 5.24643 2.70536 5.32753C2.81715 5.2815 2.90227 5.24423 2.98885 5.21099C3.21097 5.1255 3.43821 5.21099 3.53027 5.41667C3.5534 5.46664 3.56605 5.52081 3.56746 5.57585C3.56887 5.6309 3.55901 5.68564 3.53848 5.73673C3.51795 5.78782 3.48718 5.83417 3.44808 5.87293C3.40897 5.91169 3.36235 5.94204 3.31107 5.96211C2.90653 6.13868 2.4998 6.31002 2.09087 6.47613C1.85925 6.57038 1.647 6.47613 1.54288 6.23866C1.37775 5.85872 1.21919 5.47622 1.05699 5.09518C1.04164 5.05865 1 4.82667 1 4.82667C1 4.73333 1.00182 4.73333 1.00182 4.73333Z" fill="#0A0B09"/>
<path d="M1.00182 4.73333C1.06722 4.60656 1.14138 4.52855 1.2897 4.48362C1.38683 4.4543 1.49133 4.4616 1.58344 4.50415C1.67554 4.5467 1.74884 4.62154 1.78947 4.71451C1.83478 4.81132 1.87387 4.91105 1.9272 5.03709C1.97397 4.93845 2.00648 4.86502 2.04301 4.79378C3.14595 2.64382 4.88711 1.36479 7.28623 1.05463C10.5881 0.627192 13.6956 2.74939 14.5563 5.9727C14.6246 6.22843 14.5095 6.45859 14.2834 6.5207C14.0492 6.5828 13.8406 6.45713 13.7683 6.19555C13.4201 4.93443 12.7421 3.89032 11.7151 3.07856C8.7808 0.756519 4.40378 1.76958 2.78573 5.14048C2.76089 5.19272 2.74006 5.24643 2.70536 5.32753C2.81715 5.2815 2.90227 5.24423 2.98885 5.21099C3.21097 5.1255 3.43821 5.21099 3.53027 5.41667C3.5534 5.46664 3.56605 5.52081 3.56746 5.57585C3.56887 5.6309 3.55901 5.68564 3.53848 5.73673C3.51795 5.78782 3.48718 5.83417 3.44808 5.87293C3.40897 5.91169 3.36235 5.94204 3.31107 5.96211C2.90653 6.13868 2.4998 6.31002 2.09087 6.47613C1.85925 6.57038 1.647 6.47613 1.54288 6.23866C1.37775 5.85872 1.21919 5.47622 1.05699 5.09518C1.04164 5.05865 1 4.82667 1 4.82667C1 4.73333 1.00182 4.73333 1.00182 4.73333Z" stroke="#0A0B09" stroke-width="0.5"/>
</svg>
