<svg width="24" height="24" viewBox="0 0 24 24" fill="none" xmlns="http://www.w3.org/2000/svg">
<g clip-path="url(#clip0_33051_16076)">
<path d="M12 8V12L14 14" stroke="white" stroke-width="1.5" stroke-linecap="round" stroke-linejoin="round"/>
<path d="M5.93274 5.26803C6.66775 4.59643 7.5025 4.05724 8.40001 3.66507M11.9009 2.9127C13.1861 2.89802 14.4484 3.15867 15.6073 3.66507C16.4423 4.02989 17.2236 4.52226 17.9213 5.1311C18.6114 5.73334 19.1996 6.43209 19.6715 7.2C20.3389 8.28604 20.7735 9.51041 20.9342 10.7958C21.2085 12.99 20.6653 15.2085 19.4084 17.0278C18.1514 18.8472 16.2686 20.1401 14.1193 20.6599C11.9699 21.1797 9.70441 20.8901 7.755 19.8461C5.80558 18.8022 4.95873 17.0771 4.20001 15M3.05 20.0001V15.0001H8.05" stroke="white" stroke-width="1.5" stroke-linecap="round" stroke-linejoin="round"/>
</g>
<defs>
<clipPath id="clip0_33051_16076">
<rect width="24" height="24" fill="white"/>
</clipPath>
</defs>
</svg>
