<svg width="13" height="13" viewBox="0 0 13 13" fill="none" xmlns="http://www.w3.org/2000/svg">
<path d="M6.5 0C2.91012 0 0 2.91012 0 6.5C0 10.0899 2.91012 13 6.5 13C10.0899 13 13 10.0899 13 6.5C13 2.91012 10.0899 0 6.5 0ZM10.3875 10.3875C9.34904 11.4259 7.96916 11.9976 6.5 11.9976C5.03084 11.9976 3.65096 11.4259 2.61253 10.3875C1.5741 9.34904 1.00241 7.96916 1.00241 6.5C1.00241 5.03084 1.5741 3.65096 2.61253 2.61253C3.65096 1.5741 5.03084 1.00241 6.5 1.00241C7.96916 1.00241 9.34904 1.5741 10.3875 2.61253C11.4259 3.65096 11.9976 5.03084 11.9976 6.5C11.9976 7.96916 11.4259 9.34904 10.3875 10.3875Z" fill="#464646"/>
<path d="M6.9871 5.83656V2.50511C6.9871 2.22945 6.76156 2.00391 6.4859 2.00391C6.21024 2.00391 5.98469 2.22945 5.98469 2.50511V6.02294C5.98 6.15764 6.02698 6.29547 6.13036 6.39728L7.87518 8.1421C8.06939 8.33632 8.38891 8.33632 8.58469 8.1421C8.77891 7.94788 8.77891 7.62836 8.58469 7.43258L6.9871 5.83656Z" fill="#464646"/>
</svg>
