<svg width="15" height="16" viewBox="0 0 15 16" fill="none" xmlns="http://www.w3.org/2000/svg">
<path fill-rule="evenodd" clip-rule="evenodd" d="M3.62306 0.28557C3.84193 0.591986 3.77096 1.01781 3.46454 1.23668L1.07819 2.94121C0.771777 3.16008 0.345951 3.08911 0.127083 2.7827C-0.0917857 2.47628 -0.0208147 2.05045 0.285601 1.83159L2.67195 0.127052C2.97836 -0.0918163 3.40419 -0.0208452 3.62306 0.28557ZM11.377 0.28557C11.5959 -0.0208452 12.0217 -0.0918163 12.3281 0.127052L14.7145 1.83159C15.0209 2.05045 15.0918 2.47628 14.873 2.7827C14.6541 3.08911 14.2283 3.16008 13.9219 2.94121L11.5355 1.23668C11.2291 1.01781 11.1581 0.591986 11.377 0.28557ZM0.568249 8.18183C0.568249 4.35349 3.67169 1.25005 7.50003 1.25005C11.3283 1.25005 14.4318 4.35349 14.4318 8.18183C14.4318 12.0101 11.3283 15.1136 7.50003 15.1136C3.67169 15.1136 0.568249 12.0101 0.568249 8.18183ZM7.50003 2.61368C4.4248 2.61368 1.93188 5.1066 1.93188 8.18183C1.93188 11.257 4.4248 13.75 7.50003 13.75C10.5752 13.75 13.0682 11.257 13.0682 8.18183C13.0682 5.1066 10.5752 2.61368 7.50003 2.61368ZM7.41808 3.87055C7.79464 3.87059 8.09986 4.17589 8.09982 4.55244L8.09944 8.02295L10.5493 10.4729C10.8156 10.7391 10.8156 11.1708 10.5493 11.4371C10.2831 11.7034 9.85138 11.7034 9.58511 11.4371L6.93548 8.78746C6.8076 8.65957 6.73577 8.48612 6.73579 8.30527L6.73619 4.55229C6.73624 4.17574 7.04153 3.87051 7.41808 3.87055Z" fill="#464646"/>
</svg>
