<svg width="14" height="14" viewBox="0 0 14 14" fill="none" xmlns="http://www.w3.org/2000/svg">
<path fill-rule="evenodd" clip-rule="evenodd" d="M1.99162 0.341709C1.53601 -0.113903 0.79732 -0.113903 0.341709 0.341709C-0.113903 0.79732 -0.113903 1.53601 0.341709 1.99162L5.29203 6.94195L0.342857 11.8911C-0.112755 12.3467 -0.112755 13.0854 0.342857 13.541C0.798468 13.9966 1.53716 13.9966 1.99277 13.541L6.94195 8.59186L11.8911 13.541C12.3467 13.9966 13.0854 13.9966 13.541 13.541C13.9966 13.0854 13.9966 12.3467 13.541 11.8911L8.59186 6.94195L13.5422 1.99162C13.9978 1.53601 13.9978 0.797321 13.5422 0.341709C13.0866 -0.113903 12.3479 -0.113903 11.8923 0.341709L6.94195 5.29203L1.99162 0.341709Z" fill="#0A0B09"/>
</svg>
