<svg width="18" height="18" viewBox="0 0 18 18" fill="none" xmlns="http://www.w3.org/2000/svg">
<g clip-path="url(#clip0_32357_3303)">
<path d="M17.4315 10.9835C17.4315 12.463 17.4344 13.9427 17.4315 15.4222C17.4289 16.3909 16.8016 17.1743 15.8653 17.3831C15.7163 17.416 15.5642 17.4326 15.4115 17.4327C12.4526 17.4353 9.49364 17.4353 6.53455 17.4327C5.3947 17.4327 4.51404 16.5855 4.50982 15.4483C4.49892 12.4718 4.49892 9.4952 4.50982 6.51854C4.51404 5.38712 5.38231 4.53837 6.51741 4.536C9.48212 4.52967 12.4469 4.52967 15.4118 4.536C16.5696 4.53784 17.4281 5.40611 17.4307 6.56283C17.4339 8.03622 17.4315 9.50988 17.4315 10.9835ZM5.83002 10.9651C5.83002 12.4267 5.83002 13.8883 5.83002 15.3499C5.83002 15.8688 6.07286 16.1125 6.59203 16.1125C9.50893 16.1125 12.426 16.1125 15.3433 16.1125C15.8627 16.1125 16.1079 15.8688 16.1079 15.3512C16.1079 12.4398 16.1079 9.52833 16.1079 6.61688C16.1079 6.09772 15.8653 5.85461 15.3456 5.85461C12.4286 5.85461 9.51148 5.85461 6.5944 5.85461C6.07339 5.85461 5.83107 6.0964 5.83107 6.61557C5.83002 8.06558 5.82967 9.51541 5.83002 10.9651Z" fill="#0A0B09"/>
<path d="M3.18464 12.1672V13.4466C1.7682 13.6957 0.619911 12.911 0.569814 11.6009C0.523408 10.3867 0.557158 9.16903 0.556894 7.95298C0.556894 6.16951 0.553466 4.38631 0.556894 2.6031C0.559531 1.57294 1.22372 0.785887 2.22804 0.612392C2.36133 0.593112 2.49603 0.585174 2.63066 0.588662C5.55398 0.588662 8.47729 0.598418 11.4003 0.58207C12.4999 0.575742 13.3251 1.34671 13.4414 2.26007C13.4797 2.55723 13.4475 2.86335 13.4475 3.1758H12.1581C12.1581 2.98938 12.1581 2.81009 12.1581 2.63079C12.1552 2.17069 11.8855 1.89963 11.4254 1.89963C8.48424 1.89963 5.54334 1.89963 2.60271 1.89963C2.14155 1.89963 1.86997 2.16963 1.86971 2.63C1.86866 5.56553 1.86866 8.50106 1.86971 11.4366C1.86971 11.8962 2.14235 12.1654 2.60271 12.168C2.78966 12.1683 2.97686 12.1672 3.18464 12.1672Z" fill="#0A0B09"/>
</g>
<defs>
<clipPath id="clip0_32357_3303">
<rect width="18" height="18" fill="white"/>
</clipPath>
</defs>
</svg>
