<svg width="15" height="16" viewBox="0 0 15 16" fill="none" xmlns="http://www.w3.org/2000/svg">
<path fill-rule="evenodd" clip-rule="evenodd" d="M4.64286 0.992188C5.03735 0.992188 5.35714 1.31198 5.35714 1.70647V2.06362H9.64286V1.70647C9.64286 1.31198 9.96265 0.992188 10.3571 0.992188C10.7516 0.992188 11.0714 1.31198 11.0714 1.70647V2.06362H13.5714C14.3604 2.06362 15 2.70322 15 3.49219V14.5636C15 15.3526 14.3604 15.9922 13.5714 15.9922H1.42857C0.6396 15.9922 0 15.3526 0 14.5636V3.49219C0 2.70321 0.639593 2.06362 1.42857 2.06362H3.92857V1.70647C3.92857 1.31198 4.24837 0.992188 4.64286 0.992188ZM3.92857 3.49219H1.42857V6.34933H13.5714V3.49219H11.0714V4.56362C11.0714 4.95811 10.7516 5.2779 10.3571 5.2779C9.96265 5.2779 9.64286 4.95811 9.64286 4.56362V3.49219H5.35714V4.56362C5.35714 4.95811 5.03735 5.2779 4.64286 5.2779C4.24837 5.2779 3.92857 4.95811 3.92857 4.56362V3.49219ZM13.5714 7.7779H1.42857V14.5636H13.5714V7.7779ZM3.21429 9.56362C3.21429 9.16913 3.53408 8.84933 3.92857 8.84933H6.07143C6.46592 8.84933 6.78571 9.16913 6.78571 9.56362C6.78571 9.95811 6.46592 10.2779 6.07143 10.2779H3.92857C3.53408 10.2779 3.21429 9.95811 3.21429 9.56362ZM8.21429 9.56362C8.21429 9.16913 8.53408 8.84933 8.92857 8.84933H11.0714C11.4659 8.84933 11.7857 9.16913 11.7857 9.56362C11.7857 9.95811 11.4659 10.2779 11.0714 10.2779H8.92857C8.53408 10.2779 8.21429 9.95811 8.21429 9.56362ZM3.21429 12.4208C3.21429 12.0263 3.53408 11.7065 3.92857 11.7065H6.07143C6.46592 11.7065 6.78571 12.0263 6.78571 12.4208C6.78571 12.8152 6.46592 13.135 6.07143 13.135H3.92857C3.53408 13.135 3.21429 12.8152 3.21429 12.4208ZM8.21429 12.4208C8.21429 12.0263 8.53408 11.7065 8.92857 11.7065H11.0714C11.4659 11.7065 11.7857 12.0263 11.7857 12.4208C11.7857 12.8152 11.4659 13.135 11.0714 13.135H8.92857C8.53408 13.135 8.21429 12.8152 8.21429 12.4208Z" fill="#464646"/>
</svg>
