<svg width="38" height="38" viewBox="0 0 38 38" fill="none" xmlns="http://www.w3.org/2000/svg">
<path d="M8.31974 24.2574C10.6463 23.3914 11.9001 22.9649 12.3525 22.8227C12.7709 22.7117 13.1683 22.5326 13.5287 22.2927C13.734 22.1685 13.9211 22.0163 14.0845 21.8405V21.7629C14.0095 21.573 13.9658 21.3722 13.9552 21.1683C13.9417 21.0611 13.9417 20.9525 13.9552 20.8452L13.4382 20.367C13.0777 20.0341 12.7914 19.6289 12.598 19.1779C12.4687 18.8677 12.3396 18.5703 12.2361 18.2472V18.0146C11.9898 17.7941 11.7688 17.5471 11.577 17.2779C11.2897 16.8574 11.0796 16.389 10.9565 15.8948C10.751 15.2839 10.6762 14.6366 10.7368 13.9948C10.7791 13.6113 10.8658 13.2339 10.9952 12.8704C11.0553 12.6885 11.1288 12.5114 11.215 12.3404C11.2192 11.6531 11.2667 10.9667 11.3572 10.2853C11.4381 9.57927 11.5677 8.87963 11.745 8.19141H11.4865C11.1608 8.19535 10.8362 8.22995 10.517 8.29476C10.179 8.35452 9.84925 8.45433 9.53481 8.59208C9.19081 8.7592 8.86582 8.96288 8.56544 9.19959C8.22314 9.47551 7.93029 9.80767 7.69945 10.1818C7.41796 10.6259 7.20445 11.1095 7.066 11.6166C6.92845 12.1124 6.8291 12.6179 6.76882 13.1288C6.70432 13.6865 6.6784 14.2479 6.69127 14.809C6.481 15.0962 6.35559 15.4365 6.32934 15.7914C6.29104 16.0138 6.29104 16.2411 6.32934 16.4635C6.38583 16.6652 6.47299 16.857 6.58777 17.0323C6.66489 17.1429 6.75142 17.2467 6.84638 17.3425C6.93685 17.4092 7.03709 17.4615 7.14355 17.4975L7.33753 18.1696C7.41505 18.3635 7.47973 18.5445 7.57016 18.7383C7.63553 18.8981 7.73223 19.0431 7.85457 19.1649C8.07372 19.3497 8.2809 19.5483 8.47485 19.7594C8.67879 19.9811 8.78983 20.2726 8.78505 20.5738V21.1811C8.78769 21.3703 8.75708 21.5584 8.69461 21.737C8.62 21.9318 8.51051 22.1113 8.3715 22.2669C8.17454 22.4826 7.94832 22.6697 7.69945 22.8227C7.30023 23.0773 6.86428 23.2691 6.40686 23.3914C6.07087 23.4819 4.90757 23.9084 4.11914 24.1929V29.673H4.2354C4.2354 29.3499 4.31296 28.9881 4.37761 28.5099V28.3806C4.50055 27.273 5.03023 26.2505 5.86402 25.5111C6.54579 24.9726 7.32146 24.565 8.15174 24.3091H8.31974V24.2574V24.2574ZM30.7764 24.3091H30.9444C31.7747 24.565 32.5504 24.9726 33.2321 25.5111C34.0659 26.2505 34.5956 27.273 34.7186 28.3806V28.5099C34.7832 28.9881 34.8608 29.3499 34.8608 29.673H34.977V24.1929C34.1886 23.9085 33.0253 23.482 32.6893 23.3914C32.2319 23.2691 31.796 23.0773 31.3967 22.8227C31.1478 22.6698 30.9216 22.4827 30.7247 22.2669C30.5857 22.1114 30.4762 21.9318 30.4016 21.737C30.3391 21.5584 30.3085 21.3703 30.3111 21.1812V20.5738C30.3063 20.2726 30.4174 19.9811 30.6213 19.7595C30.8153 19.5484 31.0225 19.3498 31.2416 19.1649C31.3639 19.0432 31.4606 18.8981 31.526 18.7383C31.6165 18.5445 31.6811 18.3635 31.7587 18.1697L31.9527 17.4975C32.0591 17.4615 32.1594 17.4092 32.2498 17.3425C32.3448 17.2468 32.4313 17.143 32.5084 17.0323C32.6232 16.8571 32.7104 16.6652 32.7669 16.4635C32.8052 16.2411 32.8052 16.0139 32.7669 15.7915C32.7407 15.4366 32.6152 15.0962 32.4049 14.8091C32.4178 14.2479 32.3919 13.6865 32.3274 13.1289C32.2671 12.618 32.1678 12.1124 32.0302 11.6167C31.8918 11.1095 31.6783 10.6259 31.3968 10.1819C31.1659 9.80769 30.8731 9.47553 30.5308 9.19963C30.2304 8.96292 29.9054 8.75924 29.5614 8.59211C29.247 8.45437 28.9172 8.35456 28.5792 8.29479C28.26 8.22999 27.9354 8.19539 27.6097 8.19144H27.3512C27.5285 8.87966 27.6581 9.5793 27.739 10.2854C27.8295 10.9667 27.877 11.6531 27.8812 12.3405C27.9674 12.5114 28.0409 12.6886 28.101 12.8704C28.2304 13.234 28.3171 13.6113 28.3594 13.9949C28.4201 14.6366 28.3452 15.2839 28.1397 15.8948C28.0166 16.389 27.8065 16.8574 27.5192 17.2779C27.3274 17.5471 27.1064 17.7942 26.8601 18.0146V18.2473C26.7566 18.5704 26.6274 18.8677 26.4981 19.1779C26.3048 19.629 26.0185 20.0342 25.6579 20.367L25.141 20.8453C25.1545 20.9525 25.1545 21.061 25.141 21.1684C25.1304 21.3723 25.0867 21.5731 25.0117 21.7629V21.8405C25.1751 22.0163 25.3622 22.1685 25.5675 22.2928C25.9279 22.5326 26.3253 22.7117 26.7437 22.8228C27.1961 22.965 28.4499 23.3914 30.7764 24.2574V24.3091V24.3091ZM30.7764 24.3462H30.9444C31.7747 24.6021 32.5504 25.0097 33.2321 25.5482C34.0659 26.2876 34.5956 27.3101 34.7186 28.4177V28.547C34.7832 29.0252 34.8608 29.387 34.8608 29.7101H34.977V24.23C34.1886 23.9456 33.0253 23.5191 32.6893 23.4285C32.2319 23.3062 31.796 23.1144 31.3967 22.8599C31.1478 22.7069 30.9216 22.5198 30.7247 22.304C30.5857 22.1485 30.4762 21.9689 30.4016 21.7741C30.3391 21.5956 30.3085 21.4074 30.3111 21.2183V20.6109C30.3063 20.3097 30.4174 20.0182 30.6213 19.7966C30.8153 19.5855 31.0225 19.3869 31.2416 19.2021C31.3639 19.0803 31.4607 18.9352 31.526 18.7754C31.6165 18.5817 31.6811 18.4006 31.7587 18.2068L31.9527 17.5347C32.0591 17.4987 32.1594 17.4464 32.2498 17.3797C32.3448 17.2839 32.4313 17.1801 32.5084 17.0695C32.6232 16.8942 32.7104 16.7024 32.7669 16.5006C32.8052 16.2783 32.8052 16.051 32.7669 15.8287C32.7407 15.4737 32.6152 15.1333 32.4049 14.8462C32.4178 14.2851 32.3919 13.7237 32.3274 13.1661C32.2671 12.6551 32.1678 12.1496 32.0302 11.6539C31.8918 11.1467 31.6783 10.663 31.3968 10.219C31.1659 9.84484 30.8731 9.51268 30.5308 9.23678C30.2304 9.00007 29.9054 8.79639 29.5614 8.62926C29.247 8.49152 28.9172 8.39171 28.5792 8.33194C28.26 8.26714 27.9354 8.23253 27.6097 8.22859H27.3512C27.5285 8.91681 27.6581 9.61645 27.739 10.3225C27.8295 11.0039 27.877 11.6903 27.8812 12.3776C27.9674 12.5486 28.0409 12.7257 28.101 12.9075C28.2304 13.2711 28.3171 13.6484 28.3594 14.032C28.4201 14.6737 28.3452 15.321 28.1397 15.9319C28.0166 16.4262 27.8065 16.8945 27.5192 17.315C27.3274 17.5842 27.1064 17.8313 26.8601 18.0517V18.2844C26.7566 18.6075 26.6274 18.9048 26.4981 19.215C26.3048 19.6661 26.0185 20.0713 25.6579 20.4041L25.141 20.8824C25.1545 20.9896 25.1545 21.0982 25.141 21.2055C25.1304 21.4094 25.0867 21.6102 25.0117 21.8V21.8776C25.1751 22.0534 25.3622 22.2057 25.5675 22.3299C25.9279 22.5697 26.3253 22.7488 26.7437 22.8599C27.1961 23.0021 28.4499 23.4286 30.7764 24.2945V24.3462V24.3462Z" fill="#0685CF"/>
<path d="M32.4537 28.1622C32.2944 27.6608 31.9991 27.2134 31.6006 26.8698C31.1812 26.5436 30.7205 26.2741 30.2306 26.0683C29.7266 25.8616 27.5034 24.7758 26.9476 24.6854C26.4248 24.5398 25.9112 24.3628 25.4096 24.1555C24.9685 23.9713 24.562 23.7134 24.2075 23.3928C23.9305 23.1454 23.7101 22.8413 23.5612 22.501C23.4308 22.2072 23.3562 21.8916 23.3415 21.5704C23.3109 21.0418 23.3947 20.5128 23.5872 20.0195C23.6541 19.8568 23.7505 19.7078 23.8714 19.58C23.9888 19.4549 24.1187 19.3423 24.2592 19.2439C24.4302 19.1201 24.5903 18.9817 24.7374 18.8303C24.9073 18.6613 25.0472 18.4646 25.151 18.2487C25.2674 17.9902 25.3708 17.7316 25.4743 17.4731C25.5776 17.2147 25.6423 16.8527 25.7198 16.5425C25.8935 16.4652 26.0479 16.3505 26.1721 16.2065C26.3429 16.0333 26.4828 15.8322 26.5858 15.6119C26.7241 15.2914 26.8113 14.9513 26.8443 14.6038C26.8896 14.3343 26.8896 14.059 26.8443 13.7895C26.8074 13.6015 26.7466 13.4191 26.6634 13.2466C26.6171 13.0949 26.5216 12.9631 26.3919 12.8719C26.4094 12.0637 26.3619 11.2554 26.2497 10.4548C26.1566 9.71261 25.9921 8.9811 25.7586 8.27046C25.534 7.50498 25.1799 6.78366 24.7117 6.13782C24.4761 5.82459 24.1976 5.5461 23.8844 5.31054C23.5351 5.01812 23.1535 4.76663 22.7471 4.56097C22.2969 4.34671 21.83 4.16947 21.3511 4.03101C20.8461 3.89094 20.3241 3.82138 19.8 3.82431C19.3664 3.83169 18.9341 3.87489 18.5076 3.95345C18.0618 4.03914 17.6278 4.17799 17.215 4.36703C16.1291 4.81843 15.199 5.57776 14.5395 6.5514C14.1533 7.15718 13.8655 7.82025 13.6866 8.51601C13.3348 9.93987 13.1869 11.4064 13.2471 12.8719C13.1024 13.064 12.989 13.2777 12.9111 13.5052C12.8193 13.7171 12.75 13.938 12.7042 14.1643C12.6777 14.4741 12.7129 14.786 12.8076 15.0821C12.8712 15.363 12.9851 15.6301 13.1437 15.8705C13.2524 16.0223 13.3734 16.1649 13.5055 16.297C13.6246 16.3908 13.7607 16.4611 13.9062 16.5038L14.1906 17.4473C14.2811 17.7058 14.3844 17.9643 14.4879 18.21C14.5795 18.4334 14.7159 18.6357 14.8886 18.8044C15.1874 19.0603 15.4721 19.3321 15.7417 19.6187C16.0164 19.9248 16.1723 20.3192 16.181 20.7304V21.5833C16.1765 21.8425 16.133 22.0996 16.0519 22.3459C15.9422 22.6106 15.7893 22.8552 15.5995 23.0697C15.3342 23.3605 15.0296 23.6128 14.6946 23.8194C14.1806 24.179 13.6075 24.4458 13.0015 24.6078C12.3424 24.7887 9.52468 25.8356 8.91717 26.0683C8.33778 26.2673 7.79918 26.5694 7.3274 26.9602C6.86074 27.411 6.56397 28.0091 6.48721 28.6533C6.31539 29.4165 6.27606 30.2034 6.37094 30.9799C6.36152 31.5066 6.51992 32.0226 6.82323 32.4534C7.2847 32.6875 7.77616 32.8571 8.28382 32.9574C12.158 33.7567 16.1029 34.1638 20.0587 34.1724C23.9374 34.2205 27.8015 33.6889 31.5232 32.5954C31.8212 32.5141 32.0958 32.3635 32.3247 32.1561C32.4754 31.8521 32.5716 31.524 32.6089 31.1867C32.6721 30.7371 32.7023 30.2835 32.6994 29.8295C32.6994 29.3642 32.6994 29.739 32.6349 29.2737C32.6059 28.8799 32.5366 28.4901 32.428 28.1104L32.4537 28.1622V28.1622ZM21.4803 31.0575C21.331 31.251 21.1668 31.4325 20.9891 31.6004C20.8147 31.7731 20.6243 31.9289 20.4204 32.0657C20.2959 32.1717 20.1432 32.239 19.981 32.2595C19.8311 32.2317 19.6896 32.1698 19.5673 32.0786C19.3624 31.9378 19.168 31.7823 18.9858 31.6133C18.8014 31.4435 18.6327 31.2575 18.4817 31.0575C18.3709 30.9449 18.2985 30.8001 18.2749 30.6439C18.2824 30.3918 18.3127 30.1408 18.3653 29.8942C18.3653 29.5711 18.5075 29.2091 18.5851 28.8473C18.6626 28.4853 18.7531 28.1235 18.8564 27.7744C18.96 27.4256 18.9987 27.2445 19.0762 26.986C18.8845 26.814 18.7151 26.6186 18.5721 26.4044C18.4728 26.2646 18.4187 26.0977 18.4171 25.9262C18.422 25.753 18.4709 25.584 18.5593 25.435C18.6445 25.2844 18.7488 25.1454 18.8695 25.0214C19.0167 24.8622 19.1766 24.7153 19.3477 24.582H20.7435L21.2217 25.0214C21.3647 25.1446 21.4832 25.2937 21.5708 25.4609C21.6735 25.6039 21.7278 25.776 21.7259 25.952C21.7188 26.1646 21.6515 26.3707 21.5319 26.5466C21.3753 26.746 21.1977 26.9279 21.0021 27.0893C21.0021 27.322 21.1313 27.5935 21.196 27.9553L21.4286 29.0281C21.4286 29.3772 21.5708 29.7132 21.6226 30.0234C21.6644 30.2323 21.6903 30.444 21.7002 30.6567C21.6774 30.817 21.605 30.9661 21.4933 31.0832L21.4803 31.0575V31.0575Z" fill="#0F50A4"/>
</svg>
