<svg width="20" height="20" viewBox="0 0 20 20" fill="none" xmlns="http://www.w3.org/2000/svg">
<path fill-rule="evenodd" clip-rule="evenodd" d="M16.0443 2.29372C15.0781 1.3245 13.5133 1.32452 12.5472 2.29378L11.5294 3.31592L16.6939 8.50259L17.7072 7.48492C18.6746 6.51441 18.6753 4.93608 17.7072 3.9638L16.0443 2.29372C16.0443 2.29374 16.0443 2.2937 16.0443 2.29372ZM15.5884 9.61288L10.4239 4.42621L2.33481 12.5501C1.93828 12.9483 1.70923 13.4847 1.69504 14.048L1.58646 18.4332H5.90273C6.48079 18.4332 7.03561 18.2024 7.44534 17.7909L15.5884 9.61288ZM11.4375 1.18766C13.016 -0.395885 15.5756 -0.395885 17.154 1.18766L18.8175 2.85827C20.394 4.44156 20.3944 7.00844 18.8172 8.59075L8.55562 18.8965C7.85293 19.6022 6.89901 20 5.90273 20H0.78341C0.572275 20 0.370078 19.9148 0.222642 19.7636C0.0752055 19.6125 -0.00498606 19.4083 0.000240362 19.1972L0.128702 14.0092C0.152841 13.0464 0.544226 12.1278 1.22453 11.4445L11.4375 1.18766Z" fill="white"/>
</svg>
