<svg width="20" height="19" viewBox="0 0 20 19" fill="none" xmlns="http://www.w3.org/2000/svg">
<path fill-rule="evenodd" clip-rule="evenodd" d="M18.2938 0.0227856H18.3267C19.2688 0.142412 19.9934 0.848777 20 1.69755V3.75C20 4.09518 19.7202 4.375 19.375 4.375H0.625C0.279822 4.375 0 4.09518 0 3.75V1.69755C0.00658762 0.76333 0.88274 0 1.96311 0H2.64163L18.2938 0.0227856ZM4.96194 2.38673C4.96194 2.0847 5.20678 1.83529 5.50881 1.83529H14.6561C14.9581 1.83529 15.203 2.0847 15.203 2.38673C15.203 2.68876 14.9581 2.93817 14.6561 2.93817H5.50881C5.20678 2.93817 4.96194 2.68876 4.96194 2.38673ZM1.96311 18.125H18.05C19.1238 18.125 20.0066 17.2896 20 16.2734V6.21875C20 5.89083 19.7341 5.625 19.4062 5.625H0.59375C0.265831 5.625 0 5.89083 0 6.21875V16.2734C0.0065876 17.2896 0.882739 18.125 1.96311 18.125ZM7.97492 12.6814L7.70723 14.2137C7.66499 14.4555 7.91777 14.6412 8.13588 14.5286L9.55976 13.7933C9.71952 13.7103 9.91763 13.7103 10.0774 13.7933L11.5013 14.5286C11.7194 14.6412 11.9722 14.4555 11.9299 14.2137L11.6622 12.6814C11.6303 12.4961 11.6942 12.3044 11.8284 12.1766L12.9493 11.1106C13.1291 10.9395 13.0321 10.6363 12.7863 10.6015L11.2277 10.3808C11.0424 10.3553 10.8826 10.2402 10.8059 10.0741L10.0876 8.65155C9.9777 8.43381 9.66664 8.43422 9.55727 8.65225L8.84402 10.0741C8.76095 10.2402 8.60118 10.3553 8.41586 10.3808L6.85567 10.6017C6.61015 10.6365 6.51293 10.9391 6.69227 11.1104L7.80876 12.1766C7.94296 12.3044 8.00687 12.4961 7.97492 12.6814Z" fill="#848F92"/>
</svg>
