<svg width="12" height="12" viewBox="0 0 12 12" fill="none" xmlns="http://www.w3.org/2000/svg">
<path fill-rule="evenodd" clip-rule="evenodd" d="M5.86668 10.919C4.66079 10.1769 3.53896 9.30338 2.52129 8.31423C1.80581 7.60188 1.26113 6.73345 0.928956 5.77546C0.331204 3.91708 1.02942 1.78959 2.98341 1.15998C4.01035 0.829375 5.13193 1.01833 5.99729 1.66773C6.86298 1.01912 7.98416 0.830232 9.01116 1.15998C10.9652 1.78959 11.6684 3.91708 11.0706 5.77546C10.7385 6.73345 10.1938 7.60188 9.47831 8.31423C8.46063 9.30338 7.33881 10.1769 6.13291 10.919L6.00231 11.0002L5.86668 10.919Z" fill="#ED1E26" stroke="#ED1E26" stroke-linecap="round" stroke-linejoin="round"/>
<path fill-rule="evenodd" clip-rule="evenodd" d="M8.07715 3.25171C8.66899 3.44076 9.0895 3.9721 9.14205 4.59726L8.07715 3.25171Z" fill="white"/>
<path d="M8.07715 3.25171C8.66899 3.44076 9.0895 3.9721 9.14205 4.59726" stroke="white" stroke-linecap="round" stroke-linejoin="round"/>
</svg>
