<svg width="16" height="15" viewBox="0 0 16 15" fill="none" xmlns="http://www.w3.org/2000/svg">
<path fill-rule="evenodd" clip-rule="evenodd" d="M6.40025 12.4922H1.14941C0.804414 12.4922 0.524414 12.2122 0.524414 11.8672C0.524414 11.5222 0.804414 11.2422 1.14941 11.2422H6.40025C6.74525 11.2422 7.02525 11.5222 7.02525 11.8672C7.02525 12.2122 6.74525 12.4922 6.40025 12.4922Z" fill="#0F50A4"/>
<path d="M6.40025 12.4922H1.14941C0.804414 12.4922 0.524414 12.2122 0.524414 11.8672C0.524414 11.5222 0.804414 11.2422 1.14941 11.2422H6.40025C6.74525 11.2422 7.02525 11.5222 7.02525 11.8672C7.02525 12.2122 6.74525 12.4922 6.40025 12.4922" stroke="#0F50A4" stroke-width="0.5"/>
<path fill-rule="evenodd" clip-rule="evenodd" d="M13.9922 4.41406H8.74219C8.39719 4.41406 8.11719 4.13406 8.11719 3.78906C8.11719 3.44406 8.39719 3.16406 8.74219 3.16406H13.9922C14.3372 3.16406 14.6172 3.44406 14.6172 3.78906C14.6172 4.13406 14.3372 4.41406 13.9922 4.41406Z" fill="#0F50A4"/>
<path d="M13.9922 4.41406H8.74219C8.39719 4.41406 8.11719 4.13406 8.11719 3.78906C8.11719 3.44406 8.39719 3.16406 8.74219 3.16406H13.9922C14.3372 3.16406 14.6172 3.44406 14.6172 3.78906C14.6172 4.13406 14.3372 4.41406 13.9922 4.41406" stroke="#0F50A4" stroke-width="0.5"/>
<mask id="mask0_33104_14453" style="mask-type:luminance" maskUnits="userSpaceOnUse" x="0" y="0" width="6" height="7">
<path fill-rule="evenodd" clip-rule="evenodd" d="M0.5 1.16406H5.68817V6.32373H0.5V1.16406Z" fill="white" stroke="white" stroke-width="0.5"/>
</mask>
<g mask="url(#mask0_33104_14453)">
<path fill-rule="evenodd" clip-rule="evenodd" d="M3.09417 2.41406C2.35333 2.41406 1.75 3.01073 1.75 3.7449C1.75 4.47823 2.35333 5.07406 3.09417 5.07406C3.83583 5.07406 4.43833 4.47823 4.43833 3.7449C4.43833 3.01073 3.83583 2.41406 3.09417 2.41406ZM3.09417 6.32406C1.66417 6.32406 0.5 5.1674 0.5 3.7449C0.5 2.3224 1.66417 1.16406 3.09417 1.16406C4.525 1.16406 5.68833 2.3224 5.68833 3.7449C5.68833 5.1674 4.525 6.32406 3.09417 6.32406Z" fill="#0F50A4"/>
<path d="M3.09417 2.16406C2.2177 2.16406 1.5 2.87023 1.5 3.7449H2C2 3.15123 2.48897 2.66406 3.09417 2.66406V2.16406ZM1.5 3.7449C1.5 4.61903 2.21801 5.32406 3.09417 5.32406V4.82406C2.48866 4.82406 2 4.33743 2 3.7449H1.5ZM3.09417 5.32406C3.97126 5.32406 4.68833 4.61893 4.68833 3.7449H4.18833C4.18833 4.33753 3.70041 4.82406 3.09417 4.82406V5.32406ZM4.68833 3.7449C4.68833 2.87033 3.97157 2.16406 3.09417 2.16406V2.66406C3.7001 2.66406 4.18833 3.15113 4.18833 3.7449H4.68833ZM3.09417 6.07406C1.80082 6.07406 0.75 5.02791 0.75 3.7449H0.25C0.25 5.30688 1.52751 6.57406 3.09417 6.57406V6.07406ZM0.75 3.7449C0.75 2.46167 1.80103 1.41406 3.09417 1.41406V0.914062C1.5273 0.914062 0.25 2.18312 0.25 3.7449H0.75ZM3.09417 1.41406C4.38808 1.41406 5.43833 2.46162 5.43833 3.7449H5.93833C5.93833 2.18317 4.66192 0.914062 3.09417 0.914062V1.41406ZM5.43833 3.7449C5.43833 5.02796 4.38829 6.07406 3.09417 6.07406V6.57406C4.66171 6.57406 5.93833 5.30683 5.93833 3.7449H5.43833Z" fill="#0F50A4"/>
</g>
<path fill-rule="evenodd" clip-rule="evenodd" d="M12.4895 10.5C11.7479 10.5 11.1445 11.0967 11.1445 11.83C11.1445 12.5642 11.7479 13.16 12.4895 13.16C13.2304 13.16 13.8329 12.5642 13.8329 11.83C13.8329 11.0967 13.2304 10.5 12.4895 10.5ZM12.4895 14.41C11.0587 14.41 9.89453 13.2525 9.89453 11.83C9.89453 10.4075 11.0587 9.25 12.4895 9.25C13.9195 9.25 15.0829 10.4075 15.0829 11.83C15.0829 13.2525 13.9195 14.41 12.4895 14.41Z" fill="#0F50A4"/>
<path d="M12.4895 10.25C11.6124 10.25 10.8945 10.956 10.8945 11.83H11.3945C11.3945 11.2374 11.8833 10.75 12.4895 10.75V10.25ZM10.8945 11.83C10.8945 12.705 11.6125 13.41 12.4895 13.41V12.91C11.8832 12.91 11.3945 12.4234 11.3945 11.83H10.8945ZM12.4895 13.41C13.366 13.41 14.0829 12.7047 14.0829 11.83H13.5829C13.5829 12.4237 13.0947 12.91 12.4895 12.91V13.41ZM14.0829 11.83C14.0829 10.9563 13.3661 10.25 12.4895 10.25V10.75C13.0946 10.75 13.5829 11.2371 13.5829 11.83H14.0829ZM12.4895 14.16C11.1954 14.16 10.1445 13.1131 10.1445 11.83H9.64453C9.64453 13.3919 10.922 14.66 12.4895 14.66V14.16ZM10.1445 11.83C10.1445 10.5469 11.1954 9.5 12.4895 9.5V9C10.922 9 9.64453 10.2681 9.64453 11.83H10.1445ZM12.4895 9.5C13.7827 9.5 14.8329 10.5468 14.8329 11.83H15.3329C15.3329 10.2682 14.0564 9 12.4895 9V9.5ZM14.8329 11.83C14.8329 13.1132 13.7827 14.16 12.4895 14.16V14.66C14.0564 14.66 15.3329 13.3918 15.3329 11.83H14.8329Z" fill="#0F50A4"/>
</svg>
