<svg width="39" height="30" viewBox="0 0 39 30" fill="none" xmlns="http://www.w3.org/2000/svg">
<path d="M24.6315 3.90789H38.8626V0.5625H20.2094C21.8659 1.4133 23.3622 2.54524 24.6315 3.90789ZM38.8626 12.2745V8.92787H27.8025C28.223 9.99237 28.5353 11.1116 28.7194 12.2745H38.8626ZM38.8626 20.6399V17.2932H28.7194C28.5354 18.455 28.2236 19.5741 27.8025 20.6399H38.8626ZM20.2094 29.0052H38.8626V25.6586H24.6315C23.3624 27.0218 21.8661 28.1542 20.2094 29.0052ZM12.9426 2.15318C5.96803 2.15318 0.3125 7.80808 0.3125 14.7845C0.3125 21.7597 5.96803 27.4134 12.9426 27.4134C19.9172 27.4134 25.5727 21.7597 25.5727 14.7845C25.5726 7.80808 19.9172 2.15318 12.9426 2.15318ZM23.7651 14.7742C23.7651 20.7517 18.9201 25.5979 12.9426 25.5979C6.96503 25.5979 2.1189 20.7517 2.1189 14.7742C2.1189 8.7972 6.96503 3.95171 12.9426 3.95171C18.9202 3.95171 23.7651 8.79724 23.7651 14.7742Z" fill="#0F50A4"/>
<path d="M13.4297 15.875V18.796C13.9184 18.6622 14.5606 18.3401 14.5606 17.4123C14.5607 16.4326 13.818 16.0781 13.4297 15.875Z" fill="#0685CF"/>
<path d="M12.9455 5.96875C8.07726 5.97822 4.14106 9.91439 4.13208 14.7816C4.14106 19.6499 8.07726 23.585 12.9455 23.5956C17.8117 23.585 21.7484 19.6499 21.7579 14.7816C21.7484 9.91439 17.8117 5.97822 12.9455 5.96875ZM16.5009 17.3102C16.5009 19.6568 14.6621 20.4339 13.548 20.6179V21.3781C13.548 21.6648 13.4962 21.7156 13.1936 21.7156H12.8551C12.5515 21.7156 12.5001 21.6648 12.5001 21.3781V20.6179C11.9278 20.6179 9.56372 20.2307 9.56372 19.7245C9.56372 19.6737 9.56372 19.6737 9.59866 19.5721L10.0874 18.155C10.1038 18.1206 10.1716 18.019 10.2398 18.019C10.3403 18.019 11.4723 18.6777 12.5001 18.7951V15.4884C11.4723 15.0324 9.53094 14.441 9.53094 12.2118C9.53094 9.73193 11.7241 9.02308 12.5001 8.98867V8.16189C12.5001 7.87409 12.5515 7.82335 12.8551 7.82335H13.1936C13.4962 7.82335 13.548 7.87412 13.548 8.16189V8.98867C14.0379 9.02305 16.1977 9.39443 16.1977 9.96785C16.1977 10.0356 16.1813 10.0863 16.1474 10.154L15.6248 11.3014C15.5894 11.386 15.5391 11.4358 15.4725 11.4358C15.3699 11.4358 14.2738 10.7613 13.548 10.7613V13.8845C14.6451 14.424 16.5009 15.1503 16.5009 17.3102Z" fill="#0685CF"/>
<path d="M11.4721 12.0778C11.4721 12.9904 12.2476 13.3442 12.62 13.5135V10.7617C12.2814 10.8459 11.4721 11.0823 11.4721 12.0778Z" fill="#0685CF"/>
</svg>
