<svg width="47" height="46" viewBox="0 0 47 46" fill="none" xmlns="http://www.w3.org/2000/svg">
<circle opacity="0.3" cx="23.5" cy="23" r="23" fill="#0F50A4"/>
<path d="M28.6415 20.1683C28.9619 20.4887 28.9619 21.0081 28.6415 21.3284L23.1384 26.8317C22.8179 27.152 22.2987 27.152 21.9782 26.8317L19.3585 24.2118C19.0381 23.8916 19.0381 23.3721 19.3585 23.0519C19.6788 22.7314 20.1982 22.7314 20.5185 23.0519L22.5582 25.0916L27.4814 20.1683C27.8018 19.848 28.3212 19.848 28.6415 20.1683ZM34.5 23.5C34.5 29.3039 29.8031 34 24 34C18.1961 34 13.5 29.3031 13.5 23.5C13.5 17.6961 18.1969 13 24 13C29.8039 13 34.5 17.6969 34.5 23.5ZM32.8594 23.5C32.8594 18.603 28.8964 14.6406 24 14.6406C19.103 14.6406 15.1406 18.6036 15.1406 23.5C15.1406 28.397 19.1036 32.3594 24 32.3594C28.897 32.3594 32.8594 28.3964 32.8594 23.5Z" fill="#0F50A4"/>
</svg>
