<svg width="305" height="244" viewBox="0 0 305 244" fill="none" xmlns="http://www.w3.org/2000/svg">
<g opacity="0.1">
<line x1="28" y1="70.6" x2="305" y2="70.6" stroke="#0A0B09" stroke-width="0.8" stroke-dasharray="4.71 7.07"/>
<line x1="28" y1="50.6" x2="305" y2="50.6" stroke="#0A0B09" stroke-width="0.8" stroke-dasharray="4.71 7.07"/>
<line x1="28" y1="170.6" x2="305" y2="170.6" stroke="#0A0B09" stroke-width="0.8" stroke-dasharray="4.71 7.07"/>
<line x1="28" y1="130.6" x2="305" y2="130.6" stroke="#0A0B09" stroke-width="0.8" stroke-dasharray="4.71 7.07"/>
<line x1="28" y1="90.6" x2="305" y2="90.6" stroke="#0A0B09" stroke-width="0.8" stroke-dasharray="4.71 7.07"/>
<line x1="28" y1="110.6" x2="305" y2="110.6" stroke="#0A0B09" stroke-width="0.8" stroke-dasharray="4.71 7.07"/>
<line x1="28" y1="190.6" x2="305" y2="190.6" stroke="#0A0B09" stroke-width="0.8" stroke-dasharray="4.71 7.07"/>
<line x1="28" y1="150.6" x2="305" y2="150.6" stroke="#0A0B09" stroke-width="0.8" stroke-dasharray="4.71 7.07"/>
<line x1="28" y1="210.6" x2="305" y2="210.6" stroke="#0A0B09" stroke-width="0.8" stroke-dasharray="4.71 7.07"/>
</g>
<path d="M0.969141 210.26C0.969141 209.107 1.16247 208.207 1.54914 207.56C1.94247 206.907 2.61581 206.58 3.56914 206.58C4.52247 206.58 5.19247 206.907 5.57914 207.56C5.97247 208.207 6.16914 209.107 6.16914 210.26C6.16914 211.427 5.97247 212.34 5.57914 213C5.19247 213.653 4.52247 213.98 3.56914 213.98C2.61581 213.98 1.94247 213.653 1.54914 213C1.16247 212.34 0.969141 211.427 0.969141 210.26ZM5.04914 210.26C5.04914 209.72 5.01247 209.263 4.93914 208.89C4.87247 208.517 4.73247 208.213 4.51914 207.98C4.30581 207.74 3.98914 207.62 3.56914 207.62C3.14914 207.62 2.83247 207.74 2.61914 207.98C2.40581 208.213 2.26247 208.517 2.18914 208.89C2.12247 209.263 2.08914 209.72 2.08914 210.26C2.08914 210.82 2.12247 211.29 2.18914 211.67C2.25581 212.05 2.39581 212.357 2.60914 212.59C2.82914 212.823 3.14914 212.94 3.56914 212.94C3.98914 212.94 4.30581 212.823 4.51914 212.59C4.73914 212.357 4.88247 212.05 4.94914 211.67C5.01581 211.29 5.04914 210.82 5.04914 210.26ZM7.98539 214.07C7.77872 214.07 7.60539 214 7.46539 213.86C7.32539 213.72 7.25539 213.547 7.25539 213.34C7.25539 213.133 7.32539 212.96 7.46539 212.82C7.60539 212.68 7.77872 212.61 7.98539 212.61C8.18539 212.61 8.35539 212.68 8.49539 212.82C8.63539 212.96 8.70539 213.133 8.70539 213.34C8.70539 213.547 8.63539 213.72 8.49539 213.86C8.35539 214 8.18539 214.07 7.98539 214.07ZM9.7875 210.26C9.7875 209.107 9.98083 208.207 10.3675 207.56C10.7608 206.907 11.4342 206.58 12.3875 206.58C13.3408 206.58 14.0108 206.907 14.3975 207.56C14.7908 208.207 14.9875 209.107 14.9875 210.26C14.9875 211.427 14.7908 212.34 14.3975 213C14.0108 213.653 13.3408 213.98 12.3875 213.98C11.4342 213.98 10.7608 213.653 10.3675 213C9.98083 212.34 9.7875 211.427 9.7875 210.26ZM13.8675 210.26C13.8675 209.72 13.8308 209.263 13.7575 208.89C13.6908 208.517 13.5508 208.213 13.3375 207.98C13.1242 207.74 12.8075 207.62 12.3875 207.62C11.9675 207.62 11.6508 207.74 11.4375 207.98C11.2242 208.213 11.0808 208.517 11.0075 208.89C10.9408 209.263 10.9075 209.72 10.9075 210.26C10.9075 210.82 10.9408 211.29 11.0075 211.67C11.0742 212.05 11.2142 212.357 11.4275 212.59C11.6475 212.823 11.9675 212.94 12.3875 212.94C12.8075 212.94 13.1242 212.823 13.3375 212.59C13.5575 212.357 13.7008 212.05 13.7675 211.67C13.8342 211.29 13.8675 210.82 13.8675 210.26ZM16.1938 210.26C16.1938 209.107 16.3871 208.207 16.7738 207.56C17.1671 206.907 17.8404 206.58 18.7938 206.58C19.7471 206.58 20.4171 206.907 20.8038 207.56C21.1971 208.207 21.3938 209.107 21.3938 210.26C21.3938 211.427 21.1971 212.34 20.8038 213C20.4171 213.653 19.7471 213.98 18.7938 213.98C17.8404 213.98 17.1671 213.653 16.7738 213C16.3871 212.34 16.1938 211.427 16.1938 210.26ZM20.2738 210.26C20.2738 209.72 20.2371 209.263 20.1638 208.89C20.0971 208.517 19.9571 208.213 19.7438 207.98C19.5304 207.74 19.2138 207.62 18.7938 207.62C18.3738 207.62 18.0571 207.74 17.8438 207.98C17.6304 208.213 17.4871 208.517 17.4138 208.89C17.3471 209.263 17.3138 209.72 17.3138 210.26C17.3138 210.82 17.3471 211.29 17.4138 211.67C17.4804 212.05 17.6204 212.357 17.8338 212.59C18.0538 212.823 18.3738 212.94 18.7938 212.94C19.2138 212.94 19.5304 212.823 19.7438 212.59C19.9638 212.357 20.1071 212.05 20.1738 211.67C20.2404 211.29 20.2738 210.82 20.2738 210.26Z" fill="#464646"/>
<path d="M3.7293 187.75V186.71H5.8093V194H4.6593V187.75H3.7293ZM7.98539 194.07C7.77872 194.07 7.60539 194 7.46539 193.86C7.32539 193.72 7.25539 193.547 7.25539 193.34C7.25539 193.133 7.32539 192.96 7.46539 192.82C7.60539 192.68 7.77872 192.61 7.98539 192.61C8.18539 192.61 8.35539 192.68 8.49539 192.82C8.63539 192.96 8.70539 193.133 8.70539 193.34C8.70539 193.547 8.63539 193.72 8.49539 193.86C8.35539 194 8.18539 194.07 7.98539 194.07ZM9.7875 190.26C9.7875 189.107 9.98083 188.207 10.3675 187.56C10.7608 186.907 11.4342 186.58 12.3875 186.58C13.3408 186.58 14.0108 186.907 14.3975 187.56C14.7908 188.207 14.9875 189.107 14.9875 190.26C14.9875 191.427 14.7908 192.34 14.3975 193C14.0108 193.653 13.3408 193.98 12.3875 193.98C11.4342 193.98 10.7608 193.653 10.3675 193C9.98083 192.34 9.7875 191.427 9.7875 190.26ZM13.8675 190.26C13.8675 189.72 13.8308 189.263 13.7575 188.89C13.6908 188.517 13.5508 188.213 13.3375 187.98C13.1242 187.74 12.8075 187.62 12.3875 187.62C11.9675 187.62 11.6508 187.74 11.4375 187.98C11.2242 188.213 11.0808 188.517 11.0075 188.89C10.9408 189.263 10.9075 189.72 10.9075 190.26C10.9075 190.82 10.9408 191.29 11.0075 191.67C11.0742 192.05 11.2142 192.357 11.4275 192.59C11.6475 192.823 11.9675 192.94 12.3875 192.94C12.8075 192.94 13.1242 192.823 13.3375 192.59C13.5575 192.357 13.7008 192.05 13.7675 191.67C13.8342 191.29 13.8675 190.82 13.8675 190.26ZM16.1938 190.26C16.1938 189.107 16.3871 188.207 16.7738 187.56C17.1671 186.907 17.8404 186.58 18.7938 186.58C19.7471 186.58 20.4171 186.907 20.8038 187.56C21.1971 188.207 21.3938 189.107 21.3938 190.26C21.3938 191.427 21.1971 192.34 20.8038 193C20.4171 193.653 19.7471 193.98 18.7938 193.98C17.8404 193.98 17.1671 193.653 16.7738 193C16.3871 192.34 16.1938 191.427 16.1938 190.26ZM20.2738 190.26C20.2738 189.72 20.2371 189.263 20.1638 188.89C20.0971 188.517 19.9571 188.213 19.7438 187.98C19.5304 187.74 19.2138 187.62 18.7938 187.62C18.3738 187.62 18.0571 187.74 17.8438 187.98C17.6304 188.213 17.4871 188.517 17.4138 188.89C17.3471 189.263 17.3138 189.72 17.3138 190.26C17.3138 190.82 17.3471 191.29 17.4138 191.67C17.4804 192.05 17.6204 192.357 17.8338 192.59C18.0538 192.823 18.3738 192.94 18.7938 192.94C19.2138 192.94 19.5304 192.823 19.7438 192.59C19.9638 192.357 20.1071 192.05 20.1738 191.67C20.2404 191.29 20.2738 190.82 20.2738 190.26Z" fill="#464646"/>
<path d="M2.23391 172.45C2.87391 171.897 3.37724 171.443 3.74391 171.09C4.11724 170.73 4.42724 170.357 4.67391 169.97C4.92057 169.583 5.04391 169.197 5.04391 168.81C5.04391 168.41 4.94724 168.097 4.75391 167.87C4.56724 167.643 4.27057 167.53 3.86391 167.53C3.47057 167.53 3.16391 167.657 2.94391 167.91C2.73057 168.157 2.61724 168.49 2.60391 168.91H1.50391C1.52391 168.15 1.75057 167.57 2.18391 167.17C2.62391 166.763 3.18057 166.56 3.85391 166.56C4.58057 166.56 5.14724 166.76 5.55391 167.16C5.96724 167.56 6.17391 168.093 6.17391 168.76C6.17391 169.24 6.05057 169.703 5.80391 170.15C5.56391 170.59 5.27391 170.987 4.93391 171.34C4.60057 171.687 4.17391 172.09 3.65391 172.55L3.20391 172.95H6.37391V173.9H1.51391V173.07L2.23391 172.45ZM7.98539 174.07C7.77872 174.07 7.60539 174 7.46539 173.86C7.32539 173.72 7.25539 173.547 7.25539 173.34C7.25539 173.133 7.32539 172.96 7.46539 172.82C7.60539 172.68 7.77872 172.61 7.98539 172.61C8.18539 172.61 8.35539 172.68 8.49539 172.82C8.63539 172.96 8.70539 173.133 8.70539 173.34C8.70539 173.547 8.63539 173.72 8.49539 173.86C8.35539 174 8.18539 174.07 7.98539 174.07ZM9.7875 170.26C9.7875 169.107 9.98083 168.207 10.3675 167.56C10.7608 166.907 11.4342 166.58 12.3875 166.58C13.3408 166.58 14.0108 166.907 14.3975 167.56C14.7908 168.207 14.9875 169.107 14.9875 170.26C14.9875 171.427 14.7908 172.34 14.3975 173C14.0108 173.653 13.3408 173.98 12.3875 173.98C11.4342 173.98 10.7608 173.653 10.3675 173C9.98083 172.34 9.7875 171.427 9.7875 170.26ZM13.8675 170.26C13.8675 169.72 13.8308 169.263 13.7575 168.89C13.6908 168.517 13.5508 168.213 13.3375 167.98C13.1242 167.74 12.8075 167.62 12.3875 167.62C11.9675 167.62 11.6508 167.74 11.4375 167.98C11.2242 168.213 11.0808 168.517 11.0075 168.89C10.9408 169.263 10.9075 169.72 10.9075 170.26C10.9075 170.82 10.9408 171.29 11.0075 171.67C11.0742 172.05 11.2142 172.357 11.4275 172.59C11.6475 172.823 11.9675 172.94 12.3875 172.94C12.8075 172.94 13.1242 172.823 13.3375 172.59C13.5575 172.357 13.7008 172.05 13.7675 171.67C13.8342 171.29 13.8675 170.82 13.8675 170.26ZM16.1938 170.26C16.1938 169.107 16.3871 168.207 16.7738 167.56C17.1671 166.907 17.8404 166.58 18.7938 166.58C19.7471 166.58 20.4171 166.907 20.8038 167.56C21.1971 168.207 21.3938 169.107 21.3938 170.26C21.3938 171.427 21.1971 172.34 20.8038 173C20.4171 173.653 19.7471 173.98 18.7938 173.98C17.8404 173.98 17.1671 173.653 16.7738 173C16.3871 172.34 16.1938 171.427 16.1938 170.26ZM20.2738 170.26C20.2738 169.72 20.2371 169.263 20.1638 168.89C20.0971 168.517 19.9571 168.213 19.7438 167.98C19.5304 167.74 19.2138 167.62 18.7938 167.62C18.3738 167.62 18.0571 167.74 17.8438 167.98C17.6304 168.213 17.4871 168.517 17.4138 168.89C17.3471 169.263 17.3138 169.72 17.3138 170.26C17.3138 170.82 17.3471 171.29 17.4138 171.67C17.4804 172.05 17.6204 172.357 17.8338 172.59C18.0538 172.823 18.3738 172.94 18.7938 172.94C19.2138 172.94 19.5304 172.823 19.7438 172.59C19.9638 172.357 20.1071 172.05 20.1738 171.67C20.2404 171.29 20.2738 170.82 20.2738 170.26Z" fill="#464646"/>
<path d="M1.41789 148.51C1.45789 147.89 1.69456 147.407 2.12789 147.06C2.56789 146.713 3.12789 146.54 3.80789 146.54C4.27456 146.54 4.67789 146.623 5.01789 146.79C5.35789 146.957 5.61456 147.183 5.78789 147.47C5.96122 147.757 6.04789 148.08 6.04789 148.44C6.04789 148.853 5.93789 149.207 5.71789 149.5C5.49789 149.793 5.23456 149.99 4.92789 150.09V150.13C5.32122 150.25 5.62789 150.47 5.84789 150.79C6.06789 151.103 6.17789 151.507 6.17789 152C6.17789 152.393 6.08789 152.743 5.90789 153.05C5.72789 153.357 5.46122 153.6 5.10789 153.78C4.75456 153.953 4.33122 154.04 3.83789 154.04C3.11789 154.04 2.52456 153.857 2.05789 153.49C1.59789 153.117 1.35122 152.583 1.31789 151.89H2.41789C2.44456 152.243 2.58122 152.533 2.82789 152.76C3.07456 152.98 3.40789 153.09 3.82789 153.09C4.23456 153.09 4.54789 152.98 4.76789 152.76C4.98789 152.533 5.09789 152.243 5.09789 151.89C5.09789 151.423 4.94789 151.093 4.64789 150.9C4.35456 150.7 3.90122 150.6 3.28789 150.6H3.02789V149.66H3.29789C3.83789 149.653 4.24789 149.563 4.52789 149.39C4.81456 149.217 4.95789 148.943 4.95789 148.57C4.95789 148.25 4.85456 147.997 4.64789 147.81C4.44122 147.617 4.14789 147.52 3.76789 147.52C3.39456 147.52 3.10456 147.617 2.89789 147.81C2.69122 147.997 2.56789 148.23 2.52789 148.51H1.41789ZM7.98539 154.07C7.77872 154.07 7.60539 154 7.46539 153.86C7.32539 153.72 7.25539 153.547 7.25539 153.34C7.25539 153.133 7.32539 152.96 7.46539 152.82C7.60539 152.68 7.77872 152.61 7.98539 152.61C8.18539 152.61 8.35539 152.68 8.49539 152.82C8.63539 152.96 8.70539 153.133 8.70539 153.34C8.70539 153.547 8.63539 153.72 8.49539 153.86C8.35539 154 8.18539 154.07 7.98539 154.07ZM9.7875 150.26C9.7875 149.107 9.98083 148.207 10.3675 147.56C10.7608 146.907 11.4342 146.58 12.3875 146.58C13.3408 146.58 14.0108 146.907 14.3975 147.56C14.7908 148.207 14.9875 149.107 14.9875 150.26C14.9875 151.427 14.7908 152.34 14.3975 153C14.0108 153.653 13.3408 153.98 12.3875 153.98C11.4342 153.98 10.7608 153.653 10.3675 153C9.98083 152.34 9.7875 151.427 9.7875 150.26ZM13.8675 150.26C13.8675 149.72 13.8308 149.263 13.7575 148.89C13.6908 148.517 13.5508 148.213 13.3375 147.98C13.1242 147.74 12.8075 147.62 12.3875 147.62C11.9675 147.62 11.6508 147.74 11.4375 147.98C11.2242 148.213 11.0808 148.517 11.0075 148.89C10.9408 149.263 10.9075 149.72 10.9075 150.26C10.9075 150.82 10.9408 151.29 11.0075 151.67C11.0742 152.05 11.2142 152.357 11.4275 152.59C11.6475 152.823 11.9675 152.94 12.3875 152.94C12.8075 152.94 13.1242 152.823 13.3375 152.59C13.5575 152.357 13.7008 152.05 13.7675 151.67C13.8342 151.29 13.8675 150.82 13.8675 150.26ZM16.1938 150.26C16.1938 149.107 16.3871 148.207 16.7738 147.56C17.1671 146.907 17.8404 146.58 18.7938 146.58C19.7471 146.58 20.4171 146.907 20.8038 147.56C21.1971 148.207 21.3938 149.107 21.3938 150.26C21.3938 151.427 21.1971 152.34 20.8038 153C20.4171 153.653 19.7471 153.98 18.7938 153.98C17.8404 153.98 17.1671 153.653 16.7738 153C16.3871 152.34 16.1938 151.427 16.1938 150.26ZM20.2738 150.26C20.2738 149.72 20.2371 149.263 20.1638 148.89C20.0971 148.517 19.9571 148.213 19.7438 147.98C19.5304 147.74 19.2138 147.62 18.7938 147.62C18.3738 147.62 18.0571 147.74 17.8438 147.98C17.6304 148.213 17.4871 148.517 17.4138 148.89C17.3471 149.263 17.3138 149.72 17.3138 150.26C17.3138 150.82 17.3471 151.29 17.4138 151.67C17.4804 152.05 17.6204 152.357 17.8338 152.59C18.0538 152.823 18.3738 152.94 18.7938 152.94C19.2138 152.94 19.5304 152.823 19.7438 152.59C19.9638 152.357 20.1071 152.05 20.1738 151.67C20.2404 151.29 20.2738 150.82 20.2738 150.26Z" fill="#464646"/>
<path d="M0.760781 132.48V131.62L4.12078 126.8H5.50078V131.49H6.43078V132.48H5.50078V134H4.38078V132.48H0.760781ZM4.43078 127.96L2.07078 131.49H4.43078V127.96ZM7.98539 134.07C7.77872 134.07 7.60539 134 7.46539 133.86C7.32539 133.72 7.25539 133.547 7.25539 133.34C7.25539 133.133 7.32539 132.96 7.46539 132.82C7.60539 132.68 7.77872 132.61 7.98539 132.61C8.18539 132.61 8.35539 132.68 8.49539 132.82C8.63539 132.96 8.70539 133.133 8.70539 133.34C8.70539 133.547 8.63539 133.72 8.49539 133.86C8.35539 134 8.18539 134.07 7.98539 134.07ZM9.7875 130.26C9.7875 129.107 9.98083 128.207 10.3675 127.56C10.7608 126.907 11.4342 126.58 12.3875 126.58C13.3408 126.58 14.0108 126.907 14.3975 127.56C14.7908 128.207 14.9875 129.107 14.9875 130.26C14.9875 131.427 14.7908 132.34 14.3975 133C14.0108 133.653 13.3408 133.98 12.3875 133.98C11.4342 133.98 10.7608 133.653 10.3675 133C9.98083 132.34 9.7875 131.427 9.7875 130.26ZM13.8675 130.26C13.8675 129.72 13.8308 129.263 13.7575 128.89C13.6908 128.517 13.5508 128.213 13.3375 127.98C13.1242 127.74 12.8075 127.62 12.3875 127.62C11.9675 127.62 11.6508 127.74 11.4375 127.98C11.2242 128.213 11.0808 128.517 11.0075 128.89C10.9408 129.263 10.9075 129.72 10.9075 130.26C10.9075 130.82 10.9408 131.29 11.0075 131.67C11.0742 132.05 11.2142 132.357 11.4275 132.59C11.6475 132.823 11.9675 132.94 12.3875 132.94C12.8075 132.94 13.1242 132.823 13.3375 132.59C13.5575 132.357 13.7008 132.05 13.7675 131.67C13.8342 131.29 13.8675 130.82 13.8675 130.26ZM16.1938 130.26C16.1938 129.107 16.3871 128.207 16.7738 127.56C17.1671 126.907 17.8404 126.58 18.7938 126.58C19.7471 126.58 20.4171 126.907 20.8038 127.56C21.1971 128.207 21.3938 129.107 21.3938 130.26C21.3938 131.427 21.1971 132.34 20.8038 133C20.4171 133.653 19.7471 133.98 18.7938 133.98C17.8404 133.98 17.1671 133.653 16.7738 133C16.3871 132.34 16.1938 131.427 16.1938 130.26ZM20.2738 130.26C20.2738 129.72 20.2371 129.263 20.1638 128.89C20.0971 128.517 19.9571 128.213 19.7438 127.98C19.5304 127.74 19.2138 127.62 18.7938 127.62C18.3738 127.62 18.0571 127.74 17.8438 127.98C17.6304 128.213 17.4871 128.517 17.4138 128.89C17.3471 129.263 17.3138 129.72 17.3138 130.26C17.3138 130.82 17.3471 131.29 17.4138 131.67C17.4804 132.05 17.6204 132.357 17.8338 132.59C18.0538 132.823 18.3738 132.94 18.7938 132.94C19.2138 132.94 19.5304 132.823 19.7438 132.59C19.9638 132.357 20.1071 132.05 20.1738 131.67C20.2404 131.29 20.2738 130.82 20.2738 130.26Z" fill="#464646"/>
<path d="M5.68867 107.69H2.33867V109.68C2.47867 109.493 2.68534 109.337 2.95867 109.21C3.23867 109.083 3.53534 109.02 3.84867 109.02C4.40867 109.02 4.86201 109.14 5.20867 109.38C5.56201 109.62 5.81201 109.923 5.95867 110.29C6.11201 110.657 6.18867 111.043 6.18867 111.45C6.18867 111.943 6.09201 112.383 5.89867 112.77C5.71201 113.15 5.42867 113.45 5.04867 113.67C4.67534 113.89 4.21534 114 3.66867 114C2.94201 114 2.35867 113.82 1.91867 113.46C1.47867 113.1 1.21534 112.623 1.12867 112.03H2.23867C2.31201 112.343 2.47534 112.593 2.72867 112.78C2.98201 112.96 3.29867 113.05 3.67867 113.05C4.15201 113.05 4.50534 112.907 4.73867 112.62C4.97867 112.333 5.09867 111.953 5.09867 111.48C5.09867 111 4.97867 110.633 4.73867 110.38C4.49867 110.12 4.14534 109.99 3.67867 109.99C3.35201 109.99 3.07534 110.073 2.84867 110.24C2.62867 110.4 2.46867 110.62 2.36867 110.9H1.28867V106.69H5.68867V107.69ZM7.98539 114.07C7.77872 114.07 7.60539 114 7.46539 113.86C7.32539 113.72 7.25539 113.547 7.25539 113.34C7.25539 113.133 7.32539 112.96 7.46539 112.82C7.60539 112.68 7.77872 112.61 7.98539 112.61C8.18539 112.61 8.35539 112.68 8.49539 112.82C8.63539 112.96 8.70539 113.133 8.70539 113.34C8.70539 113.547 8.63539 113.72 8.49539 113.86C8.35539 114 8.18539 114.07 7.98539 114.07ZM9.7875 110.26C9.7875 109.107 9.98083 108.207 10.3675 107.56C10.7608 106.907 11.4342 106.58 12.3875 106.58C13.3408 106.58 14.0108 106.907 14.3975 107.56C14.7908 108.207 14.9875 109.107 14.9875 110.26C14.9875 111.427 14.7908 112.34 14.3975 113C14.0108 113.653 13.3408 113.98 12.3875 113.98C11.4342 113.98 10.7608 113.653 10.3675 113C9.98083 112.34 9.7875 111.427 9.7875 110.26ZM13.8675 110.26C13.8675 109.72 13.8308 109.263 13.7575 108.89C13.6908 108.517 13.5508 108.213 13.3375 107.98C13.1242 107.74 12.8075 107.62 12.3875 107.62C11.9675 107.62 11.6508 107.74 11.4375 107.98C11.2242 108.213 11.0808 108.517 11.0075 108.89C10.9408 109.263 10.9075 109.72 10.9075 110.26C10.9075 110.82 10.9408 111.29 11.0075 111.67C11.0742 112.05 11.2142 112.357 11.4275 112.59C11.6475 112.823 11.9675 112.94 12.3875 112.94C12.8075 112.94 13.1242 112.823 13.3375 112.59C13.5575 112.357 13.7008 112.05 13.7675 111.67C13.8342 111.29 13.8675 110.82 13.8675 110.26ZM16.1938 110.26C16.1938 109.107 16.3871 108.207 16.7738 107.56C17.1671 106.907 17.8404 106.58 18.7938 106.58C19.7471 106.58 20.4171 106.907 20.8038 107.56C21.1971 108.207 21.3938 109.107 21.3938 110.26C21.3938 111.427 21.1971 112.34 20.8038 113C20.4171 113.653 19.7471 113.98 18.7938 113.98C17.8404 113.98 17.1671 113.653 16.7738 113C16.3871 112.34 16.1938 111.427 16.1938 110.26ZM20.2738 110.26C20.2738 109.72 20.2371 109.263 20.1638 108.89C20.0971 108.517 19.9571 108.213 19.7438 107.98C19.5304 107.74 19.2138 107.62 18.7938 107.62C18.3738 107.62 18.0571 107.74 17.8438 107.98C17.6304 108.213 17.4871 108.517 17.4138 108.89C17.3471 109.263 17.3138 109.72 17.3138 110.26C17.3138 110.82 17.3471 111.29 17.4138 111.67C17.4804 112.05 17.6204 112.357 17.8338 112.59C18.0538 112.823 18.3738 112.94 18.7938 112.94C19.2138 112.94 19.5304 112.823 19.7438 112.59C19.9638 112.357 20.1071 112.05 20.1738 111.67C20.2404 111.29 20.2738 110.82 20.2738 110.26Z" fill="#464646"/>
<path d="M4.87938 88.4C4.80604 88.0933 4.67271 87.8633 4.47938 87.71C4.28604 87.5567 4.01604 87.48 3.66938 87.48C3.14271 87.48 2.74938 87.6833 2.48938 88.09C2.22938 88.49 2.09271 89.1567 2.07938 90.09C2.25271 89.7967 2.50604 89.57 2.83938 89.41C3.17271 89.25 3.53271 89.17 3.91938 89.17C4.35938 89.17 4.74604 89.2667 5.07938 89.46C5.41938 89.6467 5.68271 89.92 5.86937 90.28C6.06271 90.64 6.15938 91.07 6.15938 91.57C6.15938 92.0367 6.06604 92.4533 5.87938 92.82C5.69938 93.1867 5.42938 93.4767 5.06938 93.69C4.70938 93.8967 4.27604 94 3.76938 94C3.08271 94 2.54271 93.85 2.14938 93.55C1.76271 93.2433 1.48938 92.8133 1.32938 92.26C1.17604 91.7067 1.09938 91.0167 1.09938 90.19C1.09938 87.75 1.95938 86.53 3.67938 86.53C4.34604 86.53 4.86938 86.71 5.24938 87.07C5.63604 87.43 5.86271 87.8733 5.92938 88.4H4.87938ZM3.66938 90.13C3.26271 90.13 2.91604 90.2533 2.62938 90.5C2.34938 90.74 2.20938 91.09 2.20938 91.55C2.20938 92.01 2.33938 92.3767 2.59938 92.65C2.86604 92.9167 3.23604 93.05 3.70938 93.05C4.12938 93.05 4.45938 92.92 4.69938 92.66C4.94604 92.4 5.06938 92.0533 5.06938 91.62C5.06938 91.1667 4.94938 90.8067 4.70938 90.54C4.47604 90.2667 4.12938 90.13 3.66938 90.13ZM7.98539 94.07C7.77872 94.07 7.60539 94 7.46539 93.86C7.32539 93.72 7.25539 93.5467 7.25539 93.34C7.25539 93.1333 7.32539 92.96 7.46539 92.82C7.60539 92.68 7.77872 92.61 7.98539 92.61C8.18539 92.61 8.35539 92.68 8.49539 92.82C8.63539 92.96 8.70539 93.1333 8.70539 93.34C8.70539 93.5467 8.63539 93.72 8.49539 93.86C8.35539 94 8.18539 94.07 7.98539 94.07ZM9.7875 90.26C9.7875 89.1067 9.98083 88.2067 10.3675 87.56C10.7608 86.9067 11.4342 86.58 12.3875 86.58C13.3408 86.58 14.0108 86.9067 14.3975 87.56C14.7908 88.2067 14.9875 89.1067 14.9875 90.26C14.9875 91.4267 14.7908 92.34 14.3975 93C14.0108 93.6533 13.3408 93.98 12.3875 93.98C11.4342 93.98 10.7608 93.6533 10.3675 93C9.98083 92.34 9.7875 91.4267 9.7875 90.26ZM13.8675 90.26C13.8675 89.72 13.8308 89.2633 13.7575 88.89C13.6908 88.5167 13.5508 88.2133 13.3375 87.98C13.1242 87.74 12.8075 87.62 12.3875 87.62C11.9675 87.62 11.6508 87.74 11.4375 87.98C11.2242 88.2133 11.0808 88.5167 11.0075 88.89C10.9408 89.2633 10.9075 89.72 10.9075 90.26C10.9075 90.82 10.9408 91.29 11.0075 91.67C11.0742 92.05 11.2142 92.3567 11.4275 92.59C11.6475 92.8233 11.9675 92.94 12.3875 92.94C12.8075 92.94 13.1242 92.8233 13.3375 92.59C13.5575 92.3567 13.7008 92.05 13.7675 91.67C13.8342 91.29 13.8675 90.82 13.8675 90.26ZM16.1938 90.26C16.1938 89.1067 16.3871 88.2067 16.7738 87.56C17.1671 86.9067 17.8404 86.58 18.7938 86.58C19.7471 86.58 20.4171 86.9067 20.8038 87.56C21.1971 88.2067 21.3938 89.1067 21.3938 90.26C21.3938 91.4267 21.1971 92.34 20.8038 93C20.4171 93.6533 19.7471 93.98 18.7938 93.98C17.8404 93.98 17.1671 93.6533 16.7738 93C16.3871 92.34 16.1938 91.4267 16.1938 90.26ZM20.2738 90.26C20.2738 89.72 20.2371 89.2633 20.1638 88.89C20.0971 88.5167 19.9571 88.2133 19.7438 87.98C19.5304 87.74 19.2138 87.62 18.7938 87.62C18.3738 87.62 18.0571 87.74 17.8438 87.98C17.6304 88.2133 17.4871 88.5167 17.4138 88.89C17.3471 89.2633 17.3138 89.72 17.3138 90.26C17.3138 90.82 17.3471 91.29 17.4138 91.67C17.4804 92.05 17.6204 92.3567 17.8338 92.59C18.0538 92.8233 18.3738 92.94 18.7938 92.94C19.2138 92.94 19.5304 92.8233 19.7438 92.59C19.9638 92.3567 20.1071 92.05 20.1738 91.67C20.2404 91.29 20.2738 90.82 20.2738 90.26Z" fill="#464646"/>
<path d="M6.39969 67.59L3.61969 74H2.46969L5.27969 67.71H1.57969V66.74H6.39969V67.59ZM7.98539 74.07C7.77872 74.07 7.60539 74 7.46539 73.86C7.32539 73.72 7.25539 73.5467 7.25539 73.34C7.25539 73.1333 7.32539 72.96 7.46539 72.82C7.60539 72.68 7.77872 72.61 7.98539 72.61C8.18539 72.61 8.35539 72.68 8.49539 72.82C8.63539 72.96 8.70539 73.1333 8.70539 73.34C8.70539 73.5467 8.63539 73.72 8.49539 73.86C8.35539 74 8.18539 74.07 7.98539 74.07ZM9.7875 70.26C9.7875 69.1067 9.98083 68.2067 10.3675 67.56C10.7608 66.9067 11.4342 66.58 12.3875 66.58C13.3408 66.58 14.0108 66.9067 14.3975 67.56C14.7908 68.2067 14.9875 69.1067 14.9875 70.26C14.9875 71.4267 14.7908 72.34 14.3975 73C14.0108 73.6533 13.3408 73.98 12.3875 73.98C11.4342 73.98 10.7608 73.6533 10.3675 73C9.98083 72.34 9.7875 71.4267 9.7875 70.26ZM13.8675 70.26C13.8675 69.72 13.8308 69.2633 13.7575 68.89C13.6908 68.5167 13.5508 68.2133 13.3375 67.98C13.1242 67.74 12.8075 67.62 12.3875 67.62C11.9675 67.62 11.6508 67.74 11.4375 67.98C11.2242 68.2133 11.0808 68.5167 11.0075 68.89C10.9408 69.2633 10.9075 69.72 10.9075 70.26C10.9075 70.82 10.9408 71.29 11.0075 71.67C11.0742 72.05 11.2142 72.3567 11.4275 72.59C11.6475 72.8233 11.9675 72.94 12.3875 72.94C12.8075 72.94 13.1242 72.8233 13.3375 72.59C13.5575 72.3567 13.7008 72.05 13.7675 71.67C13.8342 71.29 13.8675 70.82 13.8675 70.26ZM16.1938 70.26C16.1938 69.1067 16.3871 68.2067 16.7738 67.56C17.1671 66.9067 17.8404 66.58 18.7938 66.58C19.7471 66.58 20.4171 66.9067 20.8038 67.56C21.1971 68.2067 21.3938 69.1067 21.3938 70.26C21.3938 71.4267 21.1971 72.34 20.8038 73C20.4171 73.6533 19.7471 73.98 18.7938 73.98C17.8404 73.98 17.1671 73.6533 16.7738 73C16.3871 72.34 16.1938 71.4267 16.1938 70.26ZM20.2738 70.26C20.2738 69.72 20.2371 69.2633 20.1638 68.89C20.0971 68.5167 19.9571 68.2133 19.7438 67.98C19.5304 67.74 19.2138 67.62 18.7938 67.62C18.3738 67.62 18.0571 67.74 17.8438 67.98C17.6304 68.2133 17.4871 68.5167 17.4138 68.89C17.3471 69.2633 17.3138 69.72 17.3138 70.26C17.3138 70.82 17.3471 71.29 17.4138 71.67C17.4804 72.05 17.6204 72.3567 17.8338 72.59C18.0538 72.8233 18.3738 72.94 18.7938 72.94C19.2138 72.94 19.5304 72.8233 19.7438 72.59C19.9638 72.3567 20.1071 72.05 20.1738 71.67C20.2404 71.29 20.2738 70.82 20.2738 70.26Z" fill="#464646"/>
<path d="M3.22844 51.19C2.5351 50.8433 2.18844 50.2967 2.18844 49.55C2.18844 49.19 2.27844 48.86 2.45844 48.56C2.63844 48.26 2.90844 48.0233 3.26844 47.85C3.62844 47.67 4.06844 47.58 4.58844 47.58C5.10177 47.58 5.53844 47.67 5.89844 47.85C6.2651 48.0233 6.53844 48.26 6.71844 48.56C6.89844 48.86 6.98844 49.19 6.98844 49.55C6.98844 49.9233 6.89177 50.2533 6.69844 50.54C6.51177 50.82 6.26177 51.0367 5.94844 51.19C6.32844 51.33 6.62844 51.56 6.84844 51.88C7.06844 52.1933 7.17844 52.5633 7.17844 52.99C7.17844 53.4233 7.06844 53.8067 6.84844 54.14C6.62844 54.4733 6.32177 54.73 5.92844 54.91C5.5351 55.09 5.08844 55.18 4.58844 55.18C4.08844 55.18 3.64177 55.09 3.24844 54.91C2.86177 54.73 2.55844 54.4733 2.33844 54.14C2.11844 53.8067 2.00844 53.4233 2.00844 52.99C2.00844 52.5567 2.11844 52.1833 2.33844 51.87C2.55844 51.5567 2.8551 51.33 3.22844 51.19ZM5.89844 49.69C5.89844 49.3167 5.78177 49.03 5.54844 48.83C5.3151 48.63 4.9951 48.53 4.58844 48.53C4.18844 48.53 3.87177 48.63 3.63844 48.83C3.4051 49.03 3.28844 49.32 3.28844 49.7C3.28844 50.0333 3.40844 50.3067 3.64844 50.52C3.8951 50.7267 4.20844 50.83 4.58844 50.83C4.96844 50.83 5.28177 50.7233 5.52844 50.51C5.7751 50.2967 5.89844 50.0233 5.89844 49.69ZM4.58844 51.69C4.14844 51.69 3.78844 51.8 3.50844 52.02C3.2351 52.2333 3.09844 52.5433 3.09844 52.95C3.09844 53.33 3.23177 53.64 3.49844 53.88C3.7651 54.1133 4.12844 54.23 4.58844 54.23C5.04177 54.23 5.39844 54.11 5.65844 53.87C5.9251 53.63 6.05844 53.3233 6.05844 52.95C6.05844 52.55 5.92177 52.24 5.64844 52.02C5.38177 51.8 5.02844 51.69 4.58844 51.69ZM8.98539 55.07C8.77872 55.07 8.60539 55 8.46539 54.86C8.32539 54.72 8.25539 54.5467 8.25539 54.34C8.25539 54.1333 8.32539 53.96 8.46539 53.82C8.60539 53.68 8.77872 53.61 8.98539 53.61C9.18539 53.61 9.35539 53.68 9.49539 53.82C9.63539 53.96 9.70539 54.1333 9.70539 54.34C9.70539 54.5467 9.63539 54.72 9.49539 54.86C9.35539 55 9.18539 55.07 8.98539 55.07ZM10.7875 51.26C10.7875 50.1067 10.9808 49.2067 11.3675 48.56C11.7608 47.9067 12.4342 47.58 13.3875 47.58C14.3408 47.58 15.0108 47.9067 15.3975 48.56C15.7908 49.2067 15.9875 50.1067 15.9875 51.26C15.9875 52.4267 15.7908 53.34 15.3975 54C15.0108 54.6533 14.3408 54.98 13.3875 54.98C12.4342 54.98 11.7608 54.6533 11.3675 54C10.9808 53.34 10.7875 52.4267 10.7875 51.26ZM14.8675 51.26C14.8675 50.72 14.8308 50.2633 14.7575 49.89C14.6908 49.5167 14.5508 49.2133 14.3375 48.98C14.1242 48.74 13.8075 48.62 13.3875 48.62C12.9675 48.62 12.6508 48.74 12.4375 48.98C12.2242 49.2133 12.0808 49.5167 12.0075 49.89C11.9408 50.2633 11.9075 50.72 11.9075 51.26C11.9075 51.82 11.9408 52.29 12.0075 52.67C12.0742 53.05 12.2142 53.3567 12.4275 53.59C12.6475 53.8233 12.9675 53.94 13.3875 53.94C13.8075 53.94 14.1242 53.8233 14.3375 53.59C14.5575 53.3567 14.7008 53.05 14.7675 52.67C14.8342 52.29 14.8675 51.82 14.8675 51.26ZM17.1938 51.26C17.1938 50.1067 17.3871 49.2067 17.7738 48.56C18.1671 47.9067 18.8404 47.58 19.7938 47.58C20.7471 47.58 21.4171 47.9067 21.8038 48.56C22.1971 49.2067 22.3938 50.1067 22.3938 51.26C22.3938 52.4267 22.1971 53.34 21.8038 54C21.4171 54.6533 20.7471 54.98 19.7938 54.98C18.8404 54.98 18.1671 54.6533 17.7738 54C17.3871 53.34 17.1938 52.4267 17.1938 51.26ZM21.2738 51.26C21.2738 50.72 21.2371 50.2633 21.1638 49.89C21.0971 49.5167 20.9571 49.2133 20.7438 48.98C20.5304 48.74 20.2138 48.62 19.7938 48.62C19.3738 48.62 19.0571 48.74 18.8438 48.98C18.6304 49.2133 18.4871 49.5167 18.4138 49.89C18.3471 50.2633 18.3138 50.72 18.3138 51.26C18.3138 51.82 18.3471 52.29 18.4138 52.67C18.4804 53.05 18.6204 53.3567 18.8338 53.59C19.0538 53.8233 19.3738 53.94 19.7938 53.94C20.2138 53.94 20.5304 53.8233 20.7438 53.59C20.9638 53.3567 21.1071 53.05 21.1738 52.67C21.2404 52.29 21.2738 51.82 21.2738 51.26Z" fill="#464646"/>
<rect opacity="0.3" x="1" width="28" height="28" rx="6" fill="#0F50A4"/>
<path d="M7.9635 18L11.0355 9.6H12.7635L15.8355 18H14.2035L13.5315 16.056H10.2555L9.5715 18H7.9635ZM10.6755 14.856H13.1115L11.8875 11.364L10.6755 14.856ZM16.8816 18V9.36H18.4176V18H16.8816ZM19.987 18V9.36H21.523V18H19.987Z" fill="#0F50A4"/>
<g opacity="0.7">
<path d="M54.1613 18V11.04L52.8053 11.352V10.416L54.6653 9.6H55.4813V18H54.1613ZM59.3239 18V14.904L56.5399 9.6H57.9799L59.9599 13.656L61.9279 9.6H63.3559L60.5959 14.904V18H59.3239Z" fill="#464646"/>
</g>
<g opacity="0.7">
<path d="M97.7077 18.144C97.1157 18.144 96.6037 18.04 96.1717 17.832C95.7397 17.616 95.3957 17.324 95.1397 16.956C94.8917 16.58 94.7397 16.156 94.6837 15.684H95.9317C96.0117 16.084 96.2117 16.416 96.5317 16.68C96.8517 16.936 97.2477 17.064 97.7197 17.064C98.0717 17.064 98.3757 16.98 98.6317 16.812C98.8877 16.636 99.0877 16.404 99.2317 16.116C99.3757 15.828 99.4477 15.504 99.4477 15.144C99.4477 14.576 99.2877 14.124 98.9677 13.788C98.6477 13.444 98.2437 13.272 97.7557 13.272C97.3397 13.272 96.9837 13.372 96.6877 13.572C96.3917 13.764 96.1757 14.008 96.0397 14.304H94.8277L95.5477 9.6H100.084V10.716H96.5077L96.0757 12.96C96.2597 12.752 96.5117 12.58 96.8317 12.444C97.1597 12.3 97.5277 12.228 97.9357 12.228C98.5037 12.228 98.9917 12.36 99.3997 12.624C99.8077 12.88 100.12 13.228 100.336 13.668C100.56 14.108 100.672 14.596 100.672 15.132C100.672 15.692 100.552 16.2 100.312 16.656C100.072 17.112 99.7277 17.476 99.2797 17.748C98.8397 18.012 98.3157 18.144 97.7077 18.144ZM103.842 18V14.904L101.058 9.6H102.498L104.478 13.656L106.446 9.6H107.874L105.114 14.904V18H103.842Z" fill="#464646"/>
</g>
<path d="M40.5236 230L43.1036 223H43.9936L46.5636 230H45.6736L45.0336 228.2H42.0536L41.4036 230H40.5236ZM42.3036 227.52H44.7836L43.5436 224.06L42.3036 227.52ZM47.5543 232.2V225.04H48.3143L48.3943 225.86C48.5543 225.62 48.7809 225.403 49.0743 225.21C49.3743 225.017 49.7543 224.92 50.2143 224.92C50.7076 224.92 51.1376 225.033 51.5043 225.26C51.8709 225.487 52.1543 225.797 52.3543 226.19C52.5609 226.583 52.6643 227.03 52.6643 227.53C52.6643 228.03 52.5609 228.477 52.3543 228.87C52.1543 229.257 51.8676 229.563 51.4943 229.79C51.1276 230.01 50.6976 230.12 50.2043 230.12C49.7976 230.12 49.4343 230.037 49.1143 229.87C48.8009 229.703 48.5609 229.47 48.3943 229.17V232.2H47.5543ZM50.1143 229.39C50.4476 229.39 50.7409 229.313 50.9943 229.16C51.2476 229 51.4476 228.78 51.5943 228.5C51.7409 228.22 51.8143 227.893 51.8143 227.52C51.8143 227.147 51.7409 226.82 51.5943 226.54C51.4476 226.26 51.2476 226.043 50.9943 225.89C50.7409 225.73 50.4476 225.65 50.1143 225.65C49.7809 225.65 49.4876 225.73 49.2343 225.89C48.9809 226.043 48.7809 226.26 48.6343 226.54C48.4876 226.82 48.4143 227.147 48.4143 227.52C48.4143 227.893 48.4876 228.22 48.6343 228.5C48.7809 228.78 48.9809 229 49.2343 229.16C49.4876 229.313 49.7809 229.39 50.1143 229.39ZM53.8336 230V225.04H54.5936L54.6636 225.99C54.8169 225.663 55.0502 225.403 55.3636 225.21C55.6769 225.017 56.0636 224.92 56.5236 224.92V225.8H56.2936C56.0002 225.8 55.7302 225.853 55.4836 225.96C55.2369 226.06 55.0402 226.233 54.8936 226.48C54.7469 226.727 54.6736 227.067 54.6736 227.5V230H53.8336ZM38.3146 242V241.41C38.7879 241.037 39.2346 240.66 39.6546 240.28C40.0812 239.893 40.4579 239.513 40.7846 239.14C41.1179 238.767 41.3779 238.4 41.5646 238.04C41.7579 237.68 41.8546 237.333 41.8546 237C41.8546 236.753 41.8112 236.523 41.7246 236.31C41.6446 236.097 41.5112 235.927 41.3246 235.8C41.1379 235.667 40.8846 235.6 40.5646 235.6C40.2579 235.6 40.0012 235.67 39.7946 235.81C39.5879 235.943 39.4312 236.123 39.3246 236.35C39.2246 236.577 39.1746 236.82 39.1746 237.08H38.3646C38.3646 236.62 38.4612 236.227 38.6546 235.9C38.8479 235.567 39.1112 235.313 39.4446 235.14C39.7779 234.967 40.1546 234.88 40.5746 234.88C41.1946 234.88 41.7012 235.057 42.0946 235.41C42.4946 235.757 42.6946 236.277 42.6946 236.97C42.6946 237.383 42.5912 237.793 42.3846 238.2C42.1779 238.6 41.9146 238.99 41.5946 239.37C41.2746 239.743 40.9312 240.093 40.5646 240.42C40.2046 240.747 39.8679 241.04 39.5546 241.3H42.9346V242H38.3146ZM46.7796 242.12C46.1596 242.12 45.6229 241.97 45.1696 241.67C44.7229 241.363 44.3796 240.94 44.1396 240.4C43.8996 239.853 43.7796 239.22 43.7796 238.5C43.7796 237.78 43.8996 237.15 44.1396 236.61C44.3796 236.063 44.7229 235.64 45.1696 235.34C45.6229 235.033 46.1596 234.88 46.7796 234.88C47.3996 234.88 47.9329 235.033 48.3796 235.34C48.8262 235.64 49.1696 236.063 49.4096 236.61C49.6496 237.15 49.7696 237.78 49.7696 238.5C49.7696 239.22 49.6496 239.853 49.4096 240.4C49.1696 240.94 48.8262 241.363 48.3796 241.67C47.9329 241.97 47.3996 242.12 46.7796 242.12ZM46.7796 241.38C47.1862 241.38 47.5496 241.267 47.8696 241.04C48.1962 240.807 48.4496 240.477 48.6296 240.05C48.8162 239.617 48.9096 239.1 48.9096 238.5C48.9096 237.9 48.8162 237.387 48.6296 236.96C48.4496 236.533 48.1962 236.207 47.8696 235.98C47.5496 235.747 47.1862 235.63 46.7796 235.63C46.3662 235.63 45.9996 235.747 45.6796 235.98C45.3596 236.207 45.1062 236.533 44.9196 236.96C44.7329 237.387 44.6396 237.9 44.6396 238.5C44.6396 239.1 44.7329 239.617 44.9196 240.05C45.1062 240.477 45.3596 240.807 45.6796 241.04C45.9996 241.267 46.3662 241.38 46.7796 241.38ZM51.6732 242V235.94L50.5432 236.19V235.61L51.9532 235H52.5232V242H51.6732ZM57.1707 242V240.5H53.6207V239.85L57.0207 235H58.0007V239.76H59.0407V240.5H58.0007V242H57.1707ZM54.5507 239.76H57.2107V235.93L54.5507 239.76Z" fill="#0A0B09"/>
<path d="M74.5236 230L77.1036 223H77.9936L80.5636 230H79.6736L79.0336 228.2H76.0536L75.4036 230H74.5236ZM76.3036 227.52H78.7836L77.5436 224.06L76.3036 227.52ZM81.5543 232.2V225.04H82.3143L82.3943 225.86C82.5543 225.62 82.7809 225.403 83.0743 225.21C83.3743 225.017 83.7543 224.92 84.2143 224.92C84.7076 224.92 85.1376 225.033 85.5043 225.26C85.8709 225.487 86.1543 225.797 86.3543 226.19C86.5609 226.583 86.6643 227.03 86.6643 227.53C86.6643 228.03 86.5609 228.477 86.3543 228.87C86.1543 229.257 85.8676 229.563 85.4943 229.79C85.1276 230.01 84.6976 230.12 84.2043 230.12C83.7976 230.12 83.4343 230.037 83.1143 229.87C82.8009 229.703 82.5609 229.47 82.3943 229.17V232.2H81.5543ZM84.1143 229.39C84.4476 229.39 84.7409 229.313 84.9943 229.16C85.2476 229 85.4476 228.78 85.5943 228.5C85.7409 228.22 85.8143 227.893 85.8143 227.52C85.8143 227.147 85.7409 226.82 85.5943 226.54C85.4476 226.26 85.2476 226.043 84.9943 225.89C84.7409 225.73 84.4476 225.65 84.1143 225.65C83.7809 225.65 83.4876 225.73 83.2343 225.89C82.9809 226.043 82.7809 226.26 82.6343 226.54C82.4876 226.82 82.4143 227.147 82.4143 227.52C82.4143 227.893 82.4876 228.22 82.6343 228.5C82.7809 228.78 82.9809 229 83.2343 229.16C83.4876 229.313 83.7809 229.39 84.1143 229.39ZM87.8336 230V225.04H88.5936L88.6636 225.99C88.8169 225.663 89.0502 225.403 89.3636 225.21C89.6769 225.017 90.0636 224.92 90.5236 224.92V225.8H90.2936C90.0002 225.8 89.7302 225.853 89.4836 225.96C89.2369 226.06 89.0402 226.233 88.8936 226.48C88.7469 226.727 88.6736 227.067 88.6736 227.5V230H87.8336ZM72.2804 242V241.41C72.7537 241.037 73.2004 240.66 73.6204 240.28C74.0471 239.893 74.4237 239.513 74.7504 239.14C75.0837 238.767 75.3437 238.4 75.5304 238.04C75.7237 237.68 75.8204 237.333 75.8204 237C75.8204 236.753 75.7771 236.523 75.6904 236.31C75.6104 236.097 75.4771 235.927 75.2904 235.8C75.1037 235.667 74.8504 235.6 74.5304 235.6C74.2237 235.6 73.9671 235.67 73.7604 235.81C73.5537 235.943 73.3971 236.123 73.2904 236.35C73.1904 236.577 73.1404 236.82 73.1404 237.08H72.3304C72.3304 236.62 72.4271 236.227 72.6204 235.9C72.8137 235.567 73.0771 235.313 73.4104 235.14C73.7437 234.967 74.1204 234.88 74.5404 234.88C75.1604 234.88 75.6671 235.057 76.0604 235.41C76.4604 235.757 76.6604 236.277 76.6604 236.97C76.6604 237.383 76.5571 237.793 76.3504 238.2C76.1437 238.6 75.8804 238.99 75.5604 239.37C75.2404 239.743 74.8971 240.093 74.5304 240.42C74.1704 240.747 73.8337 241.04 73.5204 241.3H76.9004V242H72.2804ZM80.7454 242.12C80.1254 242.12 79.5887 241.97 79.1354 241.67C78.6887 241.363 78.3454 240.94 78.1054 240.4C77.8654 239.853 77.7454 239.22 77.7454 238.5C77.7454 237.78 77.8654 237.15 78.1054 236.61C78.3454 236.063 78.6887 235.64 79.1354 235.34C79.5887 235.033 80.1254 234.88 80.7454 234.88C81.3654 234.88 81.8987 235.033 82.3454 235.34C82.7921 235.64 83.1354 236.063 83.3754 236.61C83.6154 237.15 83.7354 237.78 83.7354 238.5C83.7354 239.22 83.6154 239.853 83.3754 240.4C83.1354 240.94 82.7921 241.363 82.3454 241.67C81.8987 241.97 81.3654 242.12 80.7454 242.12ZM80.7454 241.38C81.1521 241.38 81.5154 241.267 81.8354 241.04C82.1621 240.807 82.4154 240.477 82.5954 240.05C82.7821 239.617 82.8754 239.1 82.8754 238.5C82.8754 237.9 82.7821 237.387 82.5954 236.96C82.4154 236.533 82.1621 236.207 81.8354 235.98C81.5154 235.747 81.1521 235.63 80.7454 235.63C80.3321 235.63 79.9654 235.747 79.6454 235.98C79.3254 236.207 79.0721 236.533 78.8854 236.96C78.6987 237.387 78.6054 237.9 78.6054 238.5C78.6054 239.1 78.6987 239.617 78.8854 240.05C79.0721 240.477 79.3254 240.807 79.6454 241.04C79.9654 241.267 80.3321 241.38 80.7454 241.38ZM85.639 242V235.94L84.509 236.19V235.61L85.919 235H86.489V242H85.639ZM90.3466 242.12C89.8666 242.12 89.4499 242.033 89.0966 241.86C88.7432 241.687 88.4599 241.45 88.2466 241.15C88.0399 240.843 87.9132 240.497 87.8666 240.11H88.6866C88.7666 240.497 88.9532 240.81 89.2466 241.05C89.5399 241.283 89.9099 241.4 90.3566 241.4C90.6899 241.4 90.9766 241.323 91.2166 241.17C91.4566 241.01 91.6399 240.797 91.7666 240.53C91.8999 240.263 91.9666 239.967 91.9666 239.64C91.9666 239.12 91.8199 238.7 91.5266 238.38C91.2332 238.06 90.8532 237.9 90.3866 237.9C89.9999 237.9 89.6699 237.987 89.3966 238.16C89.1232 238.333 88.9232 238.56 88.7966 238.84H87.9966L88.5966 235H92.2666V235.73H89.2466L88.8366 237.86C88.9966 237.667 89.2166 237.507 89.4966 237.38C89.7832 237.253 90.1099 237.19 90.4766 237.19C90.9366 237.19 91.3366 237.297 91.6766 237.51C92.0232 237.723 92.2932 238.013 92.4866 238.38C92.6799 238.747 92.7766 239.163 92.7766 239.63C92.7766 240.077 92.6799 240.49 92.4866 240.87C92.2999 241.25 92.0232 241.553 91.6566 241.78C91.2966 242.007 90.8599 242.12 90.3466 242.12Z" fill="#0A0B09"/>
<path d="M108.06 230V223H110.21C111.444 223 112.35 223.313 112.93 223.94C113.517 224.567 113.81 225.427 113.81 226.52C113.81 227.593 113.517 228.443 112.93 229.07C112.35 229.69 111.444 230 110.21 230H108.06ZM108.9 229.3H110.19C110.87 229.3 111.41 229.19 111.81 228.97C112.217 228.743 112.507 228.423 112.68 228.01C112.854 227.59 112.94 227.093 112.94 226.52C112.94 225.933 112.854 225.43 112.68 225.01C112.507 224.59 112.217 224.267 111.81 224.04C111.41 223.813 110.87 223.7 110.19 223.7H108.9V229.3ZM117.203 230.12C116.73 230.12 116.31 230.013 115.943 229.8C115.577 229.58 115.287 229.277 115.073 228.89C114.867 228.503 114.763 228.047 114.763 227.52C114.763 227 114.867 226.547 115.073 226.16C115.28 225.767 115.567 225.463 115.933 225.25C116.307 225.03 116.737 224.92 117.223 224.92C117.703 224.92 118.117 225.03 118.463 225.25C118.817 225.463 119.087 225.747 119.273 226.1C119.46 226.453 119.553 226.833 119.553 227.24C119.553 227.313 119.55 227.387 119.543 227.46C119.543 227.533 119.543 227.617 119.543 227.71H115.593C115.613 228.09 115.7 228.407 115.853 228.66C116.013 228.907 116.21 229.093 116.443 229.22C116.683 229.347 116.937 229.41 117.203 229.41C117.55 229.41 117.84 229.33 118.073 229.17C118.307 229.01 118.477 228.793 118.583 228.52H119.413C119.28 228.98 119.023 229.363 118.643 229.67C118.27 229.97 117.79 230.12 117.203 230.12ZM117.203 225.63C116.803 225.63 116.447 225.753 116.133 226C115.827 226.24 115.65 226.593 115.603 227.06H118.723C118.703 226.613 118.55 226.263 118.263 226.01C117.977 225.757 117.623 225.63 117.203 225.63ZM122.947 230.12C122.473 230.12 122.047 230.013 121.667 229.8C121.293 229.58 120.997 229.277 120.777 228.89C120.563 228.497 120.457 228.04 120.457 227.52C120.457 227 120.563 226.547 120.777 226.16C120.997 225.767 121.293 225.463 121.667 225.25C122.047 225.03 122.473 224.92 122.947 224.92C123.533 224.92 124.027 225.073 124.427 225.38C124.833 225.687 125.09 226.097 125.197 226.61H124.337C124.27 226.303 124.107 226.067 123.847 225.9C123.587 225.727 123.283 225.64 122.937 225.64C122.657 225.64 122.393 225.71 122.147 225.85C121.9 225.99 121.7 226.2 121.547 226.48C121.393 226.76 121.317 227.107 121.317 227.52C121.317 227.933 121.393 228.28 121.547 228.56C121.7 228.84 121.9 229.053 122.147 229.2C122.393 229.34 122.657 229.41 122.937 229.41C123.283 229.41 123.587 229.327 123.847 229.16C124.107 228.987 124.27 228.743 124.337 228.43H125.197C125.097 228.93 124.843 229.337 124.437 229.65C124.03 229.963 123.533 230.12 122.947 230.12ZM106.193 242V241.41C106.666 241.037 107.113 240.66 107.533 240.28C107.959 239.893 108.336 239.513 108.663 239.14C108.996 238.767 109.256 238.4 109.443 238.04C109.636 237.68 109.733 237.333 109.733 237C109.733 236.753 109.689 236.523 109.603 236.31C109.523 236.097 109.389 235.927 109.203 235.8C109.016 235.667 108.763 235.6 108.443 235.6C108.136 235.6 107.879 235.67 107.673 235.81C107.466 235.943 107.309 236.123 107.203 236.35C107.103 236.577 107.053 236.82 107.053 237.08H106.243C106.243 236.62 106.339 236.227 106.533 235.9C106.726 235.567 106.989 235.313 107.323 235.14C107.656 234.967 108.033 234.88 108.453 234.88C109.073 234.88 109.579 235.057 109.973 235.41C110.373 235.757 110.573 236.277 110.573 236.97C110.573 237.383 110.469 237.793 110.263 238.2C110.056 238.6 109.793 238.99 109.473 239.37C109.153 239.743 108.809 240.093 108.443 240.42C108.083 240.747 107.746 241.04 107.433 241.3H110.813V242H106.193ZM114.658 242.12C114.038 242.12 113.501 241.97 113.048 241.67C112.601 241.363 112.258 240.94 112.018 240.4C111.778 239.853 111.658 239.22 111.658 238.5C111.658 237.78 111.778 237.15 112.018 236.61C112.258 236.063 112.601 235.64 113.048 235.34C113.501 235.033 114.038 234.88 114.658 234.88C115.278 234.88 115.811 235.033 116.258 235.34C116.704 235.64 117.048 236.063 117.288 236.61C117.528 237.15 117.648 237.78 117.648 238.5C117.648 239.22 117.528 239.853 117.288 240.4C117.048 240.94 116.704 241.363 116.258 241.67C115.811 241.97 115.278 242.12 114.658 242.12ZM114.658 241.38C115.064 241.38 115.428 241.267 115.748 241.04C116.074 240.807 116.327 240.477 116.508 240.05C116.694 239.617 116.788 239.1 116.788 238.5C116.788 237.9 116.694 237.387 116.508 236.96C116.327 236.533 116.074 236.207 115.748 235.98C115.428 235.747 115.064 235.63 114.658 235.63C114.244 235.63 113.878 235.747 113.558 235.98C113.238 236.207 112.984 236.533 112.798 236.96C112.611 237.387 112.518 237.9 112.518 238.5C112.518 239.1 112.611 239.617 112.798 240.05C112.984 240.477 113.238 240.807 113.558 241.04C113.878 241.267 114.244 241.38 114.658 241.38ZM119.551 242V235.94L118.421 236.19V235.61L119.831 235H120.401V242H119.551ZM124.399 242.12C123.892 242.12 123.465 242.027 123.119 241.84C122.772 241.647 122.492 241.39 122.279 241.07C122.072 240.75 121.919 240.393 121.819 240C121.725 239.6 121.679 239.193 121.679 238.78C121.679 238.007 121.785 237.33 121.999 236.75C122.212 236.163 122.519 235.707 122.919 235.38C123.325 235.047 123.815 234.88 124.389 234.88C124.829 234.88 125.205 234.967 125.519 235.14C125.832 235.313 126.079 235.547 126.259 235.84C126.445 236.127 126.562 236.447 126.609 236.8H125.829C125.755 236.42 125.592 236.127 125.339 235.92C125.085 235.713 124.765 235.61 124.379 235.61C123.852 235.61 123.409 235.86 123.049 236.36C122.695 236.853 122.505 237.627 122.479 238.68C122.639 238.367 122.892 238.097 123.239 237.87C123.592 237.637 124.015 237.52 124.509 237.52C124.909 237.52 125.282 237.613 125.629 237.8C125.982 237.987 126.269 238.25 126.489 238.59C126.709 238.923 126.819 239.317 126.819 239.77C126.819 240.163 126.722 240.54 126.529 240.9C126.335 241.26 126.055 241.553 125.689 241.78C125.329 242.007 124.899 242.12 124.399 242.12ZM124.339 241.38C124.652 241.38 124.932 241.313 125.179 241.18C125.425 241.047 125.619 240.863 125.759 240.63C125.899 240.39 125.969 240.117 125.969 239.81C125.969 239.337 125.812 238.96 125.499 238.68C125.192 238.393 124.805 238.25 124.339 238.25C124.025 238.25 123.745 238.323 123.499 238.47C123.252 238.61 123.055 238.8 122.909 239.04C122.769 239.28 122.699 239.54 122.699 239.82C122.699 240.12 122.769 240.39 122.909 240.63C123.055 240.863 123.252 241.047 123.499 241.18C123.745 241.313 124.025 241.38 124.339 241.38Z" fill="#0A0B09"/>
<path d="M142.06 230V223H144.21C145.444 223 146.35 223.313 146.93 223.94C147.517 224.567 147.81 225.427 147.81 226.52C147.81 227.593 147.517 228.443 146.93 229.07C146.35 229.69 145.444 230 144.21 230H142.06ZM142.9 229.3H144.19C144.87 229.3 145.41 229.19 145.81 228.97C146.217 228.743 146.507 228.423 146.68 228.01C146.854 227.59 146.94 227.093 146.94 226.52C146.94 225.933 146.854 225.43 146.68 225.01C146.507 224.59 146.217 224.267 145.81 224.04C145.41 223.813 144.87 223.7 144.19 223.7H142.9V229.3ZM151.203 230.12C150.73 230.12 150.31 230.013 149.943 229.8C149.577 229.58 149.287 229.277 149.073 228.89C148.867 228.503 148.763 228.047 148.763 227.52C148.763 227 148.867 226.547 149.073 226.16C149.28 225.767 149.567 225.463 149.933 225.25C150.307 225.03 150.737 224.92 151.223 224.92C151.703 224.92 152.117 225.03 152.463 225.25C152.817 225.463 153.087 225.747 153.273 226.1C153.46 226.453 153.553 226.833 153.553 227.24C153.553 227.313 153.55 227.387 153.543 227.46C153.543 227.533 153.543 227.617 153.543 227.71H149.593C149.613 228.09 149.7 228.407 149.853 228.66C150.013 228.907 150.21 229.093 150.443 229.22C150.683 229.347 150.937 229.41 151.203 229.41C151.55 229.41 151.84 229.33 152.073 229.17C152.307 229.01 152.477 228.793 152.583 228.52H153.413C153.28 228.98 153.023 229.363 152.643 229.67C152.27 229.97 151.79 230.12 151.203 230.12ZM151.203 225.63C150.803 225.63 150.447 225.753 150.133 226C149.827 226.24 149.65 226.593 149.603 227.06H152.723C152.703 226.613 152.55 226.263 152.263 226.01C151.977 225.757 151.623 225.63 151.203 225.63ZM156.947 230.12C156.473 230.12 156.047 230.013 155.667 229.8C155.293 229.58 154.997 229.277 154.777 228.89C154.563 228.497 154.457 228.04 154.457 227.52C154.457 227 154.563 226.547 154.777 226.16C154.997 225.767 155.293 225.463 155.667 225.25C156.047 225.03 156.473 224.92 156.947 224.92C157.533 224.92 158.027 225.073 158.427 225.38C158.833 225.687 159.09 226.097 159.197 226.61H158.337C158.27 226.303 158.107 226.067 157.847 225.9C157.587 225.727 157.283 225.64 156.937 225.64C156.657 225.64 156.393 225.71 156.147 225.85C155.9 225.99 155.7 226.2 155.547 226.48C155.393 226.76 155.317 227.107 155.317 227.52C155.317 227.933 155.393 228.28 155.547 228.56C155.7 228.84 155.9 229.053 156.147 229.2C156.393 229.34 156.657 229.41 156.937 229.41C157.283 229.41 157.587 229.327 157.847 229.16C158.107 228.987 158.27 228.743 158.337 228.43H159.197C159.097 228.93 158.843 229.337 158.437 229.65C158.03 229.963 157.533 230.12 156.947 230.12ZM140.676 242V241.41C141.149 241.037 141.596 240.66 142.016 240.28C142.443 239.893 142.819 239.513 143.146 239.14C143.479 238.767 143.739 238.4 143.926 238.04C144.119 237.68 144.216 237.333 144.216 237C144.216 236.753 144.173 236.523 144.086 236.31C144.006 236.097 143.873 235.927 143.686 235.8C143.499 235.667 143.246 235.6 142.926 235.6C142.619 235.6 142.363 235.67 142.156 235.81C141.949 235.943 141.793 236.123 141.686 236.35C141.586 236.577 141.536 236.82 141.536 237.08H140.726C140.726 236.62 140.823 236.227 141.016 235.9C141.209 235.567 141.473 235.313 141.806 235.14C142.139 234.967 142.516 234.88 142.936 234.88C143.556 234.88 144.063 235.057 144.456 235.41C144.856 235.757 145.056 236.277 145.056 236.97C145.056 237.383 144.953 237.793 144.746 238.2C144.539 238.6 144.276 238.99 143.956 239.37C143.636 239.743 143.293 240.093 142.926 240.42C142.566 240.747 142.229 241.04 141.916 241.3H145.296V242H140.676ZM149.141 242.12C148.521 242.12 147.984 241.97 147.531 241.67C147.084 241.363 146.741 240.94 146.501 240.4C146.261 239.853 146.141 239.22 146.141 238.5C146.141 237.78 146.261 237.15 146.501 236.61C146.741 236.063 147.084 235.64 147.531 235.34C147.984 235.033 148.521 234.88 149.141 234.88C149.761 234.88 150.294 235.033 150.741 235.34C151.188 235.64 151.531 236.063 151.771 236.61C152.011 237.15 152.131 237.78 152.131 238.5C152.131 239.22 152.011 239.853 151.771 240.4C151.531 240.94 151.188 241.363 150.741 241.67C150.294 241.97 149.761 242.12 149.141 242.12ZM149.141 241.38C149.548 241.38 149.911 241.267 150.231 241.04C150.558 240.807 150.811 240.477 150.991 240.05C151.178 239.617 151.271 239.1 151.271 238.5C151.271 237.9 151.178 237.387 150.991 236.96C150.811 236.533 150.558 236.207 150.231 235.98C149.911 235.747 149.548 235.63 149.141 235.63C148.728 235.63 148.361 235.747 148.041 235.98C147.721 236.207 147.468 236.533 147.281 236.96C147.094 237.387 147.001 237.9 147.001 238.5C147.001 239.1 147.094 239.617 147.281 240.05C147.468 240.477 147.721 240.807 148.041 241.04C148.361 241.267 148.728 241.38 149.141 241.38ZM154.034 242V235.94L152.904 236.19V235.61L154.314 235H154.884V242H154.034ZM156.942 242L159.722 235.72H155.882V235H160.582V235.63L157.832 242H156.942Z" fill="#0A0B09"/>
<path d="M176.06 230V223H178.21C179.444 223 180.35 223.313 180.93 223.94C181.517 224.567 181.81 225.427 181.81 226.52C181.81 227.593 181.517 228.443 180.93 229.07C180.35 229.69 179.444 230 178.21 230H176.06ZM176.9 229.3H178.19C178.87 229.3 179.41 229.19 179.81 228.97C180.217 228.743 180.507 228.423 180.68 228.01C180.854 227.59 180.94 227.093 180.94 226.52C180.94 225.933 180.854 225.43 180.68 225.01C180.507 224.59 180.217 224.267 179.81 224.04C179.41 223.813 178.87 223.7 178.19 223.7H176.9V229.3ZM185.203 230.12C184.73 230.12 184.31 230.013 183.943 229.8C183.577 229.58 183.287 229.277 183.073 228.89C182.867 228.503 182.763 228.047 182.763 227.52C182.763 227 182.867 226.547 183.073 226.16C183.28 225.767 183.567 225.463 183.933 225.25C184.307 225.03 184.737 224.92 185.223 224.92C185.703 224.92 186.117 225.03 186.463 225.25C186.817 225.463 187.087 225.747 187.273 226.1C187.46 226.453 187.553 226.833 187.553 227.24C187.553 227.313 187.55 227.387 187.543 227.46C187.543 227.533 187.543 227.617 187.543 227.71H183.593C183.613 228.09 183.7 228.407 183.853 228.66C184.013 228.907 184.21 229.093 184.443 229.22C184.683 229.347 184.937 229.41 185.203 229.41C185.55 229.41 185.84 229.33 186.073 229.17C186.307 229.01 186.477 228.793 186.583 228.52H187.413C187.28 228.98 187.023 229.363 186.643 229.67C186.27 229.97 185.79 230.12 185.203 230.12ZM185.203 225.63C184.803 225.63 184.447 225.753 184.133 226C183.827 226.24 183.65 226.593 183.603 227.06H186.723C186.703 226.613 186.55 226.263 186.263 226.01C185.977 225.757 185.623 225.63 185.203 225.63ZM190.947 230.12C190.473 230.12 190.047 230.013 189.667 229.8C189.293 229.58 188.997 229.277 188.777 228.89C188.563 228.497 188.457 228.04 188.457 227.52C188.457 227 188.563 226.547 188.777 226.16C188.997 225.767 189.293 225.463 189.667 225.25C190.047 225.03 190.473 224.92 190.947 224.92C191.533 224.92 192.027 225.073 192.427 225.38C192.833 225.687 193.09 226.097 193.197 226.61H192.337C192.27 226.303 192.107 226.067 191.847 225.9C191.587 225.727 191.283 225.64 190.937 225.64C190.657 225.64 190.393 225.71 190.147 225.85C189.9 225.99 189.7 226.2 189.547 226.48C189.393 226.76 189.317 227.107 189.317 227.52C189.317 227.933 189.393 228.28 189.547 228.56C189.7 228.84 189.9 229.053 190.147 229.2C190.393 229.34 190.657 229.41 190.937 229.41C191.283 229.41 191.587 229.327 191.847 229.16C192.107 228.987 192.27 228.743 192.337 228.43H193.197C193.097 228.93 192.843 229.337 192.437 229.65C192.03 229.963 191.533 230.12 190.947 230.12ZM174.29 242V241.41C174.763 241.037 175.21 240.66 175.63 240.28C176.057 239.893 176.433 239.513 176.76 239.14C177.093 238.767 177.353 238.4 177.54 238.04C177.733 237.68 177.83 237.333 177.83 237C177.83 236.753 177.787 236.523 177.7 236.31C177.62 236.097 177.487 235.927 177.3 235.8C177.113 235.667 176.86 235.6 176.54 235.6C176.233 235.6 175.977 235.67 175.77 235.81C175.563 235.943 175.407 236.123 175.3 236.35C175.2 236.577 175.15 236.82 175.15 237.08H174.34C174.34 236.62 174.437 236.227 174.63 235.9C174.823 235.567 175.087 235.313 175.42 235.14C175.753 234.967 176.13 234.88 176.55 234.88C177.17 234.88 177.677 235.057 178.07 235.41C178.47 235.757 178.67 236.277 178.67 236.97C178.67 237.383 178.567 237.793 178.36 238.2C178.153 238.6 177.89 238.99 177.57 239.37C177.25 239.743 176.907 240.093 176.54 240.42C176.18 240.747 175.843 241.04 175.53 241.3H178.91V242H174.29ZM182.755 242.12C182.135 242.12 181.598 241.97 181.145 241.67C180.698 241.363 180.355 240.94 180.115 240.4C179.875 239.853 179.755 239.22 179.755 238.5C179.755 237.78 179.875 237.15 180.115 236.61C180.355 236.063 180.698 235.64 181.145 235.34C181.598 235.033 182.135 234.88 182.755 234.88C183.375 234.88 183.908 235.033 184.355 235.34C184.802 235.64 185.145 236.063 185.385 236.61C185.625 237.15 185.745 237.78 185.745 238.5C185.745 239.22 185.625 239.853 185.385 240.4C185.145 240.94 184.802 241.363 184.355 241.67C183.908 241.97 183.375 242.12 182.755 242.12ZM182.755 241.38C183.162 241.38 183.525 241.267 183.845 241.04C184.172 240.807 184.425 240.477 184.605 240.05C184.792 239.617 184.885 239.1 184.885 238.5C184.885 237.9 184.792 237.387 184.605 236.96C184.425 236.533 184.172 236.207 183.845 235.98C183.525 235.747 183.162 235.63 182.755 235.63C182.342 235.63 181.975 235.747 181.655 235.98C181.335 236.207 181.082 236.533 180.895 236.96C180.708 237.387 180.615 237.9 180.615 238.5C180.615 239.1 180.708 239.617 180.895 240.05C181.082 240.477 181.335 240.807 181.655 241.04C181.975 241.267 182.342 241.38 182.755 241.38ZM187.649 242V235.94L186.519 236.19V235.61L187.929 235H188.499V242H187.649ZM192.286 242.12C191.826 242.12 191.413 242.037 191.046 241.87C190.68 241.697 190.39 241.46 190.176 241.16C189.97 240.853 189.866 240.5 189.866 240.1C189.866 239.673 189.99 239.29 190.236 238.95C190.49 238.61 190.823 238.383 191.236 238.27C190.856 238.143 190.563 237.94 190.356 237.66C190.15 237.38 190.046 237.073 190.046 236.74C190.046 236.4 190.136 236.09 190.316 235.81C190.496 235.523 190.753 235.297 191.086 235.13C191.42 234.963 191.82 234.88 192.286 234.88C192.753 234.88 193.153 234.963 193.486 235.13C193.82 235.297 194.076 235.523 194.256 235.81C194.436 236.09 194.526 236.4 194.526 236.74C194.526 237.067 194.423 237.373 194.216 237.66C194.01 237.94 193.716 238.143 193.336 238.27C193.75 238.383 194.08 238.61 194.326 238.95C194.58 239.29 194.706 239.673 194.706 240.1C194.706 240.5 194.6 240.853 194.386 241.16C194.18 241.46 193.893 241.697 193.526 241.87C193.16 242.037 192.746 242.12 192.286 242.12ZM192.286 237.97C192.713 237.97 193.05 237.863 193.296 237.65C193.55 237.43 193.676 237.143 193.676 236.79C193.676 236.397 193.553 236.1 193.306 235.9C193.06 235.7 192.72 235.6 192.286 235.6C191.853 235.6 191.513 235.7 191.266 235.9C191.026 236.1 190.906 236.397 190.906 236.79C190.906 237.143 191.03 237.43 191.276 237.65C191.523 237.863 191.86 237.97 192.286 237.97ZM192.286 241.38C192.813 241.38 193.206 241.26 193.466 241.02C193.733 240.773 193.866 240.45 193.866 240.05C193.866 239.597 193.723 239.253 193.436 239.02C193.15 238.787 192.766 238.67 192.286 238.67C191.806 238.67 191.423 238.787 191.136 239.02C190.85 239.253 190.706 239.597 190.706 240.05C190.706 240.45 190.836 240.773 191.096 241.02C191.363 241.26 191.76 241.38 192.286 241.38Z" fill="#0A0B09"/>
<path d="M210.06 230V223H212.21C213.444 223 214.35 223.313 214.93 223.94C215.517 224.567 215.81 225.427 215.81 226.52C215.81 227.593 215.517 228.443 214.93 229.07C214.35 229.69 213.444 230 212.21 230H210.06ZM210.9 229.3H212.19C212.87 229.3 213.41 229.19 213.81 228.97C214.217 228.743 214.507 228.423 214.68 228.01C214.854 227.59 214.94 227.093 214.94 226.52C214.94 225.933 214.854 225.43 214.68 225.01C214.507 224.59 214.217 224.267 213.81 224.04C213.41 223.813 212.87 223.7 212.19 223.7H210.9V229.3ZM219.203 230.12C218.73 230.12 218.31 230.013 217.943 229.8C217.577 229.58 217.287 229.277 217.073 228.89C216.867 228.503 216.763 228.047 216.763 227.52C216.763 227 216.867 226.547 217.073 226.16C217.28 225.767 217.567 225.463 217.933 225.25C218.307 225.03 218.737 224.92 219.223 224.92C219.703 224.92 220.117 225.03 220.463 225.25C220.817 225.463 221.087 225.747 221.273 226.1C221.46 226.453 221.553 226.833 221.553 227.24C221.553 227.313 221.55 227.387 221.543 227.46C221.543 227.533 221.543 227.617 221.543 227.71H217.593C217.613 228.09 217.7 228.407 217.853 228.66C218.013 228.907 218.21 229.093 218.443 229.22C218.683 229.347 218.937 229.41 219.203 229.41C219.55 229.41 219.84 229.33 220.073 229.17C220.307 229.01 220.477 228.793 220.583 228.52H221.413C221.28 228.98 221.023 229.363 220.643 229.67C220.27 229.97 219.79 230.12 219.203 230.12ZM219.203 225.63C218.803 225.63 218.447 225.753 218.133 226C217.827 226.24 217.65 226.593 217.603 227.06H220.723C220.703 226.613 220.55 226.263 220.263 226.01C219.977 225.757 219.623 225.63 219.203 225.63ZM224.947 230.12C224.473 230.12 224.047 230.013 223.667 229.8C223.293 229.58 222.997 229.277 222.777 228.89C222.563 228.497 222.457 228.04 222.457 227.52C222.457 227 222.563 226.547 222.777 226.16C222.997 225.767 223.293 225.463 223.667 225.25C224.047 225.03 224.473 224.92 224.947 224.92C225.533 224.92 226.027 225.073 226.427 225.38C226.833 225.687 227.09 226.097 227.197 226.61H226.337C226.27 226.303 226.107 226.067 225.847 225.9C225.587 225.727 225.283 225.64 224.937 225.64C224.657 225.64 224.393 225.71 224.147 225.85C223.9 225.99 223.7 226.2 223.547 226.48C223.393 226.76 223.317 227.107 223.317 227.52C223.317 227.933 223.393 228.28 223.547 228.56C223.7 228.84 223.9 229.053 224.147 229.2C224.393 229.34 224.657 229.41 224.937 229.41C225.283 229.41 225.587 229.327 225.847 229.16C226.107 228.987 226.27 228.743 226.337 228.43H227.197C227.097 228.93 226.843 229.337 226.437 229.65C226.03 229.963 225.533 230.12 224.947 230.12ZM208.193 242V241.41C208.666 241.037 209.113 240.66 209.533 240.28C209.959 239.893 210.336 239.513 210.663 239.14C210.996 238.767 211.256 238.4 211.443 238.04C211.636 237.68 211.733 237.333 211.733 237C211.733 236.753 211.689 236.523 211.603 236.31C211.523 236.097 211.389 235.927 211.203 235.8C211.016 235.667 210.763 235.6 210.443 235.6C210.136 235.6 209.879 235.67 209.673 235.81C209.466 235.943 209.309 236.123 209.203 236.35C209.103 236.577 209.053 236.82 209.053 237.08H208.243C208.243 236.62 208.339 236.227 208.533 235.9C208.726 235.567 208.989 235.313 209.323 235.14C209.656 234.967 210.033 234.88 210.453 234.88C211.073 234.88 211.579 235.057 211.973 235.41C212.373 235.757 212.573 236.277 212.573 236.97C212.573 237.383 212.469 237.793 212.263 238.2C212.056 238.6 211.793 238.99 211.473 239.37C211.153 239.743 210.809 240.093 210.443 240.42C210.083 240.747 209.746 241.04 209.433 241.3H212.813V242H208.193ZM216.658 242.12C216.038 242.12 215.501 241.97 215.048 241.67C214.601 241.363 214.258 240.94 214.018 240.4C213.778 239.853 213.658 239.22 213.658 238.5C213.658 237.78 213.778 237.15 214.018 236.61C214.258 236.063 214.601 235.64 215.048 235.34C215.501 235.033 216.038 234.88 216.658 234.88C217.278 234.88 217.811 235.033 218.258 235.34C218.704 235.64 219.048 236.063 219.288 236.61C219.528 237.15 219.648 237.78 219.648 238.5C219.648 239.22 219.528 239.853 219.288 240.4C219.048 240.94 218.704 241.363 218.258 241.67C217.811 241.97 217.278 242.12 216.658 242.12ZM216.658 241.38C217.064 241.38 217.428 241.267 217.748 241.04C218.074 240.807 218.327 240.477 218.508 240.05C218.694 239.617 218.788 239.1 218.788 238.5C218.788 237.9 218.694 237.387 218.508 236.96C218.327 236.533 218.074 236.207 217.748 235.98C217.428 235.747 217.064 235.63 216.658 235.63C216.244 235.63 215.878 235.747 215.558 235.98C215.238 236.207 214.984 236.533 214.798 236.96C214.611 237.387 214.518 237.9 214.518 238.5C214.518 239.1 214.611 239.617 214.798 240.05C214.984 240.477 215.238 240.807 215.558 241.04C215.878 241.267 216.244 241.38 216.658 241.38ZM221.551 242V235.94L220.421 236.19V235.61L221.831 235H222.401V242H221.551ZM226.189 242.12C225.749 242.12 225.372 242.033 225.059 241.86C224.745 241.687 224.495 241.457 224.309 241.17C224.129 240.877 224.019 240.553 223.979 240.2H224.759C224.825 240.58 224.985 240.873 225.239 241.08C225.492 241.287 225.812 241.39 226.199 241.39C226.732 241.39 227.175 241.143 227.529 240.65C227.882 240.15 228.072 239.373 228.099 238.32C227.939 238.633 227.682 238.907 227.329 239.14C226.982 239.367 226.562 239.48 226.069 239.48C225.675 239.48 225.302 239.387 224.949 239.2C224.595 239.013 224.309 238.753 224.089 238.42C223.869 238.08 223.759 237.683 223.759 237.23C223.759 236.837 223.855 236.46 224.049 236.1C224.249 235.74 224.529 235.447 224.889 235.22C225.249 234.993 225.679 234.88 226.179 234.88C226.685 234.88 227.112 234.977 227.459 235.17C227.805 235.357 228.082 235.61 228.289 235.93C228.502 236.25 228.655 236.61 228.749 237.01C228.849 237.403 228.899 237.807 228.899 238.22C228.899 238.993 228.792 239.673 228.579 240.26C228.365 240.84 228.055 241.297 227.649 241.63C227.249 241.957 226.762 242.12 226.189 242.12ZM226.239 238.75C226.552 238.75 226.832 238.68 227.079 238.54C227.325 238.393 227.522 238.2 227.669 237.96C227.815 237.72 227.889 237.46 227.889 237.18C227.889 236.88 227.815 236.613 227.669 236.38C227.522 236.14 227.325 235.953 227.079 235.82C226.832 235.687 226.552 235.62 226.239 235.62C225.925 235.62 225.645 235.687 225.399 235.82C225.152 235.953 224.959 236.14 224.819 236.38C224.679 236.613 224.609 236.883 224.609 237.19C224.609 237.663 224.762 238.043 225.069 238.33C225.382 238.61 225.772 238.75 226.239 238.75Z" fill="#0A0B09"/>
<path d="M244.06 230V223H246.21C247.444 223 248.35 223.313 248.93 223.94C249.517 224.567 249.81 225.427 249.81 226.52C249.81 227.593 249.517 228.443 248.93 229.07C248.35 229.69 247.444 230 246.21 230H244.06ZM244.9 229.3H246.19C246.87 229.3 247.41 229.19 247.81 228.97C248.217 228.743 248.507 228.423 248.68 228.01C248.854 227.59 248.94 227.093 248.94 226.52C248.94 225.933 248.854 225.43 248.68 225.01C248.507 224.59 248.217 224.267 247.81 224.04C247.41 223.813 246.87 223.7 246.19 223.7H244.9V229.3ZM253.203 230.12C252.73 230.12 252.31 230.013 251.943 229.8C251.577 229.58 251.287 229.277 251.073 228.89C250.867 228.503 250.763 228.047 250.763 227.52C250.763 227 250.867 226.547 251.073 226.16C251.28 225.767 251.567 225.463 251.933 225.25C252.307 225.03 252.737 224.92 253.223 224.92C253.703 224.92 254.117 225.03 254.463 225.25C254.817 225.463 255.087 225.747 255.273 226.1C255.46 226.453 255.553 226.833 255.553 227.24C255.553 227.313 255.55 227.387 255.543 227.46C255.543 227.533 255.543 227.617 255.543 227.71H251.593C251.613 228.09 251.7 228.407 251.853 228.66C252.013 228.907 252.21 229.093 252.443 229.22C252.683 229.347 252.937 229.41 253.203 229.41C253.55 229.41 253.84 229.33 254.073 229.17C254.307 229.01 254.477 228.793 254.583 228.52H255.413C255.28 228.98 255.023 229.363 254.643 229.67C254.27 229.97 253.79 230.12 253.203 230.12ZM253.203 225.63C252.803 225.63 252.447 225.753 252.133 226C251.827 226.24 251.65 226.593 251.603 227.06H254.723C254.703 226.613 254.55 226.263 254.263 226.01C253.977 225.757 253.623 225.63 253.203 225.63ZM258.947 230.12C258.473 230.12 258.047 230.013 257.667 229.8C257.293 229.58 256.997 229.277 256.777 228.89C256.563 228.497 256.457 228.04 256.457 227.52C256.457 227 256.563 226.547 256.777 226.16C256.997 225.767 257.293 225.463 257.667 225.25C258.047 225.03 258.473 224.92 258.947 224.92C259.533 224.92 260.027 225.073 260.427 225.38C260.833 225.687 261.09 226.097 261.197 226.61H260.337C260.27 226.303 260.107 226.067 259.847 225.9C259.587 225.727 259.283 225.64 258.937 225.64C258.657 225.64 258.393 225.71 258.147 225.85C257.9 225.99 257.7 226.2 257.547 226.48C257.393 226.76 257.317 227.107 257.317 227.52C257.317 227.933 257.393 228.28 257.547 228.56C257.7 228.84 257.9 229.053 258.147 229.2C258.393 229.34 258.657 229.41 258.937 229.41C259.283 229.41 259.587 229.327 259.847 229.16C260.107 228.987 260.27 228.743 260.337 228.43H261.197C261.097 228.93 260.843 229.337 260.437 229.65C260.03 229.963 259.533 230.12 258.947 230.12ZM240.62 242V241.41C241.094 241.037 241.54 240.66 241.96 240.28C242.387 239.893 242.764 239.513 243.09 239.14C243.424 238.767 243.684 238.4 243.87 238.04C244.064 237.68 244.16 237.333 244.16 237C244.16 236.753 244.117 236.523 244.03 236.31C243.95 236.097 243.817 235.927 243.63 235.8C243.444 235.667 243.19 235.6 242.87 235.6C242.564 235.6 242.307 235.67 242.1 235.81C241.894 235.943 241.737 236.123 241.63 236.35C241.53 236.577 241.48 236.82 241.48 237.08H240.67C240.67 236.62 240.767 236.227 240.96 235.9C241.154 235.567 241.417 235.313 241.75 235.14C242.084 234.967 242.46 234.88 242.88 234.88C243.5 234.88 244.007 235.057 244.4 235.41C244.8 235.757 245 236.277 245 236.97C245 237.383 244.897 237.793 244.69 238.2C244.484 238.6 244.22 238.99 243.9 239.37C243.58 239.743 243.237 240.093 242.87 240.42C242.51 240.747 242.174 241.04 241.86 241.3H245.24V242H240.62ZM249.085 242.12C248.465 242.12 247.929 241.97 247.475 241.67C247.029 241.363 246.685 240.94 246.445 240.4C246.205 239.853 246.085 239.22 246.085 238.5C246.085 237.78 246.205 237.15 246.445 236.61C246.685 236.063 247.029 235.64 247.475 235.34C247.929 235.033 248.465 234.88 249.085 234.88C249.705 234.88 250.239 235.033 250.685 235.34C251.132 235.64 251.475 236.063 251.715 236.61C251.955 237.15 252.075 237.78 252.075 238.5C252.075 239.22 251.955 239.853 251.715 240.4C251.475 240.94 251.132 241.363 250.685 241.67C250.239 241.97 249.705 242.12 249.085 242.12ZM249.085 241.38C249.492 241.38 249.855 241.267 250.175 241.04C250.502 240.807 250.755 240.477 250.935 240.05C251.122 239.617 251.215 239.1 251.215 238.5C251.215 237.9 251.122 237.387 250.935 236.96C250.755 236.533 250.502 236.207 250.175 235.98C249.855 235.747 249.492 235.63 249.085 235.63C248.672 235.63 248.305 235.747 247.985 235.98C247.665 236.207 247.412 236.533 247.225 236.96C247.039 237.387 246.945 237.9 246.945 238.5C246.945 239.1 247.039 239.617 247.225 240.05C247.412 240.477 247.665 240.807 247.985 241.04C248.305 241.267 248.672 241.38 249.085 241.38ZM253.081 242V241.41C253.555 241.037 254.001 240.66 254.421 240.28C254.848 239.893 255.225 239.513 255.551 239.14C255.885 238.767 256.145 238.4 256.331 238.04C256.525 237.68 256.621 237.333 256.621 237C256.621 236.753 256.578 236.523 256.491 236.31C256.411 236.097 256.278 235.927 256.091 235.8C255.905 235.667 255.651 235.6 255.331 235.6C255.025 235.6 254.768 235.67 254.561 235.81C254.355 235.943 254.198 236.123 254.091 236.35C253.991 236.577 253.941 236.82 253.941 237.08H253.131C253.131 236.62 253.228 236.227 253.421 235.9C253.615 235.567 253.878 235.313 254.211 235.14C254.545 234.967 254.921 234.88 255.341 234.88C255.961 234.88 256.468 235.057 256.861 235.41C257.261 235.757 257.461 236.277 257.461 236.97C257.461 237.383 257.358 237.793 257.151 238.2C256.945 238.6 256.681 238.99 256.361 239.37C256.041 239.743 255.698 240.093 255.331 240.42C254.971 240.747 254.635 241.04 254.321 241.3H257.701V242H253.081ZM261.546 242.12C260.926 242.12 260.39 241.97 259.936 241.67C259.49 241.363 259.146 240.94 258.906 240.4C258.666 239.853 258.546 239.22 258.546 238.5C258.546 237.78 258.666 237.15 258.906 236.61C259.146 236.063 259.49 235.64 259.936 235.34C260.39 235.033 260.926 234.88 261.546 234.88C262.166 234.88 262.7 235.033 263.146 235.34C263.593 235.64 263.936 236.063 264.176 236.61C264.416 237.15 264.536 237.78 264.536 238.5C264.536 239.22 264.416 239.853 264.176 240.4C263.936 240.94 263.593 241.363 263.146 241.67C262.7 241.97 262.166 242.12 261.546 242.12ZM261.546 241.38C261.953 241.38 262.316 241.267 262.636 241.04C262.963 240.807 263.216 240.477 263.396 240.05C263.583 239.617 263.676 239.1 263.676 238.5C263.676 237.9 263.583 237.387 263.396 236.96C263.216 236.533 262.963 236.207 262.636 235.98C262.316 235.747 261.953 235.63 261.546 235.63C261.133 235.63 260.766 235.747 260.446 235.98C260.126 236.207 259.873 236.533 259.686 236.96C259.5 237.387 259.406 237.9 259.406 238.5C259.406 239.1 259.5 239.617 259.686 240.05C259.873 240.477 260.126 240.807 260.446 241.04C260.766 241.267 261.133 241.38 261.546 241.38Z" fill="#0A0B09"/>
<path d="M278.06 230V223H280.21C281.444 223 282.35 223.313 282.93 223.94C283.517 224.567 283.81 225.427 283.81 226.52C283.81 227.593 283.517 228.443 282.93 229.07C282.35 229.69 281.444 230 280.21 230H278.06ZM278.9 229.3H280.19C280.87 229.3 281.41 229.19 281.81 228.97C282.217 228.743 282.507 228.423 282.68 228.01C282.854 227.59 282.94 227.093 282.94 226.52C282.94 225.933 282.854 225.43 282.68 225.01C282.507 224.59 282.217 224.267 281.81 224.04C281.41 223.813 280.87 223.7 280.19 223.7H278.9V229.3ZM287.203 230.12C286.73 230.12 286.31 230.013 285.943 229.8C285.577 229.58 285.287 229.277 285.073 228.89C284.867 228.503 284.763 228.047 284.763 227.52C284.763 227 284.867 226.547 285.073 226.16C285.28 225.767 285.567 225.463 285.933 225.25C286.307 225.03 286.737 224.92 287.223 224.92C287.703 224.92 288.117 225.03 288.463 225.25C288.817 225.463 289.087 225.747 289.273 226.1C289.46 226.453 289.553 226.833 289.553 227.24C289.553 227.313 289.55 227.387 289.543 227.46C289.543 227.533 289.543 227.617 289.543 227.71H285.593C285.613 228.09 285.7 228.407 285.853 228.66C286.013 228.907 286.21 229.093 286.443 229.22C286.683 229.347 286.937 229.41 287.203 229.41C287.55 229.41 287.84 229.33 288.073 229.17C288.307 229.01 288.477 228.793 288.583 228.52H289.413C289.28 228.98 289.023 229.363 288.643 229.67C288.27 229.97 287.79 230.12 287.203 230.12ZM287.203 225.63C286.803 225.63 286.447 225.753 286.133 226C285.827 226.24 285.65 226.593 285.603 227.06H288.723C288.703 226.613 288.55 226.263 288.263 226.01C287.977 225.757 287.623 225.63 287.203 225.63ZM292.947 230.12C292.473 230.12 292.047 230.013 291.667 229.8C291.293 229.58 290.997 229.277 290.777 228.89C290.563 228.497 290.457 228.04 290.457 227.52C290.457 227 290.563 226.547 290.777 226.16C290.997 225.767 291.293 225.463 291.667 225.25C292.047 225.03 292.473 224.92 292.947 224.92C293.533 224.92 294.027 225.073 294.427 225.38C294.833 225.687 295.09 226.097 295.197 226.61H294.337C294.27 226.303 294.107 226.067 293.847 225.9C293.587 225.727 293.283 225.64 292.937 225.64C292.657 225.64 292.393 225.71 292.147 225.85C291.9 225.99 291.7 226.2 291.547 226.48C291.393 226.76 291.317 227.107 291.317 227.52C291.317 227.933 291.393 228.28 291.547 228.56C291.7 228.84 291.9 229.053 292.147 229.2C292.393 229.34 292.657 229.41 292.937 229.41C293.283 229.41 293.587 229.327 293.847 229.16C294.107 228.987 294.27 228.743 294.337 228.43H295.197C295.097 228.93 294.843 229.337 294.437 229.65C294.03 229.963 293.533 230.12 292.947 230.12ZM276.529 242V241.41C277.003 241.037 277.449 240.66 277.869 240.28C278.296 239.893 278.673 239.513 278.999 239.14C279.333 238.767 279.593 238.4 279.779 238.04C279.973 237.68 280.069 237.333 280.069 237C280.069 236.753 280.026 236.523 279.939 236.31C279.859 236.097 279.726 235.927 279.539 235.8C279.353 235.667 279.099 235.6 278.779 235.6C278.473 235.6 278.216 235.67 278.009 235.81C277.803 235.943 277.646 236.123 277.539 236.35C277.439 236.577 277.389 236.82 277.389 237.08H276.579C276.579 236.62 276.676 236.227 276.869 235.9C277.063 235.567 277.326 235.313 277.659 235.14C277.993 234.967 278.369 234.88 278.789 234.88C279.409 234.88 279.916 235.057 280.309 235.41C280.709 235.757 280.909 236.277 280.909 236.97C280.909 237.383 280.806 237.793 280.599 238.2C280.393 238.6 280.129 238.99 279.809 239.37C279.489 239.743 279.146 240.093 278.779 240.42C278.419 240.747 278.083 241.04 277.769 241.3H281.149V242H276.529ZM284.994 242.12C284.374 242.12 283.838 241.97 283.384 241.67C282.938 241.363 282.594 240.94 282.354 240.4C282.114 239.853 281.994 239.22 281.994 238.5C281.994 237.78 282.114 237.15 282.354 236.61C282.594 236.063 282.938 235.64 283.384 235.34C283.838 235.033 284.374 234.88 284.994 234.88C285.614 234.88 286.148 235.033 286.594 235.34C287.041 235.64 287.384 236.063 287.624 236.61C287.864 237.15 287.984 237.78 287.984 238.5C287.984 239.22 287.864 239.853 287.624 240.4C287.384 240.94 287.041 241.363 286.594 241.67C286.148 241.97 285.614 242.12 284.994 242.12ZM284.994 241.38C285.401 241.38 285.764 241.267 286.084 241.04C286.411 240.807 286.664 240.477 286.844 240.05C287.031 239.617 287.124 239.1 287.124 238.5C287.124 237.9 287.031 237.387 286.844 236.96C286.664 236.533 286.411 236.207 286.084 235.98C285.764 235.747 285.401 235.63 284.994 235.63C284.581 235.63 284.214 235.747 283.894 235.98C283.574 236.207 283.321 236.533 283.134 236.96C282.948 237.387 282.854 237.9 282.854 238.5C282.854 239.1 282.948 239.617 283.134 240.05C283.321 240.477 283.574 240.807 283.894 241.04C284.214 241.267 284.581 241.38 284.994 241.38ZM288.99 242V241.41C289.464 241.037 289.91 240.66 290.33 240.28C290.757 239.893 291.134 239.513 291.46 239.14C291.794 238.767 292.054 238.4 292.24 238.04C292.434 237.68 292.53 237.333 292.53 237C292.53 236.753 292.487 236.523 292.4 236.31C292.32 236.097 292.187 235.927 292 235.8C291.814 235.667 291.56 235.6 291.24 235.6C290.934 235.6 290.677 235.67 290.47 235.81C290.264 235.943 290.107 236.123 290 236.35C289.9 236.577 289.85 236.82 289.85 237.08H289.04C289.04 236.62 289.137 236.227 289.33 235.9C289.524 235.567 289.787 235.313 290.12 235.14C290.454 234.967 290.83 234.88 291.25 234.88C291.87 234.88 292.377 235.057 292.77 235.41C293.17 235.757 293.37 236.277 293.37 236.97C293.37 237.383 293.267 237.793 293.06 238.2C292.854 238.6 292.59 238.99 292.27 239.37C291.95 239.743 291.607 240.093 291.24 240.42C290.88 240.747 290.544 241.04 290.23 241.3H293.61V242H288.99ZM295.513 242V235.94L294.383 236.19V235.61L295.793 235H296.363V242H295.513Z" fill="#0A0B09"/>
<g filter="url(#filter0_d_21505_70510)">
<path d="M47.5 190L81.5 180.5L115.5 171L152 166.5C161.833 165.167 181.464 161.018 184.5 159.5C188.5 157.5 215 131 218 125C221.972 117.056 240.833 100 251.5 93L287 66" stroke="#0F50A4" stroke-width="2" stroke-linecap="round" stroke-linejoin="round"/>
</g>
<circle opacity="0.2" cx="286.5" cy="66.5" r="10.5" fill="#ED1E26"/>
<circle cx="286.5" cy="66.5" r="4.5" fill="#ED1E26"/>
<circle cx="252" cy="92" r="3" fill="white" stroke="#0F50A4"/>
<circle cx="218" cy="125" r="3" fill="white" stroke="#0F50A4"/>
<circle cx="184" cy="159" r="3" fill="white" stroke="#0F50A4"/>
<circle cx="152" cy="166" r="3" fill="white" stroke="#0F50A4"/>
<circle cx="116" cy="171" r="3" fill="white" stroke="#0F50A4"/>
<circle cx="82" cy="180" r="3" fill="white" stroke="#0F50A4"/>
<circle cx="48" cy="190" r="3" fill="white" stroke="#0F50A4"/>
<path opacity="0.8" d="M272.561 50V42.244L270.951 42.622V41.25L273.317 40.2H274.423V50H272.561ZM280.341 50.168C279.436 50.168 278.661 49.958 278.017 49.538C277.373 49.1087 276.874 48.516 276.519 47.76C276.174 46.9947 276.001 46.108 276.001 45.1C276.001 44.1013 276.174 43.2193 276.519 42.454C276.874 41.6887 277.373 41.096 278.017 40.676C278.661 40.2467 279.436 40.032 280.341 40.032C281.246 40.032 282.021 40.2467 282.665 40.676C283.309 41.096 283.804 41.6887 284.149 42.454C284.504 43.2193 284.681 44.1013 284.681 45.1C284.681 46.108 284.504 46.9947 284.149 47.76C283.804 48.516 283.309 49.1087 282.665 49.538C282.021 49.958 281.246 50.168 280.341 50.168ZM280.341 48.558C281.078 48.558 281.68 48.25 282.147 47.634C282.614 47.018 282.847 46.1733 282.847 45.1C282.847 44.0267 282.614 43.182 282.147 42.566C281.68 41.95 281.078 41.642 280.341 41.642C279.594 41.642 278.988 41.95 278.521 42.566C278.064 43.182 277.835 44.0267 277.835 45.1C277.835 46.1733 278.064 47.018 278.521 47.634C278.988 48.25 279.594 48.558 280.341 48.558ZM286.43 50.098C286.103 50.098 285.833 49.9953 285.618 49.79C285.413 49.5847 285.31 49.3373 285.31 49.048C285.31 48.7493 285.413 48.4973 285.618 48.292C285.833 48.0867 286.103 47.984 286.43 47.984C286.757 47.984 287.023 48.0867 287.228 48.292C287.443 48.4973 287.55 48.7493 287.55 49.048C287.55 49.3373 287.443 49.5847 287.228 49.79C287.023 49.9953 286.757 50.098 286.43 50.098ZM292.271 50.168C291.627 50.168 291.044 50.056 290.521 49.832C289.999 49.5987 289.579 49.244 289.261 48.768C288.944 48.292 288.776 47.6947 288.757 46.976H290.521C290.531 47.452 290.685 47.8533 290.983 48.18C291.291 48.4973 291.721 48.656 292.271 48.656C292.794 48.656 293.195 48.5113 293.475 48.222C293.755 47.9327 293.895 47.5687 293.895 47.13C293.895 46.6167 293.709 46.2293 293.335 45.968C292.971 45.6973 292.5 45.562 291.921 45.562H291.193V44.092H291.935C292.411 44.092 292.808 43.98 293.125 43.756C293.443 43.532 293.601 43.2007 293.601 42.762C293.601 42.398 293.48 42.1087 293.237 41.894C293.004 41.67 292.677 41.558 292.257 41.558C291.8 41.558 291.441 41.6933 291.179 41.964C290.927 42.2347 290.787 42.566 290.759 42.958H289.009C289.047 42.0527 289.359 41.3387 289.947 40.816C290.545 40.2933 291.315 40.032 292.257 40.032C292.929 40.032 293.494 40.1533 293.951 40.396C294.418 40.6293 294.768 40.942 295.001 41.334C295.244 41.726 295.365 42.16 295.365 42.636C295.365 43.1867 295.211 43.6533 294.903 44.036C294.605 44.4093 294.231 44.6613 293.783 44.792C294.334 44.904 294.782 45.1747 295.127 45.604C295.473 46.024 295.645 46.556 295.645 47.2C295.645 47.7413 295.515 48.236 295.253 48.684C294.992 49.132 294.609 49.4913 294.105 49.762C293.611 50.0327 292.999 50.168 292.271 50.168ZM297.842 50L301.538 41.726H296.708V40.2H303.386V41.474L299.704 50H297.842Z" fill="#0F50A4"/>
<path opacity="0.8" d="M264.335 39.7333C264.335 39.3283 264.629 39 264.992 39C265.355 39 265.65 39.3283 265.65 39.7333V40.2769C266.228 40.3717 266.688 40.5841 267.028 40.9142C267.309 41.1857 267.512 41.5104 267.637 41.8884C267.791 42.3554 267.425 42.7858 266.979 42.8076C266.569 42.8277 266.251 42.4675 266.004 42.1016C265.955 42.0289 265.9 41.966 265.839 41.9129C265.626 41.7216 265.306 41.6259 264.877 41.6259C264.435 41.6259 264.088 41.7273 263.838 41.9302C263.676 42.0603 263.596 42.2344 263.596 42.4525C263.596 42.6515 263.671 42.8217 263.822 42.9633C264.014 43.1432 264.481 43.3307 265.222 43.5258C265.963 43.721 266.51 43.9238 266.863 44.1343C267.22 44.3409 267.498 44.626 267.696 44.9895C267.899 45.3492 268 45.795 268 46.3269C268 46.809 267.88 47.2605 267.64 47.6815C267.4 48.1024 267.06 48.4162 266.621 48.6228C266.341 48.7521 266.017 48.8402 265.65 48.887V49.2667C265.65 49.6717 265.355 50 264.992 50C264.629 50 264.335 49.6717 264.335 49.2667V48.8852C263.689 48.7962 263.172 48.5652 262.783 48.1923C262.439 47.8601 262.188 47.4265 262.031 46.8915C261.897 46.4366 262.218 46.0018 262.645 45.9555C263.043 45.9124 263.381 46.2313 263.563 46.6277C263.651 46.8194 263.76 46.9774 263.889 47.1017C264.164 47.3619 264.532 47.4921 264.995 47.4921C265.486 47.4921 265.855 47.3773 266.101 47.1477C266.352 46.9142 266.477 46.6426 266.477 46.3326C266.477 46.1336 266.424 45.9653 266.318 45.8275C266.215 45.6859 266.033 45.5635 265.772 45.4602C265.594 45.3913 265.187 45.2688 264.553 45.0928C263.737 44.867 263.164 44.5896 262.834 44.2605C262.371 43.7975 262.14 43.2331 262.14 42.5673C262.14 42.1387 262.248 41.7388 262.464 41.3677C262.684 40.9926 262.997 40.7076 263.406 40.5124C263.678 40.383 263.988 40.2965 264.335 40.2529V39.7333Z" fill="#0F50A4"/>
<defs>
<filter id="filter0_d_21505_70510" x="42.4997" y="63" width="249.5" height="134" filterUnits="userSpaceOnUse" color-interpolation-filters="sRGB">
<feFlood flood-opacity="0" result="BackgroundImageFix"/>
<feColorMatrix in="SourceAlpha" type="matrix" values="0 0 0 0 0 0 0 0 0 0 0 0 0 0 0 0 0 0 127 0" result="hardAlpha"/>
<feOffset dy="2"/>
<feGaussianBlur stdDeviation="2"/>
<feColorMatrix type="matrix" values="0 0 0 0 0.0588235 0 0 0 0 0.313726 0 0 0 0 0.643137 0 0 0 0.4 0"/>
<feBlend mode="normal" in2="BackgroundImageFix" result="effect1_dropShadow_21505_70510"/>
<feBlend mode="normal" in="SourceGraphic" in2="effect1_dropShadow_21505_70510" result="shape"/>
</filter>
</defs>
</svg>
