<svg width="20" height="20" viewBox="0 0 20 20" fill="none" xmlns="http://www.w3.org/2000/svg">
<path d="M1.77068 11.0356L0.220052 12.6341C-0.0797536 12.9432 -0.0722926 13.4368 0.23681 13.7367C0.388294 13.8837 0.584037 13.9567 0.779662 13.9567C0.983178 13.9567 1.18654 13.8775 1.33939 13.7199L2.89002 12.1215C3.18982 11.8124 3.18236 11.3188 2.87326 11.0189C2.56416 10.719 2.07052 10.7265 1.77068 11.0356Z" fill="#ED1E26"/>
<path d="M5.3801 11.5391C4.94951 11.5391 4.60037 11.8882 4.60037 12.3188V19.1804C4.60037 19.611 4.94947 19.9602 5.3801 19.9602H5.38014C5.81072 19.9602 6.15986 19.6111 6.15986 19.1804L6.15979 12.3188C6.15979 11.8882 5.81072 11.5391 5.3801 11.5391Z" fill="#12539F"/>
<path d="M8.42105 9.82422C7.99047 9.82422 7.64133 10.1733 7.64133 10.6039V19.181C7.64133 19.6115 7.99043 19.9607 8.42105 19.9607C8.85168 19.9607 9.20078 19.6116 9.20078 19.181V10.6039C9.20074 10.1733 8.85168 9.82422 8.42105 9.82422Z" fill="#12539F"/>
<path d="M17.6608 0H15.3216C14.891 0 14.5419 0.349102 14.5419 0.779728C14.5419 1.21035 14.891 1.55946 15.3216 1.55946H17.3767L11.6513 7.28365C11.4977 7.43728 11.2967 7.52466 11.0979 7.52466C11.0937 7.52466 11.0895 7.52463 11.0853 7.52455C10.8938 7.52095 10.6982 7.43318 10.5486 7.28361L9.63191 6.36689C9.18312 5.9181 8.58734 5.65794 7.99722 5.6531C7.99148 5.65306 7.98577 5.65306 7.98007 5.65306C7.36929 5.65306 6.75937 5.92005 6.30355 6.3874L4.6326 8.06588C4.32878 8.37107 4.32987 8.86475 4.63507 9.16857C4.78718 9.32002 4.98616 9.39572 5.18514 9.39572C5.38526 9.39572 5.58538 9.31912 5.73772 9.16607L7.41171 7.48459C7.41402 7.48232 7.41624 7.48002 7.41851 7.47771C7.58132 7.31002 7.79351 7.21056 7.98445 7.21248C8.16613 7.21396 8.3698 7.31005 8.52929 7.46955L9.44601 8.38627C9.88453 8.82482 10.4564 9.07252 11.0563 9.08369C11.6801 9.09541 12.2993 8.84115 12.7541 8.38635L18.4405 2.70102V4.63938C18.4405 5.07001 18.7896 5.41911 19.2203 5.41911C19.6509 5.41911 20 5.07001 20 4.63938V2.33918C20 1.04938 18.9506 0 17.6608 0Z" fill="#ED1E26"/>
<path d="M2.30279 15.0488C1.87115 15.0473 1.52041 15.3969 1.52041 15.8286V19.1814C1.52041 19.612 1.86951 19.9611 2.30014 19.9611H2.30018C2.7308 19.9611 3.0799 19.612 3.0799 19.1814V15.8286C3.07986 15.399 2.73244 15.0503 2.30279 15.0488Z" fill="#12539F"/>
<path d="M17.6218 6.66602C17.1912 6.66602 16.8421 7.01512 16.8421 7.44574V19.1807C16.8421 19.6113 17.1912 19.9604 17.6218 19.9604H17.6219C18.0524 19.9604 18.4016 19.6113 18.4016 19.1807V7.44574C18.4015 7.01508 18.0525 6.66602 17.6218 6.66602Z" fill="#12539F"/>
<path d="M11.4619 10.7988C11.0313 10.7988 10.6822 11.1479 10.6822 11.5786V19.1809C10.6822 19.6115 11.0313 19.9606 11.4619 19.9606H11.462C11.8926 19.9606 12.2417 19.6115 12.2417 19.1809V11.5786C12.2417 11.1479 11.8926 10.7988 11.4619 10.7988Z" fill="#12539F"/>
<path d="M14.5391 9.31641C14.1095 9.31797 13.7622 9.66665 13.7622 10.0961V19.18C13.7622 19.6106 14.1113 19.9598 14.5419 19.9598H14.542C14.9726 19.9598 15.3217 19.6106 15.3217 19.18V10.0961C15.3216 9.66438 14.9708 9.31481 14.5391 9.31641Z" fill="#12539F"/>
</svg>
