<svg width="12" height="12" viewBox="0 0 12 12" fill="none" xmlns="http://www.w3.org/2000/svg">
<path fill-rule="evenodd" clip-rule="evenodd" d="M5.86669 10.9188C4.66079 10.1766 3.53896 9.30314 2.52129 8.31398C1.80581 7.60164 1.26113 6.73321 0.928956 5.77521C0.331204 3.91684 1.02942 1.78935 2.98341 1.15973C4.01035 0.82913 5.13193 1.01808 5.99729 1.66749C6.86298 1.01888 7.98416 0.829988 9.01116 1.15973C10.9652 1.78935 11.6684 3.91684 11.0706 5.77521C10.7385 6.73321 10.1938 7.60164 9.47831 8.31398C8.46063 9.30314 7.33881 10.1766 6.13291 10.9188L6.00231 11L5.86669 10.9188Z" stroke="#ED1E26" stroke-linecap="round" stroke-linejoin="round"/>
<path d="M8.07715 3.25C8.66899 3.43906 9.0895 3.97039 9.14205 4.59555" stroke="#ED1E26" stroke-linecap="round" stroke-linejoin="round"/>
</svg>
