<svg width="16" height="14" viewBox="0 0 16 14" fill="none" xmlns="http://www.w3.org/2000/svg">
<path fill-rule="evenodd" clip-rule="evenodd" d="M6.35245 9.43943C6.82081 9.75693 7.39161 9.94891 7.99901 9.94891C9.60898 9.94891 10.9189 8.62721 10.9189 7.00277C10.9189 6.38991 10.7286 5.81398 10.414 5.34141L9.6163 6.14625C9.74802 6.3973 9.8212 6.69265 9.8212 7.00277C9.8212 8.01435 9.00158 8.84134 7.99901 8.84134C7.69165 8.84134 7.39893 8.7675 7.15012 8.63459L6.35245 9.43943ZM12.8216 2.91214C13.8827 3.8868 14.7828 5.20112 15.4561 6.78125C15.5146 6.92155 15.5146 7.08399 15.4561 7.2169C13.89 10.894 11.1019 13.0944 7.99901 13.0944H7.99169C6.57931 13.0944 5.22548 12.6292 4.03264 11.7801L2.61294 13.2126C2.50317 13.3233 2.36412 13.375 2.22508 13.375C2.08604 13.375 1.93968 13.3233 1.83722 13.2126C1.65427 13.028 1.625 12.7326 1.77136 12.5185L1.79332 12.4889L12.6167 1.56828C12.6313 1.55351 12.646 1.53875 12.6533 1.52398L12.6533 1.52397C12.6679 1.50921 12.6826 1.49444 12.6899 1.47968L13.3778 0.785598C13.5973 0.571467 13.9413 0.571467 14.1535 0.785598C14.373 0.999729 14.373 1.35415 14.1535 1.56828L12.8216 2.91214ZM5.07377 7.00565C5.07377 7.19763 5.09573 7.38961 5.125 7.56682L2.41733 10.2988C1.68552 9.44231 1.04885 8.40857 0.543908 7.21978C0.485364 7.08687 0.485364 6.92443 0.543908 6.78413C2.10997 3.107 4.89814 0.914002 7.99367 0.914002H8.00099C9.04747 0.914002 10.0647 1.16505 11.0014 1.63762L8.55716 4.10381C8.38153 4.07427 8.19126 4.05212 8.00099 4.05212C6.3837 4.05212 5.07377 5.37383 5.07377 7.00565Z" fill="#848F92"/>
</svg>
