<svg width="17" height="15" viewBox="0 0 17 15" fill="none" xmlns="http://www.w3.org/2000/svg">
<path d="M6.68457 9.20245C6.21835 8.73704 5.93457 8.10461 5.93457 7.39515C5.93457 5.9738 7.07944 4.82812 8.49998 4.82812C9.20295 4.82812 9.84998 5.11272 10.3081 5.57813" stroke="#130F26" stroke-width="1.5" stroke-linecap="round" stroke-linejoin="round"/>
<path d="M11.018 7.85156C10.8299 8.89751 10.0061 9.72291 8.96094 9.91264" stroke="#130F26" stroke-width="1.5" stroke-linecap="round" stroke-linejoin="round"/>
<path d="M4.16622 11.7236C2.87946 10.7133 1.78973 9.23764 1 7.39791C1.79784 5.55008 2.89486 4.06629 4.18973 3.04791C5.47649 2.02954 6.96108 1.47656 8.5 1.47656C10.0478 1.47656 11.5316 2.03764 12.8265 3.06332" stroke="#130F26" stroke-width="1.5" stroke-linecap="round" stroke-linejoin="round"/>
<path d="M14.5392 4.84375C15.097 5.58483 15.5875 6.44024 16.0002 7.39456C14.4054 11.0894 11.587 13.3151 8.50024 13.3151C7.80051 13.3151 7.11051 13.2016 6.44727 12.9802" stroke="#130F26" stroke-width="1.5" stroke-linecap="round" stroke-linejoin="round"/>
<path d="M14.8952 1L2.10547 13.7897" stroke="#130F26" stroke-width="1.5" stroke-linecap="round" stroke-linejoin="round"/>
</svg>
