<svg width="24" height="24" viewBox="0 0 24 24" fill="none" xmlns="http://www.w3.org/2000/svg">
<g clip-path="url(#clip0_33051_8406)">
<path d="M12 8V12L14 14" stroke="white" stroke-width="1.5" stroke-linecap="round" stroke-linejoin="round"/>
<path d="M5.93254 5.26803C6.66755 4.59643 7.50231 4.05724 8.39981 3.66507M11.9007 2.9127C13.1859 2.89802 14.4482 3.15867 15.6071 3.66507C16.4421 4.02989 17.2234 4.52226 17.9211 5.1311C18.6112 5.73334 19.1994 6.43209 19.6713 7.2C20.3387 8.28604 20.7733 9.51041 20.934 10.7958C21.2083 12.99 20.6651 15.2085 19.4082 17.0278C18.1512 18.8472 16.2684 20.1401 14.1191 20.6599C11.9697 21.1797 9.70421 20.8901 7.7548 19.8461C5.80539 18.8022 4.95853 17.0771 4.19981 15M3.0498 20.0001V15.0001H8.0498" stroke="white" stroke-width="1.5" stroke-linecap="round" stroke-linejoin="round"/>
</g>
<defs>
<clipPath id="clip0_33051_8406">
<rect width="24" height="24" fill="white"/>
</clipPath>
</defs>
</svg>
