<svg width="28" height="28" viewBox="0 0 28 28" fill="none" xmlns="http://www.w3.org/2000/svg">
<path d="M19.0596 7.54385C19.0596 7.17998 18.7653 6.88574 18.4015 6.88574H7.87852C7.51465 6.88574 7.22041 7.17998 7.22041 7.54385C7.22041 7.90771 7.51465 8.20195 7.87852 8.20195H18.4037C18.7653 8.20195 19.0596 7.90771 19.0596 7.54385ZM7.87852 11.2724C7.51465 11.2724 7.22041 11.5666 7.22041 11.9305C7.22041 12.2943 7.51465 12.5886 7.87852 12.5886H16.3777C16.7416 12.5886 17.0358 12.2943 17.0358 11.9305C17.0358 11.5666 16.7416 11.2724 16.3777 11.2724H7.87852ZM13.04 15.6567H7.87852C7.51465 15.6567 7.22041 15.951 7.22041 16.3148C7.22041 16.6787 7.51465 16.9729 7.87852 16.9729H13.04C13.4039 16.9729 13.6981 16.6787 13.6981 16.3148C13.6959 15.951 13.4039 15.6567 13.04 15.6567ZM20.7936 20.6813H19.7649V18.6777C19.7649 18.3521 19.4998 18.087 19.1741 18.087C18.8484 18.087 18.5834 18.3521 18.5834 18.6777V21.1754C18.5834 21.1934 18.5924 21.2068 18.5924 21.2248C18.5901 21.2428 18.5834 21.2562 18.5834 21.2742C18.5834 21.5999 18.8484 21.8649 19.1741 21.8649H20.7936C21.1192 21.8649 21.3843 21.5999 21.3843 21.2742C21.3843 20.9485 21.1192 20.6813 20.7936 20.6813Z" fill="#0F50A4"/>
<path d="M19.1719 15.7109C16.3351 15.7109 14.0283 18.0177 14.0283 20.8545C14.0283 23.6913 16.3351 25.9981 19.1719 25.9981C22.0087 25.9981 24.3154 23.6913 24.3154 20.8545C24.3154 18.0177 22.0087 15.7109 19.1719 15.7109ZM19.1719 24.6863C17.0605 24.6863 15.3423 22.9681 15.3423 20.8567C15.3423 18.7454 17.0605 17.0249 19.1719 17.0249C21.2832 17.0249 23.0037 18.7432 23.0037 20.8567C23.0037 22.9703 21.2854 24.6863 19.1719 24.6863Z" fill="#ED1E26"/>
<path d="M7.7707 22.2308C6.79365 22.2308 5.99629 21.4356 5.99629 20.4564V6.13525C5.99629 5.15596 6.79141 4.36084 7.7707 4.36084H18.5025C19.4818 4.36084 20.277 5.15596 20.277 6.13525V14.7131C20.7329 14.8052 21.1731 14.9422 21.5909 15.1196V6.13525C21.5909 4.43271 20.2051 3.04688 18.5025 3.04688H7.7707C6.06816 3.04688 4.68232 4.43271 4.68232 6.13525V20.4586C4.68232 22.1611 6.06816 23.547 7.7707 23.547H13.4017C13.2107 23.1292 13.0603 22.6912 12.9569 22.233H7.7707V22.2308Z" fill="#0F50A4"/>
</svg>
