<svg width="24" height="24" viewBox="0 0 24 24" fill="none" xmlns="http://www.w3.org/2000/svg">
<g clip-path="url(#clip0_33853_17958)">
<path d="M12 8V12L14 14" stroke="white" stroke-width="1.5" stroke-linecap="round" stroke-linejoin="round"/>
<path d="M5.93278 5.26999C6.66779 4.59838 7.50255 4.05919 8.40005 3.66703M11.9009 2.91465C13.1862 2.89997 14.4484 3.16062 15.6074 3.66703C16.4423 4.03185 17.2236 4.52421 17.9213 5.13306C18.6114 5.7353 19.1997 6.43404 19.6716 7.20195C20.339 8.28799 20.7735 9.51237 20.9342 10.7978C21.2085 12.992 20.6654 15.2104 19.4084 17.0298C18.1515 18.8491 16.2687 20.1421 14.1193 20.6619C11.97 21.1817 9.70446 20.892 7.75504 19.8481C5.80563 18.8042 4.95877 17.079 4.20005 15.002M3.05005 20.002V15.002H8.05005" stroke="white" stroke-width="1.5" stroke-linecap="round" stroke-linejoin="round"/>
</g>
<defs>
<clipPath id="clip0_33853_17958">
<rect width="24" height="24" fill="white"/>
</clipPath>
</defs>
</svg>
