<svg width="20" height="21" viewBox="0 0 20 21" fill="none" xmlns="http://www.w3.org/2000/svg">
<path d="M19.8844 14.2906C19.7278 16.0237 19.476 17.432 19.1697 18.6885C18.9655 19.9451 17.7403 20.9922 16.413 20.9922H14.7794C13.8605 20.9922 13.1458 20.2592 13.1458 19.3168V15.0236C13.1458 13.9765 12.329 13.1388 11.308 13.1388H8.95977C7.93878 13.1388 7.12199 13.9765 7.12199 15.0236V19.3168C7.12199 20.2592 6.4073 20.9922 5.48841 20.9922H3.54853C2.22124 20.9922 1.09815 20.0498 0.791854 18.6885C0.485557 17.3273 0.219989 16.0249 0.0771611 14.2906C-0.104106 12.0896 0.0771611 9.99742 0.17926 8.63617C0.17926 7.79847 0.689755 6.96077 1.40445 6.43721L8.55138 1.51575C8.95977 1.20161 9.47027 0.992188 9.98076 0.992188C10.4913 0.992188 11.1039 1.20161 11.5122 1.51575L18.6592 6.43721C19.3739 6.96077 19.8844 7.79847 19.8844 8.63617C19.9865 9.99742 20.0831 12.0915 19.8844 14.2906Z" fill="#0F50A4"/>
</svg>
