<svg width="24" height="24" viewBox="0 0 24 24" fill="none" xmlns="http://www.w3.org/2000/svg">
<path fill-rule="evenodd" clip-rule="evenodd" d="M16.191 2H7.81C4.77 2 3 3.78 3 6.83V17.16C3 20.26 4.77 22 7.81 22H13.0226C12.3754 20.9896 12 19.7884 12 18.5C12 18.093 12.0375 17.6948 12.1092 17.3084H7.07996C6.77996 17.3484 6.48996 17.1984 6.32996 16.9484C6.16996 16.6884 6.16996 16.3584 6.32996 16.1084C6.48996 15.8484 6.77996 15.7084 7.07996 15.7384H12.6149C13.6538 13.5302 15.8993 12 18.5 12C19.3863 12 20.2307 12.1771 21 12.4977V6.83C21 3.78 19.28 2 16.191 2ZM7.07996 6.64844V6.65844C6.64896 6.65844 6.29996 7.00844 6.29996 7.43844C6.29996 7.86844 6.64896 8.21844 7.07996 8.21844H10.069C10.5 8.21844 10.85 7.86844 10.85 7.42744C10.85 6.99844 10.5 6.64844 10.069 6.64844H7.07996ZM14.553 12.7368H7.04661C6.63395 12.7368 6.2998 12.3868 6.2998 11.9568C6.2998 11.5268 6.63395 11.1758 7.04661 11.1758H14.553C14.9647 11.1758 15.2998 11.5268 15.2998 11.9568C15.2998 12.3868 14.9647 12.7368 14.553 12.7368Z" fill="#0F50A4"/>
<path fill-rule="evenodd" clip-rule="evenodd" d="M18.5 13.5C15.74 13.5 13.5 15.7405 13.5 18.5C13.5 21.2605 15.74 23.5 18.5 23.5C21.265 23.5 23.5 21.2605 23.5 18.5C23.5 15.7405 21.265 13.5 18.5 13.5ZM19.1752 15.9975C19.1752 15.6248 18.873 15.3225 18.5002 15.3225C18.1274 15.3225 17.8252 15.6248 17.8252 15.9975V18.4975C17.8252 18.8703 18.1274 19.1725 18.5002 19.1725C18.873 19.1725 19.1752 18.8703 19.1752 18.4975V15.9975ZM18.5002 19.998C18.873 19.998 19.1752 20.3003 19.1752 20.673C19.1752 21.0458 18.873 21.348 18.5002 21.348C18.1274 21.348 17.8252 21.0458 17.8252 20.673C17.8252 20.3003 18.1274 19.998 18.5002 19.998Z" fill="#0685CF"/>
</svg>
