<svg width="47" height="46" viewBox="0 0 47 46" fill="none" xmlns="http://www.w3.org/2000/svg">
<circle opacity="0.3" cx="23.5" cy="23" r="23" fill="#0F50A4"/>
<path d="M33.4174 20.5843L33.4176 20.5843C33.5625 20.5974 33.6859 20.6952 33.7317 20.8353C33.7777 20.9771 33.7352 21.1296 33.625 21.2264C33.625 21.2264 33.625 21.2264 33.625 21.2264C33.6249 21.2265 33.6249 21.2265 33.6248 21.2265L29.0426 25.2445L28.7068 25.539L28.8057 25.9745L30.1566 31.9246C30.1566 31.9247 30.1566 31.9247 30.1566 31.9247C30.1896 32.071 30.133 32.2185 30.0148 32.304L30.0141 32.3044C29.8949 32.3908 29.7372 32.3976 29.6111 32.3223L24.385 29.1969L24 28.9667L23.6151 29.1968L18.3878 32.3224L18.3876 32.3225C18.3294 32.3574 18.265 32.3744 18.2004 32.3744C18.1246 32.3744 18.0505 32.3514 17.9867 32.305L17.9853 32.304C17.8671 32.2185 17.8104 32.071 17.8434 31.9247C17.8434 31.9247 17.8434 31.9247 17.8434 31.9246L19.1944 25.9745L19.2932 25.539L18.9575 25.2445L14.3751 21.2264C14.2651 21.13 14.2226 20.9771 14.2679 20.8366C14.3145 20.6957 14.4383 20.5978 14.5834 20.5842C14.5835 20.5842 14.5836 20.5842 14.5838 20.5842L20.6457 20.034L21.0917 19.9935L21.2676 19.5816L23.6634 13.9726L23.6635 13.9723C23.7214 13.8366 23.8525 13.75 24 13.75C24.1469 13.75 24.2789 13.8362 24.338 13.9735C24.338 13.9736 24.3381 13.9737 24.3381 13.9739L26.7334 19.5816L26.9093 19.9935L27.3553 20.034L33.4174 20.5843Z" stroke="#0F50A4" stroke-width="1.5"/>
</svg>
