<svg width="16" height="19" viewBox="0 0 16 19" fill="none" xmlns="http://www.w3.org/2000/svg">
<path d="M13.744 4.00871C12.4229 2.09677 10.3292 1 8.0002 1C5.67116 1 3.57749 2.09677 2.25644 4.00871C0.941873 5.91099 0.638335 8.31932 1.44286 10.4471C1.65805 11.0281 2.00012 11.5926 2.45713 12.1216L7.53957 18.0915C7.65452 18.2266 7.82293 18.3045 8.0002 18.3045C8.17747 18.3045 8.34589 18.2266 8.46083 18.0915L13.5419 12.1233C14.0009 11.5912 14.3425 11.0273 14.5559 10.4509C15.3621 8.31932 15.0585 5.91099 13.744 4.00871ZM13.4229 10.0272C13.2583 10.4719 12.9897 10.9115 12.6248 11.3345C12.6238 11.3355 12.6228 11.3365 12.622 11.3377L8.0002 16.7662L3.37558 11.3343C3.01094 10.9117 2.74228 10.4721 2.5761 10.0231C1.91075 8.26345 2.16326 6.27222 3.25175 4.69687C4.34365 3.11649 6.07451 2.2101 8.0002 2.2101C9.92587 2.2101 11.6565 3.11645 12.7485 4.69687C13.8371 6.27222 14.0899 8.26345 13.4229 10.0272Z" fill="#464646" stroke="#464646" stroke-width="0.2"/>
<path d="M8.00042 4.58984C6.13221 4.58984 4.61212 6.10973 4.61212 7.97814C4.61212 9.84655 6.13201 11.3664 8.00042 11.3664C9.86883 11.3664 11.3887 9.84655 11.3887 7.97814C11.3887 6.10993 9.86862 4.58984 8.00042 4.58984ZM8.00042 10.1563C6.79938 10.1563 5.82222 9.17914 5.82222 7.97811C5.82222 6.77707 6.79938 5.79991 8.00042 5.79991C9.20146 5.79991 10.1786 6.77707 10.1786 7.97811C10.1786 9.17914 9.20146 10.1563 8.00042 10.1563Z" fill="#464646" stroke="#464646" stroke-width="0.2"/>
</svg>
