<svg width="15" height="18" viewBox="0 0 15 18" fill="none" xmlns="http://www.w3.org/2000/svg">
<path fill-rule="evenodd" clip-rule="evenodd" d="M7.49874 5.90737C6.62144 5.90737 5.90778 6.62102 5.90778 7.49923C5.90778 8.37653 6.62144 9.08928 7.49874 9.08928C8.37604 9.08928 9.0897 8.37653 9.0897 7.49923C9.0897 6.62102 8.37604 5.90737 7.49874 5.90737ZM7.49907 10.4522C5.86993 10.4522 4.54443 9.12765 4.54443 7.49851C4.54443 5.86846 5.86993 4.54297 7.49907 4.54297C9.12821 4.54297 10.4537 5.86846 10.4537 7.49851C10.4537 9.12765 9.12821 10.4522 7.49907 10.4522Z" fill="black"/>
<mask id="mask0_23473_75279" style="mask-type:luminance" maskUnits="userSpaceOnUse" x="0" y="0" width="15" height="18">
<path fill-rule="evenodd" clip-rule="evenodd" d="M0 0H15V17.7278H0V0Z" fill="white"/>
</mask>
<g mask="url(#mask0_23473_75279)">
<path fill-rule="evenodd" clip-rule="evenodd" d="M7.4999 1.3644C4.11616 1.3644 1.36335 4.14357 1.36335 7.55822C1.36335 11.9029 6.47623 16.1358 7.4999 16.3612C8.52357 16.1348 13.6364 11.902 13.6364 7.55822C13.6364 4.14357 10.8836 1.3644 7.4999 1.3644ZM7.50023 17.7278C5.86927 17.7278 0 12.6804 0 7.5575C0 3.3901 3.36465 0 7.50023 0C11.6358 0 15.0005 3.3901 15.0005 7.5575C15.0005 12.6804 9.13119 17.7278 7.50023 17.7278Z" fill="black"/>
</g>
</svg>
