<svg width="22" height="17" viewBox="0 0 22 17" fill="none" xmlns="http://www.w3.org/2000/svg">
<path fill-rule="evenodd" clip-rule="evenodd" d="M3.26195 4.70141C3.25874 4.70461 3.1709 4.71794 3.06677 4.73101C2.96264 4.74408 2.8522 4.76143 2.82134 4.76958C2.79049 4.77773 2.7116 4.79719 2.64603 4.81283C2.58047 4.82847 2.5142 4.84729 2.49878 4.85464C2.48335 4.862 2.45495 4.87247 2.43566 4.87792C2.34528 4.90344 2.13105 4.99597 1.96343 5.0819C1.7878 5.17195 1.7203 5.21197 1.58326 5.30734C1.55025 5.3303 1.51712 5.34909 1.50963 5.34909C1.50214 5.34909 1.49602 5.35452 1.49602 5.36118C1.49602 5.36781 1.46604 5.39363 1.4294 5.41855C1.39275 5.44348 1.34385 5.48058 1.32071 5.501C1.12886 5.67026 0.968493 5.83061 0.862327 5.95929C0.826186 6.00309 0.783593 6.05462 0.767661 6.07382C0.751715 6.09302 0.738686 6.11301 0.738686 6.11827C0.738686 6.12354 0.727649 6.14052 0.714143 6.156C0.637456 6.24401 0.475949 6.50784 0.394662 6.67792C0.371746 6.72584 0.349741 6.76832 0.34573 6.77231C0.308916 6.80908 0.135922 7.31229 0.0919831 7.51043C-0.0328079 8.07322 -0.0305499 8.68573 0.0983082 9.2339C0.140312 9.41256 0.191263 9.59205 0.205484 9.61149C0.211333 9.61948 0.224067 9.65216 0.233786 9.68411C0.243491 9.71606 0.259451 9.75854 0.26924 9.7785C0.279029 9.79847 0.316573 9.88016 0.352673 9.96004C0.388758 10.0399 0.446203 10.1529 0.480311 10.2111C0.514432 10.2693 0.542341 10.3226 0.542341 10.3297C0.542341 10.3367 0.547348 10.3446 0.553463 10.3473C0.559578 10.35 0.57931 10.3771 0.597332 10.4077C0.626868 10.4578 0.743973 10.6173 0.849733 10.7515C0.928607 10.8516 1.16508 11.0897 1.29084 11.1957C1.45323 11.3325 1.45819 11.3364 1.55913 11.4053C1.60541 11.4369 1.64958 11.468 1.6573 11.4743C1.73689 11.54 2.19468 11.7688 2.33048 11.8109C2.36133 11.8204 2.3992 11.8341 2.41463 11.8414C2.5381 11.8994 2.9495 11.9903 3.20001 12.015C3.28216 12.023 4.33656 12.029 5.74547 12.0294L8.15069 12.03L7.92749 12.2512C7.39062 12.7834 6.65257 13.5638 6.26353 14.0108C6.22928 14.0501 6.18865 14.0957 6.17322 14.1121C6.1578 14.1284 6.12309 14.1688 6.09609 14.2018C6.04669 14.2621 5.86401 14.4794 5.81499 14.5361C5.77753 14.5795 5.50613 14.9213 5.46905 14.9717C5.41375 15.047 5.21122 15.3182 5.19165 15.3432C5.18119 15.3565 5.16588 15.3805 5.15762 15.3965C5.14936 15.4125 5.13462 15.4342 5.12486 15.4448C5.05238 15.5236 4.59546 16.2937 4.59546 16.3371C4.59546 16.3419 4.57949 16.3787 4.56 16.4189C4.54049 16.4591 4.52699 16.4945 4.52997 16.4976C4.53297 16.5007 4.57891 16.4525 4.63206 16.3905C4.86195 16.1223 5.51617 15.4606 5.80091 15.2082C5.8584 15.1573 5.92064 15.1011 5.93921 15.0834C5.95778 15.0657 6.0338 15.0004 6.10815 14.9382C6.18251 14.8761 6.25057 14.8187 6.25941 14.8107C6.26824 14.8026 6.29593 14.7797 6.32092 14.7598C6.34591 14.7398 6.38602 14.7067 6.41004 14.6863C6.46101 14.6428 6.63657 14.5026 6.68606 14.4657C6.80659 14.376 6.87629 14.3234 6.88848 14.313C6.89619 14.3064 6.94353 14.2719 6.99366 14.2363C7.0438 14.2007 7.08798 14.1675 7.09184 14.1625C7.09569 14.1575 7.16196 14.1104 7.23909 14.058C7.31623 14.0055 7.38697 13.9557 7.39628 13.9473C7.4056 13.9389 7.41679 13.932 7.42116 13.932C7.42552 13.932 7.45948 13.9107 7.49659 13.8848C7.53371 13.8588 7.60991 13.8082 7.66592 13.7722C7.72193 13.7363 7.78767 13.6936 7.81197 13.6773C7.89095 13.6245 8.42666 13.3192 8.59948 13.2285C8.75106 13.149 8.86428 13.0934 9.07632 12.9944C9.27714 12.9007 9.30938 12.8864 9.31886 12.8864C9.32454 12.8864 9.35117 12.8742 9.37806 12.8593C9.40494 12.8445 9.44271 12.8274 9.462 12.8214C9.48128 12.8154 9.51599 12.8016 9.53913 12.7907C9.59686 12.7636 9.9255 12.6433 10.037 12.6085C10.0871 12.5928 10.1408 12.5742 10.1562 12.5672C10.2028 12.5459 10.725 12.4005 10.8712 12.368C11.0752 12.3228 11.3424 12.2748 11.5797 12.241C11.8212 12.2065 12.0506 12.1591 12.1056 12.1324C12.1211 12.1249 12.1675 12.1077 12.2089 12.0942C12.3619 12.0443 12.5444 11.9172 12.6752 11.7695C12.7709 11.6615 12.7777 11.6524 12.8073 11.5925C12.8208 11.5653 12.836 11.5397 12.8412 11.5357C12.8556 11.5246 12.934 11.3499 12.9742 11.2393C13.0164 11.1232 13.0421 11.0306 13.0876 10.8314C13.1058 10.7515 13.1376 10.6143 13.1581 10.5264C13.1787 10.4386 13.2104 10.3013 13.2286 10.2214C13.2469 10.1416 13.278 10.0076 13.2977 9.92373C13.3175 9.83986 13.3493 9.70426 13.3683 9.62239C13.3873 9.54051 13.4185 9.40655 13.4375 9.32467C13.4566 9.24279 13.4883 9.10719 13.5081 9.02333C13.55 8.84555 13.6011 8.62548 13.6481 8.42064C13.7062 8.16748 13.7089 8.16665 13.7102 8.40192C13.7115 8.62394 13.7308 8.87749 13.7532 8.96524C13.7603 8.99319 13.7767 9.07815 13.7897 9.15403C13.8027 9.22991 13.8188 9.29821 13.8255 9.30579C13.8322 9.31339 13.8377 9.33183 13.8377 9.3468C13.8377 9.39511 14.01 9.88753 14.0345 9.90921C14.0391 9.9132 14.0724 9.97855 14.1087 10.0544C14.145 10.1303 14.1824 10.2053 14.192 10.2211C14.2633 10.3389 14.3763 10.5126 14.3927 10.5296C14.4037 10.541 14.4127 10.5547 14.4127 10.5601C14.4127 10.5702 14.4326 10.5959 14.5489 10.737C14.6289 10.834 14.9047 11.1171 14.9875 11.1872C15.0205 11.2152 15.064 11.2528 15.0842 11.2708C15.1044 11.2888 15.132 11.3072 15.1455 11.3117C15.159 11.3162 15.17 11.3249 15.17 11.3311C15.17 11.3373 15.1921 11.3547 15.2191 11.3698C15.2461 11.3848 15.2682 11.4007 15.2682 11.405C15.2682 11.4094 15.2918 11.4258 15.3208 11.4415C15.3497 11.4573 15.3765 11.4742 15.3804 11.4791C15.3842 11.4841 15.4095 11.4998 15.4365 11.514C15.4635 11.5282 15.4887 11.5441 15.4926 11.5493C15.511 11.5743 15.9334 11.7763 16.0255 11.8043C16.0448 11.8101 16.0795 11.8235 16.1026 11.834C16.198 11.8774 16.4532 11.9415 16.7758 12.0031C16.8346 12.0143 17.6328 12.0209 19.4247 12.0248C21.879 12.0302 21.9892 12.0293 21.9823 12.0046C21.9784 11.9903 21.824 11.6977 21.6392 11.3542L21.3033 10.7297L20.1335 10.7212C19.4051 10.7159 18.9425 10.707 18.9076 10.6977C18.6824 10.6377 18.6135 10.6158 18.5116 10.5718C18.3882 10.5185 18.2385 10.4357 18.1554 10.3749C18.1274 10.3544 18.0901 10.3278 18.0725 10.3158C17.9952 10.2632 17.815 10.0844 17.7212 9.9673C17.5992 9.81488 17.5325 9.69636 17.3983 9.39365C17.3769 9.34526 17.3279 9.16791 17.304 9.05237C17.2712 8.89352 17.2713 7.84792 17.3042 7.68724C17.3306 7.55825 17.3834 7.36726 17.3984 7.34628C17.4043 7.33812 17.4205 7.29959 17.4344 7.26068C17.4627 7.1814 17.5714 6.97457 17.6161 6.91481C17.6322 6.89335 17.6673 6.84433 17.6941 6.80589C17.7586 6.7136 17.9805 6.48596 18.0595 6.43107C18.094 6.40713 18.1254 6.38367 18.1292 6.37892C18.1656 6.33424 18.483 6.16654 18.606 6.12698C18.6485 6.11335 18.6958 6.0966 18.7112 6.08975C18.7515 6.07187 18.8574 6.05036 19.0307 6.02486C19.1558 6.00646 19.3645 6.00261 20.2372 6.00261C21.4256 6.00261 21.3031 6.01526 21.3649 5.88608C21.382 5.85033 21.4147 5.7884 21.4374 5.74847C21.4601 5.70853 21.5053 5.62357 21.5377 5.55967C21.5702 5.49577 21.6086 5.42615 21.6231 5.40495C21.6375 5.38374 21.6494 5.35969 21.6494 5.35152C21.6494 5.34334 21.6573 5.32801 21.6669 5.31745C21.6766 5.3069 21.6984 5.26885 21.7156 5.23291C21.7327 5.19697 21.7656 5.13488 21.7887 5.09495C21.8118 5.05501 21.8395 5.00273 21.8502 4.97876C21.861 4.9548 21.899 4.884 21.9349 4.82144C21.9707 4.75888 22 4.70497 22 4.70163C22 4.6983 20.8814 4.69562 19.5141 4.69566C17.0948 4.69575 17.0225 4.69655 16.8109 4.7253C16.5325 4.76316 16.1427 4.86067 16.0045 4.92703C15.9891 4.93444 15.9155 4.96683 15.8411 4.99902C15.7666 5.03121 15.6846 5.06972 15.6587 5.08459C15.6329 5.09948 15.5708 5.13397 15.5206 5.16126C15.4705 5.18853 15.4232 5.21605 15.4154 5.22241C15.4077 5.22877 15.3604 5.26091 15.3103 5.29385C15.2601 5.32677 15.2025 5.36738 15.1823 5.38408C15.162 5.40078 15.1277 5.42752 15.1059 5.44349C14.8468 5.63333 14.4888 6.02885 14.2975 6.33663C14.187 6.51439 14.1698 6.54525 14.0883 6.71059C14.0479 6.79247 14.0107 6.85945 14.0056 6.85945C13.9968 6.85945 13.7735 7.03345 13.6864 7.10824C13.6644 7.12716 13.6251 7.15898 13.5991 7.17895C13.5731 7.19892 13.4941 7.26427 13.4235 7.32417C13.3529 7.38408 13.2742 7.44943 13.2486 7.4694C13.223 7.48937 13.144 7.55472 13.073 7.61463C13.002 7.67453 12.9226 7.74096 12.8965 7.76224C12.8703 7.78351 12.8332 7.81494 12.8139 7.83209C12.7343 7.90286 12.6482 7.9761 12.3861 8.19571C12.0932 8.44117 12.0768 8.45508 12.0327 8.49551C11.96 8.56197 11.9377 8.58131 11.8251 8.67536C11.7083 8.77297 11.6737 8.80286 11.6075 8.86358C11.5857 8.88355 11.5582 8.908 11.5464 8.91792C11.4705 8.98191 11.3157 9.11552 11.2922 9.13742C11.2768 9.15178 11.201 9.21783 11.1239 9.2842C11.0468 9.35055 10.9805 9.40954 10.9767 9.41526C10.9728 9.42099 10.9318 9.45734 10.8855 9.49605C10.8392 9.53476 10.7944 9.5733 10.7859 9.58171C10.7606 9.60663 10.6298 9.72317 10.4577 9.87395C10.369 9.95169 10.2933 10.0197 10.2894 10.025C10.2856 10.0303 10.2319 10.0798 10.1702 10.135C10.0555 10.2376 10.0359 10.2553 9.88975 10.3882C9.84347 10.4303 9.76515 10.5015 9.71572 10.5464C9.66628 10.5913 9.60567 10.6477 9.58101 10.6716C9.55635 10.6956 9.48957 10.7577 9.43262 10.8096C9.37566 10.8615 9.31263 10.9203 9.29257 10.9403C9.2725 10.9603 9.20696 11.0221 9.14693 11.0776C9.08691 11.1331 9.02071 11.1952 8.99983 11.2155C8.97896 11.2359 8.93036 11.282 8.89185 11.3179C8.75156 11.4488 8.48505 11.7056 8.3684 11.8223C8.27536 11.9154 8.24575 11.9375 8.23484 11.9223C8.22713 11.9115 8.07882 11.6373 7.90526 11.3129L7.58971 10.723L6.47475 10.7219C5.62312 10.7211 5.3333 10.7164 5.2476 10.7018C5.12306 10.6806 4.90474 10.6235 4.88296 10.6065C4.87525 10.6005 4.84369 10.5873 4.81284 10.5771C4.78198 10.567 4.70619 10.5315 4.6444 10.4982C4.39595 10.3644 4.15979 10.1633 3.99941 9.94902C3.9917 9.9387 3.96599 9.9043 3.94227 9.87254C3.90065 9.81682 3.768 9.59696 3.768 9.58371C3.768 9.58014 3.74967 9.53592 3.72728 9.48544C3.70488 9.43496 3.67853 9.36425 3.66872 9.3283C3.65892 9.29236 3.64644 9.25641 3.64101 9.24843C3.63557 9.24044 3.62044 9.17182 3.60739 9.09594C3.59435 9.02006 3.57783 8.93057 3.57066 8.89708C3.55282 8.81368 3.55413 7.94506 3.57225 7.83852C3.60863 7.62475 3.63252 7.50458 3.64135 7.49119C3.64659 7.4832 3.65896 7.44725 3.66882 7.41131C3.73632 7.16512 3.95174 6.80698 4.15282 6.60665C4.46273 6.29792 4.81972 6.10935 5.23357 6.03583C5.35508 6.01425 5.52251 6.00987 6.48718 6.00314L7.60052 5.99535L7.66975 5.85739C7.70783 5.7815 7.75663 5.68965 7.77823 5.65327C7.79983 5.61689 7.82189 5.57279 7.82726 5.55524C7.83263 5.53771 7.84224 5.52336 7.84859 5.52336C7.85494 5.52336 7.87088 5.49561 7.88398 5.46169C7.89709 5.42776 7.91197 5.39673 7.91706 5.3927C7.92884 5.3834 7.95114 5.34256 8.02808 5.18934C8.08247 5.08105 8.11555 5.02027 8.18225 4.90615C8.1957 4.88313 8.24969 4.77417 8.28119 4.70646C8.28628 4.69553 3.27291 4.69048 3.26195 4.70141Z" fill="#0F50A4"/>
<path fill-rule="evenodd" clip-rule="evenodd" d="M12.148 0.00732059C11.9976 0.0244719 11.8861 0.0470834 11.7763 0.0827221C11.5275 0.163512 11.2263 0.334008 11.0751 0.479641C10.8818 0.665821 10.8648 0.684265 10.7524 0.829376C10.6677 0.938877 10.5219 1.21582 10.4858 1.33594C10.4763 1.36789 10.4638 1.40057 10.4581 1.40855C10.4525 1.41654 10.4296 1.49823 10.4074 1.59009C10.3688 1.74899 10.3669 1.77259 10.3669 2.0766C10.3669 2.36179 10.3703 2.41012 10.399 2.5268C10.5012 2.94287 10.6697 3.25832 10.9419 3.54323C10.9968 3.60075 11.1417 3.72851 11.1712 3.74547C11.1839 3.75277 11.1975 3.76272 11.2013 3.76759C11.2052 3.77244 11.2241 3.78677 11.2434 3.79943C11.2756 3.82058 11.2887 3.8202 11.4047 3.79472C11.4741 3.77947 11.6224 3.75459 11.7343 3.73944C11.8461 3.72428 11.9692 3.70508 12.0078 3.69677C12.0463 3.68848 12.1441 3.66845 12.2251 3.65228C12.4496 3.60745 12.7825 3.52226 12.9614 3.46385C13.2043 3.38454 13.6327 3.22817 13.7205 3.18675C13.7534 3.17123 13.7848 3.15854 13.7902 3.15854C13.8165 3.15854 14.1557 2.99126 14.1702 2.97111C14.1942 2.93789 14.2811 2.67776 14.3139 2.54132C14.4052 2.16073 14.3729 1.69385 14.2293 1.31812C14.1861 1.20531 14.0613 0.95308 14.0278 0.911269C14.0166 0.897226 13.9891 0.861442 13.9667 0.831743C13.9442 0.802044 13.9216 0.782235 13.9163 0.787725C13.911 0.793229 13.9102 0.788117 13.9145 0.776383C13.9249 0.748005 13.6291 0.446675 13.545 0.4001C13.5292 0.391343 13.4996 0.368165 13.4792 0.348603C13.4588 0.329027 13.4287 0.308666 13.4122 0.303336C13.3957 0.298006 13.379 0.288813 13.3752 0.282902C13.3597 0.259187 13.1365 0.152184 13.0245 0.114774C12.959 0.0928734 12.8927 0.0695644 12.8773 0.0629856C12.77 0.0172247 12.3455 -0.015175 12.148 0.00732059ZM18.4621 0.653158C18.4279 0.697612 18.308 0.833064 18.1786 0.973412C18.1554 0.998507 18.1169 1.04133 18.0929 1.06858C18.069 1.09581 18.0043 1.16292 17.9492 1.21771C17.8941 1.27249 17.849 1.32313 17.849 1.33026C17.849 1.33738 17.8429 1.3432 17.8355 1.3432C17.8281 1.3432 17.7653 1.40039 17.696 1.47028C17.6268 1.54017 17.5276 1.63656 17.4757 1.68448C17.4238 1.73241 17.3524 1.79844 17.3171 1.83124C17.2166 1.92466 16.9855 2.13091 16.9364 2.17099C16.912 2.19096 16.8754 2.22156 16.8551 2.23897C16.7651 2.31626 16.6301 2.42758 16.5942 2.45419C16.5727 2.47016 16.5278 2.5061 16.4945 2.53406C16.3815 2.62888 16.0297 2.89415 15.9455 2.94796C15.8964 2.97938 15.8734 3.00461 15.8814 3.01814C15.8861 3.02594 15.8831 3.02798 15.8748 3.02268C15.8665 3.01737 15.8021 3.05394 15.7316 3.10393C15.6612 3.15393 15.5865 3.20466 15.5657 3.21666C15.5449 3.22865 15.508 3.25317 15.4837 3.27112C15.4594 3.28907 15.4331 3.30376 15.4253 3.30376C15.4174 3.30376 15.409 3.3089 15.4064 3.31519C15.4038 3.32146 15.3512 3.35713 15.2895 3.39444C15.2278 3.43175 15.171 3.46777 15.1633 3.4745C15.1556 3.48123 15.023 3.55884 14.8688 3.64696C14.4529 3.88454 14.309 3.9577 13.7468 4.21773C13.716 4.23201 13.6371 4.26497 13.5715 4.291C13.5059 4.31702 13.4334 4.3464 13.4102 4.35628C13.3216 4.39411 12.9544 4.52371 12.8001 4.57158C12.5236 4.65742 12.4072 4.68859 12.0358 4.77624C11.9305 4.80112 11.6712 4.84454 11.4139 4.88044C11.3264 4.89266 11.2285 4.90843 11.1965 4.91552C11.0193 4.95461 10.8873 4.98947 10.8735 5.00079C10.8648 5.00787 10.8325 5.02192 10.8016 5.03205C10.7378 5.053 10.6299 5.11247 10.533 5.18024C10.4654 5.22749 10.2757 5.4186 10.2757 5.43948C10.2757 5.44584 10.2667 5.46041 10.2556 5.47185C10.2281 5.50033 10.105 5.74887 10.0742 5.83797C10.0604 5.8779 10.0435 5.92365 10.0367 5.93963C10.0223 5.97295 9.98022 6.13584 9.93154 6.34626C9.91305 6.42613 9.88175 6.56011 9.86199 6.64397C9.80362 6.89161 9.73985 7.16667 9.65154 7.55164C9.63322 7.63152 9.60134 7.76875 9.58071 7.85662C9.56008 7.94448 9.52867 8.07845 9.51088 8.15433C9.4931 8.23021 9.46163 8.36418 9.44096 8.45205C9.4003 8.62473 9.34165 8.88274 9.29568 9.09104C9.27981 9.16293 9.26036 9.24462 9.25244 9.27258C9.24451 9.30053 9.21282 9.4345 9.18201 9.57029C9.15119 9.70608 9.12027 9.83678 9.11329 9.86074C9.08308 9.96442 9.02412 10.2469 9.03116 10.2542C9.03541 10.2586 9.05053 10.2524 9.06476 10.2404C9.079 10.2285 9.16321 10.1579 9.25192 10.0835C9.34062 10.0092 9.42267 9.94042 9.43424 9.93066C9.45396 9.91403 9.55742 9.82977 9.68054 9.73004C9.71013 9.70608 9.77326 9.6538 9.82083 9.61386C9.8684 9.57392 9.93138 9.52164 9.96079 9.49768C9.9902 9.47372 10.0305 9.43973 10.0503 9.42214C10.0702 9.40457 10.1245 9.35883 10.1711 9.32049C10.2177 9.28216 10.2651 9.24265 10.2763 9.2327C10.313 9.2002 10.5291 9.01933 10.5764 8.98145C10.6018 8.96111 10.632 8.93497 10.6436 8.92336C10.6551 8.91175 10.6859 8.88462 10.712 8.86305C10.7875 8.80087 11.1116 8.5231 11.2574 8.39567C11.3307 8.33165 11.397 8.27419 11.4047 8.26799C11.4526 8.2294 11.7952 7.93138 11.8609 7.87114C11.9045 7.8312 11.9553 7.78605 11.9739 7.77082C12.0038 7.74635 12.0559 7.70075 12.148 7.6185C12.1634 7.60472 12.2202 7.55532 12.2742 7.5087C12.3282 7.46208 12.3882 7.40861 12.4075 7.38986C12.4267 7.3711 12.4583 7.34212 12.4776 7.32547C12.5606 7.25375 12.7694 7.06634 12.8451 6.99566C12.8902 6.95344 12.9405 6.90769 12.9569 6.894C12.9732 6.88029 13.0156 6.84219 13.0511 6.80934C13.0867 6.77649 13.1536 6.71509 13.1998 6.6729C13.5135 6.38698 13.6173 6.29071 13.6552 6.25061C13.6747 6.22995 13.7286 6.18009 13.7749 6.13981C13.8211 6.09952 13.8917 6.03473 13.9316 5.99583C13.9715 5.95694 14.043 5.88916 14.0906 5.84523C14.1381 5.8013 14.2075 5.73594 14.2448 5.7C14.2821 5.66406 14.3809 5.56933 14.4644 5.4895C14.548 5.40965 14.6731 5.28786 14.7426 5.21884C14.812 5.14982 14.9154 5.0485 14.9724 4.99368C15.2559 4.7209 15.8015 4.1578 16.3353 3.58695C16.3506 3.57063 16.4203 3.49443 16.5674 3.33327C16.6751 3.2153 16.9527 2.89915 16.9911 2.85076C17.0188 2.81571 17.0641 2.76135 17.2128 2.58451C17.2735 2.51241 17.3862 2.3719 17.4633 2.27227C17.5404 2.17263 17.6069 2.08785 17.611 2.08386C17.6152 2.07986 17.6433 2.04065 17.6735 1.99672C17.7037 1.95279 17.7429 1.90125 17.7607 1.8822C17.7784 1.86313 17.7929 1.84236 17.7929 1.83603C17.7929 1.8297 17.8008 1.81573 17.8104 1.80498C17.8414 1.77043 17.9112 1.67237 17.9685 1.58283C17.9992 1.5349 18.0278 1.49242 18.0321 1.48843C18.0432 1.47799 18.1674 1.27576 18.2437 1.14369C18.3258 1.00172 18.4976 0.660637 18.487 0.660637C18.4827 0.660637 18.4859 0.647567 18.4941 0.631592C18.516 0.589302 18.5063 0.595822 18.4621 0.653158Z" fill="#ED1E26"/>
</svg>
