<svg width="17" height="16" viewBox="0 0 17 16" fill="none" xmlns="http://www.w3.org/2000/svg">
<path fill-rule="evenodd" clip-rule="evenodd" d="M8.83279 9.10106C8.33104 9.10106 7.83079 8.93531 7.41229 8.60381L4.04854 5.89181C3.80629 5.69681 3.76879 5.34206 3.96304 5.10056C4.15879 4.85981 4.51279 4.82156 4.75429 5.01581L8.11504 7.72481C8.53729 8.05931 9.13204 8.05931 9.55729 7.72181L12.8843 5.01731C13.1258 4.82006 13.4798 4.85756 13.6763 5.09906C13.872 5.33981 13.8353 5.69381 13.5945 5.89031L10.2615 8.59931C9.84004 8.93381 9.33604 9.10106 8.83279 9.10106Z" fill="black"/>
<mask id="mask0_23473_75265" style="mask-type:luminance" maskUnits="userSpaceOnUse" x="0" y="0" width="17" height="16">
<path fill-rule="evenodd" clip-rule="evenodd" d="M0.750488 0.503906H16.8754V15.1289H0.750488V0.503906Z" fill="white"/>
</mask>
<g mask="url(#mask0_23473_75265)">
<path fill-rule="evenodd" clip-rule="evenodd" d="M5.12998 14.0078H12.495C12.4965 14.0063 12.5025 14.0078 12.507 14.0078C13.3627 14.0078 14.1217 13.7018 14.7037 13.1206C15.3795 12.4478 15.7507 11.4811 15.7507 10.3988V5.24781C15.7507 3.15306 14.3812 1.63281 12.495 1.63281H5.13148C3.24523 1.63281 1.87573 3.15306 1.87573 5.24781V10.3988C1.87573 11.4811 2.24773 12.4478 2.92273 13.1206C3.50473 13.7018 4.26448 14.0078 5.11948 14.0078H5.12998ZM5.11723 15.1328C3.95998 15.1328 2.92648 14.7128 2.12848 13.9178C1.23973 13.0313 0.750732 11.7818 0.750732 10.3988V5.24781C0.750732 2.54556 2.63398 0.507812 5.13148 0.507812H12.495C14.9925 0.507812 16.8757 2.54556 16.8757 5.24781V10.3988C16.8757 11.7818 16.3867 13.0313 15.498 13.9178C14.7007 14.7121 13.6665 15.1328 12.507 15.1328H12.495H5.13148H5.11723Z" fill="black"/>
</g>
</svg>
