<svg width="34" height="34" viewBox="0 0 34 34" fill="none" xmlns="http://www.w3.org/2000/svg">
<circle opacity="0.4" cx="17" cy="17" r="17" fill="#4A4A4A"/>
<path d="M17.5 12.8125C18.3629 12.8125 19.0625 12.1129 19.0625 11.25C19.0625 10.3871 18.3629 9.6875 17.5 9.6875C16.6371 9.6875 15.9375 10.3871 15.9375 11.25C15.9375 12.1129 16.6371 12.8125 17.5 12.8125Z" fill="white"/>
<path d="M17.5 19.0625C18.3629 19.0625 19.0625 18.3629 19.0625 17.5C19.0625 16.6371 18.3629 15.9375 17.5 15.9375C16.6371 15.9375 15.9375 16.6371 15.9375 17.5C15.9375 18.3629 16.6371 19.0625 17.5 19.0625Z" fill="white"/>
<path d="M17.5 24.7917C18.3629 24.7917 19.0625 24.0921 19.0625 23.2292C19.0625 22.3662 18.3629 21.6667 17.5 21.6667C16.6371 21.6667 15.9375 22.3662 15.9375 23.2292C15.9375 24.0921 16.6371 24.7917 17.5 24.7917Z" fill="white"/>
</svg>
