<svg width="21" height="13" viewBox="0 0 21 13" fill="none" xmlns="http://www.w3.org/2000/svg">
<path d="M4.29409 9.09469L4.00409 9.39469V1.80469C4.00409 1.53947 3.89873 1.28512 3.7112 1.09758C3.52366 0.910045 3.26931 0.804688 3.00409 0.804688C2.73888 0.804688 2.48452 0.910045 2.29699 1.09758C2.10945 1.28512 2.00409 1.53947 2.00409 1.80469V9.39469L1.71409 9.09469C1.52579 8.90638 1.27039 8.8006 1.00409 8.8006C0.73779 8.8006 0.482395 8.90638 0.294092 9.09469C0.105788 9.28299 0 9.53839 0 9.80469C0 10.071 0.105788 10.3264 0.294092 10.5147L2.29409 12.5147C2.3892 12.6057 2.50134 12.6771 2.62409 12.7247C2.74379 12.7776 2.87322 12.8049 3.00409 12.8049C3.13496 12.8049 3.26439 12.7776 3.38409 12.7247C3.50684 12.6771 3.61899 12.6057 3.71409 12.5147L5.71409 10.5147C5.80733 10.4214 5.88129 10.3108 5.93175 10.1889C5.98221 10.0671 6.00818 9.93655 6.00818 9.80469C6.00818 9.67283 5.98221 9.54226 5.93175 9.42044C5.88129 9.29862 5.80733 9.18793 5.71409 9.09469C5.62085 9.00145 5.51016 8.92749 5.38834 8.87703C5.26652 8.82657 5.13595 8.8006 5.00409 8.8006C4.87223 8.8006 4.74166 8.82657 4.61984 8.87703C4.49802 8.92749 4.38733 9.00145 4.29409 9.09469ZM9.00409 2.80469H19.0041C19.2693 2.80469 19.5237 2.69933 19.7112 2.51179C19.8987 2.32426 20.0041 2.0699 20.0041 1.80469C20.0041 1.53947 19.8987 1.28512 19.7112 1.09758C19.5237 0.910045 19.2693 0.804688 19.0041 0.804688H9.00409C8.73887 0.804688 8.48452 0.910045 8.29698 1.09758C8.10945 1.28512 8.00409 1.53947 8.00409 1.80469C8.00409 2.0699 8.10945 2.32426 8.29698 2.51179C8.48452 2.69933 8.73887 2.80469 9.00409 2.80469ZM19.0041 5.80469H9.00409C8.73887 5.80469 8.48452 5.91004 8.29698 6.09758C8.10945 6.28512 8.00409 6.53947 8.00409 6.80469C8.00409 7.0699 8.10945 7.32426 8.29698 7.51179C8.48452 7.69933 8.73887 7.80469 9.00409 7.80469H19.0041C19.2693 7.80469 19.5237 7.69933 19.7112 7.51179C19.8987 7.32426 20.0041 7.0699 20.0041 6.80469C20.0041 6.53947 19.8987 6.28512 19.7112 6.09758C19.5237 5.91004 19.2693 5.80469 19.0041 5.80469ZM19.0041 10.8047H9.00409C8.73887 10.8047 8.48452 10.91 8.29698 11.0976C8.10945 11.2851 8.00409 11.5395 8.00409 11.8047C8.00409 12.0699 8.10945 12.3243 8.29698 12.5118C8.48452 12.6993 8.73887 12.8047 9.00409 12.8047H19.0041C19.2693 12.8047 19.5237 12.6993 19.7112 12.5118C19.8987 12.3243 20.0041 12.0699 20.0041 11.8047C20.0041 11.5395 19.8987 11.2851 19.7112 11.0976C19.5237 10.91 19.2693 10.8047 19.0041 10.8047Z" fill="#BCC1CD"/>
</svg>
