<svg width="18" height="4" viewBox="0 0 18 4" fill="none" xmlns="http://www.w3.org/2000/svg">
<path d="M14.2759 2C14.2759 3.10457 15.1095 4 16.1379 4C17.1663 4 18 3.10457 18 2C18 0.895431 17.1663 -3.24751e-08 16.1379 -7.25353e-08C15.1095 -1.12595e-07 14.2759 0.895431 14.2759 2Z" fill="#0F50A4"/>
<path d="M6.82759 2C6.82759 3.10457 7.66126 4 8.68966 4C9.71805 4 10.5517 3.10457 10.5517 2C10.5517 0.89543 9.71805 -3.22616e-07 8.68966 -3.62676e-07C7.66126 -4.02736e-07 6.82759 0.89543 6.82759 2Z" fill="#0F50A4"/>
<path d="M-9.80993e-08 2C-1.52278e-07 3.10457 0.833675 4 1.86207 4C2.89046 4 3.72414 3.10457 3.72414 2C3.72414 0.89543 2.89046 -5.88579e-07 1.86207 -6.28639e-07C0.833675 -6.68699e-07 -4.39205e-08 0.89543 -9.80993e-08 2Z" fill="#0F50A4"/>
<path d="M16.1379 3.75C15.2641 3.75 14.5259 2.98362 14.5259 2C14.5259 1.01638 15.2641 0.25 16.1379 0.25C17.0117 0.25 17.75 1.01638 17.75 2C17.75 2.98362 17.0117 3.75 16.1379 3.75ZM8.68966 3.75C7.81586 3.75 7.07759 2.98362 7.07759 2C7.07759 1.01638 7.81586 0.25 8.68966 0.25C9.56345 0.25 10.3017 1.01638 10.3017 2C10.3017 2.98362 9.56345 3.75 8.68966 3.75ZM1.86207 3.75C0.988272 3.75 0.25 2.98362 0.25 2C0.25 1.01638 0.988272 0.249999 1.86207 0.249999C2.73586 0.249999 3.47414 1.01638 3.47414 2C3.47414 2.98362 2.73586 3.75 1.86207 3.75Z" stroke="#464646" stroke-opacity="0.2" stroke-width="0.5"/>
</svg>
