<svg width="4" height="18" viewBox="0 0 4 18" fill="none" xmlns="http://www.w3.org/2000/svg">
<path d="M2 3.72414C3.10457 3.72414 4 2.89046 4 1.86207C4 0.833677 3.10457 0 2 0C0.895431 0 8.41638e-09 0.833677 1.87985e-08 1.86207C2.91807e-08 2.89046 0.895431 3.72414 2 3.72414Z" fill="white"/>
<path d="M2 11.1724C3.10457 11.1724 4 10.3387 4 9.31034C4 8.28195 3.10457 7.44828 2 7.44828C0.895431 7.44828 8.36105e-08 8.28195 9.39926e-08 9.31034C1.04375e-07 10.3387 0.895431 11.1724 2 11.1724Z" fill="white"/>
<path d="M2 18C3.10457 18 4 17.1663 4 16.1379C4 15.1095 3.10457 14.2759 2 14.2759C0.895431 14.2759 1.52538e-07 15.1095 1.62921e-07 16.1379C1.73303e-07 17.1663 0.895431 18 2 18Z" fill="white"/>
</svg>
