<svg width="23" height="20" viewBox="0 0 23 20" fill="none" xmlns="http://www.w3.org/2000/svg">
<path d="M0.986877 2.55387C0.986877 1.16085 2.09613 0 3.49775 0H19.5089C20.9105 0 22.0197 1.16085 22.0197 2.55387V7.58421C22.0197 7.98836 21.693 8.31511 21.2888 8.31511C20.8847 8.31511 20.5579 7.98836 20.5579 7.58421V2.55387C20.5579 1.94335 20.0764 1.47041 19.5089 1.47041H3.49775C2.93882 1.47041 2.44869 1.94335 2.44869 2.55387V11.6343C2.44869 12.2448 2.93022 12.7177 3.49775 12.7177H10.523C10.9272 12.7177 11.2539 13.0445 11.2539 13.4486C11.2539 13.8528 10.9272 14.1795 10.523 14.1795H3.49775C2.09613 14.1795 0.986877 13.0187 0.986877 11.6257V2.55387Z" fill="#0F50A4"/>
<path d="M0.986877 3.67231C0.986877 3.26816 1.31363 2.94141 1.71778 2.94141H21.2888C21.693 2.94141 22.0197 3.26816 22.0197 3.67231C22.0197 4.07646 21.693 4.40322 21.2888 4.40322H1.71778C1.31363 4.40322 0.986877 4.07646 0.986877 3.67231Z" fill="#0F50A4"/>
<path d="M2.9474 8.56391C2.9474 8.15977 3.27416 7.83301 3.67831 7.83301H5.63025C6.0344 7.83301 6.36116 8.15977 6.36116 8.56391C6.36116 8.96806 6.0344 9.29482 5.63025 9.29482H3.66971C3.27416 9.29482 2.9474 8.96806 2.9474 8.56391Z" fill="#0F50A4"/>
<path d="M2.9474 11.0063C2.9474 10.6021 3.27416 10.2754 3.67831 10.2754H7.5908C7.99494 10.2754 8.3217 10.6021 8.3217 11.0063C8.3217 11.4104 7.99494 11.7372 7.5908 11.7372H3.67831C3.27416 11.7372 2.9474 11.4104 2.9474 11.0063Z" fill="#0F50A4"/>
<path d="M12.2527 13.9381C12.2527 11.1101 14.5483 8.81445 17.3763 8.81445C20.2044 8.81445 22.5 11.1101 22.5 13.9381C22.5 16.7662 20.2044 19.0618 17.3763 19.0618C14.5483 19.0618 12.2527 16.7662 12.2527 13.9381Z" stroke="#ED1E26"/>
<path d="M17.2432 13.3667C16.7319 13.3667 16.323 13.0042 16.323 12.5673C16.323 12.1304 16.7412 11.7679 17.2432 11.7679C17.7451 11.7679 18.1634 12.1304 18.1634 12.5673C18.1634 12.7997 18.3493 12.9856 18.5817 12.9856C18.8141 12.9856 19 12.7997 19 12.5673C19 11.7958 18.4237 11.1544 17.6615 10.9778V10.764C17.6615 10.5316 17.4756 10.3457 17.2432 10.3457C17.0108 10.3457 16.8249 10.5316 16.8249 10.764V10.9778C16.0534 11.1544 15.4864 11.7958 15.4864 12.5673C15.4864 13.4689 16.2765 14.2032 17.2432 14.2032C17.7544 14.2032 18.1634 14.5658 18.1634 15.0026C18.1634 15.4395 17.7451 15.802 17.2432 15.802C16.7412 15.802 16.323 15.4395 16.323 15.0026C16.323 14.7703 16.137 14.5844 15.9047 14.5844C15.6723 14.5844 15.4864 14.7703 15.4864 15.0026C15.4864 15.7742 16.0627 16.4155 16.8249 16.5921V16.7688C16.8249 17.0011 17.0108 17.187 17.2432 17.187C17.4756 17.187 17.6615 17.0011 17.6615 16.7688V16.5921C18.433 16.4155 19 15.7742 19 15.0026C19 14.101 18.2099 13.3667 17.2432 13.3667Z" fill="#0F50A4"/>
</svg>
