<svg width="47" height="46" viewBox="0 0 47 46" fill="none" xmlns="http://www.w3.org/2000/svg">
<circle opacity="0.3" cx="23.5" cy="23" r="23" fill="#0F50A4"/>
<path d="M24 13C18.2101 13 13.5 17.7101 13.5 23.5C13.5 29.2899 18.2101 34 24 34C29.7899 34 34.5 29.2899 34.5 23.5C34.5 17.7101 29.7899 13 24 13ZM24 32.6875C18.9338 32.6875 14.8125 28.5662 14.8125 23.5C14.8125 18.4338 18.9338 14.3125 24 14.3125C29.0662 14.3125 33.1875 18.4338 33.1875 23.5C33.1875 28.5662 29.0662 32.6875 24 32.6875Z" fill="#0F50A4" stroke="#0F50A4" stroke-width="0.2"/>
<path d="M20.6721 19.5C20.4999 19.5 20.3277 19.5653 20.1969 19.6971C19.9344 19.9597 19.9344 20.3854 20.1969 20.648L26.852 27.3031C27.1147 27.5656 27.5405 27.5656 27.8031 27.3031C28.0656 27.0405 28.0656 26.6148 27.8031 26.352L21.1479 19.6971C21.0152 19.5653 20.8432 19.5 20.6721 19.5V19.5Z" fill="#0F50A4" stroke="#0F50A4" stroke-width="0.2"/>
<path d="M27.327 19.5C27.155 19.5 26.9828 19.5653 26.852 19.6971L20.1971 26.3519C19.9343 26.6145 19.9343 27.0403 20.1971 27.3029C20.4597 27.5657 20.8854 27.5657 21.148 27.3029L27.8029 20.6473C28.0657 20.3847 28.0657 19.9589 27.8029 19.6963C27.6713 19.5653 27.4992 19.5 27.327 19.5V19.5Z" fill="#0F50A4" stroke="#0F50A4" stroke-width="0.2"/>
</svg>
