<svg width="14" height="14" viewBox="0 0 14 14" fill="none" xmlns="http://www.w3.org/2000/svg">
<path d="M11.5962 2.2085C10.3685 0.980789 8.73621 0.304688 7 0.304688C5.26379 0.304688 3.63148 0.980789 2.40381 2.20848C1.1761 3.43616 0.5 5.06848 0.5 6.80469C0.5 8.5409 1.1761 10.1732 2.40381 11.4009C3.63148 12.6286 5.26379 13.3047 7 13.3047C8.73624 13.3047 10.3685 12.6286 11.5962 11.4008C12.8239 10.1732 13.5 8.54087 13.5 6.80466C13.5 5.06845 12.8239 3.43616 11.5962 2.2085ZM2.94298 2.74767C3.51455 2.1761 4.18555 1.74015 4.9169 1.45559C4.72211 1.69879 4.53983 1.97831 4.37278 2.2927C4.17877 2.65781 4.01137 3.05881 3.87195 3.48712C3.38897 3.40696 2.94146 3.3084 2.54166 3.19272C2.66696 3.0387 2.80064 2.89001 2.94298 2.74767ZM2.08003 3.84884C2.54765 3.99857 3.08243 4.12483 3.66596 4.22485C3.50346 4.91461 3.40781 5.65685 3.38498 6.42345H1.27533C1.33525 5.50347 1.61155 4.62546 2.08003 3.84884ZM2.03852 9.69003C1.59533 8.93087 1.33345 8.07821 1.2753 7.18593H3.38643C3.41137 7.93061 3.50511 8.65175 3.66212 9.32346C3.06661 9.42 2.5184 9.54307 2.03852 9.69003ZM2.94298 10.8617C2.78099 10.6997 2.63012 10.5296 2.49024 10.3525C2.9047 10.2376 3.36802 10.1403 3.86677 10.0622C4.00718 10.4965 4.17638 10.9028 4.37276 11.2724C4.55481 11.615 4.75496 11.916 4.96969 12.1739C4.21787 11.8899 3.52829 11.447 2.94298 10.8617ZM6.61873 12.4443C6.03962 12.2821 5.4918 11.7533 5.04614 10.9146C4.89027 10.6213 4.75336 10.3013 4.63608 9.96021C5.26399 9.8911 5.93215 9.85024 6.61873 9.84064V12.4443ZM6.61873 9.07809C5.85732 9.08847 5.11518 9.13628 4.42016 9.21791C4.26685 8.58414 4.17461 7.89816 4.14929 7.18595H6.61876V9.07809H6.61873ZM6.61873 6.42342H4.14785C4.17098 5.69131 4.26469 4.98619 4.42278 4.33629C5.11335 4.42262 5.85394 4.47512 6.61873 4.49015V6.42342ZM6.61873 3.72755C5.92948 3.71366 5.2628 3.66872 4.63933 3.59539C4.7559 3.2579 4.89174 2.94112 5.04614 2.65048C5.49177 1.81177 6.03962 1.28294 6.61873 1.12072V3.72755ZM11.944 3.88934C12.3978 4.65595 12.6658 5.51939 12.7247 6.42342H10.6151C10.5925 5.66566 10.4987 4.93175 10.3396 4.24879C10.9269 4.15393 11.4683 4.03325 11.944 3.88934ZM11.057 2.74767C11.2101 2.90075 11.3531 3.06122 11.4864 3.22781C11.0783 3.33925 10.6239 3.43383 10.1356 3.50995C9.9947 3.07303 9.82471 2.66431 9.62724 2.2927C9.4602 1.97831 9.27792 1.69879 9.08312 1.45559C9.81442 1.74015 10.4854 2.1761 11.057 2.74767ZM7.38127 7.18595H9.85073C9.82524 7.9037 9.73175 8.59488 9.57626 9.23274C8.88579 9.1469 8.14552 9.09487 7.38127 9.08025V7.18595ZM7.38127 6.42342V4.49269C8.14311 4.48269 8.88584 4.43529 9.58152 4.35396C9.73703 4.99896 9.82923 5.69794 9.85215 6.42342H7.38127ZM7.38122 1.12072H7.38124C7.96035 1.28294 8.50818 1.81177 8.95383 2.65048C9.1107 2.94569 9.24839 3.26793 9.36618 3.61146C8.73743 3.68032 8.06851 3.72087 7.38122 3.73014V1.12072ZM7.38127 12.4443V9.84285C8.06986 9.85636 8.73603 9.9009 9.35927 9.97377C9.24301 10.3097 9.10763 10.6251 8.95386 10.9146C8.5082 11.7533 7.96037 12.2821 7.38127 12.4443ZM11.057 10.8617C10.4717 11.447 9.78213 11.8899 9.03028 12.1738C9.24501 11.916 9.44517 11.615 9.62722 11.2724C9.82069 10.9082 9.98771 10.5084 10.1269 10.0814C10.6211 10.163 11.0784 10.2639 11.4857 10.3825C11.3526 10.5487 11.2098 10.7089 11.057 10.8617ZM11.9412 9.72484C11.468 9.57272 10.9255 9.44473 10.3333 9.34372C10.4931 8.6663 10.5884 7.9381 10.6136 7.18595H12.7247C12.6656 8.09184 12.3968 8.95703 11.9412 9.72484Z" fill="#88889D" stroke="#88889D" stroke-width="0.2"/>
</svg>
