<svg width="16" height="16" viewBox="0 0 16 16" fill="none" xmlns="http://www.w3.org/2000/svg">
<path fill-rule="evenodd" clip-rule="evenodd" d="M11.7582 9.9515C12.0687 9.9515 12.3207 9.6995 12.3207 9.389V8C12.3207 7.6895 12.0687 7.4375 11.7582 7.4375H7.48925C7.24625 6.63725 6.50975 6.04925 5.63075 6.04925C4.55525 6.04925 3.68 6.9245 3.68 8C3.68 9.07625 4.55525 9.9515 5.63075 9.9515C6.50975 9.9515 7.24625 9.3635 7.48925 8.5625H9.07325V9.389C9.07325 9.6995 9.32525 9.9515 9.63575 9.9515C9.94625 9.9515 10.1982 9.6995 10.1982 9.389V8.5625H11.1957V9.389C11.1957 9.6995 11.4478 9.9515 11.7582 9.9515ZM4.7495 0.5H11.2513C13.7922 0.5 15.5 2.2835 15.5 4.93775V11.063C15.5 13.7172 13.7922 15.5 11.2505 15.5H4.7495C2.20775 15.5 0.5 13.7172 0.5 11.063V4.93775C0.5 2.2835 2.20775 0.5 4.7495 0.5ZM4.80433 8.00068C4.80433 7.54468 5.17558 7.17418 5.63083 7.17418C6.08608 7.17418 6.45732 7.54468 6.45732 8.00068C6.45732 8.45593 6.08608 8.82643 5.63083 8.82643C5.17558 8.82643 4.80433 8.45593 4.80433 8.00068Z" fill="#0F50A4"/>
</svg>
