<svg width="105" height="105" viewBox="0 0 105 105" fill="none" xmlns="http://www.w3.org/2000/svg">
<circle cx="52.5" cy="52.5" r="46.2813" stroke="#F54E5E" stroke-width="12.4374"/>
<mask id="path-2-inside-1_32078_22429" fill="white">
<path d="M104.998 52.0374C105.059 58.9315 103.761 65.7701 101.179 72.1627C98.5967 78.5553 94.7807 84.3767 89.9488 89.2946C85.1168 94.2124 79.3636 98.1304 73.0175 100.825C66.6714 103.519 59.8567 104.937 52.9626 104.998L52.8532 92.5856C58.1173 92.5392 63.3208 91.4565 68.1664 89.3991C73.0121 87.3418 77.4051 84.3502 81.0946 80.5951C84.7841 76.84 87.6978 72.3949 89.6695 67.5138C91.6411 62.6326 92.632 57.4109 92.5856 52.1468L104.998 52.0374Z"/>
</mask>
<path d="M104.998 52.0374C105.059 58.9315 103.761 65.7701 101.179 72.1627C98.5967 78.5553 94.7807 84.3767 89.9488 89.2946C85.1168 94.2124 79.3636 98.1304 73.0175 100.825C66.6714 103.519 59.8567 104.937 52.9626 104.998L52.8532 92.5856C58.1173 92.5392 63.3208 91.4565 68.1664 89.3991C73.0121 87.3418 77.4051 84.3502 81.0946 80.5951C84.7841 76.84 87.6978 72.3949 89.6695 67.5138C91.6411 62.6326 92.632 57.4109 92.5856 52.1468L104.998 52.0374Z" stroke="#0685CF" stroke-width="24.8747" mask="url(#path-2-inside-1_32078_22429)"/>
<mask id="path-3-inside-2_32078_22429" fill="white">
<path d="M52.5 0C66.3466 1.65119e-07 79.6325 5.47018 89.465 15.2195C99.2976 24.9688 104.88 38.2078 104.998 52.0539L92.5857 52.1594C92.4959 41.587 88.233 31.4782 80.7252 24.0339C73.2175 16.5897 63.0728 12.4128 52.5 12.4128V0Z"/>
</mask>
<path d="M52.5 0C66.3466 1.65119e-07 79.6325 5.47018 89.465 15.2195C99.2976 24.9688 104.88 38.2078 104.998 52.0539L92.5857 52.1594C92.4959 41.587 88.233 31.4782 80.7252 24.0339C73.2175 16.5897 63.0728 12.4128 52.5 12.4128V0Z" stroke="#0F50A4" stroke-width="24.8747" mask="url(#path-3-inside-2_32078_22429)"/>
<path d="M44.9827 65.3026H40.1014C39.3712 65.3026 38.78 64.7181 38.78 63.9962V56.74C38.78 56.0181 39.3712 55.4336 40.1014 55.4336H44.9802C45.7104 55.4336 46.3016 56.0181 46.3016 56.74V63.9962C46.3016 64.7181 45.7104 65.3026 44.9827 65.3026Z" fill="#0F50A4"/>
<path d="M54.6051 65.3044H49.7263C48.9961 65.3044 48.4049 64.7199 48.4049 63.998V51.6537C48.4049 50.9318 48.9961 50.3473 49.7263 50.3473H54.6051C55.3352 50.3473 55.9264 50.9318 55.9264 51.6537V63.998C55.9264 64.7199 55.3352 65.3044 54.6051 65.3044ZM64.2287 65.3044H59.3499C58.6197 65.3044 58.0285 64.7199 58.0285 63.998V44.4724C58.0285 43.7505 58.6197 43.166 59.3499 43.166H64.2287C64.9589 43.166 65.5501 43.7505 65.5501 44.4724V63.998C65.5501 64.7199 64.9589 65.3044 64.2287 65.3044Z" fill="#0F50A4"/>
<path d="M47.3427 37.5527H55.5918C55.8015 37.5527 55.9734 37.7226 55.9734 37.9299V46.3726C55.9734 46.7123 55.5565 46.8772 55.319 46.6349L53.0981 44.3618C53.0375 44.2991 52.9566 44.2592 52.8694 44.2492C52.7822 44.2392 52.6942 44.2596 52.6206 44.3069L41.1577 51.5231C40.8014 51.748 40.3946 51.3158 40.6473 50.9811L48.7702 40.188C48.8864 40.0331 48.8662 39.8158 48.7222 39.6859L47.085 38.2097C46.8298 37.9774 46.994 37.5527 47.3427 37.5527Z" fill="#0685CF"/>
<path d="M54.6051 50.3473H49.7263C48.9961 50.3473 48.4049 50.9318 48.4049 51.6537V63.998C48.4049 64.7199 48.9961 65.3044 49.7263 65.3044H51.5075C53.0549 64.8017 54.5378 64.1227 55.9264 63.2811V51.6537C55.9264 50.9318 55.3352 50.3473 54.6051 50.3473ZM65.5501 49.5955V44.4724C65.5501 43.7505 64.9589 43.166 64.2287 43.166H59.3499C58.6197 43.166 58.0285 43.7505 58.0285 44.4724V61.8149C61.8436 58.805 64.5748 54.5137 65.5501 49.5955Z" fill="#0F50A4"/>
<path d="M59.5912 43.166H59.3461C58.616 43.166 58.0248 43.7505 58.0248 44.4724V47.4048C58.7034 46.0533 59.2287 44.6317 59.5912 43.166ZM55.7382 50.9917C55.5083 50.6071 55.0889 50.3473 54.6038 50.3473H49.725C48.9949 50.3473 48.4037 50.9318 48.4037 51.6537V56.8717C51.2789 55.4829 53.7827 53.4596 55.7382 50.9917ZM44.9827 55.4354H40.1014C39.3712 55.4354 38.78 56.0199 38.78 56.7418V58.9598C38.919 58.9623 39.0579 58.9698 39.1969 58.9698C41.6906 58.9698 44.0833 58.5377 46.3016 57.7484V56.7418C46.3016 56.0199 45.7104 55.4354 44.9827 55.4354Z" fill="#0F50A4"/>
<path d="M41.1031 50.3716C47.0557 48.2285 51.745 43.4951 53.794 37.5527H47.3412C46.9925 37.5527 46.8283 37.9749 47.0835 38.2072L48.7207 39.6834C48.8647 39.8133 48.8874 40.0306 48.7687 40.1855L41.1031 50.3716Z" fill="#0685CF"/>
</svg>
