<svg width="17" height="17" viewBox="0 0 17 17" fill="none" xmlns="http://www.w3.org/2000/svg">
<path d="M8.5 0C3.81281 0 0 3.81281 0 8.5C0 13.1872 3.81281 17 8.5 17C13.1872 17 17 13.1865 17 8.5C17 3.81348 13.1872 0 8.5 0ZM8.5 15.6832C4.5397 15.6832 1.3168 12.461 1.3168 8.5C1.3168 4.53903 4.5397 1.3168 8.5 1.3168C12.4603 1.3168 15.6832 4.53903 15.6832 8.5C15.6832 12.461 12.461 15.6832 8.5 15.6832Z" fill="#0F50A4"/>
<path d="M11.7934 7.78421H9.15976V5.15061C9.15976 4.78716 8.86545 4.49219 8.50134 4.49219C8.13724 4.49219 7.84293 4.78716 7.84293 5.15061V7.78421H5.20932C4.84522 7.78421 4.5509 8.07919 4.5509 8.44263C4.5509 8.80607 4.84522 9.10105 5.20932 9.10105H7.84293V11.7347C7.84293 12.0981 8.13724 12.3931 8.50134 12.3931C8.86545 12.3931 9.15976 12.0981 9.15976 11.7347V9.10105H11.7934C12.1575 9.10105 12.4518 8.80607 12.4518 8.44263C12.4518 8.07919 12.1575 7.78421 11.7934 7.78421Z" fill="#0F50A4"/>
</svg>
