<svg width="18" height="18" viewBox="0 0 18 18" fill="none" xmlns="http://www.w3.org/2000/svg">
<path d="M9.56043 2.90416C10.0039 3.34857 10.4087 3.75711 10.8182 4.16193C10.8918 4.24189 10.9879 4.29768 11.0938 4.32196C11.1998 4.34624 11.3106 4.33787 11.4117 4.29795C11.6302 4.22109 11.7494 4.05944 11.7736 3.83211C11.7839 3.75093 11.7751 3.66849 11.748 3.59128C11.721 3.51407 11.6763 3.44422 11.6176 3.38723C10.8783 2.64655 10.1409 1.904 9.39645 1.16891C9.15934 0.935986 8.84024 0.941576 8.60127 1.17822C7.86679 1.90742 7.13527 2.6391 6.4067 3.37326C6.17378 3.60618 6.17378 3.9495 6.38946 4.17078C6.60514 4.39205 6.96011 4.39158 7.20002 4.15354C7.60437 3.75245 8.00266 3.34531 8.4303 2.91394V5.47187H8.23791C6.52331 5.47187 4.80871 5.47187 3.09411 5.47187C2.04457 5.47187 1.23075 6.14873 1.03789 7.17218C1.01502 7.32134 1.00567 7.47227 1.00994 7.62311C1.00808 9.20479 1.00808 10.786 1.00994 12.3668C1.00994 13.2095 1.00994 14.0522 1.00994 14.8949C1.0132 16.1219 1.89504 16.9995 3.12346 17C7.04676 17 10.9699 17 14.8929 17C15.9643 17 16.7847 16.3241 16.9743 15.2876C16.9941 15.1613 17.0025 15.0334 16.9994 14.9056C16.9994 12.4584 16.9994 10.0113 16.9994 7.56442C16.9994 6.50417 16.3198 5.68848 15.2907 5.49702C15.2049 5.48174 15.1179 5.4741 15.0308 5.47419C13.7693 5.47233 12.5081 5.4714 11.2472 5.4714C11.1418 5.46728 11.0375 5.49434 10.9473 5.54919C10.8572 5.60404 10.7852 5.68425 10.7404 5.77979C10.6927 5.86691 10.671 5.96587 10.6779 6.06495C10.6847 6.16403 10.7199 6.25906 10.7791 6.33879C10.909 6.53212 11.1024 6.58662 11.3241 6.58615C12.376 6.58429 13.428 6.58429 14.4802 6.58615C14.6544 6.58615 14.8291 6.58196 15.0028 6.58988C15.4817 6.61084 15.8749 6.98398 15.8777 7.46007C15.8879 9.0006 15.8828 10.5411 15.8828 12.0817C15.8801 12.1072 15.8751 12.1325 15.8679 12.1571H2.13215C2.12889 12.0905 2.1233 12.0286 2.1233 11.9671C2.1233 10.5136 2.1233 9.06038 2.1233 7.60728C2.1233 6.95836 2.49178 6.58662 3.13603 6.58615C4.84411 6.58615 6.55219 6.58615 8.26027 6.58615H8.44288V6.77901C8.44288 7.5169 8.44055 8.25526 8.44288 8.99361C8.44015 9.13186 8.489 9.26616 8.57992 9.37033C8.67084 9.47451 8.79729 9.54109 8.93463 9.55708C9.07197 9.57308 9.21035 9.53735 9.32277 9.45686C9.4352 9.37637 9.51361 9.25689 9.54273 9.12172C9.55621 9.04157 9.56105 8.9602 9.55717 8.87902C9.55717 6.96659 9.55717 5.05416 9.55717 3.14174L9.56043 2.90416ZM2.13448 13.2924H15.8735C15.8767 13.3357 15.8814 13.3692 15.8814 13.4028C15.8814 13.9203 15.8814 14.4374 15.8814 14.9545C15.8811 15.0358 15.8705 15.1167 15.8497 15.1953C15.73 15.6365 15.3783 15.8806 14.8631 15.8806H3.14628C3.08805 15.8806 3.02982 15.8806 2.97206 15.8764C2.55979 15.8494 2.16336 15.521 2.1424 15.1138C2.11119 14.5147 2.13448 13.9106 2.13448 13.2947V13.2924Z" fill="#0A0B09" stroke="#0A0B09" stroke-width="0.1"/>
</svg>
