<svg width="60" height="60" viewBox="0 0 60 60" fill="none" xmlns="http://www.w3.org/2000/svg">
<rect width="60" height="60" rx="16" fill="#0F50A4" fill-opacity="0.2"/>
<path fill-rule="evenodd" clip-rule="evenodd" d="M38.7698 16.6149C38.7698 14.6199 40.3897 13 42.3846 13C44.3796 13 45.9995 14.6199 45.9995 16.6149C45.9995 18.6098 44.3796 20.2297 42.3846 20.2297C40.3897 20.2297 38.7698 18.6098 38.7698 16.6149ZM32.9949 32.139L37.3298 26.5457L37.2698 26.5757C37.5097 26.2457 37.5547 25.8257 37.3897 25.4507C37.2263 25.0758 36.8648 24.8208 36.4763 24.7908C36.0698 24.7458 35.6663 24.9258 35.4248 25.2558L31.7965 29.9506L27.6401 26.6807C27.3851 26.4857 27.0851 26.4092 26.7852 26.4407C26.4867 26.4857 26.2167 26.6492 26.0352 26.8892L21.5969 32.6655L21.5054 32.8005C21.2504 33.2789 21.3704 33.8939 21.8203 34.2254C22.0303 34.3604 22.2553 34.4504 22.5103 34.4504C22.8568 34.4654 23.1853 34.2839 23.3953 34.0004L27.1601 29.1541L31.435 32.3655L31.57 32.454C32.05 32.709 32.6499 32.5905 32.9949 32.139ZM36.1742 15.6705C36.1142 16.0454 36.0842 16.4204 36.0842 16.7954C36.0842 20.1703 38.8141 22.8987 42.174 22.8987C42.549 22.8987 42.909 22.8552 43.284 22.7952V34.8982C43.284 39.9845 40.2841 42.9994 35.1843 42.9994H24.1012C18.9999 42.9994 16 39.9845 16 34.8982V23.8002C16 18.7003 18.9999 15.6705 24.1012 15.6705H36.1742Z" fill="#0F50A4"/>
</svg>
