<svg width="24" height="25" viewBox="0 0 24 25" fill="none" xmlns="http://www.w3.org/2000/svg">
<path d="M19.1429 2.92188H17.1021C16.6939 2.92188 16.2858 3.22602 16.2858 3.73292C16.2858 4.23983 16.5919 4.54397 17.1021 4.54397H19.1429C19.8572 4.54397 20.3674 5.15226 20.3674 5.76054V7.78817C20.3674 8.19369 20.6735 8.59921 21.1837 8.59921C21.6939 8.59921 22 8.29507 22 7.78817V5.76054C22 4.23983 20.6735 2.92188 19.1429 2.92188Z" fill="#848F92"/>
<path d="M21.1837 17.1152C20.7756 17.1152 20.3674 17.4194 20.3674 17.9263V19.9539C20.3674 20.6636 19.7551 21.1705 19.1429 21.1705H17.1021C16.6939 21.1705 16.2858 21.4746 16.2858 21.9815C16.2858 22.4884 16.5919 22.7926 17.1021 22.7926H19.1429C20.6735 22.7926 22 21.576 22 19.9539V17.9263C22 17.5207 21.5919 17.1152 21.1837 17.1152Z" fill="#848F92"/>
<path d="M2.81637 8.59921C3.22454 8.59921 3.6327 8.29507 3.6327 7.78817V5.76054C3.6327 5.05088 4.24494 4.54397 4.85719 4.54397H6.89801C7.30617 4.54397 7.71433 4.23983 7.71433 3.73292C7.71433 3.22602 7.30617 2.92188 6.89801 2.92188H4.85719C3.32658 2.92188 2.00005 4.23983 2.00005 5.76054V7.78817C2.00005 8.19369 2.40821 8.59921 2.81637 8.59921Z" fill="#848F92"/>
<path d="M6.89801 21.1705H4.85719C4.1429 21.1705 3.6327 20.5622 3.6327 19.9539V17.9263C3.6327 17.5207 3.32658 17.1152 2.81637 17.1152C2.30617 17.1152 2.00005 17.5207 2.00005 17.9263V19.9539C2.00005 21.4746 3.22454 22.7926 4.85719 22.7926H6.89801C7.30617 22.7926 7.71433 22.4884 7.71433 21.9815C7.71433 21.4746 7.30617 21.1705 6.89801 21.1705Z" fill="#848F92"/>
<path d="M8.25 9.13281H9.67941V10.5475H8.25V9.13281ZM13.7445 11.9188H14.905V13.0675H13.7445V11.9188ZM11.4508 14.8071H12.5566V15.9015H11.4508V14.8071ZM16.0656 11.9188H18V13.0675H16.0656V11.9188ZM11.4508 16.9958H12.5566V18.8198H11.4508V16.9958Z" fill="#848F92"/>
<path d="M11.6 6.89844C11.8121 6.89844 12.0156 6.98216 12.1656 7.13117C12.2399 7.20495 12.2988 7.29256 12.3391 7.38898C12.3793 7.4854 12.4 7.58875 12.4 7.69312V12.4622C12.4 12.673 12.3157 12.8752 12.1656 13.0242C12.0156 13.1733 11.8122 13.257 11.6 13.2571H6.80002C6.58786 13.257 6.38441 13.1732 6.23441 13.0242C6.08437 12.8751 6.00005 12.673 6 12.4622V7.69329C6 7.48248 6.08429 7.28031 6.23432 7.13124C6.38435 6.98218 6.58784 6.89844 6.80002 6.89844H11.6ZM11.5367 7.75613H6.86327V12.3992H11.5367V7.75613ZM9.60002 14.4493C9.81214 14.4494 10.0155 14.5333 10.1654 14.6824C10.3153 14.8315 10.3995 15.0337 10.3994 15.2444V18.026C10.3993 18.2367 10.3151 18.4387 10.1652 18.5877C10.0153 18.7367 9.81205 18.8205 9.60002 18.8207H6.80002C6.58787 18.8207 6.38441 18.737 6.23438 18.5879C6.08435 18.4389 6.00004 18.2368 6 18.026V15.2444C6 15.0336 6.08429 14.8315 6.23432 14.6824C6.38435 14.5333 6.58784 14.4496 6.80002 14.4496L9.60002 14.4493ZM6.78027 15.2245V18.045H9.61911V15.2245H6.78027ZM17.2 14.4493C17.3051 14.4493 17.4091 14.4699 17.5062 14.5098C17.6032 14.5498 17.6914 14.6084 17.7657 14.6822C17.84 14.7561 17.8989 14.8437 17.939 14.9402C17.9792 15.0367 17.9999 15.14 17.9998 15.2444V18.026C17.9998 18.2368 17.9155 18.439 17.7655 18.588C17.6155 18.7371 17.412 18.8209 17.1998 18.8209H14.4003C14.1881 18.8209 13.9846 18.7371 13.8346 18.588C13.6846 18.439 13.6003 18.2368 13.6003 18.026V15.2444C13.6002 15.14 13.6209 15.0366 13.6611 14.9402C13.7013 14.8437 13.7602 14.756 13.8345 14.6822C13.9088 14.6083 13.997 14.5498 14.0941 14.5098C14.1912 14.4698 14.2952 14.4493 14.4003 14.4493H17.2ZM17.2 15.2444H14.4003V18.0255H17.1995L17.2 15.2444ZM17.2 6.89844C17.4122 6.89844 17.6156 6.98218 17.7657 7.13124C17.9157 7.28031 18 7.48248 18 7.69329V10.4752C17.9998 10.6859 17.9155 10.8879 17.7654 11.0368C17.6154 11.1857 17.412 11.2694 17.2 11.2694H14.4003C14.1882 11.2695 13.9847 11.1858 13.8346 11.0369C13.6845 10.888 13.6001 10.6859 13.6 10.4752V7.69329C13.6 7.58888 13.6207 7.48549 13.6609 7.38904C13.7011 7.29258 13.7601 7.20494 13.8344 7.13113C13.9087 7.05731 13.997 6.99877 14.0941 6.95885C14.1912 6.91892 14.2952 6.89839 14.4003 6.89844H17.2ZM17.2011 7.69197H14.3987V10.4763H17.2011V7.69197Z" fill="#848F92"/>
</svg>
