<svg width="36" height="36" viewBox="0 0 36 36" fill="none" xmlns="http://www.w3.org/2000/svg">
<path d="M23.3253 26.5484C26.1003 27.2234 29.7753 26.1734 31.5003 24.8984C29.4753 27.6734 24.4503 32.7734 21.5253 34.3484C23.0253 32.7734 23.6253 28.5734 23.3253 26.5484Z" fill="#0685CF"/>
<path d="M30 1.5H6C5.175 1.5 4.5 2.175 4.5 3V33C4.5 33.825 5.175 34.5 6 34.5H15.9C22.425 34.5 20.4 23.475 20.4 23.475C24.45 24.525 31.5 24.075 31.5 19.35V3C31.5 2.175 30.825 1.5 30 1.5Z" fill="#0F50A4"/>
<path d="M26.2497 16.5C26.2497 16.95 25.9497 17.25 25.4997 17.25H10.4997C10.0497 17.25 9.74974 16.95 9.74974 16.5V15.75C9.74974 15.3 10.0497 15 10.4997 15H25.4997C25.9497 15 26.2497 15.3 26.2497 15.75V16.5V16.5ZM26.2497 10.5C26.2497 10.95 25.9497 11.25 25.4997 11.25H10.4997C10.0497 11.25 9.74974 10.95 9.74974 10.5V9.75C9.74974 9.3 10.0497 9 10.4997 9H25.4997C25.9497 9 26.2497 9.3 26.2497 9.75V10.5V10.5Z" fill="white"/>
</svg>
