<svg width="26" height="27" viewBox="0 0 26 27" fill="none" xmlns="http://www.w3.org/2000/svg">
<path fill-rule="evenodd" clip-rule="evenodd" d="M3.65407 0H18.5538C20.5098 0 21.9767 1.31871 22.1805 3.19111L22.1754 4.17333L22.1323 12.3486C21.3133 12.0902 20.4414 11.9508 19.5369 11.9508C14.7845 11.9508 10.9318 15.7986 10.9318 20.5451C10.9318 23.1161 12.0622 25.4234 13.8536 26.9983C10.453 27.0009 7.05244 27.0005 3.65185 26.9971C1.93822 26.9956 0.538501 25.9581 0.126342 24.3714C0.0443218 24.0412 0.00387795 23.7021 0.00594426 23.362C-0.000457251 16.7844 -0.00168831 10.2068 0.00225108 3.62921C0.00594426 1.5234 1.54526 0 3.65407 0ZM11.0397 3.9598C9.22511 3.95588 7.41053 3.95588 5.59594 3.9598C4.9718 3.96054 4.41265 4.51644 4.4193 5.1099C4.42668 5.77257 4.87873 6.20183 5.57526 6.21434H5.82418H15.8837C15.9406 6.21434 15.9975 6.21487 16.0545 6.21539C16.2002 6.21673 16.3461 6.21807 16.4916 6.21066C17.0123 6.18489 17.3846 5.89626 17.5109 5.4324C17.7347 4.61069 17.2369 3.9598 16.3734 3.9598H11.0397ZM4.42447 9.82735C4.48799 10.4466 4.88833 10.8317 5.52208 10.8427H5.52282C6.20887 10.854 6.89491 10.851 7.58029 10.848C7.78779 10.8471 7.99523 10.8462 8.20259 10.8456C8.60816 10.8456 9.01364 10.8461 9.41907 10.8466C10.2298 10.8476 11.0402 10.8486 11.8507 10.8456C12.4357 10.8434 12.8309 10.5695 12.9727 10.0895C13.2157 9.27145 12.7223 8.59405 11.8692 8.5889C11.1753 8.58595 10.4811 8.58694 9.78708 8.58792C9.44008 8.58841 9.09311 8.5889 8.74623 8.5889H5.67867C5.55012 8.58434 5.42147 8.59472 5.29532 8.61982C5.02747 8.68073 4.79116 8.83705 4.6308 9.05941C4.47044 9.28177 4.39706 9.55486 4.42447 9.82735Z" fill="#0F50A4"/>
<path d="M26 20.5598C25.9952 22.2726 25.3096 23.9133 24.0941 25.121C22.8787 26.3287 21.2328 27.0045 19.5187 26.9997C17.8046 26.9948 16.1626 26.3098 14.954 25.0952C13.7453 23.8807 13.0691 22.2361 13.0739 20.5233C13.0739 16.957 15.981 14.0841 19.5788 14.0899C23.123 14.095 26.0013 16.9953 26 20.5598ZM18.5164 21.6035C18.2062 21.2839 17.9184 20.9874 17.6267 20.694C17.4489 20.5157 17.2346 20.4204 16.9781 20.4703C16.8513 20.4896 16.7323 20.5439 16.6346 20.6271C16.537 20.7103 16.4646 20.8192 16.4255 20.9413C16.3257 21.2283 16.4038 21.4776 16.6078 21.6859C17.0555 22.1403 17.5071 22.5897 17.96 23.039C18.3386 23.4148 18.723 23.4154 19.1062 23.039C19.5149 22.6363 19.9191 22.2285 20.3246 21.8246C20.9903 21.1599 21.6557 20.4954 22.3209 19.8312C22.5128 19.6394 22.6356 19.426 22.5857 19.1498C22.5677 19.0187 22.5122 18.8956 22.4258 18.7953C22.3395 18.6949 22.226 18.6216 22.099 18.5842C21.7983 18.4858 21.5521 18.5842 21.3397 18.7958C20.4715 19.6612 19.6027 20.5278 18.7333 21.3958C18.6725 21.4565 18.6085 21.5146 18.5152 21.6035H18.5164Z" fill="#0F50A4"/>
</svg>
