<svg xmlns="http://www.w3.org/2000/svg" version="1.1" xmlns:xlink="http://www.w3.org/1999/xlink" xmlns:svgjs="http://svgjs.com/svgjs" width="512" height="512" x="0" y="0" viewBox="0 0 24 24" style="enable-background:new 0 0 512 512" xml:space="preserve" class=""><g><g fill="#000" fill-rule="evenodd" clip-rule="evenodd"><path d="M18.154 19.457c.708 0 1.282-.576 1.282-1.286v-2.057a.77.77 0 1 1 1.538 0v2.057A2.825 2.825 0 0 1 18.154 21h-2.051a.77.77 0 0 1 0-1.543zM18.154 4.543c.708 0 1.282.575 1.282 1.286v2.057a.77.77 0 1 0 1.538 0V5.829A2.825 2.825 0 0 0 18.154 3h-2.051a.77.77 0 0 0 0 1.543zM5.846 19.457a1.284 1.284 0 0 1-1.282-1.286v-2.057a.77.77 0 1 0-1.538 0v2.057A2.825 2.825 0 0 0 5.846 21h2.051a.77.77 0 0 0 0-1.543zM5.846 4.543c-.708 0-1.282.575-1.282 1.286v2.057a.77.77 0 1 1-1.538 0V5.829A2.825 2.825 0 0 1 5.846 3h2.051a.77.77 0 0 1 0 1.543zM22 12a.77.77 0 0 1-.77.771H2.77a.77.77 0 0 1 0-1.542h18.46A.77.77 0 0 1 22 12z" fill="#0f50a4" data-original="#000000" class=""></path></g></g></svg>