<svg width="16" height="17" viewBox="0 0 16 17" fill="none" xmlns="http://www.w3.org/2000/svg">
<g opacity="0.5">
<path d="M14.9308 15.2614L12.5468 12.898C13.6086 11.6164 14.2509 9.95589 14.2509 8.14329C14.2509 4.09689 11.0541 0.804688 7.12501 0.804688C3.1959 0.804688 0 4.09689 0 8.14329C0 12.1897 3.19677 15.4819 7.12589 15.4819C8.91828 15.4819 10.5569 14.7952 11.8101 13.6666L14.2046 16.0399C14.3021 16.137 14.4325 16.1913 14.5681 16.1911C14.7053 16.1911 14.8434 16.1353 14.9457 16.0255C15.1467 15.8095 15.1397 15.4675 14.9308 15.2614ZM7.12501 14.4019C3.77443 14.4019 1.04782 11.5948 1.04782 8.14329C1.04782 4.69269 3.77356 1.88469 7.12501 1.88469C10.4765 1.88469 13.2022 4.69179 13.2022 8.14329C13.2022 11.5948 10.4765 14.4019 7.12501 14.4019Z" fill="#464646"/>
<path d="M11.5846 8.68352C11.2953 8.68352 11.0603 8.44142 11.0603 8.14352C11.0603 5.90882 9.29496 4.09172 7.12591 4.09172C6.83665 4.09172 6.60156 3.84962 6.60156 3.55172C6.60156 3.25382 6.83665 3.01172 7.12591 3.01172C9.87349 3.01172 12.109 5.31392 12.109 8.14352C12.109 8.44232 11.8739 8.68352 11.5846 8.68352Z" fill="#464646"/>
</g>
</svg>
