<svg width="24" height="24" viewBox="0 0 24 24" fill="none" xmlns="http://www.w3.org/2000/svg">
<path fill-rule="evenodd" clip-rule="evenodd" d="M6.3 3.75H9V4.855H6.3C5.50195 4.855 4.855 5.50195 4.855 6.3V9H3.75V6.3C3.75 4.89167 4.89167 3.75 6.3 3.75ZM3.75 15V17.7C3.75 19.1083 4.89167 20.25 6.3 20.25H9V19.145H6.3C5.50195 19.145 4.855 18.4981 4.855 17.7V15H3.75ZM19.145 15V17.7C19.145 18.4981 18.4981 19.145 17.7 19.145H15V20.25H17.7C19.1083 20.25 20.25 19.1083 20.25 17.7V15H19.145ZM20.25 9V6.3C20.25 4.89167 19.1083 3.75 17.7 3.75H15V4.855H17.7C18.4981 4.855 19.145 5.50195 19.145 6.3V9H20.25Z" fill="white"/>
<path d="M11.9898 15.9761C11.3877 15.9761 10.7885 15.9791 10.1864 15.9761C9.31835 15.9732 8.72795 15.3691 8.70165 14.5011C8.65781 13.2255 9.61355 13.0552 10.6716 12.9379C11.6624 12.8294 12.6445 12.7972 13.6207 12.9966C14.7021 13.2194 15.5234 13.5774 15.2458 14.8941C15.1113 15.5275 14.5443 15.9674 13.8954 15.9732C13.2583 15.9791 12.624 15.9732 11.9898 15.9761Z" fill="white"/>
<path d="M12.0062 12.3041C10.5244 12.3076 9.31162 11.1333 9.30085 9.68909C9.29009 8.23438 10.5028 7.04258 11.9954 7.03907C13.4916 7.03556 14.7044 8.22036 14.7008 9.67857C14.6972 11.1228 13.4952 12.297 12.0062 12.3041Z" fill="white"/>
</svg>
