<svg width="56" height="64" viewBox="0 0 56 64" fill="none" xmlns="http://www.w3.org/2000/svg">
<g filter="url(#filter0_d_23681_119111)">
<g filter="url(#filter1_b_23681_119111)">
<circle cx="28" cy="20" r="20" fill="#12539F" fill-opacity="0.08"/>
</g>
<path d="M36.4918 11.5238C36.0417 11.0617 35.3754 10.8896 34.7541 11.0708L20.2672 15.2836C19.6117 15.4657 19.1471 15.9884 19.022 16.6525C18.8941 17.3284 19.3407 18.1863 19.9242 18.5451L24.4539 21.3291C24.9185 21.6145 25.5181 21.5429 25.9026 21.1552L31.0896 15.9359C31.3507 15.6641 31.7829 15.6641 32.044 15.9359C32.3051 16.1986 32.3051 16.6244 32.044 16.8962L26.848 22.1164C26.4626 22.5033 26.3906 23.1057 26.6742 23.5732L29.442 28.1484C29.7661 28.692 30.3243 29 30.9366 29C31.0086 29 31.0896 29 31.1617 28.9909C31.8639 28.9003 32.4222 28.4202 32.6293 27.7407L36.924 13.2723C37.1131 12.6563 36.942 11.9858 36.4918 11.5238Z" fill="#0F50A4"/>
</g>
<path d="M5.00945 61V53.632H2.52545V52.6H8.75345V53.632H6.28145V61H5.00945ZM11.6017 61.144C11.0177 61.144 10.4977 61.016 10.0417 60.76C9.59367 60.496 9.24167 60.132 8.98567 59.668C8.72967 59.204 8.60167 58.664 8.60167 58.048C8.60167 57.424 8.72567 56.876 8.97367 56.404C9.22967 55.932 9.58167 55.564 10.0297 55.3C10.4857 55.036 11.0137 54.904 11.6137 54.904C12.1977 54.904 12.7057 55.036 13.1377 55.3C13.5697 55.556 13.9057 55.9 14.1457 56.332C14.3857 56.764 14.5057 57.24 14.5057 57.76C14.5057 57.84 14.5017 57.928 14.4937 58.024C14.4937 58.112 14.4897 58.212 14.4817 58.324H9.84967C9.88967 58.9 10.0777 59.34 10.4137 59.644C10.7577 59.94 11.1537 60.088 11.6017 60.088C11.9617 60.088 12.2617 60.008 12.5017 59.848C12.7497 59.68 12.9337 59.456 13.0537 59.176H14.3257C14.1657 59.736 13.8457 60.204 13.3657 60.58C12.8937 60.956 12.3057 61.144 11.6017 61.144ZM11.6017 55.948C11.1777 55.948 10.8017 56.076 10.4737 56.332C10.1457 56.58 9.94567 56.956 9.87367 57.46H13.2337C13.2097 56.996 13.0457 56.628 12.7417 56.356C12.4377 56.084 12.0577 55.948 11.6017 55.948ZM15.8255 61V52.36H17.0975V61H15.8255ZM21.4923 61.144C20.9083 61.144 20.3883 61.016 19.9323 60.76C19.4843 60.496 19.1323 60.132 18.8763 59.668C18.6203 59.204 18.4923 58.664 18.4923 58.048C18.4923 57.424 18.6163 56.876 18.8643 56.404C19.1203 55.932 19.4723 55.564 19.9203 55.3C20.3763 55.036 20.9043 54.904 21.5043 54.904C22.0883 54.904 22.5963 55.036 23.0283 55.3C23.4603 55.556 23.7963 55.9 24.0363 56.332C24.2763 56.764 24.3963 57.24 24.3963 57.76C24.3963 57.84 24.3923 57.928 24.3843 58.024C24.3843 58.112 24.3803 58.212 24.3723 58.324H19.7403C19.7803 58.9 19.9683 59.34 20.3043 59.644C20.6483 59.94 21.0443 60.088 21.4923 60.088C21.8523 60.088 22.1523 60.008 22.3923 59.848C22.6403 59.68 22.8243 59.456 22.9443 59.176H24.2163C24.0563 59.736 23.7363 60.204 23.2563 60.58C22.7843 60.956 22.1963 61.144 21.4923 61.144ZM21.4923 55.948C21.0683 55.948 20.6923 56.076 20.3643 56.332C20.0363 56.58 19.8363 56.956 19.7643 57.46H23.1243C23.1003 56.996 22.9363 56.628 22.6323 56.356C22.3283 56.084 21.9483 55.948 21.4923 55.948ZM28.0701 59.176C27.7581 59.176 27.4701 59.14 27.2061 59.068L26.6901 59.572C26.7781 59.628 26.8861 59.676 27.0141 59.716C27.1421 59.756 27.3221 59.792 27.5541 59.824C27.7861 59.856 28.1021 59.888 28.5021 59.92C29.2941 59.992 29.8661 60.184 30.2181 60.496C30.5701 60.8 30.7461 61.208 30.7461 61.72C30.7461 62.072 30.6501 62.404 30.4581 62.716C30.2741 63.036 29.9821 63.292 29.5821 63.484C29.1901 63.684 28.6861 63.784 28.0701 63.784C27.2381 63.784 26.5621 63.624 26.0421 63.304C25.5301 62.992 25.2741 62.516 25.2741 61.876C25.2741 61.628 25.3381 61.38 25.4661 61.132C25.6021 60.892 25.8141 60.664 26.1021 60.448C25.9341 60.376 25.7861 60.3 25.6581 60.22C25.5381 60.132 25.4301 60.044 25.3341 59.956V59.668L26.3661 58.612C25.9021 58.212 25.6701 57.688 25.6701 57.04C25.6701 56.648 25.7621 56.292 25.9461 55.972C26.1381 55.644 26.4141 55.384 26.7741 55.192C27.1341 55 27.5661 54.904 28.0701 54.904C28.4061 54.904 28.7181 54.952 29.0061 55.048H31.2261V55.888L30.1701 55.948C30.3621 56.276 30.4581 56.64 30.4581 57.04C30.4581 57.44 30.3621 57.8 30.1701 58.12C29.9861 58.44 29.7141 58.696 29.3541 58.888C29.0021 59.08 28.5741 59.176 28.0701 59.176ZM28.0701 58.18C28.4381 58.18 28.7341 58.084 28.9581 57.892C29.1901 57.692 29.3061 57.412 29.3061 57.052C29.3061 56.684 29.1901 56.404 28.9581 56.212C28.7341 56.02 28.4381 55.924 28.0701 55.924C27.6941 55.924 27.3901 56.02 27.1581 56.212C26.9341 56.404 26.8221 56.684 26.8221 57.052C26.8221 57.412 26.9341 57.692 27.1581 57.892C27.3901 58.084 27.6941 58.18 28.0701 58.18ZM26.4741 61.756C26.4741 62.1 26.6261 62.356 26.9301 62.524C27.2341 62.7 27.6141 62.788 28.0701 62.788C28.5101 62.788 28.8661 62.692 29.1381 62.5C29.4101 62.316 29.5461 62.068 29.5461 61.756C29.5461 61.524 29.4541 61.324 29.2701 61.156C29.0861 60.996 28.7381 60.896 28.2261 60.856C27.8421 60.832 27.5021 60.796 27.2061 60.748C26.9261 60.9 26.7341 61.064 26.6301 61.24C26.5261 61.416 26.4741 61.588 26.4741 61.756ZM32.3606 61V55.048H33.5006L33.6086 56.176C33.8166 55.784 34.1046 55.476 34.4726 55.252C34.8486 55.02 35.3006 54.904 35.8286 54.904V56.236H35.4806C35.1286 56.236 34.8126 56.296 34.5326 56.416C34.2606 56.528 34.0406 56.724 33.8726 57.004C33.7126 57.276 33.6326 57.656 33.6326 58.144V61H32.3606ZM38.9352 61.144C38.4312 61.144 38.0152 61.06 37.6872 60.892C37.3592 60.724 37.1152 60.504 36.9552 60.232C36.7952 59.952 36.7152 59.648 36.7152 59.32C36.7152 58.744 36.9392 58.288 37.3872 57.952C37.8352 57.616 38.4752 57.448 39.3072 57.448H40.8672V57.34C40.8672 56.876 40.7392 56.528 40.4832 56.296C40.2352 56.064 39.9112 55.948 39.5112 55.948C39.1592 55.948 38.8512 56.036 38.5872 56.212C38.3312 56.38 38.1752 56.632 38.1192 56.968H36.8472C36.8872 56.536 37.0312 56.168 37.2792 55.864C37.5352 55.552 37.8552 55.316 38.2392 55.156C38.6312 54.988 39.0592 54.904 39.5232 54.904C40.3552 54.904 40.9992 55.124 41.4552 55.564C41.9112 55.996 42.1392 56.588 42.1392 57.34V61H41.0352L40.9272 59.98C40.7592 60.308 40.5152 60.584 40.1952 60.808C39.8752 61.032 39.4552 61.144 38.9352 61.144ZM39.1872 60.112C39.5312 60.112 39.8192 60.032 40.0512 59.872C40.2912 59.704 40.4752 59.484 40.6032 59.212C40.7392 58.94 40.8232 58.64 40.8552 58.312H39.4392C38.9352 58.312 38.5752 58.4 38.3592 58.576C38.1512 58.752 38.0472 58.972 38.0472 59.236C38.0472 59.508 38.1472 59.724 38.3472 59.884C38.5552 60.036 38.8352 60.112 39.1872 60.112ZM43.6224 61V55.048H44.7504L44.8584 55.888C45.0504 55.584 45.3024 55.344 45.6144 55.168C45.9344 54.992 46.3024 54.904 46.7184 54.904C47.6624 54.904 48.3184 55.276 48.6864 56.02C48.9024 55.676 49.1904 55.404 49.5504 55.204C49.9184 55.004 50.3144 54.904 50.7384 54.904C51.4824 54.904 52.0664 55.128 52.4904 55.576C52.9144 56.024 53.1264 56.692 53.1264 57.58V61H51.8544V57.712C51.8544 56.56 51.4144 55.984 50.5344 55.984C50.0864 55.984 49.7184 56.152 49.4304 56.488C49.1504 56.824 49.0104 57.304 49.0104 57.928V61H47.7384V57.712C47.7384 56.56 47.2944 55.984 46.4064 55.984C45.9664 55.984 45.6024 56.152 45.3144 56.488C45.0344 56.824 44.8944 57.304 44.8944 57.928V61H43.6224Z" fill="#464646"/>
<defs>
<filter id="filter0_d_23681_119111" x="6" y="0" width="44" height="44" filterUnits="userSpaceOnUse" color-interpolation-filters="sRGB">
<feFlood flood-opacity="0" result="BackgroundImageFix"/>
<feColorMatrix in="SourceAlpha" type="matrix" values="0 0 0 0 0 0 0 0 0 0 0 0 0 0 0 0 0 0 127 0" result="hardAlpha"/>
<feOffset dy="2"/>
<feGaussianBlur stdDeviation="1"/>
<feComposite in2="hardAlpha" operator="out"/>
<feColorMatrix type="matrix" values="0 0 0 0 0.254902 0 0 0 0 0.254902 0 0 0 0 0.254902 0 0 0 0.04 0"/>
<feBlend mode="normal" in2="BackgroundImageFix" result="effect1_dropShadow_23681_119111"/>
<feBlend mode="normal" in="SourceGraphic" in2="effect1_dropShadow_23681_119111" result="shape"/>
</filter>
<filter id="filter1_b_23681_119111" x="-32" y="-40" width="120" height="120" filterUnits="userSpaceOnUse" color-interpolation-filters="sRGB">
<feFlood flood-opacity="0" result="BackgroundImageFix"/>
<feGaussianBlur in="BackgroundImageFix" stdDeviation="20"/>
<feComposite in2="SourceAlpha" operator="in" result="effect1_backgroundBlur_23681_119111"/>
<feBlend mode="normal" in="SourceGraphic" in2="effect1_backgroundBlur_23681_119111" result="shape"/>
</filter>
</defs>
</svg>
