<svg width="28" height="29" viewBox="0 0 28 29" fill="none" xmlns="http://www.w3.org/2000/svg">
<path d="M6.98295 28.3026H2.10166C1.37149 28.3026 0.780273 27.7181 0.780273 26.9962V19.74C0.780273 19.0181 1.37149 18.4336 2.10166 18.4336H6.98042C7.7106 18.4336 8.30181 19.0181 8.30181 19.74V26.9962C8.30181 27.7181 7.7106 28.3026 6.98295 28.3026Z" fill="#0F50A4"/>
<path d="M16.6054 28.3024H11.7267C10.9965 28.3024 10.4053 27.7179 10.4053 26.996V14.6517C10.4053 13.9298 10.9965 13.3454 11.7267 13.3454H16.6054C17.3356 13.3454 17.9268 13.9298 17.9268 14.6517V26.996C17.9268 27.7179 17.3356 28.3024 16.6054 28.3024ZM26.229 28.3024H21.3503C20.6201 28.3024 20.0289 27.7179 20.0289 26.996V7.47043C20.0289 6.74856 20.6201 6.16406 21.3503 6.16406H26.229C26.9592 6.16406 27.5504 6.74856 27.5504 7.47043V26.996C27.5504 27.7179 26.9592 28.3024 26.229 28.3024Z" fill="#0F50A4"/>
<path d="M9.34278 0.550781H17.592C17.8017 0.550781 17.9735 0.720634 17.9735 0.927955V9.37065C17.9735 9.71036 17.5566 9.87521 17.3191 9.63292L15.0983 7.35989C15.0376 7.29712 14.9567 7.25728 14.8695 7.24724C14.7823 7.23721 14.6943 7.25762 14.6207 7.30494L3.15779 14.5212C2.80154 14.746 2.39477 14.3139 2.64742 13.9792L10.7703 3.186C10.8865 3.03113 10.8663 2.81382 10.7223 2.68394L9.08507 1.20771C8.82989 0.975414 8.99412 0.550781 9.34278 0.550781Z" fill="#0685CF"/>
<path d="M16.6054 13.3454H11.7267C10.9965 13.3454 10.4053 13.9298 10.4053 14.6517V26.996C10.4053 27.7179 10.9965 28.3024 11.7267 28.3024H13.5079C15.0553 27.7998 16.5382 27.1208 17.9268 26.2792V14.6517C17.9268 13.9298 17.3356 13.3454 16.6054 13.3454ZM27.5504 12.5935V7.47043C27.5504 6.74856 26.9592 6.16406 26.229 6.16406H21.3503C20.6201 6.16406 20.0289 6.74856 20.0289 7.47043V24.8129C23.844 21.803 26.5752 17.5117 27.5504 12.5935Z" fill="#0F50A4"/>
<path d="M21.5915 6.16406H21.3464C20.6162 6.16406 20.025 6.74856 20.025 7.47043V10.4029C20.7036 9.05137 21.229 7.62978 21.5915 6.16406ZM17.7385 13.9898C17.5086 13.6051 17.0891 13.3453 16.6041 13.3453H11.7253C10.9951 13.3453 10.4039 13.9298 10.4039 14.6517V19.8697C13.2791 18.4809 15.7829 16.4577 17.7385 13.9898ZM6.98295 18.4334H2.10166C1.37149 18.4334 0.780273 19.0179 0.780273 19.7398V21.9579C0.919234 21.9604 1.05819 21.9679 1.19715 21.9679C3.69086 21.9679 6.0835 21.5358 8.30181 20.7464V19.7398C8.30181 19.0179 7.7106 18.4334 6.98295 18.4334Z" fill="#0F50A4"/>
<path d="M3.10352 13.3697C9.05607 11.2265 13.7453 6.49314 15.7944 0.550781H9.34156C8.9929 0.550781 8.82868 0.972916 9.08386 1.20521L10.7211 2.68144C10.8651 2.81133 10.8878 3.02864 10.7691 3.1835L3.10352 13.3697Z" fill="#0685CF"/>
</svg>
