<svg width="24" height="24" viewBox="0 0 24 24" fill="none" xmlns="http://www.w3.org/2000/svg">
<mask id="mask0_23642_76756" style="mask-type:alpha" maskUnits="userSpaceOnUse" x="0" y="0" width="24" height="24">
<rect y="0.21875" width="23.2542" height="23.2542" fill="#C4C4C4"/>
</mask>
<g mask="url(#mask0_23642_76756)">
<path d="M5.62499 22.7207H1.79853C1.22615 22.7207 0.762695 22.2625 0.762695 21.6966V16.0084C0.762695 15.4426 1.22615 14.9844 1.79853 14.9844H5.62301C6.19539 14.9844 6.65884 15.4426 6.65884 16.0084V21.6966C6.65884 22.2625 6.19539 22.7207 5.62499 22.7207Z" fill="white"/>
<path d="M13.1679 22.7215H9.34345C8.77107 22.7215 8.30762 22.2633 8.30762 21.6974V12.0207C8.30762 11.4548 8.77107 10.9966 9.34345 10.9966H13.1679C13.7403 10.9966 14.2038 11.4548 14.2038 12.0207V21.6974C14.2038 22.2633 13.7403 22.7215 13.1679 22.7215ZM20.7119 22.7215H16.8874C16.3151 22.7215 15.8516 22.2633 15.8516 21.6974V6.39125C15.8516 5.82537 16.3151 5.36719 16.8874 5.36719H20.7119C21.2843 5.36719 21.7477 5.82537 21.7477 6.39125V21.6974C21.7477 22.2633 21.2843 22.7215 20.7119 22.7215Z" fill="white"/>
<path d="M7.47514 0.96875H13.9417C14.1061 0.96875 14.2408 1.1019 14.2408 1.26442V7.88266C14.2408 8.14896 13.914 8.27819 13.7278 8.08826L11.9869 6.30642C11.9393 6.25722 11.8759 6.22599 11.8076 6.21812C11.7392 6.21025 11.6702 6.22625 11.6125 6.26335L2.62671 11.9202C2.34745 12.0964 2.02858 11.7577 2.22664 11.4953L8.59416 3.0345C8.68526 2.9131 8.66942 2.74275 8.55653 2.64093L7.27312 1.48372C7.07308 1.30162 7.20182 0.96875 7.47514 0.96875Z" fill="#0685CF"/>
<path d="M13.1679 10.9966H9.34345C8.77107 10.9966 8.30762 11.4548 8.30762 12.0207V21.6974C8.30762 22.2633 8.77107 22.7215 9.34345 22.7215H10.7398C11.9528 22.3275 13.1152 21.7952 14.2038 21.1355V12.0207C14.2038 11.4548 13.7403 10.9966 13.1679 10.9966ZM21.7477 10.4072V6.39125C21.7477 5.82537 21.2843 5.36719 20.7119 5.36719H16.8874C16.3151 5.36719 15.8516 5.82537 15.8516 6.39125V19.9861C18.8423 17.6266 20.9832 14.2627 21.7477 10.4072Z" fill="white"/>
<path d="M17.0766 5.36719H16.8845C16.3121 5.36719 15.8487 5.82537 15.8487 6.39125V8.69002C16.3807 7.63055 16.7925 6.51617 17.0766 5.36719ZM14.0563 11.5018C13.876 11.2003 13.5473 10.9966 13.167 10.9966H9.34251C8.77013 10.9966 8.30668 11.4548 8.30668 12.0207V16.1111C10.5606 15.0224 12.5233 13.4364 14.0563 11.5018ZM5.62499 14.9852H1.79853C1.22615 14.9852 0.762695 15.4434 0.762695 16.0092V17.748C0.871627 17.75 0.980558 17.7558 1.08949 17.7558C3.04431 17.7558 4.91991 17.4171 6.65885 16.7983V16.0092C6.65885 15.4434 6.19539 14.9852 5.62499 14.9852Z" fill="white"/>
<path d="M2.58301 11.0175C7.24922 9.3375 10.9252 5.62698 12.5314 0.96875H7.47303C7.19971 0.96875 7.07097 1.29966 7.27101 1.48176L8.55442 2.63898C8.66731 2.7408 8.68514 2.91115 8.59205 3.03255L2.58301 11.0175Z" fill="#0685CF"/>
</g>
</svg>
