<svg width="42" height="42" viewBox="0 0 42 42" fill="none" xmlns="http://www.w3.org/2000/svg">
<path d="M31.6505 36.3224H8.54245C5.70149 36.3224 3.39148 34.0124 3.39148 31.1714V8.59433C3.39148 5.75337 5.70149 3.44336 8.54245 3.44336H31.6505C34.4915 3.44336 36.8015 5.75337 36.8015 8.59433V31.1714C36.8015 34.0124 34.4895 36.3224 31.6505 36.3224ZM8.54245 5.82073C7.01301 5.82073 5.76885 7.06489 5.76885 8.59433V31.1714C5.76885 32.7009 7.01301 33.945 8.54245 33.945H31.6505C33.18 33.945 34.4241 32.7009 34.4241 31.1714V8.59433C34.4241 7.06489 33.18 5.82073 31.6505 5.82073H8.54245Z" fill="#0F50A4"/>
<path d="M28.3658 17.5067H11.5597C11.3348 17.5066 11.1144 17.4426 10.9244 17.3222C10.7343 17.2019 10.5823 17.03 10.486 16.8267C10.3898 16.6234 10.3532 16.3969 10.3805 16.1736C10.4078 15.9503 10.498 15.7393 10.6405 15.5652L14.3967 10.9749C14.8128 10.4677 15.5616 10.3924 16.0688 10.8085C16.1897 10.9072 16.2899 11.0288 16.3637 11.1664C16.4375 11.3039 16.4835 11.4547 16.4989 11.61C16.5144 11.7653 16.4991 11.9221 16.4538 12.0715C16.4086 12.2209 16.3343 12.3599 16.2352 12.4806L14.0679 15.1293H28.3658C29.0215 15.1293 29.5545 15.6623 29.5545 16.318C29.5545 16.9738 29.0235 17.5067 28.3658 17.5067ZM24.6095 29.4946C24.348 29.4946 24.0845 29.4094 23.8646 29.2311C23.619 29.0333 23.462 28.746 23.4282 28.4324C23.3944 28.1188 23.4865 27.8047 23.6843 27.559L25.8834 24.827H11.5597C10.904 24.827 10.371 24.2941 10.371 23.6383C10.371 22.9826 10.904 22.4497 11.5597 22.4497H28.3658C28.8234 22.4497 29.2395 22.7132 29.4376 23.1252C29.6357 23.5373 29.5782 24.0267 29.291 24.3833L25.5347 29.0488C25.4245 29.1885 25.2838 29.3012 25.1235 29.3785C24.9632 29.4557 24.7875 29.4954 24.6095 29.4946Z" fill="#ED1E26"/>
</svg>
