<svg width="90" height="90" viewBox="0 0 90 90" fill="none" xmlns="http://www.w3.org/2000/svg">
<circle cx="45" cy="45" r="41.75" stroke="#AFAFAF" stroke-opacity="0.25" stroke-width="0.5"/>
<path fill-rule="evenodd" clip-rule="evenodd" d="M40.6399 56.1017V57.8401L41.2148 57.841C41.6806 57.8417 41.8378 57.83 42.0428 57.7791C42.4441 57.6794 42.6621 57.5252 42.8119 57.2353C42.9073 57.0506 42.9154 56.6404 42.8273 56.4571C42.7094 56.2116 42.4392 56.0408 42.0958 55.9946C41.9336 55.9727 41.9299 55.9702 42.024 55.9455C42.2104 55.8965 42.4706 55.7342 42.5922 55.591C42.686 55.4805 42.7208 55.4049 42.745 55.2584C42.8059 54.8909 42.6875 54.626 42.3968 54.4791C42.1997 54.3795 42.0823 54.3667 41.3466 54.365L40.6399 54.3633V56.1017ZM42.0418 54.652C42.1237 54.7022 42.2123 54.7805 42.2385 54.8259C42.3107 54.9507 42.3328 55.1802 42.2913 55.3735C42.2455 55.5867 42.0716 55.7709 41.8668 55.8232C41.7928 55.8421 41.6902 55.8713 41.639 55.8881C41.5878 55.9048 41.4373 55.9186 41.3046 55.9186H41.0634L41.0847 55.2578C41.0965 54.8944 41.1151 54.5824 41.1262 54.5645C41.1388 54.5442 41.2863 54.5374 41.5195 54.5464C41.8602 54.5595 41.9057 54.5687 42.0418 54.652ZM48.8833 54.9729C48.7526 55.0143 48.6369 55.0602 48.6263 55.0748C48.6156 55.0895 48.5461 55.1408 48.4717 55.1889C48.0033 55.4919 47.7885 56.2687 47.997 56.9061C48.1389 57.34 48.415 57.6298 48.8332 57.7838C49.094 57.8797 49.8271 57.8897 50.1042 57.801C50.3887 57.7099 50.6144 57.5495 50.8348 57.2819C50.8586 57.2529 50.9159 57.14 50.962 57.0309C51.0388 56.8495 51.0461 56.7941 51.0472 56.3836L51.0484 55.9346L50.9303 55.6941C50.7457 55.3183 50.4989 55.1056 50.0907 54.9705C49.7653 54.8628 49.2274 54.8639 48.8833 54.9729ZM51.7322 55.3701C51.747 55.8275 51.6885 57.6727 51.6558 57.7839C51.6428 57.8281 51.6647 57.8373 51.7821 57.8373H51.924L51.9071 56.7176C51.8964 56.0042 51.9015 55.5979 51.9214 55.5979C51.9385 55.5979 52.0888 55.7442 52.2554 55.9229C52.422 56.1016 52.6233 56.3158 52.7028 56.3988C52.8329 56.5346 53.2017 56.9355 53.5577 57.3281C53.6304 57.4083 53.7435 57.5316 53.8091 57.6021C53.8747 57.6727 53.9506 57.7629 53.9778 57.8026C54.005 57.8422 54.0473 57.8747 54.0716 57.8747C54.1084 57.8747 54.1156 57.7034 54.1136 56.8691C54.1124 56.316 54.1217 55.6594 54.1344 55.41L54.1575 54.9565L54.0325 54.9565H53.9075L53.9178 56.0468C53.9278 57.095 53.9172 57.2318 53.8368 57.0927C53.8134 57.052 53.2369 56.4328 52.8474 56.0298C52.617 55.7914 52.1275 55.2574 51.9614 55.0631C51.7291 54.7915 51.7143 54.8113 51.7322 55.3701ZM43.6596 56.3996V57.8426H44.4154H45.1712L45.1597 57.7217L45.1481 57.6009L44.9018 57.6233C44.7663 57.6356 44.5146 57.6467 44.3423 57.648L44.0291 57.6502V57.02V56.3897L44.5362 56.4114L45.0434 56.433L45.0487 56.2999L45.054 56.1668L44.9051 56.1872C44.8231 56.1984 44.5926 56.2169 44.3926 56.2283L44.0291 56.249V55.7024C44.0291 55.2936 44.0392 55.1524 44.0692 55.1425C44.0913 55.1352 44.3327 55.14 44.6056 55.1531C44.8785 55.1663 45.1134 55.1699 45.1276 55.1611C45.1418 55.1523 45.1535 55.1027 45.1535 55.0508V54.9565H44.4065L43.6596 54.9566V56.3996ZM45.5068 54.9717C45.5068 54.986 45.7215 55.3489 45.8773 55.5979C46.0483 55.8713 46.1493 56.0502 46.1493 56.0794C46.1493 56.0968 46.1609 56.111 46.1751 56.111C46.1892 56.111 46.2331 56.1723 46.2726 56.2473C46.3121 56.3222 46.381 56.4413 46.4256 56.5118C46.5065 56.6397 46.5067 56.642 46.4922 57.2414L46.4776 57.8426H46.6759H46.8742L46.8624 57.2253C46.8495 56.5525 46.8517 56.5408 47.0495 56.2392C47.1016 56.1599 47.154 56.0733 47.166 56.0468C47.178 56.0204 47.2336 55.9266 47.2896 55.8384C47.3456 55.7502 47.4404 55.5987 47.5002 55.5017C47.56 55.4047 47.6182 55.3181 47.6296 55.3093C47.6409 55.3005 47.674 55.25 47.7031 55.197C47.7321 55.1441 47.7793 55.0684 47.8078 55.0287L47.8598 54.9565H47.6962H47.5326L47.446 55.1409C47.3984 55.2423 47.2592 55.5046 47.1367 55.7238C47.0141 55.9429 46.8972 56.1522 46.8769 56.1888C46.8566 56.2254 46.8316 56.2625 46.8212 56.2713C46.8109 56.2801 46.7888 56.3123 46.7721 56.3427C46.7479 56.3871 46.6707 56.2689 46.3845 55.7495C46.1879 55.3927 46.0107 55.0684 45.9907 55.0287C45.9582 54.9642 45.9304 54.9565 45.7306 54.9565C45.6075 54.9565 45.5068 54.9634 45.5068 54.9717ZM54.9355 56.3988V57.8411L55.6101 57.8325C56.0106 57.8274 56.3631 57.807 56.4775 57.7822C57.0583 57.6563 57.4441 57.2604 57.569 56.6621C57.6322 56.3593 57.63 56.2519 57.5537 55.9075C57.4624 55.4951 57.3224 55.2866 57.0236 55.1181C56.7773 54.9792 56.5958 54.9565 55.729 54.9565H54.9355V56.3988ZM50.0058 55.14C50.3869 55.3125 50.5988 55.6493 50.6434 56.1534C50.7097 56.9015 50.4993 57.3971 50.0135 57.6373C49.8441 57.7211 49.7979 57.7291 49.4903 57.7284C49.1029 57.7274 48.9633 57.6796 48.7177 57.4638C48.4283 57.2095 48.3168 56.8555 48.341 56.2682C48.3548 55.935 48.3674 55.8706 48.4555 55.6826C48.5652 55.4487 48.7845 55.2127 48.9504 55.1503C49.0088 55.1284 49.0856 55.0982 49.1209 55.0832C49.2418 55.0321 49.3139 55.024 49.5555 55.0349C49.7383 55.0431 49.8484 55.0688 50.0058 55.14ZM56.3952 55.1486C56.8598 55.2365 57.103 55.5222 57.1758 56.0653C57.2126 56.3397 57.1745 56.8397 57.1103 56.9243C57.0951 56.9444 57.0629 57.0113 57.0388 57.073C56.9395 57.3273 56.7326 57.5079 56.4128 57.6193C56.2555 57.6741 56.1447 57.6862 55.8035 57.6858C55.4451 57.6853 55.3808 57.6774 55.3458 57.6296C55.3145 57.5869 55.3051 57.2993 55.3054 56.4015C55.3057 55.7567 55.3166 55.2125 55.3295 55.1923C55.3425 55.172 55.3893 55.1487 55.4335 55.1405C55.5882 55.1118 56.2294 55.1172 56.3952 55.1486ZM42.0713 56.2199C42.3409 56.3567 42.4068 56.4734 42.4068 56.8141C42.4068 57.043 42.3935 57.1149 42.3277 57.2436C42.1697 57.5523 41.8274 57.7045 41.3758 57.6669L41.1153 57.6453L41.0945 57.2579C41.083 57.0449 41.0736 56.6979 41.0736 56.487V56.1034L41.4832 56.1164C41.8551 56.1282 41.9092 56.1377 42.0713 56.2199ZM40.6399 60.5367C40.6399 61.9659 40.6474 62.2659 40.6827 62.2523C40.7062 62.2433 40.8074 62.2359 40.9076 62.2359H41.0896L41.0902 60.5203L41.0907 58.8047H40.8653H40.6399V60.5367ZM42.0534 59.887C42.066 60.4205 42.0301 61.5321 41.9845 62.0195L41.9643 62.2359H42.1063H42.2483L42.236 61.1055L42.2238 59.9752L42.3956 60.1542C42.4901 60.2526 42.7192 60.4962 42.9047 60.6955C43.0902 60.8948 43.2998 61.1195 43.3705 61.195C43.5826 61.4214 43.942 61.8194 44.1727 62.0836C44.2921 62.2203 44.4028 62.3321 44.4186 62.3321C44.4352 62.3321 44.4439 61.9132 44.4391 61.3461C44.4344 60.8037 44.4429 60.1363 44.4578 59.8629L44.4848 59.3659H44.3519H44.219L44.223 60.376C44.2252 60.9316 44.2258 61.4271 44.2244 61.4772C44.2219 61.5656 44.2162 61.5624 44.021 61.363C43.9106 61.2501 43.6612 60.9858 43.4669 60.7756C43.2725 60.5655 43.0774 60.3558 43.0332 60.3098C42.9268 60.199 42.3995 59.6263 42.2452 59.4541C42.0443 59.2297 42.0383 59.2432 42.0534 59.887ZM50.6579 59.3528C50.5028 59.3977 50.3044 59.5197 50.2272 59.6177C50.087 59.7956 50.0314 60.1291 50.1057 60.3472C50.1887 60.5907 50.4571 60.8129 50.8023 60.9238C50.9938 60.9853 51.24 61.1458 51.3186 61.2603C51.3938 61.3698 51.4165 61.6072 51.3668 61.764C51.319 61.9153 51.1876 62.0409 51.0066 62.1085C50.8511 62.1666 50.8062 62.171 50.6839 62.1403C50.4586 62.0837 50.3126 61.9944 50.2148 61.8536C50.1072 61.6985 50.0686 61.689 50.0686 61.8176C50.0686 61.8696 50.0517 61.9493 50.0311 61.9945C49.9991 62.0645 50.0026 62.0838 50.0552 62.1248C50.1501 62.1989 50.2909 62.253 50.5062 62.298C50.6759 62.3335 50.7352 62.3318 50.9399 62.2856C51.4604 62.1679 51.7152 61.873 51.7195 61.3828C51.7212 61.1854 51.7095 61.1366 51.6327 61.0207C51.5356 60.8743 51.2827 60.6971 51.0805 60.6338C50.9153 60.5821 50.6448 60.4329 50.5392 60.3352C50.4251 60.2296 50.3713 60.0129 50.418 59.8469C50.4378 59.7763 50.465 59.7042 50.4784 59.6865C50.724 59.3636 51.2545 59.405 51.4029 59.7587C51.427 59.816 51.4586 59.8629 51.4732 59.8629C51.4877 59.8629 51.5187 59.781 51.542 59.6809C51.5832 59.504 51.5822 59.4972 51.5091 59.4407C51.4678 59.4087 51.3833 59.368 51.3215 59.3503C51.1848 59.3112 50.797 59.3126 50.6579 59.3528ZM54.8602 59.5823C54.8396 59.7278 54.7945 60.0706 54.7599 60.3439C54.6754 61.0118 54.5762 61.7032 54.5367 61.8992C54.4612 62.2735 54.4566 62.2535 54.6147 62.2409L54.755 62.2298L54.7717 62.0645C54.7809 61.9736 54.802 61.7405 54.8186 61.5465C54.8773 60.8626 54.9608 60.1672 54.9877 60.1375C55.0036 60.12 55.0303 60.1513 55.0518 60.2128C55.072 60.2708 55.1396 60.4141 55.2021 60.5315C55.2645 60.6488 55.4838 61.0746 55.6893 61.4776C55.8948 61.8807 56.0767 62.2111 56.0935 62.2117C56.1104 62.2124 56.1453 62.164 56.1713 62.1042C56.22 61.9918 56.702 61.0359 56.8244 60.8089C57.1762 60.1566 57.2315 60.0705 57.2319 60.174C57.2322 60.2305 57.2464 60.3459 57.2634 60.4306C57.2804 60.5152 57.3164 60.8658 57.3435 61.2098C57.3705 61.5537 57.4011 61.9253 57.4115 62.0355L57.4303 62.2359H57.6205H57.8107L57.808 62.1317C57.8065 62.0744 57.7936 61.9481 57.7792 61.8511C57.7367 61.5637 57.6829 61.127 57.6309 60.6486C57.604 60.4017 57.562 60.0192 57.5375 59.7988C57.5129 59.5783 57.4921 59.3799 57.4912 59.3578C57.4872 59.2647 57.3966 59.329 57.3332 59.4701C57.2955 59.5539 57.224 59.6946 57.1742 59.7828C56.9783 60.13 56.8631 60.3416 56.6939 60.6646C56.5969 60.8498 56.4567 61.1096 56.3824 61.2418C56.308 61.3741 56.2376 61.5088 56.2258 61.5411C56.1891 61.6421 56.1377 61.5861 55.9647 61.2566C55.8725 61.0809 55.6747 60.7063 55.5252 60.4241C55.3756 60.1419 55.189 59.778 55.1105 59.6153C55.0319 59.4527 54.9519 59.3192 54.9327 59.3187C54.9131 59.3182 54.8812 59.4345 54.8602 59.5823ZM60.5932 60.6406C60.5813 61.3681 60.5634 62.0231 60.5534 62.0962L60.5353 62.229L60.6809 62.2406L60.8266 62.2521L60.8075 61.1899C60.7969 60.6057 60.7983 60.1016 60.8106 60.0696C60.8296 60.0201 60.8582 60.0384 61.0004 60.1907C61.0924 60.2894 61.3352 60.5482 61.5398 60.7659C61.7445 60.9836 61.983 61.2398 62.0699 61.3353C62.1568 61.4308 62.2568 61.5402 62.2921 61.5785C62.5538 61.862 62.6651 61.9869 62.8011 62.15C62.8868 62.2527 62.9619 62.3317 62.9681 62.3255C62.9743 62.3193 62.9866 61.7375 62.9956 61.0325C63.0045 60.3275 63.0214 59.6636 63.0333 59.5571L63.0548 59.3634L62.9256 59.3757L62.7963 59.3881L62.8141 60.4753C62.824 61.0733 62.8204 61.5625 62.8062 61.5625C62.7796 61.5625 62.759 61.5415 62.1636 60.9067C61.9693 60.6995 61.7452 60.4613 61.6657 60.3775C61.5862 60.2937 61.391 60.0828 61.232 59.9089C60.7324 59.3626 60.6884 59.3178 60.6512 59.3178C60.6251 59.3178 60.6088 59.6911 60.5932 60.6406ZM44.9607 59.389C44.9607 59.4017 44.9968 59.4909 45.041 59.5873C45.0852 59.6837 45.1213 59.7734 45.1213 59.7866C45.1213 59.7998 45.1493 59.8693 45.1836 59.941C45.2178 60.0127 45.2741 60.1435 45.3087 60.2317C45.4258 60.5302 45.6708 61.129 45.7174 61.2306C45.743 61.2862 45.7638 61.3399 45.7638 61.3499C45.7638 61.36 45.7983 61.4444 45.8404 61.5375C45.8825 61.6306 45.9276 61.7429 45.9406 61.787C45.9536 61.8311 45.9893 61.9249 46.0199 61.9954C46.0505 62.066 46.0845 62.1489 46.0954 62.1798C46.1103 62.2222 46.1511 62.2359 46.2615 62.2359C46.3921 62.2359 46.4114 62.2264 46.4399 62.1478C46.4575 62.0992 46.4856 62.0307 46.5024 61.9954C46.5191 61.9602 46.5918 61.7798 46.6639 61.5946C46.736 61.4094 46.816 61.2124 46.8416 61.1568C46.8672 61.1013 46.8882 61.0462 46.8882 61.0346C46.8882 61.0229 46.9236 60.9385 46.9668 60.847C47.0101 60.7555 47.1272 60.4858 47.2271 60.2477C47.3269 60.0096 47.4506 59.7252 47.5018 59.6157C47.553 59.5062 47.595 59.4052 47.5949 59.3913C47.5949 59.3773 47.5281 59.3664 47.4464 59.367L47.2979 59.3681L47.2387 59.5594C47.2061 59.6646 47.1656 59.7795 47.1488 59.8148C47.1319 59.8501 47.0935 59.9511 47.0635 60.0393C47.0334 60.1275 46.9889 60.2451 46.9646 60.3007C46.9402 60.3563 46.9203 60.4107 46.9203 60.4216C46.9203 60.4432 46.7116 60.9926 46.6636 61.0975C46.6474 61.1328 46.5698 61.3203 46.491 61.5141C46.3484 61.8649 46.3475 61.8661 46.3077 61.7706C46.2857 61.7179 46.2338 61.5972 46.1924 61.5025C46.1511 61.4078 46.1172 61.318 46.1172 61.3031C46.1172 61.2881 46.0829 61.1996 46.0409 61.1065C45.9989 61.0134 45.9464 60.8795 45.9243 60.8089C45.9021 60.7384 45.8713 60.6647 45.8559 60.6451C45.8404 60.6256 45.8005 60.5318 45.7671 60.4367C45.6628 60.1396 45.5677 59.8816 45.5379 59.8148C45.5221 59.7795 45.4824 59.6655 45.4496 59.5614L45.39 59.3722L45.1754 59.369C45.0573 59.3673 44.9607 59.3763 44.9607 59.389ZM48.0929 60.8089V62.252L48.8318 62.2445L49.5706 62.237L49.5807 62.141L49.5907 62.045L49.0265 62.0653L48.4623 62.0857V61.4511V60.8165L48.969 60.8311L49.4757 60.8456L49.4787 60.7311L49.4817 60.6165L48.972 60.6274L48.4623 60.6382V60.0855V59.5328L48.7595 59.5533C48.9229 59.5645 49.1759 59.5832 49.3217 59.5946L49.5867 59.6155V59.4907V59.3659H48.8398H48.0929V60.8089ZM52.0282 59.491V59.6161L52.4598 59.5945L52.8914 59.5729L52.9144 59.7258C52.927 59.8098 52.9293 60.4127 52.9195 61.0653L52.9016 62.252H53.0994H53.2971L53.2875 60.9108L53.2778 59.5696L53.7248 59.5923L54.1718 59.6149V59.4904V59.3659H53.1H52.0282V59.491ZM58.4371 60.8089V62.252L59.1841 62.2428L59.931 62.2337V62.1404V62.047L59.3706 62.0662L58.8102 62.0854L58.8004 61.6493C58.795 61.4094 58.7955 61.1241 58.8016 61.0152L58.8127 60.8173L59.3076 60.8306L59.8025 60.8439V60.7277C59.8025 60.62 59.7961 60.6123 59.7141 60.6216C59.6655 60.6271 59.4424 60.6358 59.2183 60.6409L58.8108 60.65L58.8006 60.3696C58.7951 60.2153 58.7952 59.9641 58.801 59.8114L58.8116 59.5336L59.0902 59.5532C59.2434 59.564 59.492 59.5822 59.6426 59.5937L59.9163 59.6145V59.4902V59.3659H59.1768H58.4371V60.8089ZM63.545 59.4941V59.6224L63.8181 59.6011C63.9683 59.5894 64.167 59.5786 64.2598 59.5771L64.4285 59.5743V60.9023V62.2302L64.6132 62.2411L64.7979 62.252L64.7865 60.9131L64.775 59.5743L64.931 59.5775C65.0168 59.5793 65.2243 59.5901 65.3922 59.6016L65.6974 59.6224V59.4941V59.3659H64.6212H63.545L63.545 59.4941ZM42.1819 63.2184C41.8996 63.2628 41.5555 63.3975 41.3449 63.5459C41.0079 63.7835 40.8636 63.9781 40.7245 64.3828C40.6521 64.5938 40.6414 64.6767 40.6423 65.0258C40.6434 65.4817 40.6971 65.6917 40.8968 66.0198C41.1408 66.4207 41.4784 66.6451 42.0069 66.7579C42.8016 66.9274 43.5994 66.718 44.0088 66.2325C44.242 65.956 44.3163 65.7814 44.398 65.3171C44.5106 64.6779 44.265 63.9627 43.8141 63.6172C43.4751 63.3575 43.103 63.2326 42.6156 63.2152C42.4301 63.2086 42.2349 63.21 42.1819 63.2184ZM42.9995 63.4679C43.2211 63.5427 43.4042 63.6551 43.5248 63.7904C43.6664 63.9493 43.8042 64.1984 43.8551 64.3876C43.9227 64.639 43.9338 65.313 43.8745 65.571C43.7899 65.9394 43.5503 66.2895 43.2709 66.4531C43.1074 66.5487 42.7085 66.6615 42.5359 66.6608C42.3483 66.6601 41.9284 66.5472 41.771 66.4551C41.3584 66.2138 41.1306 65.7064 41.1291 65.0258C41.1281 64.5925 41.1857 64.336 41.3501 64.0406C41.6546 63.4939 42.3556 63.2504 42.9995 63.4679ZM50.6395 63.8419C50.403 63.8976 50.1085 64.0565 49.9442 64.2171C49.8536 64.3057 49.7795 64.393 49.7795 64.4111C49.7795 64.4292 49.7581 64.4654 49.7319 64.4915C49.7057 64.5176 49.6479 64.6504 49.6034 64.7865C49.3679 65.5066 49.6531 66.3226 50.2407 66.6095C50.4345 66.7042 50.9147 66.8203 51.1126 66.8203C51.3139 66.8203 51.7998 66.7019 51.9784 66.6093C52.1858 66.5019 52.463 66.207 52.5319 66.0204C52.5613 65.9408 52.5985 65.8584 52.6144 65.8374C52.6593 65.7782 52.6918 65.342 52.6694 65.0985C52.6354 64.7277 52.5284 64.4999 52.2627 64.2325C52.1354 64.1044 52.016 63.9997 51.9973 63.9997C51.9786 63.9997 51.902 63.9713 51.8271 63.9367C51.7522 63.9021 51.6258 63.8591 51.5463 63.8413C51.3723 63.8022 50.8064 63.8026 50.6395 63.8419ZM61.4915 64.5208C61.4977 65.2205 61.4711 65.9836 61.4233 66.4769L61.3993 66.7254H61.5429H61.6865L61.6727 65.595L61.6589 64.4647L61.7828 64.5949C61.8509 64.6665 62.1018 64.9328 62.3403 65.1866C62.5789 65.4404 62.8174 65.6932 62.8704 65.7485C62.9234 65.8037 63.068 65.9627 63.1916 66.1019C63.3153 66.241 63.469 66.413 63.5333 66.484C63.5975 66.5551 63.691 66.6601 63.7412 66.7174C63.7914 66.7747 63.8437 66.8216 63.8575 66.8216C63.8712 66.8216 63.8789 66.3779 63.8744 65.8356C63.8699 65.2932 63.8785 64.6253 63.8934 64.3513L63.9206 63.8531L63.7867 63.8658L63.6528 63.8786L63.6759 64.9653C63.6887 65.563 63.6882 66.052 63.6749 66.052C63.6474 66.052 63.4495 65.85 62.9186 65.2803C62.7154 65.0623 62.4468 64.7751 62.3217 64.6422C62.1966 64.5093 62.0289 64.3284 61.949 64.2402C61.8691 64.152 61.748 64.0185 61.6798 63.9436C61.6117 63.8686 61.54 63.8073 61.5205 63.8073C61.4956 63.8073 61.487 64.0189 61.4915 64.5208ZM45.041 65.2904V66.7254H45.191C45.2735 66.7254 45.361 66.7331 45.3855 66.7425C45.423 66.7568 45.4279 66.6536 45.4162 66.1012L45.4024 65.4427H45.6779C46.1463 65.4427 46.4509 65.347 46.6536 65.1362C46.8275 64.9553 46.8709 64.8433 46.8705 64.5769C46.87 64.2462 46.7787 64.0861 46.5145 63.9523L46.326 63.8568L45.6835 63.8561L45.041 63.8554V65.2904ZM47.3861 65.2984V66.7415L47.5789 66.742L47.7716 66.7425L47.7612 66.0926L47.7509 65.4427L48.0343 65.442C48.4743 65.4407 48.7582 65.3551 48.9871 65.1545C49.2615 64.914 49.3055 64.3441 49.0688 64.0968C48.8735 63.8929 48.746 63.8637 48.0286 63.8593L47.3861 63.8554V65.2984ZM53.265 65.2984V66.7415H53.459H53.6531L53.6398 66.06L53.6266 65.3786H53.7218C53.8164 65.3786 53.9484 65.5079 54.2127 65.8596C54.2569 65.9184 54.3187 65.9965 54.3501 66.0333C54.3815 66.07 54.4646 66.1795 54.5349 66.2765C54.6051 66.3735 54.6738 66.4673 54.6875 66.4849C54.7012 66.5026 54.7447 66.5628 54.7842 66.6188C54.8533 66.7166 54.8662 66.721 55.1105 66.731C55.3341 66.7402 55.3599 66.7356 55.3239 66.6934C55.1771 66.5212 54.923 66.209 54.8552 66.1176C54.811 66.058 54.7497 65.9792 54.7189 65.9425C54.3442 65.4956 54.2355 65.34 54.279 65.3125C54.3044 65.2965 54.3555 65.2832 54.3926 65.2829C54.5453 65.2818 54.9837 64.9814 54.9837 64.8779C54.9837 64.8564 55.0018 64.8328 55.0239 64.8254C55.052 64.8161 55.064 64.7264 55.064 64.5261C55.064 64.2569 55.0584 64.2332 54.9682 64.1206C54.9071 64.0444 54.8084 63.9751 54.6958 63.9295C54.5345 63.8642 54.4649 63.8579 53.8921 63.8567L53.265 63.8554V65.2984ZM55.4656 63.9938C55.4656 64.1102 55.4745 64.1298 55.5218 64.1167C55.5527 64.1081 55.7551 64.0914 55.9715 64.0796L56.3651 64.0582V65.3998V66.7415H56.5498H56.7345V65.4107V64.0798L57.12 64.0887C57.332 64.0936 57.5348 64.1039 57.5706 64.1116C57.6279 64.1239 57.6356 64.1095 57.6348 63.9905L57.634 63.8554H56.5498H55.4656L55.4656 63.9938ZM58.1396 64.8655C58.1385 65.4211 58.1511 65.9406 58.1675 66.0199C58.2665 66.4989 58.5781 66.735 59.2098 66.8098C59.4173 66.8343 59.8358 66.7497 60.0094 66.648C60.1739 66.5517 60.3339 66.3772 60.4009 66.221C60.4295 66.1545 60.4678 66.0714 60.4861 66.0363C60.5044 66.0013 60.5306 65.691 60.5443 65.3469C60.558 65.0028 60.5773 64.53 60.5872 64.2963L60.6051 63.8714H60.4768H60.3486L60.348 64.7773C60.3476 65.5574 60.3391 65.7153 60.2874 65.9141C60.1568 66.4161 59.9257 66.6028 59.433 66.6042C58.9659 66.6056 58.7479 66.4886 58.5863 66.1499L58.5014 65.9718V64.9136V63.8554H58.3214H58.1415L58.1396 64.8655ZM64.7015 65.2984V66.7415H64.8943H65.087V65.2984V63.8554H64.8943H64.7015V65.2984ZM65.585 63.9938C65.585 64.1103 65.5939 64.1297 65.6412 64.1164C65.6721 64.1076 65.8756 64.0906 66.0934 64.0784L66.4894 64.0564L66.4789 65.399L66.4684 66.7415H66.6611H66.8539L66.8442 65.4026L66.8346 64.0638L66.9888 64.0668C67.0736 64.0685 67.2768 64.0793 67.4402 64.0909L67.7373 64.1119V63.9836V63.8554H66.6611H65.585V63.9938ZM67.9718 63.9275C67.9899 63.9672 68.0168 63.9997 68.0316 63.9997C68.0464 63.9997 68.0586 64.0135 68.0586 64.0303C68.0586 64.0472 68.1965 64.2889 68.3651 64.5675C68.5337 64.846 68.6846 65.0956 68.7004 65.122C68.7161 65.1485 68.7825 65.2602 68.8479 65.3702L68.9668 65.5703L68.9516 66.1453L68.9365 66.7203L69.132 66.7321C69.2396 66.7387 69.3311 66.7423 69.3354 66.7402C69.3398 66.7381 69.3286 66.4792 69.3106 66.1648L69.2778 65.5933L69.3737 65.3978C69.4264 65.2902 69.5062 65.1445 69.5509 65.0739C69.5957 65.0034 69.642 64.924 69.6539 64.8976C69.6658 64.8711 69.7791 64.6907 69.9055 64.4967C70.032 64.3027 70.1628 64.0971 70.1962 64.0398C70.2296 63.9825 70.2667 63.9355 70.2787 63.9355C70.2907 63.9355 70.3073 63.9175 70.3157 63.8955C70.3268 63.8666 70.2847 63.8554 70.1655 63.8554H70L69.8133 64.2242C69.7106 64.427 69.5928 64.6507 69.5515 64.7212C69.5101 64.7918 69.4446 64.9072 69.4058 64.9777C69.2974 65.1747 69.2129 65.2848 69.1838 65.2669C69.1603 65.2524 68.5993 64.2505 68.4563 63.9676L68.3995 63.8554H68.1692C67.9421 63.8554 67.9394 63.8564 67.9718 63.9275ZM51.302 63.9688C51.8507 64.0479 52.1803 64.4182 52.2504 65.0342C52.3013 65.4813 52.2366 65.8912 52.0741 66.1506C51.8622 66.4892 51.5381 66.66 51.1061 66.6608C50.6235 66.6618 50.2684 66.4375 50.0614 66.0012C49.957 65.7812 49.9561 65.7756 49.9564 65.2984C49.9567 64.8244 49.9582 64.8143 50.059 64.6027C50.2276 64.2487 50.5242 64.0201 50.883 63.9677C50.974 63.9544 51.0556 63.942 51.0645 63.9402C51.0733 63.9383 51.1802 63.9512 51.302 63.9688ZM46.0925 64.0202C46.1595 64.0312 46.2624 64.0841 46.3259 64.1401C46.4693 64.2666 46.5169 64.4782 46.4664 64.7643C46.4312 64.964 46.3904 65.0255 46.1938 65.1752C46.0854 65.2577 46.0483 65.2661 45.7431 65.2774L45.4105 65.2897V64.6447V63.9997L45.6915 64C45.8462 64.0002 46.0266 64.0093 46.0925 64.0202ZM48.6462 64.1167C48.9186 64.3357 48.9208 64.843 48.6504 65.0969C48.4946 65.2432 48.3629 65.282 48.0206 65.2822L47.7556 65.2824V64.6371V63.9918L48.1402 64.0054C48.5115 64.0187 48.5291 64.0225 48.6462 64.1167ZM54.486 64.1099C54.6534 64.2373 54.7264 64.3723 54.7266 64.5541C54.7267 64.7234 54.6477 64.9028 54.522 65.0187C54.3994 65.1317 54.0817 65.2228 53.8491 65.2117L53.6505 65.2022L53.6417 64.6422C53.6368 64.3341 53.6407 64.0617 53.6503 64.0368C53.6643 64.0003 53.7361 63.9943 54.018 64.0059C54.3408 64.0192 54.3775 64.0274 54.486 64.1099Z" fill="#0F50A4"/>
<path fill-rule="evenodd" clip-rule="evenodd" d="M27.4719 34.3846C27.4645 34.3916 27.2633 34.4211 27.0248 34.4499C26.7863 34.4788 26.5333 34.5171 26.4626 34.5351C26.3919 34.5531 26.2112 34.596 26.061 34.6306C25.9109 34.6651 25.7591 34.7067 25.7237 34.7229C25.6884 34.7392 25.6233 34.7623 25.5792 34.7743C25.3721 34.8307 24.8814 35.035 24.4975 35.2247C24.0952 35.4236 23.9405 35.5119 23.6266 35.7225C23.551 35.7732 23.4751 35.8147 23.458 35.8147C23.4408 35.8147 23.4268 35.8267 23.4268 35.8414C23.4268 35.8561 23.3581 35.9131 23.2742 35.9681C23.1903 36.0231 23.0782 36.1051 23.0252 36.1502C22.5858 36.5239 22.2184 36.878 21.9753 37.1621C21.8925 37.2588 21.7949 37.3726 21.7584 37.415C21.7219 37.4574 21.692 37.5016 21.692 37.5132C21.692 37.5248 21.6668 37.5623 21.6358 37.5965C21.4602 37.7908 21.0902 38.3734 20.904 38.7489C20.8515 38.8548 20.8011 38.9486 20.7919 38.9574C20.7076 39.0386 20.3113 40.1497 20.2107 40.5872C19.9248 41.8299 19.93 43.1824 20.2252 44.3929C20.3214 44.7874 20.4381 45.1837 20.4707 45.2266C20.4841 45.2443 20.5133 45.3164 20.5355 45.387C20.5577 45.4575 20.5943 45.5513 20.6167 45.5954C20.6391 45.6395 20.7251 45.8199 20.8078 45.9963C20.8905 46.1726 21.0221 46.4221 21.1002 46.5506C21.1784 46.6791 21.2423 46.7969 21.2423 46.8125C21.2423 46.828 21.2538 46.8455 21.2678 46.8514C21.2818 46.8573 21.327 46.9173 21.3683 46.9848C21.4359 47.0954 21.7042 47.4477 21.9464 47.744C22.1271 47.9649 22.6687 48.4908 22.9568 48.7248C23.3288 49.0269 23.3402 49.0355 23.5714 49.1877C23.6774 49.2574 23.7786 49.326 23.7962 49.34C23.9785 49.485 25.0272 49.9903 25.3382 50.0831C25.4089 50.1042 25.4956 50.1345 25.531 50.1505C25.8138 50.2785 26.7562 50.4793 27.33 50.5338C27.5182 50.5516 29.9334 50.5648 33.1607 50.5656L38.6701 50.5669L38.1588 51.0555C36.9291 52.2306 35.2385 53.9539 34.3473 54.9408C34.2689 55.0276 34.1758 55.1283 34.1405 55.1644C34.1051 55.2006 34.0256 55.2897 33.9638 55.3625C33.8507 55.4957 33.4322 55.9755 33.3199 56.1008C33.2341 56.1966 32.6124 56.9513 32.5275 57.0627C32.4008 57.229 31.9369 57.8278 31.8921 57.8829C31.8681 57.9124 31.833 57.9653 31.8141 58.0006C31.7952 58.036 31.7614 58.084 31.7391 58.1074C31.5731 58.2813 30.5264 59.9817 30.5264 60.0775C30.5264 60.0881 30.4899 60.1695 30.4452 60.2582C30.4005 60.347 30.3696 60.4252 30.3764 60.4321C30.3833 60.4389 30.4885 60.3325 30.6103 60.1956C31.1369 59.6034 32.6354 58.1422 33.2877 57.5849C33.4193 57.4724 33.5619 57.3484 33.6044 57.3093C33.647 57.2702 33.8211 57.1259 33.9914 56.9887C34.1617 56.8516 34.3177 56.7248 34.3379 56.7071C34.3581 56.6894 34.4215 56.6388 34.4788 56.5947C34.536 56.5506 34.6279 56.4775 34.6829 56.4324C34.7997 56.3365 35.2018 56.0267 35.3152 55.9454C35.5913 55.7473 35.7509 55.6311 35.7789 55.6081C35.7965 55.5935 35.9049 55.5173 36.0198 55.4387C36.1346 55.3602 36.2358 55.2869 36.2447 55.2758C36.2535 55.2647 36.4053 55.1609 36.582 55.045C36.7587 54.9291 36.9207 54.8191 36.942 54.8006C36.9634 54.782 36.989 54.7668 36.999 54.7668C37.009 54.7668 37.0868 54.7199 37.1718 54.6626C37.2568 54.6053 37.4314 54.4934 37.5597 54.4141C37.688 54.3347 37.8386 54.2404 37.8942 54.2045C38.0751 54.0878 39.3022 53.4136 39.6981 53.2135C40.0453 53.0379 40.3047 52.9152 40.7904 52.6966C41.2504 52.4897 41.3242 52.4579 41.3459 52.4579C41.3589 52.4579 41.4199 52.4311 41.4815 52.3983C41.5431 52.3655 41.6296 52.3278 41.6738 52.3146C41.718 52.3013 41.7975 52.2708 41.8505 52.2468C41.9827 52.1868 42.7355 51.9212 42.9909 51.8443C43.1058 51.8098 43.2286 51.7688 43.264 51.7532C43.3708 51.7062 44.5667 51.385 44.9017 51.3134C45.3691 51.2134 45.9811 51.1077 46.5247 51.0328C47.0779 50.9566 47.6032 50.8521 47.7294 50.793C47.7647 50.7765 47.8711 50.7386 47.9659 50.7088C48.3163 50.5986 48.7343 50.318 49.034 49.9918C49.2532 49.7533 49.2688 49.7332 49.3367 49.6009C49.3675 49.5408 49.4024 49.4844 49.4142 49.4756C49.4473 49.4509 49.6268 49.0652 49.7189 48.8211C49.8155 48.5648 49.8745 48.3602 49.9787 47.9203C50.0204 47.744 50.0931 47.4409 50.1402 47.2469C50.1872 47.0529 50.2599 46.7499 50.3017 46.5735C50.3435 46.3971 50.4147 46.1013 50.46 45.9161C50.5052 45.7309 50.578 45.4315 50.6216 45.2507C50.6652 45.0699 50.7366 44.7741 50.7802 44.5933C50.8238 44.4125 50.8966 44.1131 50.9419 43.9279C51.0378 43.5353 51.1549 43.0494 51.2626 42.5971C51.3956 42.0381 51.4019 42.0362 51.4049 42.5557C51.4078 43.046 51.452 43.6059 51.5032 43.7996C51.5195 43.8613 51.5572 44.0489 51.5869 44.2165C51.6166 44.3841 51.6535 44.5349 51.6689 44.5516C51.6842 44.5684 51.6968 44.6091 51.6968 44.6422C51.6968 44.7488 52.0916 45.8362 52.1477 45.884C52.1581 45.8928 52.2345 46.0372 52.3176 46.2047C52.4007 46.3723 52.4865 46.5378 52.5084 46.5727C52.6717 46.8328 52.9306 47.2164 52.9682 47.254C52.9934 47.2791 53.014 47.3094 53.014 47.3213C53.014 47.3435 53.0594 47.4004 53.326 47.7119C53.5093 47.926 54.1409 48.5511 54.3306 48.706C54.4062 48.7677 54.5059 48.8508 54.5521 48.8906C54.5984 48.9304 54.6615 48.971 54.6924 48.9809C54.7234 48.9908 54.7487 49.0101 54.7487 49.0238C54.7487 49.0375 54.7993 49.0758 54.8611 49.1091C54.9229 49.1423 54.9735 49.1774 54.9735 49.187C54.9735 49.1966 55.0277 49.2329 55.094 49.2676C55.1603 49.3023 55.2217 49.3397 55.2305 49.3506C55.2394 49.3615 55.2972 49.3962 55.359 49.4275C55.4209 49.4589 55.4787 49.494 55.4875 49.5055C55.5299 49.5607 56.4972 50.0069 56.7083 50.0686C56.7525 50.0815 56.832 50.1111 56.885 50.1343C57.1033 50.2301 57.688 50.3716 58.427 50.5076C58.5616 50.5324 60.39 50.5468 64.4946 50.5555C70.1163 50.5674 70.3687 50.5655 70.353 50.5108C70.344 50.4794 69.9904 49.8332 69.5671 49.0748L68.7976 47.6959L66.1181 47.677C64.4496 47.6653 63.39 47.6457 63.31 47.6252C62.7942 47.4927 62.6363 47.4443 62.4029 47.3471C62.1203 47.2294 61.7774 47.0467 61.5871 46.9124C61.5229 46.8671 61.4374 46.8084 61.3971 46.7819C61.22 46.6656 60.8073 46.2709 60.5925 46.0123C60.3129 45.6757 60.1601 45.414 59.8529 44.7456C59.8038 44.6388 59.6915 44.2472 59.6369 43.992C59.5617 43.6413 59.562 41.3324 59.6373 40.9776C59.6977 40.6928 59.8186 40.2711 59.8531 40.2248C59.8666 40.2067 59.9036 40.1217 59.9355 40.0357C60.0003 39.8607 60.2493 39.404 60.3518 39.272C60.3886 39.2246 60.469 39.1164 60.5305 39.0315C60.678 38.8277 61.1864 38.3251 61.3674 38.2039C61.4464 38.151 61.5182 38.0992 61.527 38.0887C61.6104 37.99 62.3373 37.6198 62.6193 37.5324C62.7165 37.5023 62.8249 37.4653 62.8602 37.4502C62.9526 37.4107 63.1951 37.3632 63.592 37.3069C63.8785 37.2663 64.3565 37.2578 66.3557 37.2578C69.0778 37.2578 68.7973 37.2857 68.9389 37.0005C68.9781 36.9215 69.0527 36.7848 69.1048 36.6966C69.1569 36.6084 69.2604 36.4208 69.3347 36.2797C69.409 36.1386 69.497 35.9849 69.5301 35.9381C69.5633 35.8912 69.5904 35.8381 69.5904 35.8201C69.5904 35.802 69.6085 35.7682 69.6306 35.7448C69.6527 35.7216 69.7028 35.6375 69.742 35.5582C69.7812 35.4788 69.8566 35.3417 69.9095 35.2535C69.9625 35.1653 70.0259 35.0499 70.0505 34.997C70.0751 34.9441 70.1623 34.7877 70.2444 34.6496C70.3264 34.5115 70.3935 34.3924 70.3935 34.385C70.3935 34.3777 67.8312 34.3718 64.6994 34.3719C59.1577 34.3721 58.9919 34.3738 58.5073 34.4373C57.8695 34.5209 56.9767 34.7362 56.6601 34.8828C56.6248 34.8991 56.4563 34.9706 56.2858 35.0417C56.1152 35.1128 55.9273 35.1978 55.8682 35.2307C55.809 35.2635 55.6666 35.3397 55.5518 35.4C55.4369 35.4602 55.3285 35.5209 55.3109 35.535C55.2932 35.549 55.1848 35.62 55.0699 35.6927C54.9551 35.7654 54.8232 35.8551 54.7768 35.892C54.7304 35.9289 54.6517 35.9879 54.6017 36.0232C54.0083 36.4424 53.1883 37.3157 52.7501 37.9953C52.497 38.3878 52.4575 38.456 52.2709 38.8211C52.1784 39.0019 52.0932 39.1498 52.0814 39.1498C52.0612 39.1498 51.5499 39.534 51.3503 39.6991C51.2998 39.7409 51.2098 39.8112 51.1503 39.8553C51.0908 39.8994 50.9098 40.0437 50.7481 40.176C50.5864 40.3082 50.4061 40.4525 50.3475 40.4966C50.2889 40.5407 50.1079 40.685 49.9453 40.8173C49.7827 40.9496 49.6007 41.0963 49.5408 41.1432C49.481 41.1902 49.3958 41.2596 49.3517 41.2975C49.1694 41.4538 48.9721 41.6155 48.3719 42.1004C47.701 42.6424 47.6634 42.6731 47.5622 42.7624C47.3959 42.9092 47.3448 42.9519 47.0869 43.1595C46.8192 43.3751 46.74 43.4411 46.5883 43.5751C46.5384 43.6192 46.4755 43.6732 46.4485 43.6951C46.2745 43.8364 45.9199 44.1315 45.8661 44.1798C45.8308 44.2115 45.6573 44.3574 45.4806 44.5039C45.3039 44.6504 45.1521 44.7807 45.1433 44.7933C45.1345 44.806 45.0405 44.8862 44.9345 44.9717C44.8285 45.0572 44.7258 45.1423 44.7063 45.1609C44.6485 45.2159 44.3487 45.4732 43.9547 45.8062C43.7515 45.9778 43.578 46.1279 43.5692 46.1397C43.5603 46.1514 43.4375 46.2608 43.2961 46.3827C43.0333 46.6092 42.9884 46.6483 42.6536 46.9418C42.5476 47.0347 42.3682 47.1919 42.255 47.2911C42.1417 47.3902 42.0029 47.5147 41.9464 47.5676C41.8899 47.6205 41.737 47.7576 41.6065 47.8722C41.476 47.9869 41.3317 48.1168 41.2857 48.1608C41.2397 48.2049 41.0896 48.3413 40.9521 48.4639C40.8146 48.5865 40.663 48.7236 40.6151 48.7685C40.5673 48.8135 40.456 48.9152 40.3678 48.9946C40.0465 49.2837 39.436 49.8508 39.1688 50.1084C38.9557 50.3139 38.8879 50.3628 38.8629 50.3291C38.8452 50.3054 38.5055 49.6998 38.1079 48.9835L37.3851 47.6809L34.8312 47.6786C32.8804 47.6769 32.2165 47.6664 32.0202 47.6341C31.735 47.5873 31.2349 47.4613 31.185 47.4238C31.1673 47.4105 31.095 47.3812 31.0244 47.3589C30.9537 47.3365 30.7801 47.258 30.6385 47.1845C30.0694 46.8891 29.5285 46.4451 29.1611 45.9719C29.1434 45.9492 29.0846 45.8732 29.0302 45.8031C28.9349 45.68 28.631 45.1945 28.631 45.1653C28.631 45.1574 28.5891 45.0598 28.5378 44.9483C28.4865 44.8368 28.4261 44.6807 28.4036 44.6013C28.3812 44.5219 28.3526 44.4426 28.3402 44.4249C28.3277 44.4073 28.293 44.2558 28.2632 44.0882C28.2333 43.9207 28.1954 43.7231 28.179 43.6491C28.1382 43.465 28.1411 41.5469 28.1826 41.3117C28.266 40.8397 28.3207 40.5743 28.3409 40.5447C28.3529 40.5271 28.3813 40.4477 28.4039 40.3684C28.5585 39.8247 29.0519 39.0339 29.5125 38.5916C30.2224 37.9098 31.0401 37.4935 31.9881 37.3311C32.2664 37.2835 32.6499 37.2738 34.8596 37.2589L37.4099 37.2417L37.5684 36.9371C37.6557 36.7695 37.7675 36.5667 37.8169 36.4864C37.8664 36.4061 37.9169 36.3087 37.9292 36.2699C37.9415 36.2312 37.9636 36.1995 37.9781 36.1995C37.9927 36.1995 38.0292 36.1383 38.0592 36.0633C38.0892 35.9884 38.1233 35.9199 38.1349 35.911C38.1619 35.8905 38.213 35.8003 38.3892 35.462C38.5138 35.2228 38.5896 35.0886 38.7424 34.8367C38.7732 34.7858 38.8969 34.5452 38.969 34.3957C38.9807 34.3716 27.497 34.3604 27.4719 34.3846Z" fill="#0F50A4"/>
<path fill-rule="evenodd" clip-rule="evenodd" d="M47.8256 24.0162C47.4811 24.054 47.2258 24.104 46.9743 24.1827C46.4044 24.3611 45.7144 24.7375 45.3681 25.0591C44.9253 25.4702 44.8863 25.5109 44.6289 25.8314C44.4347 26.0732 44.1009 26.6847 44.0183 26.9499C43.9963 27.0205 43.9677 27.0926 43.9548 27.1103C43.9419 27.1279 43.8895 27.3083 43.8385 27.5111C43.7503 27.862 43.7458 27.9141 43.7458 28.5854C43.7458 29.2151 43.7537 29.3219 43.8193 29.5795C44.0534 30.4982 44.4393 31.1948 45.0629 31.8239C45.1888 31.9509 45.5206 32.233 45.5882 32.2705C45.6173 32.2866 45.6484 32.3086 45.6572 32.3193C45.666 32.33 45.7094 32.3617 45.7536 32.3896C45.8274 32.4363 45.8573 32.4355 46.123 32.3792C46.282 32.3455 46.6217 32.2906 46.8779 32.2572C47.1341 32.2237 47.416 32.1813 47.5044 32.1629C47.5927 32.1446 47.8168 32.1004 48.0023 32.0647C48.5165 31.9657 49.2791 31.7776 49.6889 31.6486C50.2453 31.4735 51.2265 31.1282 51.4277 31.0367C51.503 31.0025 51.5748 30.9744 51.5872 30.9744C51.6475 30.9744 52.4245 30.6051 52.4578 30.5606C52.5127 30.4872 52.7118 29.9128 52.7868 29.6116C52.9959 28.7712 52.922 27.7402 52.593 26.9106C52.4942 26.6615 52.2082 26.1045 52.1316 26.0122C52.1059 25.9812 52.0429 25.9022 51.9915 25.8366C51.9401 25.771 51.8882 25.7273 51.876 25.7394C51.8639 25.7515 51.862 25.7403 51.8719 25.7144C51.8959 25.6517 51.2182 24.9863 51.0256 24.8835C50.9895 24.8641 50.9217 24.813 50.875 24.7698C50.8283 24.7265 50.7591 24.6816 50.7213 24.6698C50.6835 24.658 50.6454 24.6377 50.6366 24.6247C50.6011 24.5723 50.09 24.336 49.8334 24.2534C49.6833 24.2051 49.5315 24.1536 49.4961 24.1391C49.2505 24.038 48.278 23.9665 47.8256 24.0162ZM62.2889 25.4423C62.2105 25.5404 61.9357 25.8395 61.6394 26.1494C61.5864 26.2048 61.4981 26.2994 61.4432 26.3596C61.3883 26.4197 61.2401 26.5679 61.1139 26.6889C60.9877 26.8098 60.8844 26.9216 60.8844 26.9374C60.8844 26.9531 60.8705 26.966 60.8535 26.966C60.8364 26.966 60.6927 27.0922 60.5341 27.2466C60.3754 27.4009 60.1483 27.6137 60.0293 27.7196C59.9103 27.8254 59.7469 27.9712 59.6661 28.0436C59.4358 28.2499 58.9065 28.7053 58.7941 28.7938C58.7381 28.8379 58.6543 28.9055 58.6078 28.9439C58.4015 29.1146 58.0925 29.3604 58.0103 29.4191C57.9609 29.4544 57.8581 29.5338 57.7818 29.5955C57.523 29.8049 56.7171 30.3906 56.5243 30.5095C56.4117 30.5789 56.359 30.6346 56.3775 30.6644C56.3882 30.6817 56.3813 30.6861 56.3623 30.6744C56.3433 30.6627 56.1958 30.7435 56.0344 30.8539C55.873 30.9643 55.702 31.0763 55.6543 31.1028C55.6067 31.1293 55.5222 31.1834 55.4664 31.223C55.4107 31.2627 55.3505 31.2951 55.3326 31.2951C55.3147 31.2951 55.2952 31.3065 55.2893 31.3204C55.2834 31.3342 55.163 31.413 55.0216 31.4954C54.8803 31.5777 54.7502 31.6573 54.7325 31.6721C54.7148 31.687 54.4113 31.8584 54.0579 32.0529C53.1052 32.5775 52.7757 32.7391 51.4879 33.3133C51.4172 33.3448 51.2365 33.4176 51.0863 33.4751C50.9361 33.5325 50.7699 33.5974 50.7169 33.6192C50.5139 33.7027 49.6727 33.9889 49.3194 34.0946C48.6859 34.2842 48.4193 34.353 47.5686 34.5465C47.3273 34.6015 46.7335 34.6974 46.144 34.7766C45.9436 34.8036 45.7195 34.8384 45.6461 34.8541C45.2403 34.9404 44.9379 35.0174 44.9061 35.0424C44.8863 35.058 44.8123 35.089 44.7416 35.1114C44.5953 35.1577 44.3484 35.289 44.1262 35.4386C43.9714 35.543 43.5369 35.9649 43.5369 36.0111C43.5369 36.0251 43.5162 36.0573 43.4909 36.0825C43.4279 36.1454 43.1458 36.6942 43.0754 36.891C43.0438 36.9791 43.0051 37.0802 42.9893 37.1154C42.9565 37.189 42.8601 37.5487 42.7486 38.0133C42.7062 38.1897 42.6345 38.4855 42.5893 38.6707C42.4556 39.2175 42.3095 39.8249 42.1072 40.675C42.0652 40.8513 41.9922 41.1544 41.945 41.3484C41.8977 41.5424 41.8257 41.8382 41.785 42.0058C41.7443 42.1733 41.6722 42.4692 41.6248 42.6632C41.5317 43.0445 41.3974 43.6142 41.292 44.0742C41.2557 44.2329 41.2112 44.4133 41.193 44.475C41.1749 44.5367 41.1023 44.8326 41.0317 45.1324C40.9611 45.4322 40.8903 45.7208 40.8743 45.7738C40.8051 46.0027 40.67 46.6264 40.6861 46.6426C40.6959 46.6523 40.7305 46.6386 40.7631 46.6122C40.7957 46.5857 40.9886 46.4298 41.1918 46.2657C41.395 46.1016 41.5829 45.9497 41.6094 45.9281C41.6546 45.8914 41.8916 45.7054 42.1736 45.4851C42.2414 45.4322 42.386 45.3168 42.495 45.2286C42.6039 45.1404 42.7482 45.025 42.8156 44.9721C42.8829 44.9191 42.9752 44.8441 43.0207 44.8053C43.0661 44.7665 43.1906 44.6655 43.2974 44.5808C43.4041 44.4962 43.5126 44.4089 43.5383 44.3869C43.6224 44.3152 44.1173 43.9158 44.2257 43.8322C44.2839 43.7872 44.3531 43.7295 44.3795 43.7039C44.4059 43.6782 44.4765 43.6183 44.5364 43.5707C44.7092 43.4334 45.4516 42.8201 45.7857 42.5387C45.9535 42.3973 46.1053 42.2704 46.123 42.2567C46.2328 42.1715 47.0176 41.5135 47.1681 41.3805C47.2678 41.2923 47.3843 41.1926 47.4269 41.1589C47.4953 41.1049 47.6147 41.0042 47.8256 40.8226C47.861 40.7922 47.9911 40.6831 48.1148 40.5801C48.2384 40.4772 48.3758 40.3591 48.4199 40.3177C48.4641 40.2763 48.5364 40.2123 48.5806 40.1755C48.7708 40.0172 49.2491 39.6034 49.4223 39.4473C49.5258 39.3541 49.641 39.253 49.6785 39.2228C49.7159 39.1925 49.8131 39.1084 49.8944 39.0359C49.9757 38.9633 50.129 38.8278 50.235 38.7346C50.9534 38.1033 51.1911 37.8907 51.278 37.8021C51.3228 37.7565 51.4461 37.6464 51.5521 37.5575C51.6581 37.4685 51.8197 37.3254 51.9111 37.2395C52.0026 37.1537 52.1665 37.004 52.2754 36.907C52.3843 36.81 52.5432 36.6657 52.6286 36.5863C52.7139 36.5069 52.9403 36.2978 53.1317 36.1215C53.3231 35.9452 53.6097 35.6763 53.7688 35.5238C53.9278 35.3715 54.1647 35.1477 54.2952 35.0267C54.9447 34.4243 56.1945 33.1809 57.4172 31.9204C57.4522 31.8844 57.6119 31.7161 57.9489 31.3603C58.1956 31.0998 58.8313 30.4017 58.9192 30.2948C58.9828 30.2174 59.0865 30.0974 59.4272 29.7069C59.5661 29.5477 59.8243 29.2375 60.001 29.0175C60.1776 28.7974 60.3299 28.6102 60.3393 28.6014C60.3488 28.5926 60.4131 28.506 60.4824 28.409C60.5516 28.312 60.6415 28.1982 60.6821 28.1561C60.7227 28.114 60.7559 28.0682 60.7559 28.0542C60.7559 28.0402 60.774 28.0093 60.7961 27.9856C60.8671 27.9093 61.0269 27.6928 61.1582 27.4951C61.2285 27.3893 61.294 27.2955 61.3038 27.2866C61.3294 27.2636 61.6138 26.817 61.7886 26.5254C61.9766 26.2119 62.3701 25.4588 62.3459 25.4588C62.3359 25.4588 62.3433 25.4299 62.3622 25.3946C62.4122 25.3013 62.3901 25.3156 62.2889 25.4423Z" fill="#ED1E26"/>
</svg>
