<svg width="20" height="20" viewBox="0 0 20 20" fill="none" xmlns="http://www.w3.org/2000/svg">
<path d="M10 0C4.48578 0 0 4.48578 0 10C0 15.5142 4.48578 20 10 20C15.5142 20 20 15.5142 20 10C20 4.48578 15.5142 0 10 0Z" fill="#F44336"/>
<path d="M13.6827 12.5052C14.0085 12.8312 14.0085 13.3577 13.6827 13.6837C13.5202 13.8462 13.3069 13.9278 13.0934 13.9278C12.8801 13.9278 12.6668 13.8462 12.5042 13.6837L10.0001 11.1794L7.49601 13.6837C7.3335 13.8462 7.12019 13.9278 6.90687 13.9278C6.6934 13.9278 6.48008 13.8462 6.31757 13.6837C5.9918 13.3577 5.9918 12.8312 6.31757 12.5052L8.82185 10.0011L6.31757 7.49699C5.9918 7.17106 5.9918 6.64448 6.31757 6.31855C6.6435 5.99277 7.17008 5.99277 7.49601 6.31855L10.0001 8.82282L12.5042 6.31855C12.8302 5.99277 13.3568 5.99277 13.6827 6.31855C14.0085 6.64448 14.0085 7.17106 13.6827 7.49699L11.1784 10.0011L13.6827 12.5052Z" fill="#FAFAFA"/>
</svg>
